<svg width="32" height="32" viewBox="0 0 32 32" fill="none" xmlns="http://www.w3.org/2000/svg">
<path d="M16.8648 6.02545C17.2053 5.13703 17.8009 4.37336 18.574 3.83378C19.347 3.2942 20.2619 3.00368 21.1995 3C21.4461 3 21.6826 3.09961 21.8569 3.27692C22.0313 3.45422 22.1292 3.6947 22.1292 3.94545C22.1292 4.1962 22.0313 4.43668 21.8569 4.61399C21.6826 4.7913 21.4461 4.89091 21.1995 4.89091C20.6359 4.89269 20.086 5.06735 19.6216 5.39206C19.1571 5.71676 18.7998 6.17641 18.5964 6.71091C18.5282 6.88928 18.4083 7.0424 18.2527 7.15002C18.097 7.25764 17.913 7.31469 17.7248 7.31364C17.6139 7.31121 17.5042 7.29128 17.3994 7.25455C17.2845 7.21007 17.1795 7.14289 17.0903 7.05687C17.0012 6.97085 16.9297 6.86771 16.8799 6.75341C16.8302 6.63911 16.8033 6.51593 16.8007 6.39098C16.7981 6.26602 16.8199 6.14179 16.8648 6.02545ZM27.4751 20.94C26.7321 20.5605 26.1028 19.9853 25.6528 19.2744C25.2027 18.5634 24.9485 17.7427 24.9164 16.8978C24.8844 16.053 25.0757 15.2148 25.4706 14.4707C25.8654 13.7266 26.4493 13.1038 27.1613 12.6673C27.2718 12.596 27.3667 12.5023 27.44 12.3921C27.5134 12.2818 27.5636 12.1574 27.5876 12.0266C27.6116 11.8958 27.6088 11.7613 27.5794 11.6316C27.5501 11.5019 27.4948 11.3797 27.4169 11.2727C26.1537 9.63597 24.3154 8.56127 22.2888 8.27473C20.2623 7.98819 18.2054 8.51215 16.551 9.73636C15.3721 8.86427 13.9789 8.34083 12.5255 8.22394C11.0722 8.10705 9.61543 8.40128 8.31632 9.07407C7.01722 9.74685 5.92645 10.772 5.16467 12.036C4.40289 13.3001 3.99981 14.7538 4 16.2364C4.02797 19.3533 4.95316 22.3936 6.66128 24.9818C8.33475 27.4991 10.4615 29 12.3673 29H20.7347C23.3495 29 26.3013 26.1755 27.9283 22.1455C28.0199 21.9238 28.0239 21.6748 27.9395 21.4503C27.855 21.2257 27.6887 21.0429 27.4751 20.94Z" fill="white"/>
</svg>
