<svg width="29" height="31" viewBox="0 0 29 31" fill="none" xmlns="http://www.w3.org/2000/svg">
<path d="M15.545 3.60727C15.9564 2.54799 16.676 1.63747 17.6102 0.994124C18.5443 0.35078 19.6498 0.00438802 20.7828 0C21.0807 0 21.3665 0.118766 21.5771 0.330171C21.7878 0.541575 21.9062 0.828301 21.9062 1.12727C21.9062 1.42624 21.7878 1.71297 21.5771 1.92437C21.3665 2.13578 21.0807 2.25455 20.7828 2.25455C20.1018 2.25667 19.4372 2.46492 18.876 2.85207C18.3149 3.23922 17.8831 3.78725 17.6373 4.42455C17.5548 4.63722 17.41 4.81978 17.222 4.9481C17.0339 5.07641 16.8115 5.14444 16.5841 5.14318C16.4502 5.14029 16.3175 5.11652 16.1909 5.07273C16.0521 5.0197 15.9252 4.9396 15.8175 4.83704C15.7097 4.73448 15.6233 4.6115 15.5633 4.47522C15.5032 4.33894 15.4706 4.19207 15.4675 4.04309C15.4644 3.89411 15.4907 3.74598 15.545 3.60727ZM28.3657 21.39C27.4679 20.9375 26.7075 20.2517 26.1638 19.404C25.62 18.5564 25.3127 17.5779 25.274 16.5705C25.2353 15.5631 25.4665 14.5638 25.9436 13.6766C26.4207 12.7894 27.1262 12.0469 27.9865 11.5264C28.1201 11.4414 28.2347 11.3297 28.3234 11.1982C28.412 11.0668 28.4727 10.9185 28.5017 10.7625C28.5306 10.6065 28.5273 10.4462 28.4918 10.2915C28.4563 10.1369 28.3895 9.99122 28.2955 9.86364C26.769 7.91212 24.5478 6.63075 22.099 6.28911C19.6503 5.94746 17.1649 6.57217 15.1658 8.03182C13.7412 6.99202 12.0578 6.36791 10.3017 6.22855C8.5456 6.08918 6.78531 6.43999 5.21556 7.24216C3.64581 8.04432 2.32779 9.26659 1.40731 10.7737C0.486829 12.2809 -0.000235451 14.0142 8.53856e-08 15.7818C0.0337992 19.4982 1.15173 23.1232 3.21571 26.2091C5.23782 29.2105 7.80759 31 10.1105 31H20.2211C23.3806 31 26.9474 27.6323 28.9133 22.8273C29.024 22.563 29.0289 22.2661 28.9268 21.9984C28.8248 21.7307 28.6238 21.5127 28.3657 21.39Z" fill="#232323"/>
</svg>
