<svg width="40" height="40" viewBox="0 0 40 40" fill="none" xmlns="http://www.w3.org/2000/svg">
<path d="M19.7218 39.3679C30.465 39.3679 39.174 30.6588 39.174 19.9156C39.174 9.17245 30.465 0.463379 19.7218 0.463379C8.9786 0.463379 0.269531 9.17245 0.269531 19.9156C0.269531 30.6588 8.9786 39.3679 19.7218 39.3679Z" fill="#E84142"/>
<path fill-rule="evenodd" clip-rule="evenodd" d="M14.2749 28.1222H10.5935C9.82029 28.1222 9.43854 28.1222 9.20511 27.9727C9.08213 27.8924 8.97975 27.7843 8.90625 27.6572C8.83275 27.5301 8.7902 27.3874 8.78203 27.2408C8.76744 26.966 8.95831 26.6292 9.34128 25.9581L18.4255 9.91855C18.8121 9.23772 19.009 8.89731 19.2546 8.77087C19.3861 8.70403 19.5315 8.66919 19.6789 8.66919C19.8264 8.66919 19.9718 8.70403 20.1032 8.77087C20.35 8.89731 20.5458 9.23772 20.9324 9.91855L22.7998 13.1841L22.8095 13.2011C23.2265 13.9306 23.4381 14.3026 23.5305 14.6916C23.6338 15.1175 23.6338 15.5618 23.5305 15.9877C23.4381 16.3803 23.2278 16.7536 22.8047 17.4952L18.0316 25.9448L18.0194 25.9654C17.5988 26.7022 17.3872 27.0754 17.0906 27.3575C16.7713 27.6632 16.3837 27.8883 15.9599 28.014C15.5721 28.1222 15.1405 28.1222 14.2749 28.1222ZM23.567 28.1222H28.8385C29.6166 28.1222 30.0081 28.1222 30.2415 27.969C30.3654 27.8883 30.4684 27.7793 30.542 27.651C30.6155 27.5227 30.6576 27.3788 30.6646 27.2311C30.678 26.9648 30.492 26.6426 30.126 26.0092L30.0871 25.9436L27.4465 21.4185L27.4161 21.3674C27.0453 20.7389 26.8568 20.4215 26.6173 20.2988C26.4869 20.2322 26.3425 20.1974 26.196 20.1974C26.0496 20.1974 25.9052 20.2322 25.7748 20.2988C25.5316 20.4252 25.3371 20.7571 24.9505 21.4233L22.3184 25.9484L22.3099 25.9642C21.9245 26.6305 21.7311 26.9624 21.7457 27.2359C21.7538 27.3832 21.7963 27.5266 21.8698 27.6545C21.9432 27.7825 22.0457 27.8914 22.1688 27.9727C22.3974 28.1222 22.7889 28.1222 23.567 28.1222Z" fill="white"/>
</svg>
