<svg width="213" height="476" viewBox="0 0 213 476" fill="none" xmlns="http://www.w3.org/2000/svg">
<path d="M14.0733 328.622H13.1261C10.3825 328.622 8.13672 326.377 8.13672 323.631V261.989C8.13672 259.245 10.3825 256.999 13.1261 256.999H14.0733C16.8169 256.999 19.0627 259.244 19.0627 261.989V323.631C19.0627 326.375 16.8169 328.622 14.0733 328.622Z" fill="#000F18"/>
<path d="M207.815 394.086H206.868C204.125 394.086 201.879 391.841 201.879 389.096V353.103C201.879 350.359 204.123 348.112 206.868 348.112H207.815C210.559 348.112 212.805 350.359 212.805 353.103V389.096C212.804 391.841 210.559 394.086 207.815 394.086Z" fill="#000F18"/>
<path d="M146.827 461.06H145.88C143.136 461.06 140.891 458.815 140.891 456.07V418.035C140.891 415.29 143.136 413.044 145.88 413.044H146.827C149.571 413.044 151.817 415.289 151.817 418.035V456.07C151.817 458.815 149.572 461.06 146.827 461.06Z" fill="#000F18"/>
<path d="M48.8702 475.856H47.923C45.1794 475.856 42.9336 473.611 42.9336 470.866V428.824C42.9336 426.08 45.1794 423.834 47.923 423.834H48.8702C51.6138 423.834 53.8596 426.079 53.8596 428.824V470.866C53.8596 473.61 51.6138 475.856 48.8702 475.856Z" fill="#000F18"/>
<path d="M48.8702 377.332H47.923C45.1794 377.332 42.9336 375.087 42.9336 372.341V337.714C42.9336 334.97 45.1794 332.724 47.923 332.724H48.8702C51.6138 332.724 53.8596 334.97 53.8596 337.714V372.34C53.8596 375.086 51.6138 377.332 48.8702 377.332Z" fill="#000F18"/>
<path d="M179.093 337.036H178.146C175.402 337.036 173.156 334.79 173.156 332.046V309.294C173.156 306.55 175.402 304.304 178.146 304.304H179.093C181.836 304.304 184.082 306.549 184.082 309.294V332.046C184.082 334.79 181.838 337.036 179.093 337.036Z" fill="#000F18"/>
<path d="M201.972 177.871H201.025C198.269 177.871 196.035 175.636 196.035 172.88V170.715C196.035 167.959 198.269 165.725 201.025 165.725H201.972C204.727 165.725 206.961 167.959 206.961 170.715V172.88C206.961 175.636 204.727 177.871 201.972 177.871Z" fill="#000F18"/>
<path d="M201.549 133.583L202.495 133.61C205.237 133.691 207.417 136.002 207.336 138.745L206.988 150.589C206.907 153.333 204.597 155.511 201.855 155.43L200.909 155.403C198.167 155.322 195.988 153.012 196.069 150.269L196.416 138.424C196.497 135.682 198.807 133.502 201.549 133.583Z" fill="#000F18"/>
<path d="M14.0733 366.897H13.1261C10.3825 366.897 8.13672 364.651 8.13672 361.906V350.057C8.13672 347.313 10.3825 345.066 13.1261 345.066H14.0733C16.8169 345.066 19.0627 347.311 19.0627 350.057V361.906C19.0627 364.652 16.8169 366.897 14.0733 366.897Z" fill="#000F18"/>
<path d="M146.827 385.856H145.88C143.136 385.856 140.891 383.611 140.891 380.865V358.114C140.891 355.37 143.136 353.123 145.88 353.123H146.827C149.571 353.123 151.817 355.37 151.817 358.114V380.865C151.817 383.611 149.572 385.856 146.827 385.856Z" fill="#000F18"/>
<path d="M6.3819 42.4691H5.43471C2.69113 42.4691 0.445312 40.2228 0.445312 37.4787V0H11.37V37.4787C11.37 40.2228 9.12548 42.4691 6.3819 42.4691Z" fill="#000F18"/>
<path d="M200.12 107.935H199.173C196.429 107.935 194.184 105.69 194.184 102.944V66.9514C194.184 64.2072 196.429 61.9609 199.173 61.9609H200.12C202.864 61.9609 205.11 64.2059 205.11 66.9514V102.944C205.108 105.69 202.864 107.935 200.12 107.935Z" fill="#000F18"/>
<path d="M80.0616 70.1733H79.1144C76.3708 70.1733 74.125 67.9283 74.125 65.1829V23.1411C74.125 20.3969 76.3708 18.1506 79.1144 18.1506H80.0616C82.8052 18.1506 85.051 20.3969 85.051 23.1411V65.1829C85.051 67.9283 82.8065 70.1733 80.0616 70.1733Z" fill="#000F18"/>
<path d="M41.1788 107.196H40.2316C37.488 107.196 35.2422 104.951 35.2422 102.205V67.5793C35.2422 64.8352 37.4867 62.5889 40.2316 62.5889H41.1788C43.9224 62.5889 46.1682 64.8338 46.1682 67.5793V102.205C46.1682 104.951 43.9224 107.196 41.1788 107.196Z" fill="#000F18"/>
<path d="M171.409 50.8832H170.462C167.718 50.8832 165.473 48.6369 165.473 45.8928V23.1411C165.473 20.3969 167.718 18.1506 170.462 18.1506H171.409C174.153 18.1506 176.399 20.3969 176.399 23.1411V45.8928C176.399 48.6382 174.154 50.8832 171.409 50.8832Z" fill="#000F18"/>
<path d="M6.3819 80.7445H5.43471C2.69113 80.7445 0.445312 78.4982 0.445312 75.754V63.9045C0.445312 61.1604 2.69113 58.9141 5.43471 58.9141H6.3819C9.12548 58.9141 11.3713 61.159 11.3713 63.9045V75.754C11.37 78.4982 9.12548 80.7445 6.3819 80.7445Z" fill="#000F18"/>
<path d="M139.14 99.7045H138.193C135.449 99.7045 133.203 97.4595 133.203 94.7141V71.9624C133.203 69.2182 135.449 66.9719 138.193 66.9719H139.14C141.883 66.9719 144.129 69.2169 144.129 71.9624V94.7141C144.129 97.4582 141.885 99.7045 139.14 99.7045Z" fill="#000F18"/>
</svg>
