<svg width="27" height="24" viewBox="0 0 27 24" fill="none" xmlns="http://www.w3.org/2000/svg">
<path fill-rule="evenodd" clip-rule="evenodd" d="M5.06975 0.118187L0.205406 10.3337C0.185955 10.3707 0.179255 10.4131 0.186346 10.4543C0.193437 10.4955 0.213923 10.5332 0.244627 10.5616L13.3756 23.1504C13.4133 23.1844 13.4624 23.2033 13.5133 23.2033C13.5641 23.2033 13.6132 23.1844 13.651 23.1504L26.7897 10.5616C26.8201 10.533 26.8404 10.4953 26.8475 10.4542C26.8546 10.4131 26.8481 10.3708 26.829 10.3337L21.9646 0.118187C21.9517 0.0826552 21.9279 0.0521089 21.8966 0.0309024C21.8653 0.00969588 21.8281 -0.0010884 21.7903 8.6793e-05H5.24232C5.20503 0.00110728 5.16881 0.0127668 5.13792 0.0336911C5.10704 0.0546155 5.08278 0.0839326 5.068 0.118187H5.06975Z" fill="#50AF95"/>
<path fill-rule="evenodd" clip-rule="evenodd" d="M15.2063 11.3787C15.1122 11.3865 14.6249 11.4179 13.5402 11.4179C12.6761 11.4179 12.0629 11.3944 11.8428 11.3787C8.50333 11.2297 6.01233 10.6479 6.01233 9.95627C6.01233 9.26466 8.50333 8.67547 11.8428 8.52643V10.7974C12.0607 10.813 12.6839 10.8523 13.5481 10.8523C14.5853 10.8523 15.1039 10.8052 15.1984 10.7974V8.52643C18.5301 8.67547 21.0211 9.25726 21.0211 9.94843C21.0211 10.6396 18.5371 11.2297 15.2063 11.3787ZM15.2063 8.29851V6.26291H19.8584V3.15918H7.19116V6.26291H11.8428V8.29851C8.06318 8.47282 5.21875 9.2176 5.21875 10.1214C5.21875 11.0253 8.06318 11.7639 11.8428 11.9444V18.4591H15.2063V11.9444C18.9781 11.77 21.8151 11.0248 21.8151 10.1293C21.8151 9.23372 18.9781 8.47108 15.2063 8.29894V8.29851Z" fill="white"/>
</svg>
