<svg width="32" height="32" viewBox="0 0 32 32" fill="none" xmlns="http://www.w3.org/2000/svg">
<path d="M22.34 2.66699H9.66C8.11467 2.66699 7.34267 2.66699 6.71867 2.88433C6.13057 3.09329 5.59847 3.43481 5.16356 3.88244C4.72865 4.33007 4.4026 4.87179 4.21067 5.46566C4 6.10833 4 6.90299 4 8.49366V27.1657C4 28.3097 5.31333 28.9177 6.144 28.1577C6.37705 27.9423 6.6827 27.8227 7 27.8227C7.3173 27.8227 7.62295 27.9423 7.856 28.1577L8.5 28.747C8.90828 29.1245 9.44391 29.3342 10 29.3342C10.5561 29.3342 11.0917 29.1245 11.5 28.747C11.9083 28.3694 12.4439 28.1597 13 28.1597C13.5561 28.1597 14.0917 28.3694 14.5 28.747C14.9083 29.1245 15.4439 29.3342 16 29.3342C16.5561 29.3342 17.0917 29.1245 17.5 28.747C17.9083 28.3694 18.4439 28.1597 19 28.1597C19.5561 28.1597 20.0917 28.3694 20.5 28.747C20.9083 29.1245 21.4439 29.3342 22 29.3342C22.5561 29.3342 23.0917 29.1245 23.5 28.747L24.144 28.1577C24.377 27.9423 24.6827 27.8227 25 27.8227C25.3173 27.8227 25.623 27.9423 25.856 28.1577C26.6867 28.9177 28 28.3097 28 27.1657V8.49366C28 6.90299 28 6.10699 27.7893 5.46699C27.5976 4.87288 27.2716 4.33089 26.8367 3.88302C26.4018 3.43515 25.8696 3.09343 25.2813 2.88433C24.6573 2.66699 23.8853 2.66699 22.34 2.66699Z" stroke="#000F18" stroke-width="1.5"/>
<path d="M13.9987 14.6667H22.6654M9.33203 14.6667H9.9987M9.33203 10H9.9987M9.33203 19.3333H9.9987M13.9987 10H22.6654M13.9987 19.3333H22.6654" stroke="#000F18" stroke-width="1.5" stroke-linecap="round"/>
</svg>
