<svg width="16" height="16" viewBox="0 0 16 16" fill="none" xmlns="http://www.w3.org/2000/svg">
<path d="M10.0906 4.8073V7.43405H1.90337C1.75236 7.43405 1.60753 7.49404 1.50075 7.60082C1.39397 7.7076 1.33398 7.85242 1.33398 8.00343C1.33398 8.15444 1.39397 8.29926 1.50075 8.40604C1.60753 8.51282 1.75236 8.57281 1.90337 8.57281H10.0906V11.192C10.0898 11.2636 10.1105 11.3338 10.1502 11.3935C10.1898 11.4532 10.2465 11.4996 10.3128 11.5266C10.3792 11.5536 10.4521 11.5601 10.5222 11.5451C10.5922 11.5301 10.6561 11.4943 10.7056 11.4425L14.5608 8.25396C14.5945 8.22075 14.6213 8.18117 14.6396 8.1375C14.6579 8.09384 14.6673 8.04697 14.6673 7.99963C14.6673 7.95229 14.6579 7.90543 14.6396 7.86176C14.6213 7.8181 14.5945 7.77851 14.5608 7.74531L10.7056 4.55677C10.6561 4.50494 10.5922 4.4692 10.5222 4.4542C10.4521 4.4392 10.3792 4.44563 10.3128 4.47266C10.2465 4.49969 10.1898 4.54607 10.1502 4.60575C10.1105 4.66544 10.0898 4.73567 10.0906 4.8073Z" fill="url(#paint0_linear_1781_96)"/>
<defs>
<linearGradient id="paint0_linear_1781_96" x1="1.33398" y1="7.99963" x2="14.6673" y2="7.99963" gradientUnits="userSpaceOnUse">
<stop stop-color="#FEF9CC"/>
<stop offset="0.4" stop-color="#F6DBD4"/>
<stop offset="0.75" stop-color="#F1C8D9"/>
<stop offset="1" stop-color="#F0C2DB"/>
</linearGradient>
</defs>
</svg>
