<svg width="314" height="198" viewBox="0 0 314 198" fill="none" xmlns="http://www.w3.org/2000/svg">
<rect x="39.25" y="11.7812" width="235.5" height="147.188" rx="24.5312" fill="url(#paint0_linear_1789_12607)"/>
<circle cx="78.5" cy="119.719" r="14.7188" fill="#000F18"/>
<circle opacity="0.8" cx="98.125" cy="119.719" r="14.7188" fill="#000F18"/>
<rect x="39.25" y="36.3125" width="235.5" height="19.625" fill="#000F18"/>
<path d="M142.476 98.8403C142.811 92.2726 148.022 87.2841 154.513 86.2266C160.162 85.3063 166.967 84.009 172.336 82.413C179.277 80.3494 188.619 76.3592 194.76 73.6038C198.826 71.7796 203.487 71.7796 207.552 73.6038C213.693 76.3592 223.035 80.3494 229.977 82.413C235.346 84.009 242.151 85.3063 247.8 86.2266C254.291 87.2841 259.502 92.2726 259.836 98.8403C261.064 122.93 258.01 179.428 205.163 196.99C202.589 197.845 199.723 197.845 197.149 196.99C144.303 179.428 141.249 122.93 142.476 98.8403Z" fill="#000F18"/>
<path fill-rule="evenodd" clip-rule="evenodd" d="M166.107 155.057L181.053 93.934C186.224 92.2021 192.634 89.3653 196.806 87.4364C197.353 87.1835 197.917 86.9807 198.49 86.8281L177.972 170.744C172.929 166.095 169.061 160.726 166.107 155.057ZM191.45 179.83C188.984 178.65 186.69 177.34 184.557 175.918L206.122 87.7202C208.154 88.6536 210.632 89.7617 213.209 90.8434L191.45 179.83Z" fill="white"/>
<path d="M157.209 105.904C157.471 101.524 160.931 98.2051 165.263 97.5022C169.662 96.7883 175.221 95.7358 179.541 94.4186C184.918 92.779 192.217 89.5583 196.806 87.4363C199.565 86.1608 202.748 86.1608 205.506 87.4363C210.096 89.5583 217.394 92.779 222.772 94.4186C227.092 95.7358 232.651 96.7883 237.05 97.5022C241.381 98.2051 244.842 101.524 245.103 105.904C246.17 123.758 244.635 168.955 203.895 182.645C202.139 183.235 200.174 183.235 198.417 182.645C157.678 168.955 156.143 123.758 157.209 105.904Z" stroke="url(#paint1_linear_1789_12607)" stroke-width="9.8125"/>
<defs>
<linearGradient id="paint0_linear_1789_12607" x1="39.25" y1="85.375" x2="274.75" y2="85.375" gradientUnits="userSpaceOnUse">
<stop stop-color="#FEF9CC"/>
<stop offset="0.4" stop-color="#F6DBD4"/>
<stop offset="0.75" stop-color="#F1C8D9"/>
<stop offset="1" stop-color="#F0C2DB"/>
</linearGradient>
<linearGradient id="paint1_linear_1789_12607" x1="157" y1="134.438" x2="245.312" y2="134.438" gradientUnits="userSpaceOnUse">
<stop stop-color="#FEF9CC"/>
<stop offset="0.4" stop-color="#F6DBD4"/>
<stop offset="0.75" stop-color="#F1C8D9"/>
<stop offset="1" stop-color="#F0C2DB"/>
</linearGradient>
</defs>
</svg>
