<svg width="435" height="124" viewBox="0 0 435 124" fill="none" xmlns="http://www.w3.org/2000/svg">
<path d="M0.699219 65.4718C0.699219 65.4718 59.1362 72.9659 90.0138 56.3581C113.286 43.8407 111.454 9.48001 137.861 8.51093C165.293 7.50426 161.935 55.0359 189.354 56.3581C213.716 57.5329 218.306 27.9228 242.213 23.0929C275.201 16.4286 291.455 57.1362 324.237 49.5228C353.268 42.7804 352.796 1.74158 382.565 0.308569C404.529 -0.748747 434.057 23.0929 434.057 23.0929" stroke="#FEF8C3" stroke-width="3.64549"/>
<path opacity="0.2" d="M0.699219 66.8053C0.699219 66.8053 64.6752 73.6052 96.3935 53.1347C116.298 40.2883 113.344 10.0204 136.95 8.02167C163.406 5.78157 158.58 52.1251 184.797 56.3245C212.412 60.7478 219.311 22.9517 247.226 21.2366C277.273 19.3904 287.519 56.7789 317.402 53.1347C348.863 49.2978 347.732 2.53521 379.375 0.730679C401.315 -0.520521 431.779 21.2366 431.779 21.2366V123.31H0.699219V66.8053Z" fill="url(#paint0_linear_2044_2138)"/>
<defs>
<linearGradient id="paint0_linear_2044_2138" x1="226.264" y1="23.9704" x2="226.264" y2="123.31" gradientUnits="userSpaceOnUse">
<stop stop-color="#FEF9CC"/>
<stop offset="0.71" stop-color="#171717"/>
</linearGradient>
</defs>
</svg>
