<svg width="14" height="15" viewBox="0 0 14 15" fill="none" xmlns="http://www.w3.org/2000/svg">
<path d="M6.9987 0.333984C10.6807 0.333984 13.6654 3.31865 13.6654 7.00065C13.6654 10.6827 10.6807 13.6673 6.9987 13.6673C3.3167 13.6673 0.332031 10.6827 0.332031 7.00065C0.332031 3.31865 3.3167 0.333984 6.9987 0.333984ZM6.9987 3.00065C6.82189 3.00065 6.65232 3.07089 6.52729 3.19591C6.40227 3.32094 6.33203 3.49051 6.33203 3.66732V7.00065C6.33207 7.17745 6.40233 7.34699 6.52736 7.47198L8.52736 9.47198C8.6531 9.59342 8.8215 9.66062 8.9963 9.6591C9.1711 9.65758 9.3383 9.58747 9.46191 9.46386C9.58552 9.34026 9.65563 9.17305 9.65715 8.99825C9.65867 8.82345 9.59147 8.65505 9.47003 8.52932L7.66536 6.72465V3.66732C7.66536 3.49051 7.59513 3.32094 7.4701 3.19591C7.34508 3.07089 7.17551 3.00065 6.9987 3.00065Z" fill="#626262"/>
</svg>
