<svg width="186" height="36" viewBox="0 0 186 36" fill="none" xmlns="http://www.w3.org/2000/svg">
<path d="M39.0023 2.92935C36.0032 1.55768 32.8181 0.55797 29.4935 0C29.075 0.72072 28.61 1.69716 28.2845 2.46438C24.7484 1.9529 21.2378 1.9529 17.7504 2.46438C17.4249 1.69716 16.9367 0.72072 16.5414 0C13.1936 0.55797 10.0085 1.55768 7.03035 2.92935C1.0089 11.8104 -0.618525 20.4822 0.195186 29.0378C4.19398 31.9438 8.05334 33.7108 11.8452 34.8733C12.7752 33.6178 13.6122 32.2693 14.3329 30.8512C12.9612 30.3397 11.6592 29.712 10.4038 28.968C10.7293 28.7357 11.0548 28.4799 11.357 28.2241C18.9362 31.6882 27.1454 31.6882 34.6314 28.2241C34.9569 28.4799 35.2592 28.7357 35.5847 28.968C34.3292 29.712 33.0273 30.3397 31.6556 30.8512C32.3763 32.2693 33.2133 33.6178 34.1432 34.8733C37.9328 33.7108 41.8154 31.9438 45.7932 29.0378C46.7928 19.1339 44.21 10.5318 39.0023 2.92935ZM15.3791 23.7603C13.1006 23.7603 11.2407 21.6912 11.2407 19.1571C11.2407 16.623 13.0541 14.5538 15.3791 14.5538C17.6807 14.5538 19.5638 16.623 19.5173 19.1571C19.5173 21.6912 17.6807 23.7603 15.3791 23.7603ZM30.656 23.7603C28.3775 23.7603 26.5152 21.6912 26.5152 19.1571C26.5152 16.623 28.331 14.5538 30.656 14.5538C32.9576 14.5538 34.8407 16.623 34.7942 19.1571C34.7942 21.6912 32.9808 23.7603 30.656 23.7603Z" fill="#9E9E9E"/>
<path d="M61.9043 7.29883H71.7875C74.1589 7.29883 76.1815 7.67075 77.8322 8.41475C79.4828 9.15875 80.715 10.1818 81.5288 11.5069C82.3424 12.8321 82.7609 14.3432 82.7609 16.0638C82.7609 17.7376 82.3426 19.2489 81.4823 20.6205C80.6221 21.969 79.3202 23.0616 77.5764 23.8521C75.8328 24.6426 73.6706 25.0378 71.09 25.0378H61.9043V7.29883ZM70.9738 20.5275C72.5779 20.5275 73.8101 20.1322 74.6703 19.3186C75.5306 18.5281 75.9723 17.4121 75.9723 16.0405C75.9723 14.7617 75.5771 13.7387 74.8099 12.9716C74.0426 12.2044 72.8802 11.8091 71.3225 11.8091H68.2304V20.5275H70.9738Z" fill="#9E9E9E"/>
<path d="M98.1536 25.0164C96.7819 24.6677 95.5498 24.1562 94.457 23.4587V19.2506C95.294 19.9016 96.3866 20.4131 97.7816 20.8316C99.1765 21.2501 100.525 21.4593 101.827 21.4593C102.431 21.4593 102.896 21.3896 103.199 21.2268C103.501 21.0641 103.664 20.8781 103.664 20.6456C103.664 20.3898 103.571 20.1806 103.408 20.0178C103.245 19.8551 102.92 19.7156 102.431 19.5761L99.3857 18.902C97.6421 18.5067 96.4099 17.9255 95.6659 17.228C94.922 16.5305 94.5733 15.5774 94.5733 14.4148C94.5733 13.4383 94.8988 12.5782 95.5264 11.8575C96.1774 11.1367 97.0841 10.5787 98.2699 10.1835C99.4555 9.78835 100.827 9.5791 102.431 9.5791C103.85 9.5791 105.151 9.7186 106.337 10.0441C107.523 10.3462 108.499 10.7415 109.267 11.2065V15.1821C108.476 14.7171 107.546 14.3451 106.523 14.0661C105.477 13.7871 104.408 13.6476 103.315 13.6476C101.734 13.6476 100.943 13.9266 100.943 14.4613C100.943 14.7171 101.06 14.9031 101.315 15.0426C101.571 15.1821 102.013 15.2984 102.664 15.4379L105.198 15.9029C106.849 16.1817 108.081 16.6932 108.895 17.414C109.708 18.1347 110.104 19.1808 110.104 20.5991C110.104 22.1336 109.429 23.3657 108.081 24.2492C106.732 25.1559 104.826 25.5975 102.362 25.5975C100.92 25.551 99.5252 25.365 98.1536 25.0164Z" fill="#9E9E9E"/>
<path d="M116.385 24.4825C114.943 23.7617 113.827 22.8086 113.106 21.5996C112.362 20.3906 112.014 19.0189 112.014 17.4844C112.014 15.9733 112.386 14.6016 113.153 13.416C113.92 12.207 115.036 11.277 116.501 10.5796C117.965 9.90539 119.732 9.55664 121.778 9.55664C124.312 9.55664 126.405 10.0914 128.079 11.1607V15.7873C127.497 15.392 126.8 15.0433 126.01 14.8108C125.219 14.5551 124.382 14.4388 123.499 14.4388C121.918 14.4388 120.709 14.7178 119.802 15.299C118.919 15.8803 118.477 16.6243 118.477 17.5541C118.477 18.4609 118.895 19.2049 119.779 19.7861C120.639 20.3672 121.894 20.6695 123.522 20.6695C124.359 20.6695 125.196 20.5534 126.01 20.2976C126.823 20.0419 127.544 19.7629 128.125 19.3909V23.878C126.265 24.994 124.103 25.5518 121.662 25.5518C119.593 25.5518 117.849 25.18 116.385 24.4825Z" fill="#9E9E9E"/>
<path d="M134.706 24.4825C133.241 23.7617 132.125 22.8085 131.358 21.5762C130.591 20.344 130.195 18.9724 130.195 17.4379C130.195 15.9268 130.591 14.5551 131.358 13.3695C132.125 12.1837 133.241 11.2537 134.682 10.5796C136.124 9.90539 137.867 9.55664 139.869 9.55664C141.869 9.55664 143.612 9.88214 145.054 10.5796C146.495 11.2537 147.611 12.1837 148.378 13.3695C149.145 14.5551 149.517 15.9035 149.517 17.4379C149.517 18.9491 149.145 20.344 148.378 21.5762C147.611 22.8085 146.518 23.785 145.054 24.4825C143.589 25.18 141.869 25.5518 139.869 25.5518C137.891 25.5518 136.17 25.18 134.706 24.4825ZM142.403 19.9954C143.008 19.391 143.333 18.5539 143.333 17.5541C143.333 16.5313 143.031 15.7408 142.403 15.1363C141.776 14.5318 140.939 14.2296 139.892 14.2296C138.8 14.2296 137.96 14.5318 137.333 15.1363C136.728 15.7408 136.403 16.5313 136.403 17.5541C136.403 18.5771 136.705 19.391 137.333 19.9954C137.96 20.6231 138.8 20.9252 139.892 20.9252C140.939 20.902 141.799 20.5999 142.403 19.9954Z" fill="#9E9E9E"/>
<path d="M165.072 10.4852V15.9489C164.421 15.5304 163.584 15.3211 162.561 15.3211C161.212 15.3211 160.165 15.7396 159.445 16.5532C158.724 17.367 158.352 18.6457 158.352 20.3661V25.0159H152.145V10.2295H158.236V14.9491C158.562 13.2286 159.12 11.95 159.864 11.1362C160.608 10.3225 161.584 9.88086 162.769 9.88086C163.653 9.88086 164.421 10.0901 165.072 10.4852Z" fill="#9E9E9E"/>
<path d="M185.999 6.78809V25.0384H179.792V21.7138C179.257 22.9693 178.466 23.9225 177.397 24.5734C176.326 25.2244 175 25.5499 173.419 25.5499C172.024 25.5499 170.792 25.2011 169.745 24.5269C168.7 23.8528 167.887 22.8995 167.329 21.7138C166.771 20.5049 166.492 19.1564 166.492 17.6686C166.468 16.1108 166.771 14.716 167.398 13.4837C168.002 12.2516 168.886 11.2984 170.002 10.6009C171.118 9.90339 172.396 9.55464 173.837 9.55464C176.791 9.55464 178.769 10.8334 179.792 13.414V6.78809H185.999ZM178.862 19.8772C179.489 19.2727 179.815 18.4589 179.815 17.4826C179.815 16.5293 179.513 15.7621 178.885 15.181C178.258 14.5997 177.421 14.2975 176.372 14.2975C175.325 14.2975 174.488 14.5997 173.861 15.2042C173.233 15.8086 172.931 16.5758 172.931 17.5523C172.931 18.5287 173.233 19.2959 173.861 19.9004C174.488 20.5049 175.303 20.8072 176.348 20.8072C177.397 20.8072 178.234 20.5049 178.862 19.8772Z" fill="#9E9E9E"/>
<path d="M88.4836 11.114C90.2666 11.114 91.7152 9.81271 91.7152 8.20786C91.7152 6.60277 90.2666 5.30176 88.4836 5.30176C86.698 5.30176 85.252 6.60277 85.252 8.20786C85.252 9.81271 86.698 11.114 88.4836 11.114Z" fill="#9E9E9E"/>
<path d="M91.7152 13.1113C89.7389 13.9714 87.2746 13.9947 85.252 13.1113V25.038H91.7152V13.1113Z" fill="#9E9E9E"/>
</svg>
