<svg width="170" height="36" viewBox="0 0 170 36" fill="none" xmlns="http://www.w3.org/2000/svg">
<g clip-path="url(#clip0_1140_18561)">
<path d="M67.7977 18.8562L64.8805 11.0914C64.8536 11.0214 64.806 10.9612 64.7442 10.9188C64.6824 10.8764 64.6091 10.8537 64.5342 10.8537C64.4592 10.8537 64.3859 10.8764 64.3241 10.9188C64.2623 10.9612 64.2149 11.0214 64.1878 11.0914L61.2706 18.8574C61.2503 18.9125 61.2439 18.9717 61.2517 19.0298C61.2597 19.0881 61.2816 19.1434 61.3158 19.1911C61.3499 19.2389 61.3952 19.2775 61.4477 19.3038C61.5002 19.33 61.5583 19.3429 61.6169 19.3416H67.4762C67.5635 19.3425 67.6478 19.3104 67.7123 19.2517C67.7768 19.193 67.8166 19.1119 67.8238 19.025C67.8293 18.9679 67.8203 18.9103 67.7977 18.8574V18.8562ZM69.1571 23.2134H59.9113C59.8359 23.2139 59.7623 23.2374 59.7005 23.2806C59.6387 23.3238 59.5914 23.3848 59.5649 23.4555L57.7351 28.2993C57.7088 28.3699 57.6618 28.4307 57.6002 28.4739C57.5386 28.5172 57.4654 28.5407 57.39 28.5414H53.3816C53.3204 28.5423 53.26 28.5279 53.2057 28.4996C53.1515 28.4711 53.1052 28.4298 53.0709 28.379C53.0366 28.3283 53.0155 28.2698 53.0096 28.2088C53.0036 28.1479 53.0128 28.0864 53.0365 28.03L62.2575 5.39592C62.285 5.32743 62.3335 5.26934 62.3958 5.2299C62.4582 5.19046 62.5314 5.17166 62.6051 5.17619H66.436C66.5087 5.17664 66.5798 5.19747 66.6413 5.23631C66.7027 5.27516 66.752 5.33045 66.7835 5.39592L76.0033 28.03C76.027 28.0866 76.0363 28.1483 76.0302 28.2093C76.0241 28.2704 76.0029 28.329 75.9686 28.3799C75.9342 28.4307 75.8878 28.4723 75.8333 28.5007C75.779 28.5291 75.7184 28.5435 75.6569 28.5427H71.6547C71.5791 28.542 71.5055 28.5184 71.4437 28.475C71.3819 28.4315 71.3347 28.3704 71.3084 28.2993L69.4786 23.4555C69.4612 23.3841 69.4197 23.3209 69.3611 23.2766C69.3026 23.2323 69.2306 23.2096 69.1571 23.2122V23.2134ZM77.9088 13.1111H81.3462C81.4432 13.1129 81.5358 13.152 81.6049 13.2202C81.674 13.2882 81.7142 13.3803 81.7173 13.4773V28.1789C81.7142 28.2758 81.6739 28.3675 81.6047 28.4353C81.5356 28.5029 81.443 28.5414 81.3462 28.5427H77.91C77.8131 28.5418 77.7202 28.5034 77.6508 28.4356C77.5814 28.3679 77.5408 28.2759 77.5376 28.1789V13.4773C77.5371 13.4285 77.5464 13.3802 77.565 13.3351C77.5837 13.2901 77.6112 13.2492 77.646 13.215C77.6807 13.1808 77.7221 13.154 77.7674 13.1361C77.8128 13.1183 77.8614 13.1097 77.91 13.1111H77.9088ZM94.228 16.6887C94.2251 16.7859 94.185 16.8783 94.1159 16.9467C94.0468 17.0151 93.9541 17.0543 93.8568 17.0562H93.7575C92.0518 17.0562 90.8154 17.4435 90.0246 18.2479C89.2339 19.0523 88.8379 20.3657 88.8379 22.2129V28.1529C88.8348 28.2497 88.7947 28.3416 88.7259 28.4097C88.6571 28.4777 88.5648 28.517 88.468 28.5191H85.079C84.9823 28.517 84.8899 28.4777 84.8212 28.4097C84.7524 28.3416 84.7123 28.2497 84.7091 28.1529V13.4773C84.7123 13.3803 84.7525 13.2882 84.8216 13.2202C84.8907 13.152 84.9833 13.1129 85.0802 13.1111H88.4419C88.5392 13.1127 88.6321 13.1515 88.7015 13.2197C88.7707 13.2878 88.8112 13.3801 88.8143 13.4773V16.3734H88.8875C89.2309 15.2733 89.9039 14.3053 90.8154 13.6002C91.7683 12.9281 92.915 12.5862 94.0802 12.6269H94.2528V16.69H94.228V16.6887ZM103.598 16.5447C103.502 16.5463 103.409 16.5847 103.341 16.6522C103.272 16.7196 103.231 16.8109 103.228 16.9072V23.0173C103.182 23.4952 103.314 23.9719 103.598 24.358C103.846 24.6236 104.266 24.7453 104.884 24.7453H105.23C105.327 24.7475 105.419 24.7866 105.488 24.8548C105.557 24.9229 105.597 25.0148 105.6 25.1115V28.1777C105.597 28.2743 105.557 28.3659 105.488 28.4335C105.419 28.5013 105.327 28.5399 105.23 28.5414H103.773C102.263 28.5414 101.103 28.1516 100.287 27.3969C99.4703 26.6198 99.0755 25.4988 99.0755 23.9669V16.9072C99.0721 16.8105 99.0315 16.7189 98.9621 16.6514C98.8927 16.5838 98.8 16.5456 98.7031 16.5447H96.5531C96.4561 16.5426 96.3636 16.5033 96.2948 16.4349C96.226 16.3665 96.186 16.2742 96.1831 16.1773V13.4773C96.186 13.3804 96.2261 13.2883 96.2948 13.2202C96.3637 13.152 96.4562 13.1129 96.5531 13.1111H98.7044C98.8012 13.1098 98.8938 13.0713 98.9629 13.0037C99.0321 12.9359 99.0724 12.8442 99.0755 12.7473V7.29399C99.0788 7.19726 99.1191 7.10547 99.1883 7.03773C99.2574 6.96998 99.35 6.93149 99.4467 6.93026H102.883C102.98 6.93149 103.072 6.96998 103.141 7.03773C103.211 7.10547 103.251 7.19726 103.254 7.29399V12.7473C103.257 12.8442 103.298 12.9359 103.367 13.0037C103.436 13.0713 103.528 13.1098 103.625 13.1111H106.097C106.194 13.1129 106.286 13.152 106.355 13.2202C106.425 13.2882 106.465 13.3803 106.468 13.4773V16.1773C106.465 16.2745 106.425 16.3668 106.356 16.4352C106.287 16.5036 106.194 16.5429 106.097 16.5447H103.598ZM119.298 23.9433C119.693 23.5251 120 23.0314 120.199 22.4917C120.399 21.9519 120.487 21.3774 120.46 20.8027C120.482 20.2285 120.39 19.6556 120.191 19.1167C119.992 18.5779 119.688 18.0835 119.298 17.662C118.461 16.8957 117.367 16.4706 116.232 16.4706C115.097 16.4706 114.003 16.8957 113.166 17.662C112.771 18.0802 112.464 18.574 112.265 19.1136C112.065 19.6534 111.977 20.2279 112.005 20.8027C111.983 21.3768 112.074 21.9497 112.273 22.4886C112.472 23.0275 112.776 23.5218 113.166 23.9433C113.568 24.3428 114.047 24.6549 114.575 24.86C115.103 25.0651 115.667 25.1588 116.233 25.1351C116.799 25.1666 117.366 25.0766 117.895 24.8712C118.424 24.6656 118.902 24.3493 119.299 23.9433H119.298ZM111.385 28.0573C110.224 27.3991 109.28 26.4174 108.666 25.2319C108.015 23.846 107.677 22.3334 107.677 20.802C107.677 19.2707 108.015 17.7582 108.666 16.3722C109.287 15.1924 110.23 14.213 111.385 13.548C112.546 12.8947 113.859 12.559 115.191 12.5748C116.28 12.5481 117.359 12.7912 118.332 13.2824C119.191 13.7376 119.91 14.4199 120.409 15.2549H120.483V13.45C120.487 13.3535 120.527 13.2621 120.596 13.1945C120.664 13.1268 120.757 13.0881 120.853 13.0862H124.241C124.337 13.0879 124.43 13.1263 124.499 13.1941C124.568 13.2618 124.608 13.3534 124.612 13.45V28.1504C124.609 28.2478 124.569 28.3403 124.499 28.4088C124.43 28.4772 124.337 28.5163 124.24 28.5178H120.856C120.758 28.516 120.666 28.4767 120.596 28.4083C120.527 28.3399 120.487 28.2476 120.484 28.1504V26.3504H120.41C119.911 27.1863 119.192 27.8691 118.332 28.3242C117.359 28.8135 116.28 29.0561 115.191 29.0305C113.859 29.0464 112.546 28.7107 111.385 28.0573ZM138.73 23.9433C139.125 23.5251 139.432 23.0313 139.632 22.4915C139.831 21.9519 139.92 21.3774 139.892 20.8027C139.915 20.2285 139.823 19.6556 139.624 19.1167C139.424 18.5779 139.12 18.0835 138.73 17.662C137.894 16.8953 136.799 16.47 135.664 16.47C134.529 16.47 133.435 16.8953 132.598 17.662C132.203 18.0804 131.896 18.5743 131.697 19.1139C131.498 19.6536 131.409 20.228 131.437 20.8027C131.415 21.3768 131.507 21.9497 131.705 22.4886C131.905 23.0275 132.208 23.5218 132.599 23.9433C133 24.3428 133.479 24.6549 134.008 24.86C134.536 25.0651 135.099 25.1588 135.665 25.1351C136.231 25.1665 136.799 25.0763 137.328 24.8709C137.856 24.6653 138.334 24.3491 138.732 23.9433H138.73ZM133.588 28.3229C132.728 27.8676 132.009 27.1848 131.51 26.3491H131.436V28.1516C131.432 28.2484 131.392 28.3403 131.324 28.4085C131.255 28.4765 131.163 28.5157 131.066 28.5178H127.629C127.532 28.5157 127.44 28.4765 127.37 28.4085C127.302 28.3403 127.261 28.2484 127.259 28.1516V5.51633C127.261 5.41969 127.302 5.32795 127.37 5.26004C127.44 5.19212 127.532 5.15323 127.629 5.15137H131.066C131.163 5.15289 131.255 5.19149 131.324 5.25917C131.394 5.32685 131.433 5.41846 131.437 5.51509V15.2773H131.512C132.011 14.4426 132.729 13.7601 133.588 13.3035C134.562 12.8144 135.639 12.5718 136.728 12.5971C138.06 12.5811 139.373 12.9182 140.534 13.5741C141.695 14.231 142.639 15.2115 143.253 16.3958C143.948 17.7661 144.288 19.289 144.243 20.825C144.274 22.36 143.935 23.8797 143.254 25.2555C142.633 26.436 141.69 27.4155 140.535 28.0796C139.373 28.7331 138.06 29.0689 136.728 29.0529C135.638 29.0618 134.56 28.8108 133.587 28.3204L133.588 28.3229ZM150.029 28.5203H146.594C146.498 28.5188 146.404 28.4797 146.335 28.4112C146.265 28.3427 146.226 28.2502 146.223 28.1529V5.51757C146.227 5.42051 146.267 5.32841 146.336 5.26043C146.406 5.19246 146.499 5.15384 146.596 5.15261H150.031C150.127 5.15476 150.219 5.19357 150.288 5.26115C150.356 5.32875 150.397 5.42001 150.4 5.51633V28.1516C150.402 28.223 150.382 28.293 150.343 28.353C150.305 28.4129 150.249 28.46 150.183 28.488C150.135 28.509 150.083 28.5192 150.031 28.5178V28.5203H150.029ZM158.114 16.6664C157.516 17.1439 157.105 17.8161 156.952 18.5657C156.941 18.6198 156.944 18.6757 156.957 18.7291C156.971 18.7824 156.997 18.8321 157.033 18.8742C157.068 18.9163 157.113 18.9498 157.164 18.9722C157.213 18.9947 157.269 19.0055 157.324 19.0039H163.851C163.903 19.0041 163.955 18.9931 164.004 18.9717C164.052 18.9504 164.094 18.9191 164.129 18.8799C164.165 18.8408 164.191 18.7946 164.207 18.7446C164.223 18.6944 164.228 18.6415 164.222 18.5893C164.123 17.8617 163.761 17.1952 163.207 16.7148C162.492 16.1462 161.598 15.852 160.685 15.8856C159.767 15.8607 158.864 16.1338 158.114 16.6651L158.113 16.6664H158.114ZM166.471 14.7683C167.806 16.2021 168.474 18.2293 168.472 20.8511V21.2918C168.469 21.3885 168.429 21.4801 168.36 21.5477C168.29 21.6154 168.198 21.654 168.101 21.6555H157.201C157.146 21.6566 157.093 21.6691 157.044 21.6924C156.995 21.7156 156.951 21.749 156.916 21.7902C156.88 21.8315 156.854 21.8798 156.84 21.9319C156.825 21.9841 156.821 22.0387 156.828 22.0924C156.97 23.0041 157.435 23.8341 158.14 24.43C159.006 25.1069 160.084 25.4517 161.182 25.402C162.82 25.3791 164.388 24.7255 165.558 23.5771C165.596 23.5419 165.642 23.5156 165.692 23.5C165.743 23.4845 165.795 23.4802 165.847 23.4873C165.899 23.4943 165.949 23.5127 165.992 23.5411C166.037 23.5696 166.074 23.6073 166.101 23.6516L167.757 26.0115C167.805 26.0868 167.826 26.1756 167.816 26.264C167.807 26.3522 167.769 26.4352 167.708 26.4993C166.886 27.2 165.981 27.797 165.014 28.277C163.809 28.8144 162.5 29.0802 161.181 29.0553C159.635 29.0905 158.104 28.7384 156.73 28.0312C155.491 27.3803 154.468 26.3827 153.788 25.1599C153.068 23.8487 152.702 22.3728 152.726 20.8771C152.698 19.379 153.047 17.8981 153.74 16.5695C154.389 15.3509 155.376 14.3455 156.583 13.6747C157.893 12.9597 159.367 12.5986 160.86 12.6269C163.282 12.5984 165.137 13.3295 166.471 14.7671V14.7683ZM82.1617 7.66268C82.1688 8.16145 82.0279 8.65113 81.7567 9.06979C81.4855 9.48846 81.0963 9.81731 80.6382 10.0148C80.1801 10.2123 79.6738 10.2695 79.1832 10.1793C78.6926 10.089 78.2397 9.85534 77.882 9.50776C77.5242 9.1602 77.2774 8.71435 77.173 8.22659C77.0685 7.73882 77.1111 7.23104 77.2952 6.76743C77.4793 6.30381 77.7967 5.90521 78.2073 5.62197C78.618 5.33874 79.1034 5.18362 79.602 5.17619H79.6144C80.2799 5.17312 80.9199 5.43168 81.3964 5.89612C81.8729 6.36057 82.1478 6.99369 82.1617 7.65895V7.66144V7.66268Z" fill="#9E9E9E"/>
<path d="M20.2359 0.441589L4.63937 6.89514C3.77229 7.25432 3.78103 8.48626 4.65403 8.83219L20.3156 15.0429C21.6917 15.5886 23.2241 15.5886 24.6002 15.0429L40.262 8.83219C41.1345 8.48626 41.1437 7.25432 40.2762 6.89538L24.68 0.441589C23.2572 -0.147196 21.6588 -0.147196 20.2359 0.441589Z" fill="#9E9E9E"/>
<path d="M23.8477 18.4339V33.9494C23.8477 34.687 24.5917 35.1927 25.2777 34.9207L42.7295 28.1467C42.9242 28.0696 43.0911 27.9358 43.2087 27.7625C43.3264 27.5893 43.3892 27.3848 43.3892 27.1755V11.6602C43.3892 10.9222 42.6451 10.4169 41.9591 10.6888L24.5073 17.4628C24.3127 17.54 24.1458 17.6738 24.0282 17.8471C23.9106 18.0203 23.8477 18.2247 23.8477 18.4342" fill="#9E9E9E"/>
<path d="M19.7726 19.2343L14.5934 21.7351L14.0675 21.9893L3.13427 27.2279C2.44145 27.5622 1.55664 27.0572 1.55664 26.2873V11.725C1.55664 11.4465 1.69946 11.206 1.89099 11.0251C1.96956 10.9469 2.0587 10.88 2.15581 10.8265C2.41686 10.6697 2.78951 10.6279 3.10636 10.7532L19.6856 17.3223C20.5284 17.6566 20.5946 18.8376 19.7726 19.2346" fill="#9E9E9E"/>
<path d="M19.7722 19.2343L14.5929 21.7351L1.89062 11.0249C1.96922 10.9467 2.05836 10.8799 2.15546 10.8265C2.4165 10.6697 2.78916 10.6279 3.10601 10.7532L19.6853 17.3223C20.528 17.6566 20.5941 18.8376 19.7722 19.2346" fill="#9E9E9E"/>
</g>
<defs>
<clipPath id="clip0_1140_18561">
<rect width="168.828" height="36" fill="white" transform="translate(0.585938)"/>
</clipPath>
</defs>
</svg>
