<svg width="190" height="36" viewBox="0 0 190 36" fill="none" xmlns="http://www.w3.org/2000/svg">
<path fill-rule="evenodd" clip-rule="evenodd" d="M169.307 27.6419L176.278 18.2812L169.848 9.43652H175.355L179.078 14.9549L182.835 9.43652H188.311L181.785 18.2495L188.66 27.6419H183.249L179.015 21.7023L174.909 27.6419H169.307Z" fill="#9E9E9E"/>
<path fill-rule="evenodd" clip-rule="evenodd" d="M151.777 18.9028C151.777 24.9114 155.065 28.1056 160.89 28.1056C166.34 28.1056 170.035 24.9114 170.035 18.9028V18.3968C170.035 12.3249 166.277 8.97266 160.89 8.97266C155.629 8.97266 151.777 12.2616 151.777 18.3968V18.9028ZM165.289 18.9041C165.289 22.2374 163.624 24.0471 160.89 24.0471C158.189 24.0471 156.524 22.2057 156.524 18.9041V18.4597C156.524 14.9042 158.283 13.0312 160.921 13.0312C163.592 13.0312 165.289 15.0312 165.289 18.4597V18.9041Z" fill="#9E9E9E"/>
<path fill-rule="evenodd" clip-rule="evenodd" d="M135.853 24.3125C136.841 26.6518 138.816 28.1059 141.844 28.1059C146.527 28.1059 149.587 24.6918 149.587 18.6225V18.0851C149.587 12.0157 146.337 9.01264 141.971 8.98103C139.071 8.98103 137.032 10.2771 136.012 12.6479V3.29102H131.328V27.6317H135.471L135.853 24.3125ZM144.839 18.666C144.839 22.2746 143.169 24.0474 140.426 24.0474C137.809 24.0474 136.075 22.0847 136.075 18.666V18.2861C136.075 15.1524 137.872 13.0314 140.489 13.0314C143.011 13.0314 144.839 14.8674 144.839 18.2229V18.666Z" fill="#9E9E9E"/>
<path fill-rule="evenodd" clip-rule="evenodd" d="M110.512 9.45792V33.9034H115.188V24.7486C116.174 26.8755 118.114 28.1768 121.041 28.1768C125.367 28.1768 128.77 25.0343 128.77 19.0033V18.4954C128.77 12.3374 125.717 8.97266 121.041 8.97266C118.019 8.97266 115.983 10.528 114.997 12.877L114.52 9.45792H110.512ZM124.023 18.8873C124.023 22.2427 122.289 24.0471 119.578 24.0471C116.961 24.0471 115.259 22.0211 115.259 18.7924V18.444C115.259 15.057 117.024 13.0312 119.673 13.0312C122.163 13.0312 124.023 14.8355 124.023 18.4757V18.8873Z" fill="#9E9E9E"/>
<path fill-rule="evenodd" clip-rule="evenodd" d="M89.6973 18.9028C89.6973 24.9114 93.017 28.1056 98.8423 28.1056C104.292 28.1056 107.956 24.9114 107.956 18.9028V18.3968C107.956 12.3249 104.229 8.97266 98.8423 8.97266C93.5807 8.97266 89.6973 12.2616 89.6973 18.3968V18.9028ZM103.209 18.9041C103.209 22.2374 101.512 24.0471 98.8108 24.0471C96.1094 24.0471 94.4445 22.2057 94.4445 18.9041V18.4597C94.4445 14.9042 96.2036 13.0312 98.8423 13.0312C101.512 13.0312 103.209 15.0312 103.209 18.4597V18.9041Z" fill="#9E9E9E"/>
<path fill-rule="evenodd" clip-rule="evenodd" d="M76.916 27.6423H81.7052V19.2789C81.7052 15.4141 82.6631 14.052 86.6221 14.052H88.6016V9.20508H87.4202C84.0041 9.20508 82.1203 10.694 81.3859 13.6085L80.7793 9.43592H76.916V27.6423Z" fill="#9E9E9E"/>
<path fill-rule="evenodd" clip-rule="evenodd" d="M55.7363 5.14551V27.6412H64.4319C70.0961 27.6412 74.3603 24.3573 74.3603 17.0951V15.5478C74.3603 8.31708 69.8416 5.14551 64.3047 5.14551H55.7363ZM60.4837 9.204H64.1061C67.3779 9.204 69.613 11.2672 69.613 15.8061V16.9806C69.613 21.5195 67.4426 23.5827 64.2682 23.5827H60.4837V9.204Z" fill="#9E9E9E"/>
<path d="M11.6093 0.460938L1.18945 7.07487L11.6093 13.6888L22.0309 7.07487L32.4509 13.6888L42.8707 7.07487L32.4509 0.460938L22.0309 7.07487L11.6093 0.460938Z" fill="#9E9E9E"/>
<path d="M11.6093 26.9175L1.18945 20.3034L11.6093 13.6895L22.0309 20.3034L11.6093 26.9175Z" fill="#9E9E9E"/>
<path d="M22.0312 20.3034L32.4512 13.6895L42.871 20.3034L32.4512 26.9175L22.0312 20.3034Z" fill="#9E9E9E"/>
<path d="M22.0309 35.7357L11.6094 29.1217L22.0309 22.5078L32.4509 29.1217L22.0309 35.7357Z" fill="#9E9E9E"/>
</svg>
