<svg width="144" height="36" viewBox="0 0 144 36" fill="none" xmlns="http://www.w3.org/2000/svg">
<g style="mix-blend-mode:luminosity" clip-path="url(#clip0_1140_18557)">
<path d="M45.3971 28.4861L47.1544 24.3785C49.0787 25.8036 51.5885 26.5578 54.0988 26.5578C55.9396 26.5578 57.1109 25.8456 57.1109 24.756C57.0688 21.738 46.0246 24.0852 45.9407 16.4976C45.8986 12.6414 49.3294 9.66541 54.1828 9.66541C57.0688 9.66541 59.956 10.3782 62.0056 12.0132L60.3634 16.2084C58.4776 14.9958 56.1484 14.1504 53.9315 14.1504C52.4254 14.1504 51.421 14.8626 51.421 15.7853C51.4631 18.7614 62.5918 17.1264 62.7172 24.3785C62.7172 28.3188 59.3698 31.0853 54.6004 31.0853C51.0868 31.0853 47.8655 30.2473 45.3965 28.4861H45.3971ZM115.374 22.8912C114.93 23.6794 114.285 24.3353 113.504 24.792C112.723 25.2484 111.835 25.4891 110.931 25.4892C108.112 25.4892 105.827 23.1996 105.827 20.3753C105.827 17.5512 108.112 15.2616 110.931 15.2616C111.835 15.2616 112.723 15.5024 113.504 15.9589C114.285 16.4153 114.93 17.0714 115.374 17.8597L120.26 15.1476C118.43 11.877 114.939 9.66541 110.931 9.66541C105.027 9.66541 100.242 14.46 100.242 20.3753C100.242 26.2901 105.027 31.0853 110.931 31.0853C114.939 31.0853 118.43 28.8738 120.26 25.6033L115.374 22.8912ZM65.8877 30.666H71.9956V0.75H65.8883L65.8877 30.666ZM123.344 0.75V30.666H129.452V21.7032L136.69 30.666H144.497L135.293 20.0184L143.828 10.083H136.355L129.452 18.3432V0.75H123.344ZM90.8135 10.0842V12.516C89.8097 10.839 87.3412 9.66541 84.7475 9.66541C79.3924 9.66541 75.1672 14.4024 75.1672 20.3545C75.1672 26.3064 79.3924 31.0853 84.7475 31.0853C87.3412 31.0853 89.8097 29.9117 90.8135 28.2349V30.666H96.9214V10.0842H90.8135ZM90.8135 22.9326C89.9351 24.3996 88.0942 25.4886 86.0447 25.4886C83.2253 25.4886 80.9404 23.1996 80.9404 20.3753C80.9404 17.5512 83.2253 15.2616 86.0447 15.2616C88.0942 15.2616 89.9351 16.3932 90.8135 17.9016V22.9326Z" fill="#9E9E9E"/>
<path d="M13.1412 0.0888672C11.1618 0.0888672 9.5574 1.69686 9.5574 3.67987C9.55694 4.15097 9.64925 4.61756 9.82909 5.05298C10.009 5.48841 10.2728 5.88414 10.6056 6.2176C10.9384 6.55106 11.3336 6.8157 11.7686 6.99642C12.2037 7.17714 12.6701 7.2704 13.1412 7.27087H16.7256V3.67987C16.7265 2.72838 16.3492 1.81553 15.677 1.1421C15.0048 0.468675 14.0927 0.0898215 13.1412 0.0888672ZM13.1412 9.66487H3.5838C1.6044 9.66487 0 11.2729 0 13.2565C0 15.2394 1.6044 16.8475 3.5838 16.8475H13.1418C15.1206 16.8475 16.7256 15.2394 16.7256 13.2565C16.7256 11.2729 15.1206 9.66487 13.1412 9.66487Z" fill="#9E9E9E"/>
<path d="M35.8408 13.2565C35.8408 11.2729 34.2358 9.66487 32.2564 9.66487C30.277 9.66487 28.6727 11.2729 28.6727 13.2565V16.8475H32.2564C33.2079 16.8465 34.12 16.4676 34.7922 15.7943C35.4644 15.1208 35.8416 14.208 35.8408 13.2565ZM26.2834 13.2565V3.67987C26.2841 2.72838 25.907 1.81553 25.2348 1.1421C24.5626 0.468675 23.6505 0.0898215 22.699 0.0888672C20.7195 0.0888672 19.1152 1.69686 19.1152 3.67987V13.2559C19.1152 15.24 20.7195 16.8481 22.699 16.8481C23.6505 16.8471 24.5626 16.4682 25.2348 15.7949C25.907 15.1214 26.2841 14.2086 26.2834 13.2571" fill="#9E9E9E"/>
<path d="M22.699 36.0008C23.6505 35.9999 24.5626 35.621 25.2348 34.9475C25.907 34.2742 26.2841 33.3612 26.2834 32.4098C26.2841 31.4583 25.907 30.5455 25.2348 29.872C24.5626 29.1986 23.6505 28.8198 22.699 28.8188H19.1152V32.4098C19.1152 34.3929 20.7195 36.0008 22.699 36.0008ZM22.699 26.4248H32.257C34.2358 26.4248 35.8408 24.8169 35.8408 22.8333C35.8416 21.8817 35.4644 20.9689 34.7922 20.2954C34.12 19.6221 33.2079 19.2432 32.2564 19.2422H22.699C20.7195 19.2422 19.1152 20.8502 19.1152 22.8333C19.1147 23.3043 19.2071 23.7708 19.387 24.2063C19.5667 24.6418 19.8306 25.0375 20.1634 25.371C20.4962 25.7043 20.8913 25.969 21.3265 26.1497C21.7615 26.3304 22.2279 26.4238 22.699 26.4242" fill="#9E9E9E"/>
<path d="M1.8083e-06 22.8333C-0.000471188 23.3043 0.0918514 23.7708 0.271698 24.2063C0.451545 24.6418 0.715393 25.0375 1.04818 25.371C1.38097 25.7043 1.77617 25.969 2.21124 26.1497C2.6463 26.3304 3.1127 26.4238 3.5838 26.4242C4.53529 26.4232 5.44745 26.0443 6.11964 25.371C6.79182 24.6975 7.169 23.7847 7.16821 22.8333V19.2422H3.5838C1.6044 19.2422 1.8083e-06 20.8502 1.8083e-06 22.8333ZM9.5574 22.8333V32.4093C9.5574 34.3929 11.1618 36.0008 13.1412 36.0008C14.0927 35.9999 15.0048 35.621 15.677 34.9475C16.3492 34.2742 16.7265 33.3612 16.7256 32.4098V22.8333C16.726 22.3621 16.6337 21.8954 16.4539 21.4599C16.274 21.0245 16.0101 20.6288 15.6773 20.2953C15.3444 19.9618 14.9491 19.6972 14.5139 19.5165C14.0788 19.3358 13.6124 19.2426 13.1412 19.2422C11.1618 19.2422 9.5574 20.8502 9.5574 22.8333Z" fill="#9E9E9E"/>
</g>
<defs>
<clipPath id="clip0_1140_18557">
<rect width="144" height="36" fill="white"/>
</clipPath>
</defs>
</svg>
