<svg width="148" height="36" viewBox="0 0 148 36" fill="none" xmlns="http://www.w3.org/2000/svg">
<g clip-path="url(#clip0_1140_18547)">
<path d="M58.3867 12.9551H63.0322V27.5467H58.3867V12.9551Z" fill="#9E9E9E"/>
<path d="M64.002 12.9557H68.4764V14.9507H68.5618C69.6449 13.3831 71.0413 12.5283 73.0649 12.5283C76.2567 12.5283 78.1376 14.8082 78.1376 18.0571V27.5473H73.4923V18.9976C73.4923 17.4586 72.7228 16.404 71.2123 16.404C69.6734 16.404 68.6473 17.6867 68.6473 19.4821V27.5473H64.002V12.9557Z" fill="#9E9E9E"/>
<path d="M63.495 9.05217C63.495 7.51312 62.2473 6.26562 60.7084 6.26562C59.1695 6.26562 57.9219 7.51312 57.9219 9.05217C57.9219 10.5911 59.1695 11.8386 60.7084 11.8386C62.2473 11.8386 63.495 10.5911 63.495 9.05217Z" fill="#9E9E9E"/>
<path d="M110.81 12.7448C110.677 12.7328 110.525 12.7275 110.347 12.7275C108.58 12.7275 107.384 13.497 106.358 15.2355H106.272V12.9555H101.826V27.547H106.472V20.9922C106.472 17.9551 108.154 16.5478 110.81 16.7934V12.7448Z" fill="#9E9E9E"/>
<path d="M133.606 18.342C131.753 18.0002 130.1 17.8577 130.1 16.8318C130.1 15.9197 130.983 15.4923 132.123 15.4923C133.406 15.4923 134.289 15.8913 134.46 17.2022H138.735C138.508 14.3238 136.284 12.5283 132.152 12.5283C128.704 12.5283 125.854 14.1243 125.854 17.2022C125.854 20.622 128.561 21.306 131.097 21.7336C133.035 22.0757 134.802 22.2181 134.802 23.529C134.802 24.4695 133.918 24.9825 132.522 24.9825C131.121 24.9825 130.194 24.3898 129.91 23.1871H125.484C125.81 26.1867 128.443 28.0034 132.551 28.0034C136.369 28.0034 139.191 26.3505 139.191 23.1587C139.191 19.4251 136.171 18.7697 133.606 18.342Z" fill="#9E9E9E"/>
<path d="M118.015 15.8342C119.525 15.8342 120.607 16.9456 120.779 18.6843H115.022C115.335 16.9456 116.247 15.8342 118.015 15.8342ZM118.271 24.6404C116.361 24.6404 115.279 23.415 114.993 21.4485H125.482C125.509 18.4848 124.655 15.9482 122.917 14.3524C121.662 13.2124 120.009 12.5283 117.929 12.5283C113.483 12.5283 110.434 15.8626 110.434 20.2232C110.434 24.6404 113.398 27.975 118.214 27.975C120.067 27.975 121.548 27.4905 122.774 26.6355C124.057 25.7521 124.911 24.498 125.225 23.1872H120.694C120.294 24.099 119.496 24.6404 118.271 24.6404Z" fill="#9E9E9E"/>
<path d="M147.373 24.1065C147.158 24.115 146.868 24.1276 146.602 24.1276C145.605 24.1276 144.978 23.8425 144.978 22.7025V15.8626H147.373V12.9557H144.978V8.33887H140.447V12.9557H139.021V15.8626H140.447V23.7C140.447 26.8351 142.385 27.7184 145.092 27.7184C146.125 27.7184 146.906 27.641 147.373 27.55V24.1065Z" fill="#9E9E9E"/>
<path d="M86.4339 24.1132C86.2486 24.1203 86.0347 24.1276 85.8348 24.1276C84.8375 24.1276 84.2103 23.8425 84.2103 22.7025V15.8627H86.4339V12.9557H84.2103V8.33887H79.679V12.9557H78.168V15.8627H79.679V23.7C79.679 26.8351 81.617 27.7184 84.3244 27.7184C85.2405 27.7184 85.9578 27.6574 86.4339 27.5801V24.1132Z" fill="#9E9E9E"/>
<path d="M96.5524 18.6841C96.3813 16.9456 95.2982 15.834 93.7877 15.834C92.0209 15.834 91.1089 16.9456 90.7954 18.6841H96.5524ZM86.207 20.223C86.207 15.8626 89.2565 12.5283 93.7024 12.5283C95.7827 12.5283 97.4358 13.2122 98.6897 14.3522C100.428 15.9482 101.283 18.4845 101.255 21.4485H90.7671C91.0519 23.4149 92.1348 24.6404 94.0445 24.6404C95.2697 24.6404 96.0678 24.0989 96.4667 23.187H100.998C100.685 24.4979 99.8298 25.7518 98.5471 26.6355C97.3218 27.4903 95.8399 27.9748 93.9873 27.9748C89.1709 27.9748 86.207 24.6404 86.207 20.223Z" fill="#9E9E9E"/>
<path d="M50.3184 16.7457C52.1424 16.7457 53.1683 15.6627 53.1683 14.0381C53.1683 12.4138 52.1138 11.4163 50.3184 11.4163H46.7557V16.7457H50.3184ZM42.0527 7.16992H50.1197C52.599 7.16992 54.423 7.85384 55.6769 9.05087C56.988 10.2762 57.7291 12.0148 57.7291 14.0667C57.7291 17.9711 55.0216 20.7356 50.8321 20.7356H46.7557V27.5469H42.0527V7.16992Z" fill="#9E9E9E"/>
<path d="M35.6752 17.9714C35.6752 27.6578 27.8227 35.5102 18.1364 35.5102C8.45008 35.5102 0.597656 27.6578 0.597656 17.9714C0.597656 8.28491 8.45008 0.432617 18.1364 0.432617C27.8227 0.432617 35.6752 8.28491 35.6752 17.9714Z" fill="#F2F4F7"/>
<path d="M18.1365 0.432617C8.45008 0.432617 0.597656 8.28505 0.597656 17.9714C0.597656 25.4017 5.22058 31.7537 11.7449 34.3091C11.5916 32.9214 11.453 30.7873 11.8057 29.2724C12.1244 27.9036 13.8622 20.5546 13.8622 20.5546C13.8622 20.5546 13.3377 19.5039 13.3377 17.9506C13.3377 15.5118 14.7512 13.6911 16.5113 13.6911C18.0077 13.6911 18.7303 14.8145 18.7303 16.1616C18.7303 17.6665 17.7722 19.9163 17.2779 22.0012C16.8646 23.7469 18.1533 25.1705 19.8751 25.1705C22.9922 25.1705 25.3885 21.8837 25.3885 17.1392C25.3885 12.9397 22.371 10.0037 18.0624 10.0037C13.072 10.0037 10.1428 13.7468 10.1428 17.615C10.1428 19.1224 10.7235 20.7388 11.4481 21.6175C11.5915 21.7912 11.6124 21.9434 11.5698 22.1206C11.4366 22.6745 11.1407 23.8659 11.0827 24.1097C11.0062 24.4307 10.8285 24.4988 10.4961 24.3441C8.3056 23.3245 6.93604 20.1219 6.93604 17.5495C6.93604 12.017 10.9559 6.93605 18.5247 6.93605C24.6088 6.93605 29.337 11.2716 29.337 17.0657C29.337 23.1102 25.5258 27.9748 20.2359 27.9748C18.4586 27.9748 16.7879 27.0515 16.2159 25.9609C16.2159 25.9609 15.3365 29.3096 15.1233 30.1302C14.7274 31.6536 13.6584 33.5631 12.9435 34.7281C14.5844 35.2361 16.3284 35.5102 18.1365 35.5102C27.8229 35.5102 35.6754 27.6577 35.6754 17.9714C35.6754 8.28505 27.8229 0.432617 18.1365 0.432617Z" fill="#9E9E9E"/>
</g>
<defs>
<clipPath id="clip0_1140_18547">
<rect width="147.105" height="36" fill="white" transform="translate(0.447266)"/>
</clipPath>
</defs>
</svg>
