<svg width="162" height="36" viewBox="0 0 162 36" fill="none" xmlns="http://www.w3.org/2000/svg">
<g clip-path="url(#clip0_1140_18549)">
<path fill-rule="evenodd" clip-rule="evenodd" d="M131.332 10.7955C131.945 11.852 132.145 13.054 132.211 14.4053L132.298 16.2064V28.8011L132.387 30.6042C132.565 33.5487 134.736 35.726 137.703 35.9112L139.497 36V16.2064L139.586 14.4053C139.66 13.0691 139.858 11.8444 140.48 10.7803C141.113 9.68896 142.023 8.78347 143.117 8.15478C144.211 7.5261 145.452 7.19635 146.714 7.19865C147.976 7.20095 149.215 7.53521 150.307 8.16788C151.399 8.80054 152.305 9.70934 152.935 10.803C153.547 11.8595 153.738 13.0842 153.812 14.4053L153.9 16.2008V28.8011L153.989 30.6042C154.174 33.5638 156.329 35.7411 159.306 35.9112L161.099 36V14.4053C161.099 10.5868 159.583 6.92454 156.883 4.22389C154.184 1.52325 150.522 0.00528842 146.703 0.00378499C144.66 0.00162961 142.639 0.43565 140.776 1.27685C138.914 2.11805 137.252 3.34706 135.902 4.88178C134.552 3.34767 132.89 2.11895 131.028 1.2775C129.165 0.436053 127.145 0.0011916 125.101 0.00189466C122.111 0.00189466 119.337 0.909077 117.039 2.47585C115.636 0.910966 112.499 0.00189466 110.698 0.00189466V36L112.499 35.9112C115.512 35.7127 117.689 33.5941 117.806 30.6042L117.902 28.8011V16.2064L117.991 14.4053C118.067 13.0464 118.256 11.852 118.87 10.7879C119.504 9.6972 120.413 8.79192 121.507 8.16247C122.6 7.53301 123.84 7.20141 125.101 7.20076C126.364 7.20103 127.604 7.5333 128.698 8.16423C129.792 8.79516 130.7 9.70258 131.332 10.7955ZM8.10121 35.9131L9.90234 36H36.9004L36.8116 34.2045C36.5678 31.2449 34.4718 29.0827 31.5027 28.89L29.7016 28.8011H13.5046L35.0993 7.19887L35.0105 5.4053C34.8706 2.41538 32.6858 0.25515 29.7016 0.0907223L27.9004 0.00945436L0.902344 0.00189466L0.991172 1.80303C1.22742 4.73436 3.35362 6.94184 6.29818 7.11193L8.10121 7.20076H24.2982L2.70348 28.803L2.79231 30.6042C2.96996 33.5714 5.11129 35.7203 8.10121 35.9112V35.9131ZM103.631 5.27111C105.303 6.94244 106.629 8.92671 107.534 11.1106C108.438 13.2945 108.904 15.6352 108.904 17.9991C108.904 20.3629 108.438 22.7036 107.534 24.8875C106.629 27.0714 105.303 29.0557 103.631 30.727C100.254 34.1016 95.6748 35.9972 90.9004 35.9972C86.1261 35.9972 81.547 34.1016 78.1697 30.727C71.1409 23.6982 71.1409 12.2999 78.1697 5.27111C79.8398 3.60034 81.8227 2.2749 84.0051 1.37048C86.1875 0.466063 88.5267 0.000373098 90.8891 4.33897e-06C93.2553 -0.00163847 95.5987 0.463231 97.7851 1.36802C99.9715 2.27281 101.958 3.59977 103.631 5.273V5.27111ZM98.5378 10.3683C100.562 12.3944 101.7 15.1414 101.7 18.0057C101.7 20.8699 100.562 23.6169 98.5378 25.643C96.5117 27.6676 93.7647 28.8048 90.9004 28.8048C88.0362 28.8048 85.2892 27.6676 83.2631 25.643C81.2386 23.6169 80.1013 20.8699 80.1013 18.0057C80.1013 15.1414 81.2386 12.3944 83.2631 10.3683C85.2892 8.34379 88.0362 7.20654 90.9004 7.20654C93.7647 7.20654 96.5117 8.34379 98.5378 10.3683ZM53.1125 4.33897e-06C55.4751 0.000621306 57.8143 0.466609 59.9967 1.37136C62.1792 2.2761 64.162 3.60189 65.832 5.273C72.8626 12.2999 72.8626 23.7001 65.832 30.727C62.4546 34.1016 57.8756 35.9972 53.1012 35.9972C48.3268 35.9972 43.7478 34.1016 40.3704 30.727C33.3416 23.6982 33.3416 12.2999 40.3704 5.27111C42.0406 3.60034 44.0235 2.2749 46.2059 1.37048C48.3883 0.466063 50.7275 0.000373098 53.0899 4.33897e-06H53.1125ZM60.7385 10.3646C62.7637 12.3907 63.9013 15.1382 63.9013 18.0028C63.9013 20.8675 62.7637 23.615 60.7385 25.6411C58.7125 27.6657 55.9654 28.8029 53.1012 28.8029C50.237 28.8029 47.4899 27.6657 45.4639 25.6411C43.4393 23.615 42.3021 20.868 42.3021 18.0038C42.3021 15.1396 43.4393 12.3925 45.4639 10.3664C47.4899 8.3419 50.237 7.20465 53.1012 7.20465C55.9654 7.20465 58.7125 8.3419 60.7385 10.3664V10.3646Z" fill="#9E9E9E"/>
</g>
<defs>
<clipPath id="clip0_1140_18549">
<rect width="160.197" height="36" fill="white" transform="translate(0.902344)"/>
</clipPath>
</defs>
</svg>
