<svg width="88" height="36" viewBox="0 0 88 36" fill="none" xmlns="http://www.w3.org/2000/svg">
<g clip-path="url(#clip0_1140_18559)">
<path d="M6.98859 14.044C6.98859 13.1111 7.75418 12.7521 9.02243 12.7521C10.8406 12.7521 13.1374 13.3025 14.9557 14.2834V8.66086C12.97 7.87138 11.0081 7.56034 9.02243 7.56034C4.16545 7.56034 0.935547 10.0965 0.935547 14.3314C0.935547 20.9345 10.0271 19.8819 10.0271 22.7291C10.0271 23.8295 9.0702 24.1885 7.73029 24.1885C5.74458 24.1885 3.20843 23.3749 1.19865 22.2744V27.9686C3.42375 28.9257 5.67274 29.3323 7.73029 29.3323C12.7067 29.3323 16.1281 26.8681 16.1281 22.5855C16.1042 15.4558 6.98859 16.7237 6.98859 14.044ZM23.162 2.77536L17.3243 4.01938L17.3004 23.1835C17.3004 26.7246 19.9562 29.3323 23.4971 29.3323C25.459 29.3323 26.8944 28.9734 27.6839 28.5428V23.686C26.9185 23.997 23.1381 25.0976 23.1381 21.5566V13.0631H27.6839V7.9671H23.1381L23.162 2.77536ZM35.1248 9.7375L34.7419 7.9671H29.5741V28.9016H35.5554V14.7141C36.9668 12.8719 39.3595 13.2068 40.1012 13.4699V7.9671C39.3356 7.67994 36.5364 7.15357 35.1248 9.7375ZM41.5605 7.9671H47.5658V28.9016H41.5605V7.9671ZM41.5605 6.14877L47.5658 4.8568V0L41.5605 1.26807V6.14877ZM60.0548 7.56034C57.7101 7.56034 56.2028 8.66086 55.3655 9.42662L55.0543 7.94321H49.7909V35.8399L55.7721 34.5719L55.7962 27.8011C56.6575 28.4232 57.9254 29.3084 60.0309 29.3084C64.3135 29.3084 68.2133 25.8631 68.2133 18.2789C68.1894 11.3405 64.2417 7.56034 60.0548 7.56034ZM58.6193 24.0448C57.2078 24.0448 56.3702 23.5425 55.7962 22.9204L55.7721 14.044C56.3942 13.3503 57.2555 12.8719 58.6193 12.8719C60.7965 12.8719 62.3038 15.3121 62.3038 18.4463C62.3038 21.6523 60.8204 24.0448 58.6193 24.0448ZM87.0664 18.5181C87.0664 12.3933 84.0996 7.56034 78.4294 7.56034C72.735 7.56034 69.2898 12.3934 69.2898 18.4704C69.2898 25.6717 73.3573 29.3084 79.1948 29.3084C82.042 29.3084 84.1953 28.6624 85.8222 27.7533V22.9682C84.1955 23.7817 82.3292 24.2842 79.9606 24.2842C77.6398 24.2842 75.5822 23.4707 75.3191 20.6475H87.0186C87.0186 20.3363 87.0664 19.0923 87.0664 18.5181ZM75.2473 16.2453C75.2473 13.5417 76.8982 12.4171 78.4055 12.4171C79.8649 12.4171 81.4201 13.5417 81.4201 16.2453H75.2473Z" fill="#9E9E9E"/>
</g>
<defs>
<clipPath id="clip0_1140_18559">
<rect width="86.1308" height="36" fill="white" transform="translate(0.935547)"/>
</clipPath>
</defs>
</svg>
