<svg width="57" height="64" viewBox="0 0 57 64" fill="none" xmlns="http://www.w3.org/2000/svg">
<path d="M50.7538 13.1819L50.7538 13.1819L33.2768 2.8144C33.2768 2.8144 33.2768 2.81439 33.2768 2.81438C30.3227 1.06187 26.6773 1.06187 23.7232 2.81438C23.7232 2.81439 23.7232 2.8144 23.7232 2.8144L6.24624 13.1819L6.24621 13.1819C3.29723 14.9314 1.5 18.1494 1.5 21.6102V42.3444C1.5 45.8052 3.29723 49.0232 6.24621 50.7726L6.24624 50.7727L23.7232 61.1401C26.6773 62.8927 30.3227 62.8927 33.2768 61.1401L50.7538 50.7727L50.7538 50.7726C53.7028 49.0232 55.5 45.8052 55.5 42.3444V21.6102C55.5 18.1485 53.7027 14.9313 50.7538 13.1819Z" fill="url(#paint0_linear_1359_36758)" stroke="white" stroke-width="3"/>
<path d="M24.5745 41.9912C19.0636 41.9912 14.5797 37.4992 14.5797 31.977L18.9688 31.977C18.9688 35.074 21.4835 37.593 24.574 37.593C27.6645 37.593 30.1792 35.0735 30.1792 31.977L34.5683 31.977C34.5688 37.4992 30.0855 41.9912 24.5745 41.9912ZM32.3743 21.9628C26.8633 21.9628 22.3794 26.4548 22.3794 31.977L26.7686 31.977C26.7686 28.88 29.2833 26.361 32.3737 26.361C35.4648 26.361 37.9789 28.8806 37.9789 31.977L42.3691 31.977C42.3691 26.4554 37.8858 21.9628 32.3743 21.9628Z" fill="black"/>
<defs>
<linearGradient id="paint0_linear_1359_36758" x1="3" y1="31.9773" x2="54" y2="31.9773" gradientUnits="userSpaceOnUse">
<stop stop-color="#FEF9CC"/>
<stop offset="0.4" stop-color="#F6DBD4"/>
<stop offset="0.75" stop-color="#F1C8D9"/>
<stop offset="1" stop-color="#F0C2DB"/>
</linearGradient>
</defs>
</svg>
