<svg width="546" height="481" viewBox="0 0 546 481" fill="none" xmlns="http://www.w3.org/2000/svg">
<path opacity="0.05" d="M242.773 481C108.913 481 -5.1604e-05 373.12 -4.001e-05 240.5L106.611 240.5C106.611 314.877 167.693 375.374 242.76 375.374C317.827 375.374 378.908 314.864 378.908 240.5L485.519 240.5C485.533 373.12 376.633 481 242.773 481ZM432.227 3.98113e-05C298.367 2.81089e-05 189.454 107.88 189.454 240.5L296.065 240.5C296.065 166.123 357.147 105.626 432.214 105.626C507.294 105.626 568.362 166.136 568.362 240.5L675 240.5C675 107.894 566.1 5.15148e-05 432.227 3.98113e-05Z" fill="white"/>
</svg>
