<svg width="16" height="16" viewBox="0 0 16 16" fill="none" xmlns="http://www.w3.org/2000/svg">
<path d="M11.334 8.93341V10.9334C11.334 13.6001 10.2673 14.6667 7.60065 14.6667H5.06732C2.40065 14.6667 1.33398 13.6001 1.33398 10.9334V8.40008C1.33398 5.73341 2.40065 4.66675 5.06732 4.66675H7.06732" stroke="#000F18" stroke-linecap="round" stroke-linejoin="round"/>
<path d="M11.3331 8.93341H9.19974C7.59974 8.93341 7.06641 8.40008 7.06641 6.80008V4.66675L11.3331 8.93341Z" stroke="#000F18" stroke-linecap="round" stroke-linejoin="round"/>
<path d="M7.73242 1.33325H10.3991" stroke="#000F18" stroke-linecap="round" stroke-linejoin="round"/>
<path d="M4.66602 3.33325C4.66602 2.22659 5.55935 1.33325 6.66602 1.33325H8.41268" stroke="#000F18" stroke-linecap="round" stroke-linejoin="round"/>
<path d="M14.6663 5.33325V9.45992C14.6663 10.4933 13.8263 11.3333 12.793 11.3333" stroke="#000F18" stroke-linecap="round" stroke-linejoin="round"/>
<path d="M14.666 5.33325H12.666C11.166 5.33325 10.666 4.83325 10.666 3.33325V1.33325L14.666 5.33325Z" stroke="#000F18" stroke-linecap="round" stroke-linejoin="round"/>
</svg>
