<svg width="32" height="32" viewBox="0 0 32 32" fill="none" xmlns="http://www.w3.org/2000/svg">
<path d="M11.5625 19.1071C11.5625 20.8271 12.8825 22.2138 14.5225 22.2138H17.8692C19.2958 22.2138 20.4558 21.0004 20.4558 19.5071C20.4558 17.8804 19.7492 17.3071 18.6958 16.9338L13.3225 15.0671C12.2692 14.6938 11.5625 14.1204 11.5625 12.4938C11.5625 11.0004 12.7225 9.78711 14.1492 9.78711H17.4958C19.1358 9.78711 20.4558 11.1738 20.4558 12.8938" stroke="#000F18" stroke-width="1.5" stroke-linecap="round" stroke-linejoin="round"/>
<path d="M16 8V24" stroke="#000F18" stroke-width="1.5" stroke-linecap="round" stroke-linejoin="round"/>
<path d="M16.0013 29.3327C23.3651 29.3327 29.3346 23.3631 29.3346 15.9993C29.3346 8.63555 23.3651 2.66602 16.0013 2.66602C8.63751 2.66602 2.66797 8.63555 2.66797 15.9993C2.66797 23.3631 8.63751 29.3327 16.0013 29.3327Z" stroke="#000F18" stroke-width="1.5" stroke-linecap="round" stroke-linejoin="round"/>
</svg>
