<svg width="24" height="24" viewBox="0 0 24 24" fill="none" xmlns="http://www.w3.org/2000/svg">
<path d="M5.40234 2.10352H18.6023C19.7023 2.10352 20.6023 3.00352 20.6023 4.10352V6.30352C20.6023 7.10352 20.1023 8.10352 19.6023 8.60352L15.3023 12.4035C14.7023 12.9035 14.3023 13.9035 14.3023 14.7035V19.0035C14.3023 19.6035 13.9023 20.4035 13.4023 20.7035L12.0023 21.6035C10.7023 22.4035 8.90234 21.5035 8.90234 19.9035V14.6035C8.90234 13.9035 8.50234 13.0035 8.10234 12.5035L4.30234 8.50352C3.80234 8.00352 3.40234 7.10352 3.40234 6.50352V4.20352C3.40234 3.00352 4.30234 2.10352 5.40234 2.10352Z" stroke="#FAFAFA" stroke-miterlimit="10" stroke-linecap="round" stroke-linejoin="round"/>
<path d="M10.93 2.10352L6 10.0035" stroke="#FAFAFA" stroke-miterlimit="10" stroke-linecap="round" stroke-linejoin="round"/>
</svg>
