<svg width="32" height="32" viewBox="0 0 32 32" fill="none" xmlns="http://www.w3.org/2000/svg">
<path d="M16.5768 29.0972C23.4721 29.0972 29.0618 23.5075 29.0618 16.6122C29.0618 9.71692 23.4721 4.1272 16.5768 4.1272C9.68152 4.1272 4.0918 9.71692 4.0918 16.6122C4.0918 23.5075 9.68152 29.0972 16.5768 29.0972Z" fill="#627EEA"/>
<path d="M16.9656 7.24878V14.1702L22.8156 16.7842L16.9656 7.24878Z" fill="white" fill-opacity="0.602"/>
<path d="M16.9626 7.24854L11.1118 16.784L16.9626 14.1699V7.24854Z" fill="white"/>
<path d="M16.9656 21.269V25.9719L22.8195 17.873L16.9656 21.269Z" fill="white" fill-opacity="0.602"/>
<path d="M16.9626 25.9719V21.2682L11.1118 17.873L16.9626 25.9719Z" fill="white"/>
<path d="M16.9656 20.1806L22.8156 16.7839L16.9656 14.1714V20.1806Z" fill="white" fill-opacity="0.2"/>
<path d="M11.1118 16.7839L16.9626 20.1806V14.1714L11.1118 16.7839Z" fill="white" fill-opacity="0.602"/>
</svg>
