<svg width="32" height="32" viewBox="0 0 32 32" fill="none" xmlns="http://www.w3.org/2000/svg">
<path d="M25.3307 22.6673V14.6673C25.3307 10.8967 25.3307 9.00998 24.1587 7.83932C22.9881 6.66732 21.1014 6.66732 17.3307 6.66732H13.3307M13.3307 6.66732C13.3307 5.73398 15.9894 3.98998 16.6641 3.33398M13.3307 6.66732C13.3307 7.60065 15.9894 9.34465 16.6641 10.0007M6.66406 10.0007V18.0007C6.66406 21.7713 6.66406 23.658 7.83606 24.8287C9.00673 26.0007 10.8934 26.0007 14.6641 26.0007H18.6641M18.6641 26.0007C18.6641 26.934 16.0054 28.6793 15.3307 29.334M18.6641 26.0007C18.6641 25.0673 16.0054 23.322 15.3307 22.6673" stroke="#000F18" stroke-width="1.5" stroke-linecap="round" stroke-linejoin="round"/>
<path d="M25.3307 28.0013C26.8035 28.0013 27.9974 26.8074 27.9974 25.3346C27.9974 23.8619 26.8035 22.668 25.3307 22.668C23.858 22.668 22.6641 23.8619 22.6641 25.3346C22.6641 26.8074 23.858 28.0013 25.3307 28.0013Z" stroke="#000F18" stroke-width="1.5" stroke-linecap="round" stroke-linejoin="round"/>
<path d="M6.66667 9.33333C8.13943 9.33333 9.33333 8.13943 9.33333 6.66667C9.33333 5.19391 8.13943 4 6.66667 4C5.19391 4 4 5.19391 4 6.66667C4 8.13943 5.19391 9.33333 6.66667 9.33333Z" stroke="#000F18" stroke-width="1.5" stroke-linecap="round" stroke-linejoin="round"/>
</svg>
