<svg width="32" height="32" viewBox="0 0 32 32" fill="none" xmlns="http://www.w3.org/2000/svg">
<path d="M16.0013 29.3327C23.3651 29.3327 29.3346 23.3631 29.3346 15.9993C29.3346 8.63555 23.3651 2.66602 16.0013 2.66602C8.63751 2.66602 2.66797 8.63555 2.66797 15.9993C2.66797 23.3631 8.63751 29.3327 16.0013 29.3327Z" stroke="#000F18" stroke-width="1.5" stroke-linecap="round" stroke-linejoin="round"/>
<path d="M10.6674 4H12.0008C9.40078 11.7867 9.40078 20.2133 12.0008 28H10.6674" stroke="#000F18" stroke-width="1.5" stroke-linecap="round" stroke-linejoin="round"/>
<path d="M20 4C22.6 11.7867 22.6 20.2133 20 28" stroke="#000F18" stroke-width="1.5" stroke-linecap="round" stroke-linejoin="round"/>
<path d="M4 21.3333V20C11.7867 22.6 20.2133 22.6 28 20V21.3333" stroke="#000F18" stroke-width="1.5" stroke-linecap="round" stroke-linejoin="round"/>
<path d="M4 12.0008C11.7867 9.40078 20.2133 9.40078 28 12.0008" stroke="#000F18" stroke-width="1.5" stroke-linecap="round" stroke-linejoin="round"/>
</svg>
