<svg width="234" height="234" viewBox="0 0 234 234" fill="none" xmlns="http://www.w3.org/2000/svg">
<circle cx="116.667" cy="117.333" r="113.333" fill="#221F1F" stroke="url(#paint0_linear_2922_13895)" stroke-width="6.66667"/>
<path d="M116.667 197.333C160.849 197.333 196.667 161.516 196.667 117.333C196.667 73.1505 160.849 37.3333 116.667 37.3333C72.4838 37.3333 36.6666 73.1505 36.6666 117.333C36.6666 161.516 72.4838 197.333 116.667 197.333Z" fill="#383434"/>
<path d="M152.611 107.433C154.181 96.9533 146.196 91.3183 135.286 87.5583L138.826 73.3583L130.186 71.2083L126.736 85.0333C124.466 84.4633 122.136 83.9333 119.811 83.4033L123.286 69.4883L114.646 67.3333L111.106 81.5283C109.223 81.1049 107.383 80.6716 105.586 80.2283L105.596 80.1833L93.6765 77.2083L91.3765 86.4383C91.3765 86.4383 97.7915 87.9083 97.6565 87.9983C101.156 88.8733 101.786 91.1883 101.681 93.0283L97.6515 109.203C97.8948 109.26 98.1948 109.355 98.5515 109.488L97.6365 109.263L91.9865 131.923C91.5565 132.983 90.4715 134.578 88.0215 133.973C88.1115 134.098 81.7415 132.408 81.7415 132.408L77.4515 142.298L88.7015 145.103C90.7915 145.628 92.8415 146.178 94.8565 146.693L91.2815 161.053L99.9165 163.203L103.456 149.003C105.813 149.637 108.11 150.232 110.346 150.788L106.816 164.928L115.456 167.078L119.031 152.748C133.771 155.538 144.851 154.413 149.516 141.083C153.276 130.353 149.331 124.158 141.576 120.123C147.226 118.823 151.476 115.108 152.611 107.433ZM132.861 135.123C130.196 145.858 112.121 140.053 106.261 138.598L111.011 119.573C116.871 121.038 135.656 123.933 132.861 135.123ZM135.536 107.278C133.101 117.043 118.061 112.078 113.186 110.863L117.486 93.6133C122.361 94.8282 138.076 97.0933 135.536 107.278Z" fill="#FFA333"/>
<defs>
<linearGradient id="paint0_linear_2922_13895" x1="116.667" y1="0.666748" x2="116.667" y2="234" gradientUnits="userSpaceOnUse">
<stop offset="0.35" stop-opacity="0"/>
<stop offset="1" stop-color="#E35CAD"/>
</linearGradient>
</defs>
</svg>
