<svg width="234" height="234" viewBox="0 0 234 234" fill="none" xmlns="http://www.w3.org/2000/svg">
<circle cx="117.333" cy="116.667" r="113.333" fill="#221F1F" stroke="url(#paint0_linear_2922_13900)" stroke-width="6.66667"/>
<path d="M117.333 195C161.516 195 197.333 159.183 197.333 115C197.333 70.8175 161.516 35.0002 117.333 35.0002C73.1506 35.0002 37.3334 70.8175 37.3334 115C37.3334 159.183 73.1506 195 117.333 195Z" fill="#383434"/>
<path fill-rule="evenodd" clip-rule="evenodd" d="M89.4516 75.8564L72.2025 112.081C72.1335 112.212 72.1097 112.362 72.1349 112.509C72.16 112.655 72.2327 112.788 72.3416 112.889L118.904 157.53C119.038 157.65 119.212 157.717 119.393 157.717C119.573 157.717 119.747 157.65 119.881 157.53L166.472 112.889C166.58 112.788 166.651 112.654 166.677 112.508C166.702 112.362 166.679 112.212 166.611 112.081L149.362 75.8564C149.316 75.7304 149.231 75.622 149.12 75.5468C149.009 75.4716 148.878 75.4334 148.744 75.4376H90.0636C89.9314 75.4412 89.8029 75.4825 89.6934 75.5567C89.5839 75.6309 89.4979 75.7349 89.4455 75.8564H89.4516Z" fill="#50AF95"/>
<path fill-rule="evenodd" clip-rule="evenodd" d="M125.397 115.786C125.064 115.814 123.336 115.925 119.489 115.925C116.425 115.925 114.251 115.842 113.47 115.786C101.628 115.258 92.7951 113.195 92.7951 110.742C92.7951 108.29 101.628 106.2 113.47 105.672V113.725C114.243 113.78 116.453 113.919 119.517 113.919C123.195 113.919 125.034 113.753 125.37 113.725V105.672C137.184 106.2 146.017 108.263 146.017 110.714C146.017 113.165 137.208 115.258 125.397 115.786ZM125.397 104.864V97.6454H141.894V86.6394H96.9753V97.6454H113.47V104.864C100.068 105.482 89.981 108.123 89.981 111.328C89.981 114.533 100.068 117.152 113.47 117.792V140.894H125.397V117.792C138.772 117.174 148.833 114.531 148.833 111.356C148.833 108.18 138.772 105.476 125.397 104.865V104.864Z" fill="white"/>
<defs>
<linearGradient id="paint0_linear_2922_13900" x1="117.333" y1="0" x2="117.333" y2="233.333" gradientUnits="userSpaceOnUse">
<stop stop-color="#FEF9CC"/>
<stop offset="0.65" stop-opacity="0"/>
</linearGradient>
</defs>
</svg>
