<svg width="670" height="374" viewBox="0 0 670 374" fill="none" xmlns="http://www.w3.org/2000/svg">
<path d="M202.863 260.975C203.67 260.913 204.477 260.951 205.276 261.06C205.54 261.068 205.796 261.014 206.021 260.889C206.261 260.812 206.471 260.68 206.641 260.486C206.827 260.308 206.967 260.106 207.045 259.865C207.169 259.632 207.223 259.384 207.215 259.12C207.192 258.616 207.029 258.096 206.649 257.747C206.517 257.646 206.385 257.545 206.253 257.445C205.951 257.266 205.625 257.181 205.276 257.181C204.477 257.08 203.67 257.033 202.863 257.095C202.599 257.088 202.343 257.142 202.118 257.266C201.877 257.344 201.668 257.476 201.497 257.67C201.311 257.848 201.171 258.05 201.094 258.29C200.97 258.523 200.915 258.771 200.923 259.035C200.946 259.539 201.109 260.059 201.489 260.408C201.854 260.742 202.351 261.014 202.863 260.975Z" fill="#383434"/>
<path d="M213.64 257.033C217.488 255.458 220.886 253.084 224.641 251.331C226.597 250.415 228.785 249.864 230.817 249.135C232.92 248.39 235.007 247.622 237.094 246.838C245.466 243.688 253.713 240.236 261.945 236.744C265.864 235.084 269.774 233.129 273.839 231.856C277.284 230.778 281.047 229.785 284.678 230.374C290.691 231.352 294.416 236.473 294.765 242.175C294.943 245.015 294.478 247.862 293.267 250.454C291.731 253.744 289.155 256.467 286.587 258.973C283.755 261.743 280.729 264.311 278.052 267.244C275.422 270.122 272.187 272.396 269.029 274.638C265.856 276.896 262.628 279.146 259.819 281.853C259.214 282.435 258.687 283.141 257.965 283.584C257.065 284.134 256.157 284.67 255.234 285.19C253.496 286.167 251.712 287.083 249.896 287.921C242.75 291.234 234.968 293.375 227.116 294.073C225.084 294.252 223.051 294.229 221.018 294.345C219.218 294.454 217.48 294.585 215.696 294.213C212.352 293.515 208.62 291.707 206.703 288.79C205.803 287.424 205.33 285.997 204.717 284.468C203.926 282.505 203.189 280.527 202.537 278.517C201.264 274.599 200.318 270.549 200.093 266.421C200.046 265.591 199.914 264.559 200.116 263.83C200.326 263.07 200.729 262.34 200.954 261.549C201.645 259.144 197.905 258.119 197.214 260.517C196.982 261.332 196.563 262.092 196.345 262.907C196.074 263.931 196.151 265.025 196.198 266.064C196.299 268.33 196.594 270.588 197.028 272.814C197.874 277.167 199.332 281.38 200.985 285.492C201.668 287.184 202.242 288.953 203.212 290.504C204.345 292.312 205.842 293.748 207.619 294.911C211.033 297.154 215.021 298.465 219.133 298.364C227.714 298.147 236.148 297.107 244.302 294.314C248.344 292.933 252.278 291.203 256.033 289.178C257.841 288.2 260.037 287.23 261.457 285.717C262.83 284.251 264.351 282.932 265.926 281.683C269.153 279.138 272.621 276.911 275.865 274.39C279.216 271.775 281.971 268.625 285.066 265.731C290.575 260.571 296.782 255.233 298.272 247.451C299.467 241.221 297.977 234.083 292.848 229.948C289.737 227.441 285.897 226.216 281.909 226.348C277.758 226.479 273.521 227.643 269.72 229.257C261.154 232.888 252.619 236.566 243.976 240.018C239.631 241.756 235.255 243.432 230.848 245.015C228.622 245.814 226.341 246.497 224.129 247.343C222.066 248.134 220.126 249.282 218.209 250.376C216.386 251.424 214.555 252.487 212.608 253.286C211.638 253.681 210.955 254.574 211.25 255.675C211.498 256.591 212.662 257.429 213.64 257.033Z" fill="#383434"/>
<path d="M218.597 296.719C218.83 300.443 218.853 304.206 219.552 307.884C220.266 311.639 221.91 315.061 224.417 317.955C226.86 320.779 230.042 322.889 233.626 323.937C236.931 324.907 240.446 324.984 243.86 324.806C247.6 324.604 251.316 324.17 255.056 324.022C259.463 323.852 263.885 323.867 268.269 323.293C272.66 322.719 276.772 321.516 280.729 319.507C284.36 317.668 287.697 315.325 290.917 312.85C294.16 310.359 297.302 307.737 300.615 305.339C303.602 303.167 306.325 300.831 308.622 297.922C311.058 294.826 313.114 291.451 315.403 288.255C317.894 284.779 320.462 281.334 322.394 277.501C323.868 274.576 325.35 271.589 326.444 268.493C327.491 265.537 328.182 262.177 327.297 259.089C325.745 253.643 320.043 251.494 314.961 250.788C309.522 250.027 303.85 250.446 298.567 251.944C293.873 253.278 288.86 255.66 286.222 259.982C285.641 260.936 285.191 262.007 284.927 263.093C284.329 265.514 288.077 266.553 288.666 264.125C288.729 263.884 288.791 263.644 288.868 263.411C288.899 263.326 289.101 262.775 289.031 262.953C288.961 263.116 289.225 262.558 289.287 262.441C289.419 262.201 289.559 261.96 289.706 261.727C289.83 261.541 289.954 261.355 290.086 261.177C289.861 261.479 290.234 261.006 290.311 260.905C290.653 260.509 291.017 260.137 291.405 259.788C291.91 259.33 291.956 259.299 292.352 259.012C292.833 258.663 293.337 258.337 293.857 258.042C294.307 257.778 294.765 257.538 295.238 257.305C295.812 257.026 296.216 256.847 296.619 256.684C301.329 254.814 306.085 254.139 311.081 254.31C311.702 254.333 312.323 254.364 312.944 254.419C313.634 254.481 313.983 254.52 314.418 254.589C315.473 254.752 316.513 254.97 317.537 255.264C318.041 255.412 318.53 255.575 319.019 255.761C319.119 255.8 319.228 255.839 319.329 255.885C319.259 255.862 318.988 255.73 319.321 255.885C319.562 255.994 319.802 256.11 320.043 256.227C320.974 256.708 321.827 257.297 322.502 258.112C324.132 260.059 324.007 262.682 323.41 265.118C322.712 267.958 321.439 270.596 320.167 273.21C318.538 276.578 316.699 279.743 314.542 282.808C312.284 286.012 310.042 289.217 307.831 292.452C306.015 295.105 304.029 297.588 301.6 299.706C298.776 302.174 295.595 304.269 292.654 306.596C286.789 311.236 280.683 316.201 273.374 318.335C265.739 320.562 257.577 319.825 249.733 320.469C243.627 320.973 236.799 322.005 231.252 318.723C228.296 316.97 225.875 314.176 224.502 311.026C223.245 308.148 222.927 304.967 222.741 301.863C222.64 300.149 222.57 298.426 222.461 296.712C222.306 294.229 218.427 294.213 218.582 296.712L218.597 296.719Z" fill="#383434"/>
<path d="M234.014 329.911C234.487 336.351 235.791 342.705 239.694 347.997C244.046 353.893 250.238 358.293 257.096 360.806C264.599 363.553 272.66 362.552 280.171 360.364C283.802 359.309 287.309 357.889 290.878 356.655C294.555 355.383 297.884 353.808 300.615 350.968C303.082 348.392 304.975 345.32 307.528 342.822C309.351 341.037 311.314 339.377 313.169 337.623C317.568 333.449 321.804 329.097 325.761 324.503C329.997 319.592 333.993 314.394 337.252 308.769C340.208 303.671 342.597 298.147 343.335 292.266C343.994 286.998 343.21 280.721 338.555 277.439C334.715 274.739 329.446 275.111 325.016 275.429C323.876 275.507 322.735 275.6 321.595 275.662C319.112 275.802 319.096 279.681 321.595 279.542C323.829 279.417 326.056 279.192 328.29 279.123C330.564 279.053 332.309 279.084 334.28 279.666C334.513 279.736 334.738 279.813 334.963 279.891C335.072 279.929 335.188 279.976 335.297 280.015C334.978 279.883 335.258 279.999 335.32 280.03C335.77 280.255 336.189 280.496 336.608 280.775C336.957 281.008 336.608 280.729 336.903 281.016C337.073 281.179 337.252 281.342 337.415 281.512C337.508 281.605 337.834 282.001 337.795 281.947C337.795 281.947 338.082 282.366 338.183 282.544C339.354 284.499 339.688 287.137 339.649 289.589C339.572 294.547 337.709 299.598 335.366 304.129C332.62 309.428 329.136 314.339 325.365 318.956C321.602 323.557 317.537 327.909 313.308 332.076C309.46 335.862 305.146 339.268 301.787 343.504C299.762 346.057 297.791 348.881 294.982 350.635C292.042 352.466 288.542 353.311 285.323 354.53C278.495 357.113 270.984 359.309 263.606 358.448C257.058 357.68 250.579 353.893 245.955 349.323C243.844 347.236 242.044 344.909 240.725 342.24C239.492 339.749 238.801 337.018 238.367 334.279C238.134 332.828 238.002 331.362 237.894 329.896C237.816 328.848 237.056 327.956 235.954 327.956C234.961 327.956 233.937 328.848 234.014 329.896V329.911Z" fill="#383434"/>
<path d="M274.197 359.495C273.84 362.622 274.778 365.803 277.215 367.89C279.511 369.869 282.506 370.823 285.454 371.281C292.282 372.359 299.769 372.064 306.155 369.325C310.236 367.572 313.836 364.887 317.102 361.908C320.788 358.541 324.264 354.855 327.561 351.108C330.944 347.26 333.59 342.899 336.786 338.911C338.353 336.956 339.944 335.009 341.302 332.906C342.551 330.974 343.544 328.895 344.397 326.761C346.259 322.098 347.167 316.946 345.026 312.229C343.195 308.194 339.261 304.214 334.513 304.455C332.03 304.587 332.014 308.466 334.513 308.334C337.678 308.171 340.192 311.081 341.511 313.843C343.133 317.241 342.318 321.113 341.1 324.542C339.665 328.577 337.329 332.045 334.668 335.373C333.178 337.243 331.65 339.09 330.308 341.076C329.051 342.922 327.833 344.761 326.405 346.491C323.379 350.161 320.027 353.591 316.66 356.95C313.813 359.798 310.763 362.451 307.256 364.453C303.897 366.369 300.165 367.572 296.293 367.797C293.787 367.944 291.258 367.975 288.752 367.797C286.122 367.603 283.049 367.083 280.83 365.756C280.528 365.578 280.233 365.384 279.961 365.174C280.248 365.399 279.961 365.159 279.891 365.097C279.744 364.965 279.597 364.833 279.457 364.693C279.379 364.616 279.302 364.531 279.224 364.445C279.147 364.36 279.077 364.274 279.007 364.189C279.139 364.36 279.139 364.36 279.007 364.181C278.828 363.925 278.681 363.654 278.526 363.382C278.479 363.305 278.324 362.956 278.472 363.297C278.402 363.134 278.347 362.963 278.293 362.793C278.184 362.443 278.091 362.079 278.037 361.714C278.091 362.055 278.037 361.637 278.029 361.551C278.014 361.311 277.998 361.07 277.998 360.83C277.998 360.387 278.037 359.945 278.084 359.503C278.2 358.463 277.106 357.563 276.144 357.563C274.996 357.563 274.321 358.455 274.204 359.503L274.197 359.495Z" fill="#383434"/>
<path d="M330.16 128.161C327.864 122.203 323.301 117.509 320.462 111.829C317.7 106.313 316.373 100.114 316.458 93.9454C316.458 93.4566 316.497 92.9678 316.544 92.479C316.582 92.1221 316.52 92.5566 316.582 92.2075C316.629 91.9592 316.676 91.7109 316.73 91.4626C316.823 91.0514 316.939 90.648 317.079 90.2445C317.118 90.1359 317.296 89.6859 317.234 89.8333C317.172 89.9729 317.397 89.4997 317.459 89.3833C317.638 89.0419 317.839 88.7315 318.049 88.4134C318.289 88.041 317.963 88.4833 318.173 88.235C318.305 88.072 318.445 87.9169 318.584 87.7617C318.817 87.5134 319.065 87.2962 319.321 87.0634C319.67 86.7453 319.205 87.1332 319.476 86.9315C319.647 86.8074 319.818 86.691 319.996 86.5824C320.307 86.3884 320.632 86.2022 320.958 86.0393C321.098 85.9694 321.245 85.8996 321.393 85.8375C321.726 85.6824 321.439 85.822 321.377 85.8375C321.478 85.7987 321.579 85.76 321.68 85.7212C322.448 85.4496 323.224 85.2324 324.023 85.0772C324.225 85.0384 324.419 85.0074 324.62 84.9763C324.962 84.922 324.403 84.9918 324.892 84.9375C325.342 84.891 325.784 84.8522 326.234 84.8289C327.103 84.7901 327.964 84.7979 328.833 84.8444C330.711 84.9453 332.015 85.1548 333.985 85.6125C335.801 86.0315 337.585 86.5901 339.315 87.2651C339.525 87.3427 339.734 87.4281 339.936 87.5134C340.309 87.6608 339.99 87.5289 340.262 87.6531C340.658 87.8315 341.053 88.01 341.449 88.1962C342.233 88.5686 342.993 88.9721 343.746 89.4066C344.413 89.7945 345.072 90.2135 345.701 90.6635C345.848 90.7721 345.996 90.8807 346.143 90.9893C346.415 91.1911 345.957 90.8264 346.291 91.1057C346.834 91.5712 347.377 92.029 347.904 92.5178C352.816 97.0411 356.757 102.488 361.769 106.918C366.681 111.255 372.29 114.731 377.178 119.091C381.725 123.157 385.72 128.006 390.989 131.195C392.866 132.336 394.914 133.15 396.854 134.167C398.67 135.121 400.276 136.145 401.253 137.805C401.804 138.737 402.076 139.753 402.239 140.87C402.394 141.91 403.705 142.476 404.628 142.228C405.738 141.925 406.134 140.886 405.986 139.838C405.614 137.301 404.396 134.958 402.464 133.259C400.71 131.715 398.631 130.691 396.544 129.69C394.271 128.604 392.098 127.432 390.127 125.849C387.582 123.809 385.294 121.473 382.966 119.2C380.607 116.896 378.14 114.778 375.525 112.768C372.849 110.72 370.11 108.757 367.48 106.646C364.749 104.458 362.188 102.1 359.806 99.5394C357.44 96.9946 355.213 94.3256 352.792 91.8428C349.743 88.7238 346.477 86.1789 342.489 84.4099C338.741 82.7496 334.823 81.6168 330.75 81.1358C327.033 80.6935 323.139 80.8875 319.67 82.3927C316.373 83.828 313.96 86.66 313.075 90.1592C312.439 92.673 312.54 95.3265 312.75 97.8868C313.021 101.239 313.626 104.575 314.666 107.779C315.698 110.953 317.102 114.017 318.84 116.865C320.563 119.689 322.588 122.319 324.326 125.135C325.125 126.431 325.893 127.766 326.444 129.193C326.816 130.171 327.747 130.846 328.833 130.551C329.764 130.295 330.564 129.147 330.191 128.161H330.16Z" fill="#383434"/>
<path d="M393.696 132.995C401.603 133.422 409.501 132.871 417.298 131.505C424.056 130.326 430.651 128.627 436.998 125.996C448.993 121.023 459.615 113.505 469.313 104.939C479.073 96.3193 487.926 86.7373 496.988 77.4035C502.73 71.4914 508.277 65.3775 513.972 59.4188C519.69 53.4524 525.432 47.5014 531.119 41.5039C533.974 38.5013 536.806 35.4832 539.63 32.4417C542.47 29.377 544.976 26.002 547.591 22.7356C548.118 22.0761 548.553 21.6183 549.251 21.145C550.151 20.5321 550.811 19.9192 551.455 19.0424C552.517 17.5993 553.635 16.195 554.791 14.8294C557.103 12.0906 559.578 9.4992 562.146 7.00865C563.403 5.79053 564.691 4.58793 565.979 3.40085C567.818 1.70945 565.071 -1.02938 563.232 0.654259C557.91 5.55777 552.882 10.7096 548.53 16.5053C548.048 17.1415 547.699 17.5062 547.04 17.9485C546.287 18.4605 545.651 18.9648 545.077 19.6786C543.75 21.339 542.423 22.9994 541.097 24.6597C539.77 26.3201 538.459 27.9805 537.008 29.5477C535.619 31.0452 534.222 32.5426 532.818 34.0323C521.599 45.9807 510.108 57.6654 498.92 69.6371C489.796 79.3975 480.594 89.1813 470.826 98.3055C461.64 106.879 451.677 114.731 440.326 120.255C427.68 126.415 413.318 129.224 399.298 129.247C397.428 129.247 395.559 129.193 393.689 129.092C391.19 128.96 391.198 132.84 393.689 132.971L393.696 132.995Z" fill="#383434"/>
<path d="M266.515 122.288C269.565 122.109 272.622 121.822 275.624 121.248C277.114 120.961 278.588 120.604 280.031 120.146C280.729 119.929 281.443 119.712 282.118 119.409C282.917 119.052 283.67 118.548 284.454 118.145C289.908 115.32 295.882 113.66 301.639 111.565C305.022 110.332 308.397 109.059 311.749 107.74C312.726 107.36 313.401 106.437 313.107 105.35C312.851 104.419 311.702 103.613 310.717 103.993C304.96 106.251 299.164 108.392 293.314 110.394C290.358 111.402 287.448 112.465 284.601 113.769C283.235 114.389 281.963 115.165 280.621 115.833C279.356 116.461 277.835 116.779 276.47 117.105C273.203 117.889 269.867 118.214 266.523 118.408C264.04 118.548 264.025 122.435 266.523 122.288H266.515Z" fill="#383434"/>
<path d="M350.022 93.8286C352.521 93.8286 352.521 89.9492 350.022 89.9492C347.524 89.9492 347.524 93.8286 350.022 93.8286Z" fill="#383434"/>
<path d="M354.29 99.5314C358.045 99.3064 361.777 98.6857 365.548 98.678C369.435 98.6702 373.151 99.8573 376.937 100.602C381.011 101.409 385.022 101.828 389.173 101.634C392.889 101.456 396.722 100.982 400.415 101.673C403.069 102.169 405.637 103.318 408.127 104.334C410.16 105.172 412.604 106.336 414.575 107.717C415.374 108.276 416.243 109.013 416.996 109.866C417.345 110.254 417.469 110.417 417.803 110.952C417.95 111.185 418.082 111.418 418.206 111.666C418.392 112.038 418.385 112.015 418.462 112.232C419.323 114.622 419.044 117.089 417.407 119.316C416.297 120.829 414.901 122.171 413.582 123.506C412.496 124.6 411.115 125.104 409.64 125.453C406.234 126.252 402.72 126.524 400.19 129.255C398.499 131.086 401.23 133.833 402.937 132.002C405.008 129.767 408.283 129.814 411.053 129.1C412.705 128.673 414.265 127.99 415.591 126.912C416.941 125.818 418.152 124.406 419.292 123.102C421.628 120.433 423.148 117.4 422.753 113.776C422.45 111.014 421.178 108.563 419.222 106.6C415.514 102.86 410.3 101.037 405.497 99.1745C401.765 97.7314 397.948 97.3435 393.968 97.4986C389.848 97.6616 385.751 98.0883 381.639 97.4986C379.242 97.1573 376.868 96.6452 374.501 96.1254C372.243 95.621 370.001 95.0391 367.689 94.8684C363.204 94.527 358.743 95.3883 354.274 95.6521C351.791 95.7995 351.776 99.6788 354.274 99.5314H354.29Z" fill="#383434"/>
<path d="M263.567 126.175C271.24 127.261 279.03 127.416 286.68 128.689C290.738 129.364 294.773 130.078 298.869 130.551C302.935 131.024 307.024 131.342 311.112 131.56C318.972 131.971 326.847 131.994 334.722 132.041C338.695 132.064 342.659 132.095 346.632 132.18C350.341 132.266 354.018 132.498 357.727 132.731C359.589 132.847 361.435 132.879 363.29 133.065C365.09 133.243 366.882 133.46 368.667 133.716C372.562 134.275 376.425 134.997 380.266 135.827C386.597 137.2 392.773 138.806 398.67 141.545C409.571 146.619 418.912 154.3 427.222 162.889C435.648 171.602 443.088 181.2 450.738 190.588C451.669 191.728 452.608 192.869 453.547 194.009C454.214 194.816 455.595 194.7 456.294 194.009C457.093 193.21 456.961 192.078 456.294 191.263C448.519 181.875 441.118 172.169 432.855 163.207C424.615 154.269 415.397 146.014 404.644 140.211C399.12 137.223 393.215 134.896 387.117 133.383C379.692 131.544 372.104 130.14 364.5 129.302C360.768 128.891 356.998 128.766 353.242 128.51C349.402 128.247 345.53 128.247 341.674 128.2C333.752 128.107 325.831 128.153 317.909 127.928C309.832 127.696 301.74 127.184 293.748 125.965C289.722 125.353 285.734 124.553 281.684 124.096C277.781 123.653 273.871 123.39 269.96 123.017C268.168 122.846 266.383 122.66 264.607 122.404C263.567 122.257 262.52 122.66 262.217 123.762C261.969 124.67 262.527 125.997 263.575 126.152L263.567 126.175Z" fill="#383434"/>
<path d="M455.619 195.298C454.874 194.84 454.525 194.382 454.525 193.544C453.555 194.103 452.577 194.661 451.607 195.22C454.835 197.439 457.201 200.83 459.366 204.026C461.678 207.432 463.905 210.877 466.318 214.206C469.274 218.279 471.772 222.655 474.24 227.031C476.645 231.306 479.12 235.519 481.719 239.677C484.326 243.844 486.871 248.15 488.5 252.813C490.207 257.701 490.882 262.884 492.154 267.88C492.798 270.417 493.691 272.877 494.443 275.383C495.188 277.866 495.84 280.38 496.437 282.901C497.648 288.061 498.618 293.275 499.727 298.458C500.635 302.694 501.853 306.876 502.629 311.143C503.18 314.184 503.405 317.482 501.837 320.042C500.076 322.921 496.181 324.333 492.93 325.093C489.385 325.916 485.466 325.823 482.208 324.077C480.61 323.216 479.097 322.005 478.049 320.508C476.971 318.964 476.311 317.203 475.784 315.403C474.628 311.438 474.061 307.349 472.579 303.477C469.08 294.338 463.292 286.369 458.699 277.788C453.726 268.501 449.357 258.911 444.252 249.702C439.24 240.663 433.173 232.353 427.012 224.075C425.507 222.05 424.002 220.025 422.512 217.992C421.891 217.146 420.829 216.727 419.859 217.293C418.943 217.829 418.641 219.031 419.16 219.947C423.684 227.861 429.379 235.007 434.655 242.424C437.277 246.117 439.806 249.888 442.01 253.853C444.4 258.151 446.308 262.705 448.256 267.213C452.306 276.593 456.123 286.082 460.375 295.377C462.26 299.497 464.332 303.532 466.14 307.683C467.846 311.593 469.375 315.79 469.732 320.066C470.042 323.79 469.235 327.173 467.792 330.579C467.497 331.269 467.179 331.944 466.822 332.604C466.659 332.906 466.489 333.201 466.295 333.488C465.969 333.969 466.683 333.139 466.116 333.705C465.93 333.892 465.752 334.093 465.542 334.249C464.223 335.226 462.361 335.42 460.786 335.653C456.371 336.297 452.189 337.926 447.681 338.042C445.641 338.097 443.515 337.996 441.599 337.236C440.256 336.7 439.193 335.824 438.169 334.737C435.392 331.804 432.878 328.484 430.612 325.148C427.967 321.253 425.639 317.156 423.335 313.059C418.804 304.983 414.001 297.061 409.353 289.054C404.729 281.078 399.934 273.156 394.014 266.057C391.089 262.55 388.001 259.214 385.193 255.606C382.384 252.006 379.653 248.336 376.604 244.922C375.122 243.254 373.562 241.664 371.902 240.166C370.358 238.762 367.534 240.616 368.853 242.517C371.491 246.319 374.734 249.585 378.078 252.766C381.5 256.033 384.805 259.377 387.939 262.923C394.441 270.27 400.54 278.006 406.444 285.842C412.294 293.593 417.857 301.576 422.729 309.987C427.191 317.691 432.102 326.265 432.56 335.374C432.738 338.943 432.242 343.179 429.805 345.848C427.804 348.036 424.987 349.037 421.985 349.479C418.966 349.921 415.382 349.727 412.387 349.277C408.415 348.687 404.489 347.648 400.927 345.762C397.498 343.947 394.263 341.456 391.648 338.586C390.376 337.189 389.646 335.544 388.94 333.814C388.04 331.603 387.032 329.446 385.938 327.32C383.734 323.06 381.344 318.863 378.893 314.743C376.418 310.592 373.562 306.689 370.661 302.833C364.57 294.718 358.852 286.4 353.312 277.905C350.705 273.909 348.106 269.905 345.484 265.917C342.978 262.1 340.378 258.329 337.415 254.853C336.033 253.232 334.567 251.688 332.984 250.268C332.201 251.284 331.417 252.301 330.633 253.317C333.621 255.474 335.708 259.191 337.57 262.372C338.594 264.117 339.571 265.886 340.619 267.617C341.821 269.595 343.14 271.504 344.328 273.498C346.981 277.959 349.316 282.614 351.512 287.316C353.747 292.095 355.997 296.89 358.061 301.747C360.086 306.511 361.715 311.438 363.678 316.225C364.686 318.677 365.757 321.09 366.991 323.433C368.108 325.559 369.303 327.646 370.358 329.811C371.406 331.952 372.205 334.155 372.818 336.46C373.345 338.423 374.152 340.293 374.788 342.217C375.068 343.07 375.355 343.947 375.487 344.839C375.595 345.568 375.572 345.995 375.269 346.779C374.835 347.904 373.539 349.238 372.344 350.177C368.985 352.831 365.377 354.204 361.381 355.275C355.95 356.725 350.341 356.989 344.754 357.3C342.272 357.432 342.256 361.311 344.754 361.179C354.181 360.667 363.98 359.992 372.243 354.941C375.463 352.97 378.962 350.115 379.381 346.104C379.591 344.079 378.815 341.961 378.148 340.091C377.395 337.98 376.743 335.886 376.084 333.744C374.563 328.825 371.793 324.504 369.528 319.918C367.13 315.061 365.392 309.925 363.453 304.882C361.474 299.73 359.131 294.733 356.85 289.713C354.608 284.779 352.304 279.86 349.689 275.104C347.128 270.433 344.141 266.026 341.472 261.41C339.075 257.259 336.53 252.836 332.573 249.973C330.789 248.685 328.593 251.556 330.222 253.022C337.019 259.144 341.697 267.26 346.655 274.832C352.397 283.6 358.029 292.429 364.306 300.832C367.262 304.796 370.304 308.699 373.05 312.819C375.812 316.947 378.194 321.33 380.607 325.667C381.779 327.77 382.919 329.904 383.944 332.084C384.929 334.186 385.627 336.452 386.776 338.477C388.754 341.968 392.284 344.762 395.512 347.027C402.091 351.636 410.44 353.661 418.416 353.606C421.938 353.583 425.538 353.04 428.711 351.45C431.939 349.836 434.274 347.004 435.407 343.59C438.418 334.505 434.67 324.581 430.612 316.465C426.159 307.566 420.798 299.156 415.025 291.056C409.198 282.878 403.007 274.933 396.614 267.19C393.355 263.241 390.019 259.354 386.496 255.645C383.292 252.262 379.754 249.213 376.534 245.838C374.959 244.185 373.477 242.455 372.174 240.577C371.157 241.361 370.141 242.145 369.124 242.928C376.146 249.29 381.181 257.391 387.396 264.467C390.476 267.981 393.479 271.465 396.164 275.305C398.864 279.169 401.346 283.181 403.752 287.238C406.149 291.288 408.469 295.393 410.851 299.458C413.248 303.555 415.754 307.59 418.09 311.725C420.456 315.93 422.768 320.166 425.344 324.247C427.835 328.197 430.667 331.836 433.615 335.451C435.88 338.229 438.402 340.603 442.002 341.449C446.851 342.589 452.088 341.759 456.821 340.448C458.784 339.905 460.732 339.602 462.733 339.268C464.727 338.935 466.675 338.337 468.242 337.018C469.577 335.893 470.352 334.264 471.043 332.697C471.757 331.067 472.416 329.392 472.905 327.677C475.434 318.762 471.291 309.459 467.513 301.545C463.152 292.413 459.133 283.157 455.2 273.831C451.32 264.637 447.658 255.257 442.258 246.823C437.223 238.956 431.272 231.725 426.12 223.935C424.84 222.003 423.622 220.032 422.466 218.023C421.348 218.675 420.231 219.326 419.114 219.978C425.375 228.551 431.978 236.908 437.533 245.977C443.213 255.249 447.759 265.165 452.709 274.832C455.037 279.371 457.496 283.817 460.127 288.185C462.718 292.499 465.333 296.805 467.451 301.383C468.413 303.47 469.282 305.619 469.895 307.83C470.453 309.84 470.849 311.896 471.33 313.928C472.323 318.11 473.735 322.261 477.033 325.21C483.519 331.005 493.497 330.462 500.697 326.257C504.126 324.255 506.252 321.066 506.741 317.133C507.199 313.424 506.283 309.615 505.414 306.03C502.916 295.765 501.325 285.26 498.346 275.119C497.593 272.551 496.662 270.03 495.98 267.438C495.297 264.823 494.769 262.178 494.195 259.54C493.644 257.003 493.086 254.45 492.24 251.991C491.386 249.508 490.3 247.103 489.082 244.775C486.7 240.205 483.775 235.977 481.176 231.539C478.577 227.093 476.164 222.531 473.479 218.139C471.051 214.167 468.18 210.505 465.627 206.618C463.222 202.963 460.887 199.216 457.977 195.934C456.643 194.429 455.169 193.063 453.508 191.922C452.267 191.069 450.591 192.21 450.591 193.598C450.591 195.825 451.739 197.555 453.601 198.696C455.735 199.999 457.69 196.648 455.557 195.344L455.619 195.298Z" fill="#383434"/>
<path d="M493.885 264.947C501.605 265.723 506.275 258.515 511.784 254.582C519.535 249.042 528.209 244.945 536.597 240.492C541.717 237.776 546.838 235.061 551.99 232.407C554.209 231.259 552.246 227.915 550.035 229.055C541.337 233.548 532.671 238.102 524.035 242.711C519.985 244.876 515.974 247.126 512.141 249.655C508.968 251.75 506.268 254.233 503.428 256.746C500.712 259.159 497.648 261.448 493.885 261.076C492.837 260.967 491.945 262.046 491.945 263.015C491.945 264.148 492.837 264.846 493.885 264.955V264.947Z" fill="#383434"/>
<path d="M330.439 348.532C330.742 350.751 332.201 352.598 333.683 354.188C334.373 354.925 335.087 355.639 335.746 356.407C335.824 356.5 335.909 356.593 335.987 356.694L336.065 356.787C336.196 356.95 336.165 356.912 335.987 356.687C335.987 356.811 336.305 357.129 336.375 357.23C336.654 357.641 336.895 358.083 337.089 358.541C337.484 359.48 338.943 359.751 339.742 359.239C340.72 358.611 340.867 357.587 340.44 356.586C339.634 354.685 338.082 353.203 336.685 351.729C336.352 351.38 336.026 351.023 335.715 350.658C335.653 350.588 335.374 350.146 335.281 350.13C335.459 350.363 335.483 350.394 335.358 350.231L335.289 350.13C335.219 350.03 335.149 349.929 335.079 349.828C334.947 349.626 334.823 349.424 334.707 349.207C334.652 349.099 334.598 348.998 334.544 348.889C334.521 348.835 334.49 348.78 334.466 348.726C334.404 348.594 334.435 348.656 334.544 348.912C334.567 348.773 334.358 348.385 334.319 348.23C334.257 347.989 334.21 347.749 334.179 347.508C334.04 346.499 332.697 345.863 331.789 346.15C330.68 346.507 330.284 347.454 330.432 348.54L330.439 348.532Z" fill="#383434"/>
<path d="M287.751 255.389C287.805 255.823 287.867 256.25 287.922 256.684L291.537 255.707C288.48 250.26 284.826 244.852 279.62 241.244C275.616 238.467 269.867 237.598 265.212 239.064C254.086 242.563 256.708 258.733 262.659 265.731C264.436 267.826 266.865 269.416 269.557 270.053C272.583 270.766 275.733 270.371 278.658 269.424C279.247 269.23 279.915 268.734 280.016 268.066C280.101 267.515 280.178 266.965 280.264 266.414C280.419 265.382 280.008 264.327 278.906 264.024C277.991 263.776 276.679 264.334 276.516 265.382C276.431 265.933 276.353 266.484 276.268 267.034L277.626 265.677C275.632 266.321 273.335 266.747 271.388 266.468C269.456 266.189 267.803 265.374 266.415 264.063C263.365 261.184 261.946 257.049 261.581 252.929C261.232 249.019 261.798 244.588 265.569 243.037C269.021 241.617 273.661 242.152 276.726 243.983C281.862 247.056 285.323 252.572 288.178 257.662C289.054 259.221 292.057 258.663 291.793 256.684C291.739 256.25 291.677 255.823 291.623 255.389C291.483 254.349 290.831 253.449 289.683 253.449C288.744 253.449 287.604 254.341 287.743 255.389H287.751Z" fill="#383434"/>
<path d="M320.066 278.153C317.071 275.453 314.231 272.582 310.988 270.169C308.055 267.989 304.432 266.01 300.654 266.732C296.123 267.593 293.772 272.233 292.274 276.128C290.381 281.039 289.892 287.308 293.593 291.544C296.588 294.966 301.499 294.205 305.534 294.05C308.024 293.949 308.032 290.07 305.534 290.171C303.811 290.241 302.089 290.404 300.359 290.349C299.063 290.311 298.008 290.163 296.984 289.442C297.263 289.643 296.759 289.255 296.759 289.248C296.658 289.155 296.565 289.061 296.472 288.961C296.2 288.673 296.138 288.573 295.913 288.2C295.401 287.354 295.091 286.423 294.873 285.461C294.354 283.126 294.804 280.705 295.541 278.471C296.2 276.453 297.069 274.312 298.396 272.628C298.807 272.109 299.459 271.48 299.839 271.224C300.537 270.759 300.669 270.704 301.499 270.51C301.872 270.425 301.623 270.479 301.53 270.487C301.717 270.464 301.903 270.456 302.089 270.448C302.399 270.44 302.717 270.448 303.028 270.487C302.71 270.448 303.517 270.596 303.656 270.627C304.052 270.728 304.432 270.852 304.812 270.999C305.2 271.146 306.015 271.558 306.589 271.891C307.334 272.326 308.04 272.799 308.738 273.303C311.811 275.538 314.495 278.339 317.327 280.891C319.174 282.56 321.928 279.821 320.074 278.145L320.066 278.153Z" fill="#383434"/>
<path d="M336.057 296.518C334.862 296.316 333.9 295.641 332.922 294.951C331.844 294.198 330.804 293.484 329.625 292.902C328.732 292.46 327.995 291.451 326.94 291.009C325.722 290.497 324.488 290.761 323.332 291.288C321.307 292.212 319.624 293.981 318.173 295.626C317.079 296.867 315.969 298.163 315.155 299.614C313.518 302.531 312.672 305.883 312.284 309.188C311.904 312.408 312.059 315.938 313.595 318.863C315.55 322.595 319.554 323.541 323.433 322.711C325.869 322.191 324.838 318.452 322.401 318.972C321.618 319.142 321.331 319.197 320.4 319.166C320.229 319.166 320.058 319.15 319.887 319.135C320.361 319.181 319.841 319.127 319.756 319.111C319.406 319.034 319.065 318.941 318.731 318.809C319.205 318.995 318.475 318.646 318.359 318.584C318.258 318.529 318.165 318.452 318.064 318.39C318.468 318.669 318.095 318.413 318.018 318.343C317.816 318.149 317.614 317.947 317.428 317.738C317.118 317.373 317.645 318.079 317.389 317.676C317.281 317.513 317.18 317.35 317.079 317.187C316.931 316.931 316.8 316.66 316.675 316.388C316.862 316.822 316.543 315.969 316.497 315.829C316.303 315.201 316.171 314.549 316.078 313.897C316.14 314.363 316.078 313.789 316.07 313.727C316.055 313.556 316.039 313.378 316.031 313.207C316.008 312.85 315.993 312.493 315.993 312.136C315.993 311.407 316.016 310.67 316.086 309.948C316.163 309.056 316.171 309.017 316.342 308.071C316.481 307.287 316.66 306.511 316.877 305.751C317.048 305.13 317.242 304.509 317.459 303.904C317.575 303.586 317.692 303.276 317.824 302.965C317.645 303.384 317.862 302.896 317.886 302.833C317.971 302.647 318.064 302.453 318.157 302.267C318.398 301.786 318.654 301.321 318.949 300.878C319.445 300.118 319.445 300.164 320.027 299.458C321.199 298.031 322.51 296.51 323.976 295.447C324.163 295.315 324.349 295.191 324.543 295.067C324.613 295.028 325.257 294.687 325.008 294.795C325.179 294.726 325.373 294.702 325.544 294.625C325.311 294.726 325.544 294.695 325.419 294.586C326.126 295.23 327.002 295.959 327.91 296.386C330.354 297.55 332.255 299.815 335.017 300.289C336.049 300.467 337.104 300.017 337.407 298.931C337.663 298 337.089 296.72 336.049 296.541L336.057 296.518Z" fill="#383434"/>
<path d="M326.894 320.515C327.088 323.308 327.421 326.14 328.632 328.693C329.718 330.99 331.743 332.65 334.179 333.34C335.84 333.814 337.616 333.868 339.331 333.744C340.34 333.674 341.317 332.906 341.271 331.804C341.224 330.819 340.417 329.787 339.331 329.865C338.602 329.919 337.872 329.942 337.143 329.903C336.84 329.888 336.546 329.849 336.243 329.826C336.119 329.818 336.631 329.896 336.243 329.826C336.08 329.795 335.909 329.764 335.746 329.733C335.49 329.678 335.242 329.609 334.994 329.531C334.862 329.492 334.738 329.446 334.614 329.399C334.21 329.259 334.893 329.539 334.614 329.399C334.389 329.29 334.164 329.182 333.946 329.05C333.853 328.996 333.768 328.941 333.683 328.879C333.636 328.848 333.597 328.817 333.551 328.794C333.279 328.615 333.597 328.794 333.652 328.879C333.551 328.716 333.295 328.577 333.155 328.445C332.984 328.282 332.837 328.088 332.674 327.917C332.511 327.746 332.922 328.266 332.79 328.065C332.759 328.018 332.728 327.979 332.697 327.94C332.635 327.855 332.581 327.77 332.519 327.684C332.371 327.467 332.239 327.234 332.123 327.002C332.077 326.908 332.022 326.808 331.976 326.715C331.758 326.257 331.999 326.715 331.976 326.722C331.991 326.715 331.727 326.055 331.696 325.977C331.518 325.442 331.378 324.899 331.254 324.348C331.184 324.038 331.13 323.72 331.076 323.402C331.045 323.223 331.021 323.052 330.99 322.874C330.92 322.416 331.014 323.122 330.975 322.781C330.889 322.02 330.812 321.252 330.758 320.484C330.688 319.476 329.92 318.498 328.818 318.545C327.825 318.591 326.801 319.398 326.878 320.484L326.894 320.515Z" fill="#383434"/>
<path d="M263.901 126.78C276.392 127.75 288.907 127.199 301.414 127.098C307.737 127.052 314.069 127.121 320.376 127.579C326.576 128.029 332.651 129.053 338.772 130.093C350.69 132.11 362.615 134.112 374.4 136.828C380.421 138.216 386.395 139.791 392.3 141.615C397.157 143.12 401.742 144.85 406.087 147.519C414.42 152.624 421.216 159.801 427.858 166.877C429.549 168.685 431.241 170.493 432.948 172.285C433.731 173.107 434.523 173.922 435.322 174.737C436.354 175.784 437.137 176.971 437.991 178.174C441.319 182.837 444.865 187.345 448.582 191.713C452.445 196.252 456.495 200.628 460.662 204.887C462.625 206.897 464.502 208.735 465.814 211.257C466.97 213.484 467.746 215.873 468.622 218.217C469.553 220.699 470.577 223.19 472.137 225.355C473.759 227.597 475.737 229.482 477.7 231.422C478.507 232.221 479.492 233.051 480.128 233.99C480.889 235.115 481.525 236.294 482.386 237.365C484.124 239.522 485.56 241.888 486.917 244.317C492.659 254.597 494.692 266.678 496.282 278.215C497.097 284.119 497.686 290.055 498.315 295.982C498.641 299.055 498.974 302.119 499.339 305.192C499.51 306.643 499.626 308.125 499.967 309.552C500.332 311.073 500.643 312.617 500.852 314.169C501.248 317.102 501.263 320.081 500.906 323.021C500.782 324.061 501.892 324.961 502.846 324.961C504.002 324.961 504.662 324.069 504.786 323.021C505.166 319.871 505.08 316.721 504.654 313.579C504.25 310.607 503.521 307.721 503.164 304.742C502.435 298.589 501.837 292.413 501.147 286.261C500.464 280.232 499.688 274.211 498.594 268.245C497.492 262.24 496.197 256.102 494.017 250.384C493.016 247.754 491.821 245.209 490.463 242.742C489.051 240.174 487.569 237.435 485.629 235.239C484.854 234.362 484.233 233.377 483.643 232.369C482.953 231.189 481.936 230.204 480.982 229.234C479.112 227.341 477.056 225.572 475.481 223.407C472.339 219.093 471.501 213.616 468.979 208.968C467.614 206.439 465.705 204.507 463.711 202.474C461.554 200.271 459.428 198.044 457.349 195.778C453.369 191.449 449.528 186.98 445.897 182.348C444.112 180.067 442.382 177.732 440.714 175.357C439.946 174.271 439.248 173.216 438.309 172.269C437.386 171.331 436.47 170.384 435.562 169.438C428.719 162.268 422.179 154.727 414.334 148.605C410.409 145.541 406.203 142.825 401.626 140.831C396.311 138.511 390.601 136.998 385.007 135.493C373.128 132.297 361.04 130.015 348.928 127.928C342.768 126.865 336.608 125.702 330.416 124.809C324.015 123.886 317.568 123.444 311.105 123.289C298.473 122.994 285.835 123.746 273.203 123.397C270.092 123.312 266.989 123.157 263.893 122.916C261.402 122.722 261.418 126.602 263.893 126.796L263.901 126.78Z" fill="#383434"/>
<path d="M202.188 259.733C202.203 260.502 202.203 261.262 202.157 262.03C202.11 262.721 202.11 262.86 201.932 263.52C201.885 263.706 201.823 263.892 201.753 264.071C201.66 264.342 201.901 263.784 201.769 264.024C201.738 264.086 201.707 264.156 201.668 264.218C201.575 264.381 201.474 264.536 201.381 264.691C201.117 265.11 201.49 264.606 201.218 264.901C199.736 266.569 198.246 268.322 197.416 270.417C196.462 272.822 196.415 275.631 196.532 278.176C196.648 280.651 196.927 283.242 197.696 285.609C199.232 290.318 202.708 293.67 207.239 295.532C211.537 297.301 216.371 297.658 220.972 297.681C225.425 297.697 229.871 297.324 234.317 297.154C240.694 296.906 246.544 294.919 251.906 291.49C254.893 289.573 257.717 287.417 260.689 285.477C263.792 283.444 266.927 281.458 269.921 279.27C271.295 278.269 272.653 277.237 273.948 276.143C274.282 275.864 273.646 276.36 273.925 276.159C274.049 276.066 274.173 275.972 274.297 275.879C274.584 275.67 274.872 275.468 275.159 275.266C276.672 274.211 278.208 273.187 279.736 272.155C283.585 269.533 287.425 266.833 290.886 263.706C293.686 261.177 296.922 257.926 297.333 253.976C297.418 253.193 297.341 252.386 297.116 251.633C296.41 249.244 292.662 250.26 293.376 252.665C293.423 252.828 293.446 252.991 293.5 253.154C293.407 252.828 293.492 252.906 293.492 253.201C293.492 253.348 293.492 253.495 293.492 253.651C293.492 253.736 293.477 253.821 293.469 253.907C293.477 253.783 293.555 253.542 293.477 253.783C293.376 254.116 293.299 254.458 293.19 254.783C293.058 255.202 293.283 254.628 293.128 254.939C293.035 255.125 292.949 255.311 292.848 255.489C291.948 257.158 291.072 258.104 289.66 259.516C286.548 262.627 283.173 265.064 279.581 267.562C276.78 269.509 273.832 271.294 271.163 273.428C265.74 277.765 259.765 281.248 254.109 285.26C249.244 288.712 244.388 291.816 238.421 292.871C236.031 293.29 233.595 293.29 231.174 293.422C229.056 293.538 226.938 293.67 224.812 293.748C220.351 293.911 215.874 293.895 211.685 292.894C209.574 292.39 207.96 291.816 206.199 290.699C204.655 289.729 203.359 288.425 202.413 286.773C201.435 285.073 200.939 283.041 200.667 281.054C200.333 278.657 200.202 275.872 200.574 273.614C200.667 273.078 200.783 272.543 200.954 272.023C200.985 271.938 201.21 271.379 201.071 271.674C201.202 271.395 201.358 271.123 201.521 270.859C202.118 269.851 202.529 269.3 203.212 268.516C204.407 267.151 205.439 265.847 205.78 264.016C206.044 262.604 206.083 261.169 206.052 259.741C206.005 257.251 202.126 257.243 202.172 259.741L202.188 259.733Z" fill="#383434"/>
<path d="M215.796 253.821C218.892 254.132 222.019 254.644 224.866 253.053C226.007 252.417 227.008 251.602 228.303 251.292C229.545 250.997 230.841 251.067 232.105 250.997C233.61 250.912 235.061 250.671 236.442 250.051C237.684 249.492 238.778 248.592 239.848 247.762C241.788 246.249 243.565 244.55 245.427 242.944C247.173 241.438 249.019 240.065 251.106 239.08C253.651 237.885 256.561 237.582 259.307 237.171C262.349 236.713 265.406 236.271 268.346 235.332C271.38 234.363 274.282 233.028 277.331 232.097C279.86 231.329 282.917 230.491 285.33 230.863C285.78 230.933 286.463 231.119 286.75 231.251C287.068 231.399 287.394 231.639 287.619 231.872C287.766 232.027 287.984 232.376 288.069 232.632C288.271 233.23 288.286 233.765 288.263 234.409C288.178 236.907 292.057 236.9 292.142 234.409C292.228 231.895 291.312 229.498 289.109 228.125C287.192 226.937 284.725 226.759 282.545 227.007C279.34 227.364 276.245 228.287 273.226 229.381C270.115 230.506 267.113 231.802 263.862 232.485C260.665 233.16 257.406 233.486 254.202 234.099C251.494 234.619 248.949 235.627 246.637 237.14C244.48 238.56 242.548 240.29 240.624 242.013C239.685 242.851 238.747 243.689 237.769 244.48C236.815 245.256 235.775 246.156 234.635 246.629C233.261 247.203 231.702 247.11 230.243 247.18C228.466 247.258 226.752 247.529 225.153 248.351C223.935 248.98 222.857 249.989 221.476 250.229C219.629 250.547 217.627 250.12 215.796 249.934C214.749 249.833 213.857 250.896 213.857 251.874C213.857 253.007 214.749 253.713 215.796 253.814V253.821Z" fill="#383434"/>
<path d="M198.409 267.842C198.603 267.306 198.805 266.786 199.022 266.259C198.96 266.414 198.89 266.569 198.828 266.724C199.503 265.126 200.31 263.59 201.257 262.139C201.808 261.285 201.458 259.959 200.558 259.485C199.596 258.973 198.495 259.268 197.905 260.184C196.563 262.255 195.5 264.498 194.67 266.817C194.328 267.772 195.058 268.982 196.027 269.207C197.114 269.455 198.045 268.873 198.417 267.849L198.409 267.842Z" fill="#383434"/>
<path d="M222.508 303.283C223.439 309.676 226.705 315.014 231.043 319.685C233.114 321.912 235.279 324.115 237.591 326.102C239.391 327.646 241.401 329.096 243.759 329.632C249.889 331.036 255.871 326.924 260.906 324.061C262.528 323.138 264.165 322.331 265.949 321.764C267.656 321.221 269.409 320.857 271.155 320.461C274.46 319.716 277.665 318.77 280.489 316.83C285.323 313.509 288.76 308.52 294.012 305.766C300.134 302.562 305.844 298.55 310.686 293.593C312.494 291.738 314.177 289.752 315.908 287.82C317.731 285.787 319.531 283.739 321.238 281.613C322.945 279.487 324.621 277.299 325.955 274.91C327.127 272.807 328.073 270.487 327.887 268.035C327.421 262.007 322.301 257.243 317.529 254.147C314.969 252.487 312.16 251.222 309.15 250.625C305.526 249.903 301.825 249.934 298.156 250.051C296.356 250.113 294.548 250.182 292.748 250.182C290.249 250.182 290.249 254.07 292.748 254.062C299.211 254.046 306.38 252.844 312.439 255.722C314.713 256.801 316.854 258.221 318.747 259.881C320.625 261.533 322.44 263.481 323.426 265.809C323.891 266.918 324.101 267.965 324.031 269.114C324.008 269.44 323.93 269.843 323.814 270.239C323.752 270.448 323.69 270.65 323.612 270.852C323.565 270.976 323.527 271.092 323.48 271.209C323.364 271.496 323.48 271.216 323.402 271.395C322.417 273.575 321.028 275.569 319.593 277.47C316.761 281.225 313.502 284.616 310.422 288.154C306.163 293.034 301.205 297.131 295.634 300.428C292.934 302.019 290.156 303.322 287.712 305.308C285.571 307.038 283.686 309.048 281.668 310.918C279.76 312.679 277.665 314.363 275.205 315.301C272.001 316.527 268.548 316.915 265.274 317.908C259.005 319.817 253.97 324.922 247.398 325.946C245.745 326.202 244.132 325.869 242.626 324.992C240.601 323.805 238.879 322.028 237.133 320.306C233.122 316.333 229.095 312.167 227.295 306.681C226.822 305.238 226.496 303.749 226.279 302.244C226.124 301.204 224.812 300.637 223.889 300.886C222.78 301.188 222.384 302.228 222.531 303.275L222.508 303.283Z" fill="#383434"/>
<path d="M243.968 333.659C244.675 329.71 243.138 326.117 241.113 322.804C240.167 321.253 237.358 321.78 237.498 323.782C237.723 326.94 237.87 330.121 238.421 333.248C238.941 336.188 239.988 338.989 241.4 341.619C242.223 343.148 243.193 344.583 244.069 346.081C244.884 347.485 245.644 348.913 246.482 350.301C248.189 353.126 250.292 355.725 253.194 357.37C265.902 364.585 281.133 359.961 292.391 352.218C295.192 350.286 297.861 348.152 300.359 345.848C301.593 344.707 302.78 343.528 304.13 342.519C305.534 341.48 307.008 340.518 308.451 339.54C311.431 337.523 314.425 335.343 316.388 332.255C318.181 329.43 318.84 326.071 320.663 323.247C324.163 317.831 329.842 314.262 333.45 308.916C334.924 306.728 336.01 304.23 337.236 301.895C338.648 299.21 340.029 296.495 341.193 293.686C342.171 291.32 343.125 288.72 343.094 286.129C343.063 283.289 342.054 280.419 340.262 278.223C337.027 274.274 331.518 273.374 326.715 273.094C325.513 273.024 324.31 272.993 323.1 272.97C320.601 272.924 320.601 276.803 323.1 276.85C327.468 276.927 332.139 276.95 335.723 279.301C337.283 280.325 338.4 281.978 338.904 284.019C339.168 285.089 339.284 286.175 339.145 287.269C339.184 286.967 339.083 287.603 339.067 287.681C339.013 287.968 338.943 288.255 338.873 288.542C338.718 289.155 338.532 289.768 338.322 290.365C336.646 295.269 333.884 299.722 331.595 304.354C328.903 309.793 323.883 313.315 319.973 317.792C317.762 320.329 316.163 323.045 314.945 326.179C314.418 327.545 313.898 328.903 313.122 330.152C312.245 331.564 311.043 332.728 309.77 333.783C307.303 335.831 304.471 337.414 301.911 339.346C299.311 341.309 297.077 343.675 294.563 345.739C285.144 353.482 272.164 359.759 259.82 355.981C256.856 355.073 254.039 353.731 251.968 351.38C250.013 349.153 248.74 346.383 247.25 343.846C245.745 341.278 244.085 338.842 243.115 336.01C242.269 333.55 241.92 331.044 241.703 328.484C241.571 326.917 241.478 325.342 241.362 323.774L237.746 324.752C239.15 327.056 240.71 329.811 240.213 332.619C240.027 333.651 240.493 334.706 241.571 335.009C242.51 335.265 243.775 334.691 243.961 333.651L243.968 333.659Z" fill="#383434"/>
<path d="M280.667 358.456C280.613 361.536 281.141 364.748 282.816 367.394C284.306 369.745 286.51 371.405 289.078 372.422C294.377 374.524 300.669 373.694 305.976 372.072C311.485 370.389 316.877 367.611 320.896 363.421C326.715 357.37 334.102 352.598 337.973 344.909C339.176 342.527 339.82 339.99 340.797 337.531C341.822 334.947 343.249 332.534 344.281 329.95C346.492 324.403 345.329 318.669 345.297 312.889C345.282 310.391 341.403 310.391 341.418 312.889C341.449 317.575 342.551 322.525 341.178 327.103C340.518 329.306 339.416 331.331 338.423 333.395C337.384 335.552 336.67 337.748 335.878 339.99C334.59 343.621 332.496 346.841 329.858 349.634C327.142 352.513 324.054 355.003 321.176 357.703C319.841 358.952 318.6 360.302 317.273 361.567C316.249 362.545 315.62 363.018 314.666 363.685C313.564 364.446 312.416 365.128 311.237 365.757C309.956 366.432 308.793 366.952 307.699 367.378C305.123 368.379 302.438 369.116 299.707 369.52C299.094 369.613 300.087 369.481 299.474 369.551C299.288 369.574 299.102 369.597 298.916 369.613C298.605 369.644 298.303 369.667 297.993 369.69C297.333 369.737 296.666 369.76 295.999 369.753C295.355 369.753 294.711 369.714 294.067 369.652C293.95 369.644 293.842 369.628 293.725 369.613C293.159 369.551 294.121 369.683 293.562 369.59C293.229 369.535 292.903 369.481 292.569 369.411C291.933 369.279 291.297 369.109 290.684 368.891C290.536 368.837 290.381 368.783 290.234 368.728C289.737 368.542 290.591 368.899 290.117 368.682C289.83 368.55 289.551 368.418 289.28 368.271C289.008 368.123 288.744 367.968 288.48 367.797C288.348 367.712 288.224 367.627 288.1 367.534C287.79 367.316 288.317 367.743 287.945 367.417C287.456 366.99 286.998 366.556 286.579 366.059C286.347 365.788 286.548 366.028 286.595 366.083C286.471 365.912 286.347 365.741 286.23 365.563C286.052 365.291 285.889 365.012 285.734 364.725C285.672 364.601 285.61 364.477 285.548 364.352C285.509 364.275 285.276 363.724 285.439 364.12C285.307 363.794 285.191 363.46 285.09 363.127C284.578 361.427 284.492 360.287 284.523 358.448C284.562 355.95 280.683 355.95 280.644 358.448L280.667 358.456Z" fill="#383434"/>
<path d="M333.892 351.38C335.545 357.951 342.807 358.572 348.463 358.293C351.109 358.161 353.731 357.92 356.377 357.858C359.69 357.781 362.964 356.687 365.951 355.329C369.062 353.917 372.127 351.962 374.23 349.231C376.433 346.368 376.48 342.954 376.216 339.486C376.076 337.693 375.851 335.909 375.735 334.109C375.595 332.061 375.696 329.997 375.657 327.941C375.556 323.115 374.781 318.506 373.361 313.89C372.554 311.252 371.623 308.645 370.676 306.046C369.776 303.563 368.985 301.01 367.728 298.683C365.61 294.741 362.305 291.607 359.985 287.789C358.976 286.137 356.416 286.843 356.369 288.767C356.09 300.568 364.361 309.863 366.805 320.997C367.34 323.433 371.08 322.401 370.544 319.965C368.193 309.258 359.985 300.071 360.248 288.767C359.046 289.093 357.835 289.419 356.633 289.744C358.58 292.941 361.187 295.633 363.243 298.745C365.579 302.275 366.758 306.496 368.147 310.46C369.605 314.627 371.049 318.91 371.506 323.316C371.91 327.235 371.592 331.168 371.933 335.086C372.205 338.182 372.957 341.937 372.22 344.808C371.949 345.871 371.312 346.787 370.459 347.679C369.458 348.719 368.325 349.564 367.099 350.317C364.485 351.931 361.567 353.11 358.549 353.707C356.517 354.111 353.816 354.018 351.473 354.196C349.953 354.313 348.432 354.421 346.911 354.452C345.538 354.483 343.761 354.421 342.737 354.243C341.24 353.987 340.34 353.707 339.23 352.947C338.951 352.761 339.548 353.242 339.129 352.869C338.997 352.753 338.865 352.629 338.741 352.505C338.656 352.419 338.578 352.334 338.501 352.241C338.136 351.822 338.671 352.528 338.361 352.055C337.903 351.341 337.841 351.178 337.632 350.34C337.019 347.919 333.279 348.944 333.892 351.372V351.38Z" fill="#383434"/>
<path d="M368.015 308.342C368.209 307.783 368.395 307.232 368.589 306.674C367.511 306.961 366.424 307.248 365.346 307.527C368.217 311.197 371.181 314.789 374.075 318.436C376.689 321.726 379.149 325.124 381.663 328.499C384.014 331.657 386.504 334.721 389.297 337.507C391.881 340.083 394.783 342.573 398.103 344.133C402.681 346.282 407.941 347.205 412.93 347.787C418.323 348.416 423.979 348.431 429.262 347.011C434.88 345.498 439.791 341.976 441.428 336.18C442.103 333.775 438.363 332.743 437.688 335.148C437.347 336.366 437.13 336.894 436.447 337.98C435.927 338.803 435.438 339.377 434.523 340.184C434.011 340.634 434.042 340.61 433.475 340.983C433.01 341.293 432.529 341.572 432.04 341.836C430.985 342.395 430.356 342.635 429.107 343.023C424.32 344.497 419.261 344.528 414.133 344.032C409.897 343.621 405.203 342.721 400.959 341.146C397.917 340.021 395.271 337.84 392.944 335.629C390.306 333.123 387.924 330.338 385.713 327.452C382.951 323.836 380.336 320.127 377.512 316.558C374.393 312.617 371.196 308.737 368.093 304.781C367.123 303.539 365.268 304.408 364.849 305.634C364.655 306.193 364.469 306.744 364.275 307.302C363.934 308.295 364.663 309.42 365.633 309.692C366.696 309.987 367.681 309.335 368.023 308.334L368.015 308.342Z" fill="#383434"/>
<path d="M439.55 340.145C441.575 340.114 442.732 340.37 444.718 340.781C446.735 341.2 448.737 341.704 450.754 342.115C454.781 342.938 459.196 343.605 463.098 341.906C467.994 339.772 469.367 334.504 470.298 329.717C471.004 326.086 471.439 322.401 471.672 318.715C471.881 315.301 471.997 311.872 471.509 308.481C470.663 302.639 467.567 297.41 464.89 292.25C461.81 286.307 458.016 280.783 454.098 275.375C446.44 264.8 438.185 254.411 433.724 241.981C432.746 239.25 431.799 236.457 431.07 233.649C430.612 231.856 430.248 230.048 429.743 228.264C428.712 224.625 426.888 220.001 422.543 219.582C421.527 219.481 420.487 219.691 419.541 220.055C418.354 220.521 417.748 221.708 418.385 222.903C419.758 225.502 421.31 227.992 422.714 230.568C424.103 233.105 425.236 235.705 426.143 238.451C427.889 243.766 429.34 249.213 433.118 253.511C433.809 254.294 435.151 254.217 435.865 253.511C436.649 252.727 436.556 251.556 435.865 250.764C432.366 246.776 431.256 241.415 429.588 236.527C427.68 230.948 424.475 226.115 421.736 220.94C421.348 221.886 420.961 222.841 420.58 223.787C421.007 223.624 421.442 223.469 421.899 223.407C421.535 223.454 422.031 223.43 422.155 223.423C422.233 223.423 422.318 223.422 422.396 223.43C422.132 223.415 422.21 223.376 422.427 223.446C422.598 223.5 422.768 223.539 422.939 223.601C422.621 223.477 422.877 223.578 423.024 223.671C423.079 223.71 423.505 224.004 423.335 223.873C423.187 223.756 423.583 224.113 423.668 224.198C423.8 224.338 423.932 224.478 424.049 224.633C423.824 224.354 424.134 224.773 424.196 224.866C424.444 225.246 424.661 225.641 424.863 226.053C425.088 226.503 425.135 226.619 425.243 226.914C425.414 227.379 425.585 227.853 425.732 228.326C426.283 230.072 426.679 231.872 427.098 233.649C427.656 236.015 428.417 238.335 429.185 240.639C431.132 246.528 433.708 252.13 436.905 257.444C440.202 262.922 443.988 268.082 447.767 273.233C451.561 278.401 455.363 283.576 458.668 289.069C460.321 291.808 461.764 294.648 463.23 297.487C464.44 299.83 465.705 302.174 466.582 304.672C468.63 310.483 468.103 316.884 467.443 322.913C467.078 326.241 466.504 329.577 465.628 332.813C465.092 334.768 464.316 336.343 462.881 337.577C462.648 337.778 462.982 337.538 462.633 337.763C462.485 337.856 462.338 337.957 462.183 338.05C462.004 338.151 461.826 338.252 461.64 338.345C461.539 338.399 461.43 338.446 461.321 338.492C461.5 338.415 461.446 338.438 461.29 338.492C460.895 338.632 460.499 338.748 460.096 338.849C459.886 338.896 459.684 338.934 459.475 338.973C459.04 339.051 459.521 338.989 459.079 339.027C458.179 339.097 457.287 339.113 456.387 339.059C455.921 339.027 455.456 338.981 454.983 338.934C454.882 338.927 454.781 338.911 454.68 338.896C454.967 338.934 454.626 338.888 454.587 338.88C454.315 338.841 454.036 338.795 453.764 338.748C449.815 338.089 445.975 336.894 442.002 336.421C441.195 336.32 440.381 336.265 439.566 336.273C437.075 336.304 437.068 340.184 439.566 340.152L439.55 340.145Z" fill="#383434"/>
<path d="M474.992 322.424C477.49 322.424 477.49 318.544 474.992 318.544C472.494 318.544 472.494 322.424 474.992 322.424Z" fill="#383434"/>
<path d="M474.014 322.16C479.616 324.945 484.784 328.623 490.704 330.764C493.163 331.649 495.979 332.293 498.563 331.571C501.387 330.788 503.149 328.421 503.986 325.713C504.568 323.836 504.747 321.811 504.786 319.856C504.84 316.977 504.786 314.083 504.762 311.205C504.747 308.21 504.894 305.184 504.7 302.205C504.537 299.737 504.072 297.309 503.529 294.904C502.947 292.359 502.295 289.822 502.093 287.215C501.861 284.297 501.915 281.365 501.473 278.463C501.038 275.6 500.076 272.815 499.269 270.045C498.454 267.228 497.562 264.404 496.91 261.541C496.305 258.895 496.01 256.188 495.475 253.526C494.963 250.989 494.265 248.429 492.558 246.427C491.192 244.829 489.338 243.712 487.623 242.532C486.816 241.981 486.258 241.593 485.575 240.903C484.931 240.259 484.644 239.786 484.458 238.971C483.907 236.535 480.167 237.567 480.718 240.003C481.579 243.797 485.373 245.465 488.174 247.622C489.416 248.576 490.323 249.631 490.859 251.191C491.611 253.394 491.968 255.722 492.341 258.011C493.202 263.341 494.777 268.454 496.267 273.629C497.019 276.236 497.733 278.773 497.919 281.497C498.113 284.313 498.09 287.122 498.524 289.915C499.261 294.694 500.86 299.241 500.891 304.121C500.906 306.999 500.875 309.87 500.891 312.749C500.906 315.48 501.015 318.234 500.86 320.957C500.774 322.517 500.573 324.022 499.936 325.551C500.084 325.194 499.758 325.9 499.704 325.993C499.564 326.241 499.409 326.474 499.246 326.707C499.075 326.947 499.556 326.381 499.23 326.707C499.129 326.807 499.044 326.916 498.943 327.017C498.842 327.11 498.742 327.203 498.641 327.296C498.307 327.591 498.982 327.087 498.61 327.32C498.385 327.459 498.16 327.583 497.927 327.707C497.547 327.909 498.237 327.607 497.966 327.692C497.857 327.723 497.756 327.762 497.655 327.801C497.399 327.878 497.136 327.932 496.872 327.979C497.438 327.87 496.592 327.995 496.422 327.995C496.158 327.995 495.886 327.995 495.623 327.979C495.483 327.971 494.645 327.863 495.157 327.94C494.513 327.839 493.869 327.692 493.241 327.513C490.168 326.637 487.546 325.209 484.574 323.564C481.711 321.974 478.903 320.267 475.97 318.808C473.743 317.699 471.772 321.043 474.014 322.16Z" fill="#383434"/>
<path d="M323.62 123.692C322.797 123.521 322.161 123.211 321.587 122.691C320.881 122.055 320.4 121.396 319.911 120.573C318.91 118.897 318.266 117.19 317.529 115.429C315.768 111.208 312.781 107.182 312.121 102.573C311.857 100.695 312.338 99.1669 313.238 97.4987C314.309 95.5203 315.675 93.7125 317.164 92.0288C319.973 88.8322 323.255 85.5581 327.491 84.4563C332.41 83.1684 337.042 85.2244 340.891 88.1805C345.073 91.3926 348.618 95.3884 351.955 99.4384C355.601 103.853 359.046 108.446 362.964 112.628C366.564 116.469 370.529 120.007 375.409 122.109C377.543 123.033 379.746 123.731 381.981 124.352C384.355 125.011 386.69 125.446 388.754 126.85C390.756 128.216 392.525 129.736 394.79 130.667C396.722 131.459 398.786 131.955 400.648 132.91C401.525 133.36 402.13 133.771 402.728 134.523C403.379 135.346 404.791 135.206 405.474 134.523C406.281 133.716 406.126 132.599 405.474 131.777C404.008 129.938 401.634 129.022 399.484 128.247C397.304 127.463 395.365 126.858 393.471 125.515C391.26 123.94 389.266 122.311 386.597 121.574C384.177 120.907 381.74 120.309 379.366 119.495C374.331 117.772 370.358 114.669 366.681 110.883C362.475 106.561 358.852 101.735 355.027 97.0798C351.427 92.6883 347.617 88.4753 343.102 85.015C338.633 81.5856 333.442 79.4907 327.732 80.4373C322.766 81.2597 318.786 84.596 315.442 88.1495C312.276 91.5168 308.653 95.8151 308.211 100.61C307.738 105.692 310.942 110.58 313.083 114.948C313.976 116.764 314.627 118.657 315.582 120.666C316.559 122.73 317.816 124.716 319.67 126.097C320.532 126.741 321.533 127.199 322.588 127.424C325.024 127.936 326.064 124.197 323.62 123.684V123.692Z" fill="#383434"/>
<path d="M353.483 99.6557C357.3 99.6557 361.125 99.6557 364.942 99.6557C368.721 99.6557 372.523 99.5316 376.293 99.7256C379.63 99.904 382.919 100.432 386.217 100.959C389.631 101.502 393.029 101.882 396.466 102.201C401.315 102.643 406.087 104.288 409.462 107.903C411.184 109.75 412.395 112.008 413.372 114.327C413.815 115.39 414.203 116.484 414.482 117.594C414.746 118.672 414.808 118.936 414.8 119.976C414.8 120.232 414.784 120.48 414.761 120.728C414.8 120.317 414.738 120.853 414.707 121.008C414.66 121.209 414.598 121.411 414.544 121.613C414.389 122.117 414.622 121.574 414.412 121.931C414.311 122.109 414.218 122.296 414.109 122.466C414.055 122.552 413.993 122.637 413.931 122.722C413.768 122.955 414.234 122.397 413.892 122.769C413.59 123.103 413.279 123.413 412.922 123.692C413.194 123.475 412.666 123.863 412.581 123.917C412.34 124.072 412.084 124.22 411.828 124.36C411.285 124.654 410.905 124.825 410.432 125.003C409.035 125.531 407.584 125.903 406.126 126.206C405.102 126.423 404.504 127.626 404.768 128.596C405.063 129.659 406.126 130.163 407.158 129.954C411.549 129.03 416.879 127.277 418.322 122.49C418.943 120.434 418.672 118.184 418.113 116.143C417.384 113.474 416.197 110.774 414.722 108.431C411.642 103.527 406.777 100.331 401.176 99.035C397.925 98.2824 394.581 98.2436 391.283 97.8169C387.683 97.3436 384.107 96.6531 380.499 96.2108C376.092 95.6755 371.669 95.7608 367.231 95.7608C362.646 95.7608 358.06 95.7608 353.475 95.7608C350.977 95.7608 350.977 99.6402 353.475 99.6402L353.483 99.6557Z" fill="#383434"/>
<path d="M401.579 135.097C408.663 135.664 415.879 135.47 422.807 133.802C430.1 132.048 436.478 128.161 442.949 124.507C449.505 120.806 456.224 117.446 462.648 113.52C465.798 111.596 468.91 109.602 472.036 107.631C475.256 105.599 478.639 103.752 481.789 101.626C484.528 99.7796 486.762 97.4054 488.741 94.783C490.851 91.9899 492.38 88.8476 494.226 85.8915C497.981 79.8785 502.303 74.2534 506.485 68.543C508.611 65.6412 510.582 62.6852 513.088 60.0938C515.477 57.6265 518.046 55.2989 520.047 52.4902C521.04 51.0936 521.863 49.5807 522.871 48.1841C523.834 46.8419 524.858 45.5539 525.913 44.2815C528.078 41.6668 530.351 39.1374 532.461 36.484C534.595 33.7994 536.589 31.0529 538.94 28.5546C541.229 26.1106 543.704 23.8372 546.256 21.6726C548.848 19.4691 551.524 17.3742 554.193 15.2794C556.979 13.0992 559.772 10.981 562.278 8.47497C563.527 7.22582 564.769 5.98442 566.018 4.74303C567.787 2.97404 565.048 0.23521 563.271 1.99644C560.765 4.49475 558.36 7.06288 555.59 9.26636C552.913 11.4 550.205 13.4793 547.536 15.613C542.354 19.7562 537.334 24.1321 533.136 29.2916C530.948 31.9917 528.9 34.7848 526.642 37.4305C524.446 40.0064 522.227 42.5668 520.202 45.2824C519.186 46.6479 518.224 48.0522 517.339 49.5031C516.471 50.9307 515.384 52.1721 514.236 53.3825C511.932 55.8187 509.433 58.0687 507.369 60.73C505.096 63.6705 503.001 66.7585 500.79 69.7534C498.711 72.5698 496.624 75.3862 494.622 78.2647C492.643 81.1121 490.743 84.0139 489.012 87.0165C488.159 88.4984 487.391 90.0114 486.405 91.4157C485.521 92.6726 484.582 93.883 483.535 95.008C482.487 96.133 481.347 97.1882 480.09 98.0727C478.585 99.1357 476.917 100.005 475.349 100.967C472.207 102.891 469.096 104.877 465.977 106.848C462.904 108.788 459.816 110.712 456.682 112.543C453.384 114.467 449.994 116.189 446.634 118.005C443.391 119.751 440.194 121.597 436.982 123.397C433.755 125.197 430.519 127.129 427.051 128.433C420.534 130.884 413.559 131.637 406.63 131.474C404.947 131.435 403.255 131.334 401.579 131.202C400.532 131.117 399.64 132.157 399.64 133.142C399.64 134.259 400.532 134.996 401.579 135.082V135.097Z" fill="#383434"/>
<path d="M473.053 97.7155C472.99 98.2741 472.928 98.825 472.866 99.3836C472.649 101.277 475.69 102.06 476.482 100.361C477.731 97.6767 479.353 95.7836 481.424 93.7042C483.465 91.6482 485.676 89.7706 487.724 87.73C486.809 86.8145 485.893 85.899 484.978 84.9834C483.721 86.2403 482.464 87.4973 481.215 88.7464C480.478 89.4835 480.478 90.7482 481.215 91.493C481.96 92.2378 483.216 92.2378 483.961 91.493L487.724 87.73C488.461 86.9929 488.461 85.7283 487.724 84.9834C486.979 84.2386 485.722 84.2386 484.978 84.9834C480.772 89.1654 475.683 92.8818 473.122 98.406L476.738 99.3836C476.8 98.825 476.862 98.2741 476.924 97.7155C477.04 96.6758 475.946 95.7758 474.984 95.7758C473.836 95.7758 473.161 96.6681 473.045 97.7155H473.053Z" fill="#383434"/>
<path d="M480.571 94.5271C483.123 94.0926 485.583 93.0374 487.763 91.6642C488.469 91.2219 488.927 90.3064 488.655 89.4762C488.407 88.7081 487.654 87.9788 486.785 88.0486C486.227 88.0951 485.676 88.1417 485.117 88.1882C484.597 88.2348 484.124 88.3745 483.744 88.7546C483.41 89.0883 483.154 89.6391 483.178 90.1279C483.224 91.1055 484.031 92.1607 485.117 92.0676C485.676 92.021 486.227 91.9745 486.785 91.9279L485.808 88.3124C485.303 88.6305 484.784 88.9331 484.256 89.2046C483.969 89.352 483.682 89.4917 483.395 89.6236C483.286 89.6702 483.178 89.7245 483.069 89.771C482.875 89.8564 482.922 89.8331 483.201 89.7167C483.123 89.7477 483.053 89.7788 482.976 89.8098C481.866 90.2521 480.718 90.5857 479.539 90.7874C479.089 90.865 478.6 91.2995 478.383 91.6797C478.142 92.0986 478.034 92.7116 478.189 93.1771C478.538 94.2633 479.5 94.7133 480.578 94.5349L480.571 94.5271Z" fill="#383434"/>
<path d="M496.616 263.636C508.238 252.479 522.414 244.503 536.86 237.606C541.384 235.449 545.961 233.385 550.539 231.344C551.493 230.918 551.718 229.521 551.237 228.691C550.663 227.706 549.546 227.566 548.584 227.993C533.315 234.789 517.983 241.888 504.522 251.921C500.798 254.698 497.221 257.67 493.869 260.89C492.061 262.62 494.808 265.366 496.616 263.636Z" fill="#383434"/>
<path d="M187.57 71.243C197.959 83.6492 210.35 94.2476 223.928 103.023C230.678 107.383 237.707 111.294 244.93 114.816C252.449 118.486 260.207 121.558 267.927 124.77C277.269 128.65 286.696 132.708 296.689 134.57C298.923 134.989 299.94 132.351 298.186 131.024C294.78 128.456 290.521 129.263 286.696 127.951C284.678 127.261 282.824 126.183 280.877 125.329C278.813 124.429 276.64 123.832 274.507 123.126C266.492 120.464 258.749 117.066 251.308 113.078C243.534 108.912 236.047 104.179 228.583 99.4847C221.103 94.783 213.717 89.9182 206.564 84.7199C198.564 78.9086 190.891 72.6628 183.737 65.8274C183.28 66.9291 182.822 68.0386 182.364 69.1404C182.876 69.1869 183.381 69.2257 183.893 69.2723C184.94 69.3654 185.832 68.318 185.832 67.3326C185.832 66.2076 184.94 65.486 183.893 65.3929C183.381 65.3464 182.876 65.3076 182.364 65.261C180.665 65.1136 179.835 67.4645 180.991 68.574C193.894 80.8948 208.488 91.2838 223.501 100.858C238.266 110.277 253.194 119.572 269.735 125.562C272.07 126.408 274.437 127.191 276.811 127.928C279.084 128.634 281.14 129.775 283.305 130.737C285.578 131.746 287.805 132.327 290.28 132.591C292.445 132.824 294.439 133.026 296.239 134.376C296.735 133.196 297.232 132.009 297.736 130.83C288.907 129.185 280.512 125.802 272.241 122.388C264.622 119.231 256.933 116.228 249.477 112.706C235.186 105.956 221.515 97.708 209.38 87.5363C202.49 81.7638 196.105 75.3939 190.332 68.5042C189.657 67.6973 188.284 67.8059 187.586 68.5042C186.787 69.3033 186.911 70.4438 187.586 71.2508L187.57 71.243Z" fill="#383434"/>
<path d="M153.626 229.42C158.956 234.106 165.83 235.743 171.882 239.188C175.017 240.965 177.437 243.541 180.254 245.744C183.233 248.08 186.647 249.383 190.053 250.958C193.909 252.743 197.734 254.791 202.118 254.007C203.15 253.821 203.732 252.564 203.476 251.618C203.181 250.532 202.126 250.074 201.086 250.26C197.874 250.834 194.654 248.817 191.861 247.537C188.742 246.101 185.46 244.937 182.737 242.788C180.013 240.647 177.639 238.118 174.652 236.31C171.851 234.603 168.802 233.385 165.799 232.089C162.471 230.654 159.119 229.086 156.373 226.673C155.589 225.983 154.402 225.898 153.626 226.673C152.92 227.379 152.835 228.722 153.626 229.42Z" fill="#383434"/>
<path d="M209.194 250.198C203.476 250.935 197.866 252.65 192.047 252.115C192.373 252.2 192.699 252.293 193.025 252.378C179.641 245.659 167.894 236.24 156.341 226.829C155.527 226.169 154.394 226.038 153.595 226.829C152.912 227.512 152.78 228.908 153.595 229.575C160.12 234.89 166.676 240.182 173.543 245.039C176.925 247.436 180.393 249.725 183.962 251.843C185.677 252.859 187.423 253.837 189.192 254.768C190.169 255.28 191.124 255.901 192.226 256.009C193.312 256.118 194.406 256.134 195.492 256.095C200.132 255.94 204.608 254.667 209.194 254.078C210.234 253.946 211.134 253.278 211.134 252.138C211.134 251.191 210.241 250.066 209.194 250.198Z" fill="#383434"/>
<path d="M289.535 254.155C288.86 251.377 286.804 249.345 284.624 247.63C282.491 245.954 280.481 244.216 278.479 242.385C276.594 240.662 274.584 238.886 272.117 238.079C269.533 237.233 266.895 237.993 264.785 239.6C260.805 242.625 258.369 247.638 256.615 252.2C255.894 254.085 255.133 256.273 255.335 258.329C255.576 260.796 256.863 262.977 258.547 264.746C260.432 266.724 262.783 268.245 265.088 269.68C267.167 270.976 269.479 272.264 271.101 273.761C272.932 275.453 275.686 272.714 273.847 271.015C270.728 268.136 266.733 266.429 263.381 263.861C261.876 262.705 260.502 261.402 259.68 259.726C259.563 259.493 259.432 259.121 259.315 258.694C259.284 258.585 259.168 257.941 259.214 258.329C259.191 258.151 259.191 257.972 259.191 257.794C259.191 257.6 259.207 257.398 259.222 257.204C259.253 256.847 259.183 257.359 259.253 256.987C259.338 256.514 259.447 256.04 259.579 255.575C260.145 253.519 261.014 251.556 261.992 249.663C262.489 248.701 263.016 247.754 263.582 246.831C263.823 246.443 264.071 246.055 264.335 245.675C264.444 245.512 264.552 245.357 264.669 245.201C264.739 245.1 264.808 245.007 264.886 244.907C264.777 245.054 264.785 245.031 264.886 244.907C265.662 243.968 266.531 243.044 267.563 242.385C268.401 241.857 269.153 241.594 269.968 241.609C270.651 241.625 271.403 241.912 272.133 242.323C273.033 242.835 273.847 243.471 274.631 244.154C276.772 246.008 278.759 247.987 281.009 249.717C282.909 251.176 285.206 252.758 285.803 255.21C286.393 257.631 290.141 256.607 289.543 254.178L289.535 254.155Z" fill="#383434"/>
<path d="M315.512 278.044C315.403 278.044 314.767 277.944 315.225 278.029C315.015 277.99 314.806 277.944 314.596 277.889C314.41 277.835 314.231 277.773 314.053 277.711C313.999 277.695 313.681 277.556 313.898 277.656C314.131 277.757 313.665 277.54 313.665 277.54C313.277 277.338 312.897 277.121 312.525 276.888C312.346 276.772 312.175 276.656 311.997 276.531C311.896 276.462 311.795 276.384 311.694 276.314C311.213 275.965 311.834 276.431 311.562 276.221C309.933 274.933 308.482 273.451 306.954 272.047C304.068 269.393 300.274 266.43 296.099 267.881C291.731 269.401 288.899 274.041 288.123 278.417C287.355 282.762 288.023 287.487 290.381 291.265C291.615 293.252 293.345 295.021 295.455 296.06C297.961 297.294 300.638 297.519 303.362 297.046C304.393 296.867 304.975 295.595 304.719 294.656C304.417 293.562 303.369 293.127 302.33 293.298C301.911 293.368 301.662 293.399 301.111 293.414C300.607 293.43 300.095 293.414 299.591 293.352C299.257 293.314 299.847 293.399 299.529 293.337C299.436 293.321 299.335 293.306 299.242 293.283C299.024 293.236 298.807 293.189 298.59 293.127C298.38 293.065 298.171 293.003 297.961 292.933C297.845 292.895 297.729 292.848 297.612 292.802C297.799 292.879 297.69 292.833 297.566 292.778C297.178 292.592 296.805 292.39 296.448 292.158C296.27 292.041 296.092 291.925 295.921 291.793C295.742 291.661 295.921 291.793 295.952 291.816C295.836 291.723 295.719 291.622 295.603 291.521C294.905 290.901 294.385 290.295 294.02 289.768C292.903 288.139 292.406 286.858 291.987 284.926C291.77 283.91 291.716 283.507 291.677 282.389C291.661 281.924 291.661 281.458 291.685 280.993C291.692 280.76 291.708 280.527 291.731 280.294C291.739 280.194 291.824 279.519 291.778 279.821C291.917 278.882 292.15 277.951 292.468 277.051C292.662 276.5 292.647 276.547 292.872 276.074C293.081 275.639 293.322 275.212 293.586 274.801C294.051 274.072 294.555 273.467 295.37 272.737C295.735 272.404 295.82 272.334 296.255 272.062C296.472 271.923 296.697 271.806 296.922 271.69C296.937 271.682 297.209 271.558 297.023 271.643C296.821 271.729 297.286 271.558 297.279 271.558C297.442 271.512 297.605 271.465 297.767 271.426C297.876 271.403 297.985 271.38 298.086 271.364C298.008 271.38 297.69 271.387 298.047 271.38C298.202 271.38 298.365 271.364 298.52 271.38C298.675 271.38 299.211 271.473 298.784 271.387C299.149 271.457 299.505 271.566 299.862 271.675C300.165 271.775 299.684 271.566 300.08 271.76C300.305 271.876 300.537 271.985 300.755 272.109C301.088 272.295 301.406 272.505 301.724 272.722C302.221 273.063 302.26 273.094 302.586 273.366C303.315 273.963 304.013 274.6 304.704 275.244C307.753 278.091 311.027 281.707 315.488 281.916C317.987 282.032 317.979 278.153 315.488 278.037L315.512 278.044Z" fill="#383434"/>
<path d="M332.573 300.746C333.093 298.822 333.023 296.735 331.983 294.989C331.006 293.36 329.415 292.297 327.669 291.645C324.302 290.38 319.965 290.761 316.939 292.739C313.595 294.919 312.858 298.496 312.563 302.228C312.222 306.518 312.524 310.949 313.432 315.154C314.216 318.77 315.876 324.007 320.066 324.891C321.09 325.108 322.161 324.589 322.456 323.533C322.719 322.571 322.13 321.361 321.098 321.144C320.974 321.12 320.85 321.082 320.733 321.051C320.656 321.027 320.578 320.996 320.493 320.965C320.493 320.965 320.85 321.136 320.663 321.035C320.493 320.934 319.872 320.492 320.237 320.81C320.004 320.608 319.794 320.407 319.585 320.182C319.538 320.127 319.267 319.786 319.414 319.98C319.538 320.151 319.236 319.708 319.166 319.607C318.274 318.203 317.963 317.233 317.506 315.534C316.528 311.903 316.241 308.365 316.326 304.517C316.342 303.663 316.388 302.802 316.458 301.956C316.489 301.568 316.536 301.173 316.582 300.785C316.536 301.126 316.582 300.762 316.606 300.622C316.637 300.436 316.668 300.249 316.699 300.063C316.815 299.435 316.97 298.83 317.156 298.217C317.195 298.077 317.319 297.821 317.187 298.1C317.257 297.953 317.327 297.805 317.412 297.658C317.49 297.518 317.583 297.379 317.668 297.247C317.855 296.944 317.699 297.185 317.653 297.247C317.723 297.161 317.785 297.076 317.862 296.999C318.08 296.758 318.312 296.533 318.561 296.324C318.793 296.114 318.39 296.417 318.755 296.184C318.918 296.083 319.073 295.974 319.243 295.874C319.391 295.788 319.531 295.711 319.686 295.633C319.748 295.602 320.237 295.377 320.066 295.455C319.887 295.524 320.314 295.369 320.392 295.338C320.578 295.276 320.772 295.214 320.966 295.16C321.331 295.059 321.695 294.989 322.06 294.911C322.145 294.896 322.231 294.88 322.316 294.873C322.285 294.873 321.998 294.911 322.231 294.888C322.463 294.865 322.688 294.842 322.921 294.834C323.27 294.818 323.612 294.818 323.961 294.834C324.163 294.842 324.364 294.857 324.558 294.873C324.644 294.873 324.729 294.888 324.814 294.904C325.117 294.942 324.504 294.849 324.806 294.904C325.218 294.981 325.621 295.067 326.025 295.183C326.203 295.237 326.382 295.299 326.568 295.361C326.994 295.501 326.444 295.268 326.839 295.478C327.157 295.649 327.468 295.827 327.77 296.021C328.135 296.246 327.669 295.874 327.964 296.176C328.081 296.3 328.213 296.417 328.329 296.533C328.383 296.587 328.422 296.642 328.476 296.696C328.655 296.898 328.29 296.424 328.438 296.649C328.546 296.812 328.639 296.983 328.74 297.146C328.973 297.495 328.725 296.999 328.818 297.286C328.88 297.48 328.934 297.666 328.988 297.86C329.004 297.937 329.019 298.015 329.035 298.085C329.089 298.364 329.012 297.751 329.019 298.038C329.019 298.232 329.035 298.418 329.035 298.612C329.035 298.736 328.942 299.342 329.012 298.969C328.965 299.218 328.911 299.466 328.841 299.714C328.189 302.127 331.929 303.159 332.581 300.746H332.573Z" fill="#383434"/>
<path d="M551.214 228.194C546.528 219.156 541.477 210.132 534.525 202.606C531.227 199.037 527.053 196.05 524.555 191.814C522.095 187.647 521.203 182.744 519.372 178.306C515.469 168.84 509.356 160.709 503.955 152.089C501.116 147.55 498.982 142.678 496.608 137.898C494.366 133.367 491.433 129.286 488.391 125.275C484.9 120.674 481.812 115.825 479.484 110.533C477.273 105.49 475.109 100.424 471.299 96.3504C469.592 94.5194 466.853 97.266 468.552 99.097C471.803 102.581 473.72 106.988 475.605 111.301C477.653 116.003 480.097 120.402 483.077 124.584C486.002 128.697 489.198 132.584 491.712 136.983C494.358 141.607 496.305 146.588 498.92 151.236C501.418 155.674 504.405 159.832 507.183 164.1C509.883 168.258 512.475 172.502 514.585 177.002C516.688 181.487 517.813 186.297 519.744 190.836C521.762 195.561 525.269 198.975 528.915 202.474C537.093 210.318 542.687 220.195 547.862 230.165C549.01 232.384 552.362 230.421 551.214 228.21V228.194Z" fill="#383434"/>
<path d="M553.72 233.136C553.169 232.035 552.618 230.933 552.052 229.831C551.835 229.412 551.338 229.063 550.896 228.939C550.43 228.815 549.81 228.869 549.398 229.133C548.987 229.397 548.623 229.8 548.506 230.289C548.39 230.817 548.452 231.298 548.7 231.786C549.259 232.888 549.817 233.99 550.368 235.092C550.578 235.511 551.09 235.86 551.524 235.984C551.99 236.108 552.61 236.054 553.022 235.79C553.433 235.526 553.798 235.123 553.914 234.634C553.937 234.463 553.961 234.293 553.984 234.122C553.984 233.773 553.891 233.447 553.72 233.144V233.136Z" fill="#383434"/>
<path d="M556.404 244.457C559.151 249.585 564.357 257.011 571.208 254.675C573.202 253.992 574.816 252.611 576.538 251.44C578.408 250.16 580.317 248.926 582.249 247.739C586.05 245.396 589.953 243.223 593.926 241.175C601.801 237.102 609.909 233.517 618.009 229.917C622.105 228.094 626.194 226.27 630.26 224.377C632.207 223.47 634.116 222.43 636.117 221.654C638.111 220.886 640.168 220.257 642.239 219.73C646.894 218.543 651.697 217.976 656.344 216.766C657.376 216.494 658.307 215.889 659.293 215.478C659.828 215.253 660.387 215.082 660.922 214.873C661.558 214.625 662.101 214.206 662.66 213.825C663.832 213.042 665.003 212.266 666.175 211.482C666.384 211.343 666.609 211.203 666.811 211.056C667.145 210.691 667.269 210.598 667.191 210.784C667.191 210.792 667.183 210.8 667.176 210.807C667.393 210.73 667.703 210.745 668.06 210.792V206.912C666.4 206.928 664.693 206.905 663.048 207.184C661.341 207.471 660.348 209.519 661.9 210.753C662.637 211.335 663.723 211.288 664.623 211.257C665.95 211.211 667.284 211.025 668.58 210.73C670.745 210.233 670.225 206.936 668.068 206.92C659.184 206.85 650.844 209.783 642.619 212.817C634.348 215.874 626.233 219.357 618.288 223.19C614.385 225.076 610.684 227.202 607.022 229.521C603.477 231.764 599.977 234.091 596.401 236.287C594.57 237.412 592.723 238.506 590.838 239.538C589.076 240.508 587.23 241.687 585.282 242.215C581.162 243.34 576.724 243.208 572.744 244.853C570.936 245.597 569.292 246.645 567.546 247.514C566.165 248.204 564.279 248.934 562.743 248.445C559.461 247.39 558.119 243.34 557.219 240.399C556.49 238.017 552.742 239.034 553.479 241.431C554.496 244.752 555.861 248.282 558.662 250.509C560.206 251.735 561.967 252.503 563.969 252.441C565.847 252.379 567.592 251.797 569.268 250.982C570.828 250.229 572.279 249.267 573.861 248.561C575.786 247.716 577.966 247.405 580.03 247.087C582.187 246.754 584.375 246.505 586.477 245.908C588.58 245.318 590.574 244.092 592.482 243.053C600.14 238.878 607.208 233.719 614.75 229.343C618.653 227.077 622.858 225.254 626.962 223.4C630.973 221.584 635.031 219.877 639.136 218.271C643.83 216.44 648.578 214.679 653.388 213.181C658.168 211.692 663.048 210.761 668.06 210.8C667.889 209.527 667.719 208.262 667.548 206.99C667.292 207.052 667.036 207.106 666.78 207.153C666.625 207.184 666.462 207.207 666.307 207.231C666.268 207.231 665.895 207.293 666.105 207.262C666.221 207.246 665.702 207.308 665.57 207.316C665.329 207.339 665.089 207.355 664.848 207.37C664.499 207.386 664.158 207.401 663.808 207.386C663.684 207.386 663.521 207.339 663.397 207.362C663.242 207.393 663.832 207.432 663.723 207.401C663.18 207.262 664.514 207.766 664.732 208.224C664.794 208.72 664.864 209.217 664.926 209.721C664.926 209.721 664.926 209.713 664.926 209.706C664.763 209.993 664.592 210.28 664.429 210.559C664.313 210.683 663.304 211.195 663.979 210.939C663.483 211.133 663.731 210.963 663.94 210.947C664.134 210.931 664.328 210.916 664.53 210.9C665.701 210.815 666.881 210.807 668.06 210.792C669.108 210.784 670 209.907 670 208.852C670 207.688 669.108 207.052 668.06 206.912C666.02 206.649 664.522 207.929 662.932 208.984C661.97 209.62 661.015 210.264 660.053 210.9C659.153 211.498 658.067 211.793 657.074 212.235C656.368 212.553 655.701 212.956 654.94 213.104C653.784 213.329 652.636 213.6 651.48 213.833C649.447 214.237 647.399 214.617 645.366 215.036C641.207 215.897 636.994 216.921 633.13 218.729C629.15 220.591 625.185 222.469 621.182 224.269C605.362 231.368 589.27 238.103 574.862 247.879C573.194 249.011 571.48 250.695 569.455 251.129C568.205 251.393 566.956 250.966 565.754 250.175C563.092 248.422 561.23 245.287 559.733 242.494C558.554 240.29 555.202 242.253 556.381 244.449L556.404 244.457Z" fill="#383434"/>
<path d="M473.619 109.214C476.831 112.473 480.431 115.351 483.411 118.835C486.351 122.272 488.524 126.322 490.634 130.302C492.884 134.554 494.987 138.891 497.175 143.174C499.378 147.496 501.768 151.693 504.235 155.867C514.244 172.812 523.678 190.083 533.361 207.215C538.738 216.719 544.379 226.068 550.33 235.216C551.687 237.303 555.047 235.355 553.681 233.261C542.912 216.727 533.454 199.44 523.81 182.247C518.977 173.635 514.112 165.046 509.123 156.527C506.656 152.322 504.142 148.163 501.876 143.841C499.642 139.582 497.547 135.252 495.351 130.97C492.954 126.299 490.494 121.597 487.251 117.446C484.07 113.357 479.973 110.145 476.358 106.475C474.604 104.699 471.858 107.437 473.611 109.222L473.619 109.214Z" fill="#383434"/>
<path d="M549.065 233.897C548.374 236.636 549.352 239.142 550.888 241.392C551.571 242.393 552.316 243.355 552.952 244.394C553.099 244.643 553.247 244.891 553.379 245.147C553.441 245.263 553.503 245.38 553.557 245.496C553.635 245.651 553.743 245.915 553.619 245.605C553.736 245.9 553.836 246.194 553.922 246.497C553.96 246.652 553.999 246.8 554.03 246.955C554.054 247.063 554.116 247.537 554.061 247.071C554.178 248.072 554.868 249.065 556.001 249.011C556.955 248.972 558.065 248.15 557.941 247.071C557.623 244.356 556.234 242.253 554.698 240.073C554.054 239.165 553.417 238.234 552.96 237.21C553.161 237.668 552.967 237.21 552.944 237.132C552.898 236.993 552.851 236.861 552.82 236.721C552.789 236.605 552.766 236.488 552.735 236.372C552.673 236.124 552.704 236.147 552.727 236.387C552.704 236.093 552.688 235.798 552.704 235.503C552.704 235.379 552.812 234.944 552.704 235.402C552.742 235.247 552.766 235.084 552.812 234.929C553.06 233.943 552.494 232.78 551.454 232.539C550.446 232.306 549.336 232.842 549.065 233.897Z" fill="#383434"/>
<path d="M156.303 226.627C170.431 212.731 185.351 199.526 197.734 183.985C200.869 180.052 203.864 176.002 206.61 171.789C209.458 167.405 211.863 162.804 214.183 158.125C216.402 153.649 218.644 149.211 221.584 145.145C224.37 141.297 227.574 137.782 230.701 134.205C237.436 126.501 245.233 116.578 241.059 105.739C240.57 104.466 239.437 104.055 238.211 104.583C236.846 105.157 235.426 105.599 233.998 105.964C231.578 106.577 232.602 110.316 235.03 109.703C236.799 109.253 238.491 108.64 240.174 107.934C239.228 107.546 238.273 107.158 237.327 106.778C240.78 115.74 234.448 123.987 228.87 130.435C225.759 134.019 222.57 137.534 219.668 141.297C216.642 145.23 214.221 149.436 211.995 153.866C209.729 158.382 207.541 162.936 204.903 167.257C202.327 171.47 199.457 175.521 196.438 179.431C190.55 187.05 183.978 194.126 177.181 200.946C169.438 208.728 161.392 216.192 153.572 223.888C151.787 225.642 154.534 228.381 156.318 226.635L156.303 226.627Z" fill="#383434"/>
<path d="M234.503 112.318C234.014 112.264 234.448 112.341 234.549 112.372C233.975 112.233 234.596 112.465 234.332 112.279C234.029 112.062 234.565 112.636 234.169 112.101C234.223 112.178 234.456 112.59 234.208 112.109C234.231 112.155 234.286 112.31 234.286 112.38C234.317 112.884 234.278 111.938 234.309 112.473C234.332 112.822 234.324 113.172 234.293 113.521C234.254 114.118 234.332 113.311 234.278 113.684C234.254 113.854 234.223 114.017 234.192 114.188C234.123 114.545 234.045 114.894 233.952 115.243C233.735 116.104 233.455 116.958 233.153 117.796C232.206 120.449 230.965 122.971 229.692 125.609C224.285 136.812 218.078 147.519 210.296 157.249C202.692 166.761 194.382 175.715 187.625 185.886C184.281 190.914 181.449 196.267 178.012 201.241C174.567 206.23 170.191 210.303 165.985 214.625C163.953 216.719 161.974 218.892 160.275 221.274C158.599 223.632 157.241 226.193 155.868 228.73C154.534 231.213 153.184 233.696 151.5 235.961C149.971 238.025 148.047 239.755 146.123 241.446C144.152 243.184 142.135 244.899 140.452 246.932C139.078 248.592 138.116 250.408 137.03 252.254C136.58 253.03 136.099 253.791 135.455 254.419C135.013 254.846 134.555 255.094 134.136 255.032C133.065 254.877 132.002 253.969 131.126 253.387C129.884 252.565 128.689 251.673 127.456 250.842C124.926 249.143 122.234 247.708 119.712 245.993C117.191 244.278 114.755 242.44 112.38 240.523C107.764 236.791 103.241 233.098 98.2053 229.917C93.2552 226.79 88.119 223.982 83.037 221.072C77.7533 218.046 72.6248 214.795 67.5661 211.397C56.8513 204.181 46.4391 196.516 35.5148 189.61C30.3397 186.344 25.0173 183.194 20.3232 179.245C16.0327 175.637 12.4636 171.409 9.20498 166.87C7.4903 164.472 5.68252 162.137 3.4868 160.158C2.70317 161.175 1.91954 162.191 1.13591 163.208C5.30234 166.249 8.93342 169.942 12.6499 173.503C16.3663 177.057 20.3698 180.277 24.4121 183.458C28.4078 186.6 32.4424 189.688 36.345 192.947C38.3545 194.63 40.333 196.361 42.2416 198.153C44.0804 199.883 45.7253 201.877 47.7038 203.444C49.7288 205.05 52.1107 206.206 53.9418 208.037C54.8418 208.937 55.7108 209.907 56.6573 210.753C57.6815 211.669 58.8375 212.475 59.916 213.329C64.0592 216.595 68.2256 219.838 72.4386 223.012C80.7016 229.226 89.1974 235.146 98.0967 240.43C108.571 246.653 119.185 252.681 130.078 258.136C130.87 258.531 131.777 258.461 132.429 257.833C133.368 256.933 134.462 256.227 135.447 255.373C136.518 254.45 137.053 253.116 137.697 251.882C138.915 249.547 140.102 247.203 141.375 244.899C143.912 240.283 146.79 235.883 150.654 232.268C152.478 230.561 149.731 227.822 147.908 229.521C144.005 233.176 140.995 237.621 138.395 242.261C137.139 244.503 135.967 246.792 134.788 249.073C134.221 250.16 133.725 251.634 132.856 252.495C131.886 253.449 130.676 254.14 129.69 255.086C130.474 254.985 131.257 254.885 132.041 254.784C122.389 249.95 112.978 244.651 103.66 239.189C94.6052 233.882 85.8689 228.148 77.4197 221.91C73.2377 218.822 69.1256 215.657 65.0368 212.452C62.9497 210.823 60.6686 209.279 58.7987 207.409C57.8987 206.509 57.0142 205.57 56.0832 204.693C55.0668 203.747 53.8642 203.002 52.7081 202.242C51.7849 201.636 50.8461 201.047 50.0003 200.341C48.9529 199.472 48.0607 198.409 47.0908 197.447C45.2753 195.639 43.3822 193.901 41.4502 192.217C37.6174 188.881 33.6062 185.754 29.5949 182.628C25.0716 179.09 20.4862 175.583 16.312 171.634C12.0214 167.576 7.886 163.363 3.10662 159.864C1.32987 158.568 -0.865844 161.446 0.755729 162.913C3.1299 165.054 4.9532 167.599 6.81529 170.175C8.50669 172.518 10.3145 174.791 12.2697 176.917C16.4439 181.448 21.3551 185.118 26.4914 188.478C31.8527 191.985 37.2993 195.321 42.6063 198.913C48.2003 202.707 53.7245 206.602 59.2875 210.435C64.7109 214.182 70.1575 217.93 75.8059 221.336C80.9344 224.432 86.2103 227.271 91.3699 230.305C96.607 233.385 101.743 236.667 106.406 240.585C111.186 244.604 116.112 248.476 121.458 251.727C124.088 253.325 126.602 255.032 129.17 256.731C131.195 258.073 133.492 259.532 135.99 258.601C138.008 257.848 139.334 255.994 140.389 254.21C141.553 252.231 142.562 250.299 144.145 248.6C147.83 244.628 152.299 241.633 155.426 237.117C158.778 232.283 160.834 226.627 164.535 222.026C168.468 217.131 173.364 213.112 177.437 208.332C181.394 203.693 184.451 198.409 187.594 193.211C190.907 187.725 194.576 182.488 198.572 177.476C202.467 172.596 206.564 167.894 210.528 163.068C214.485 158.257 218.341 153.331 221.732 148.094C225.332 142.538 228.482 136.665 231.454 130.761C233.083 127.517 234.705 124.243 236.086 120.884C237.249 118.052 238.855 114.304 237.971 111.193C237.49 109.502 236.163 108.617 234.48 108.423C233.44 108.299 232.54 109.401 232.54 110.363C232.54 111.511 233.432 112.178 234.48 112.303L234.503 112.318Z" fill="#383434"/>
<path d="M98.4693 202.025C98.4849 202.118 98.5547 202.622 98.5004 202.118C98.5159 202.273 98.5314 202.428 98.5392 202.583C98.5547 202.901 98.5547 203.212 98.5392 203.53C98.5314 203.685 98.415 204.6 98.4926 204.135C98.4305 204.515 98.3607 204.895 98.2831 205.268C97.9883 206.625 97.5538 207.952 97.1969 209.302C96.4443 212.095 96.0331 215.152 97.9883 217.557C99.059 218.876 100.657 219.652 102.24 220.164C104.203 220.801 106.29 221.111 108.338 220.808C111.745 220.304 114.584 217.953 116.307 215.051C118.107 212.026 118.782 208.387 118.184 204.926C117.913 203.367 117.3 201.807 116.376 200.512C115.407 199.146 114.095 198.277 112.567 197.649C109.432 196.368 105.825 196.198 102.512 196.694C101.03 196.912 99.509 197.331 98.2133 198.099C96.7391 198.975 95.8857 200.232 95.3659 201.854C93.9926 206.129 96.1262 210.419 99.2607 213.29C102.341 216.122 106.321 218.108 110.488 218.628C111.527 218.76 112.427 217.643 112.427 216.689C112.427 215.532 111.535 214.881 110.488 214.749C110.938 214.803 110.348 214.726 110.294 214.71C110.107 214.679 109.929 214.64 109.751 214.601C109.432 214.532 109.122 214.454 108.812 214.361C108.113 214.159 107.307 213.864 106.857 213.655C105.499 213.034 103.97 212.15 102.931 211.335C101.681 210.35 100.587 209.209 99.8581 208.006C99.1521 206.835 98.7874 205.702 98.8262 204.422C98.8262 204.29 98.8418 204.15 98.8495 204.019C98.9038 203.382 98.7642 204.352 98.8961 203.716C98.9737 203.367 99.0668 203.018 99.1831 202.676C99.2607 202.451 99.3849 202.281 99.509 201.986C99.5556 201.877 99.7495 201.745 99.4237 202.079C99.54 201.962 99.6719 201.838 99.7806 201.714C99.9745 201.481 99.765 201.714 99.703 201.761C99.8194 201.675 99.928 201.598 100.052 201.52C100.262 201.388 100.487 201.28 100.704 201.163C101.162 200.931 100.324 201.295 100.82 201.109C100.975 201.047 101.131 200.993 101.286 200.946C101.612 200.837 101.953 200.744 102.287 200.667C104.63 200.116 107.594 200.193 110.038 200.868C110.325 200.946 110.612 201.039 110.899 201.14C111.062 201.194 111.225 201.256 111.388 201.326C110.984 201.163 111.488 201.381 111.535 201.404C111.768 201.528 112.008 201.644 112.233 201.792C112.342 201.862 112.443 201.931 112.551 202.001C112.668 202.087 112.637 202.056 112.451 201.924C112.528 201.986 112.598 202.048 112.668 202.11C112.831 202.273 112.994 202.428 113.141 202.606C112.846 202.242 113.211 202.738 113.242 202.785C113.343 202.94 113.444 203.103 113.537 203.266C113.94 203.987 113.971 204.073 114.196 204.864C114.289 205.198 114.359 205.531 114.429 205.865C114.445 205.95 114.507 206.354 114.46 205.997C114.483 206.183 114.499 206.369 114.514 206.563C114.561 207.262 114.545 207.96 114.483 208.658C114.421 209.279 114.553 208.286 114.452 208.907C114.429 209.062 114.398 209.225 114.367 209.38C114.297 209.729 114.22 210.07 114.119 210.412C113.917 211.126 113.7 211.684 113.498 212.103C113.195 212.732 112.846 213.337 112.443 213.903C112.466 213.872 112.101 214.361 112.257 214.159C112.412 213.957 112.024 214.431 112.055 214.4C111.814 214.679 111.558 214.951 111.287 215.199C110.488 215.951 109.401 216.595 108.3 216.882C108.144 216.921 107.307 217.069 107.625 217.038C107.307 217.076 106.988 217.092 106.67 217.084C105.7 217.084 105.328 216.976 104.312 216.735C103.668 216.58 102.667 216.254 102.364 216.099C102.093 215.959 101.837 215.812 101.573 215.657C101.511 215.618 101.092 215.284 101.441 215.571C101.286 215.439 101.146 215.3 100.999 215.16C100.929 215.098 100.867 215.013 100.805 214.943C101.138 215.323 100.774 214.873 100.712 214.764C100.665 214.687 100.634 214.601 100.587 214.524C100.432 214.276 100.657 214.873 100.541 214.369C100.502 214.19 100.401 213.414 100.432 213.965C100.417 213.686 100.393 213.414 100.401 213.135C100.401 212.995 100.417 212.848 100.425 212.708C100.425 212.654 100.502 212.08 100.456 212.382C100.409 212.708 100.487 212.212 100.494 212.196C100.533 211.995 100.572 211.793 100.611 211.591C100.75 210.963 100.913 210.334 101.092 209.713C101.891 206.866 102.783 203.987 102.201 201C102 199.968 100.774 199.387 99.8116 199.643C98.7409 199.937 98.2521 201 98.4538 202.032L98.4693 202.025Z" fill="#383434"/>
<path d="M69.1102 177.747C67.5507 175.21 65.1843 174.054 62.236 174.52C61.6075 174.621 61.0178 175.28 60.8782 175.877C59.8618 180.315 59.2411 185.902 61.5144 190.068C63.4929 193.707 68.4274 195.561 72.299 196.112C74.5646 196.438 76.8999 196.407 78.9948 195.391C80.7793 194.522 81.8966 192.815 82.2457 190.898C82.9828 186.833 81.8733 182.03 79.8638 178.453C78.6224 176.258 76.5198 174.706 74.0215 174.271C71.2128 173.79 68.3654 174.271 65.5412 174.271V178.151C67.9619 178.081 70.2818 178.384 72.6326 178.973C74.9447 179.547 77.2258 180.215 79.5767 180.61C80.6086 180.781 81.6638 180.339 81.9664 179.253C82.2224 178.321 81.6483 177.041 80.6086 176.863C78.1724 176.459 75.8137 175.753 73.4163 175.164C70.8326 174.535 68.2024 174.186 65.5412 174.271C63.0506 174.349 63.0351 178.151 65.5412 178.151C67.7214 178.151 69.9093 177.864 72.0895 177.949C73.6723 178.011 75.0999 178.492 76.0465 179.679C76.287 179.982 76.7137 180.789 76.962 181.309C77.0008 181.386 77.0396 181.471 77.0706 181.557C77.0551 181.518 76.9698 181.309 77.0551 181.526C77.1405 181.735 77.2258 181.945 77.3034 182.162C77.4586 182.581 77.5982 183 77.7224 183.427C78.281 185.266 78.5758 186.755 78.5758 188.578C78.5758 188.974 78.5603 189.362 78.5215 189.75C78.4982 189.983 78.5215 189.735 78.5293 189.696C78.5138 189.789 78.4982 189.874 78.4827 189.967C78.4439 190.169 78.3974 190.371 78.3431 190.565C78.3198 190.635 78.1336 191.154 78.2189 190.96C78.3043 190.766 78.1103 191.162 78.0715 191.224C78.0327 191.294 77.7689 191.635 77.9163 191.465C78.0638 191.294 77.7069 191.651 77.6448 191.713C77.9474 191.441 77.0008 192.078 77.1172 192.023C77.2646 191.954 76.8534 192.116 76.7681 192.147C76.5663 192.21 76.3568 192.264 76.1474 192.31C76.0542 192.334 75.6042 192.411 75.9146 192.365C75.6896 192.396 75.4568 192.411 75.2241 192.427C74.7818 192.45 74.3318 192.442 73.8896 192.419C73.0206 192.365 72.3844 192.248 71.4068 192C70.6154 191.798 69.4981 191.426 68.9628 191.193C68.1791 190.86 67.4265 190.456 66.7127 189.991C66.5265 189.874 66.3481 189.75 66.1696 189.618C66.4102 189.797 66.0843 189.548 66.0067 189.479C65.7429 189.254 65.4946 189.005 65.2619 188.741C65.13 188.594 65.2851 188.78 65.3007 188.803C65.1998 188.672 65.1144 188.532 65.0213 188.385C64.8972 188.183 64.7808 187.966 64.68 187.748C64.7498 187.903 64.5481 187.415 64.517 187.322C64.4317 187.073 64.3619 186.825 64.2998 186.577C64.0205 185.491 63.9429 184.591 63.9196 183.434C63.873 181.13 64.1213 179.105 64.6179 176.917C64.1679 177.367 63.7179 177.817 63.2601 178.275C63.7179 178.205 64.2299 178.306 64.5248 178.446C65.0136 178.686 65.4093 179.167 65.7507 179.718C67.0541 181.844 70.4137 179.896 69.1024 177.763L69.1102 177.747Z" fill="#383434"/>
</svg>
