<svg width="187" height="48" viewBox="0 0 187 48" fill="none" xmlns="http://www.w3.org/2000/svg">
<path d="M43.0295 0C56.3163 0 67.127 10.7656 67.127 24H56.5448C56.5448 16.5777 50.4819 10.5407 43.0308 10.5407C35.5797 10.5407 29.5168 16.5791 29.5168 24H18.9347C18.9333 10.7656 29.7427 0 43.0295 0ZM24.2244 48C37.5112 48 48.3219 37.2344 48.3219 24H37.7397C37.7397 31.4223 31.6768 37.4593 24.2258 37.4593C16.7733 37.4593 10.7118 31.4209 10.7118 24H0.126953C0.126953 37.2331 10.9363 48 24.2244 48Z" fill="url(#paint0_linear_1364_6348)"/>
<path d="M101.832 17.8711C101.219 16.47 100.388 15.3094 99.3364 14.3913C98.2869 13.4712 97.0551 12.7776 95.6411 12.3105C94.225 11.8455 92.7168 11.611 91.1125 11.611C89.5081 11.611 87.9779 11.8375 86.5197 12.2885C85.0616 12.7415 83.7858 13.4351 82.6922 14.3692C81.5986 15.3033 80.7313 16.47 80.0884 17.8711C79.4474 19.2723 79.127 20.922 79.127 22.8183C79.127 24.7146 79.4474 26.3644 80.0884 27.7655C80.7313 29.1667 81.5986 30.3333 82.6922 31.2675C83.7858 32.2016 85.0616 32.8951 86.5197 33.3481C87.9779 33.8012 89.5081 34.0277 91.1125 34.0277C92.3963 34.0277 93.6281 33.8874 94.8098 33.6107C95.9916 33.3321 97.0772 32.9091 98.0686 32.3398C99.06 31.7726 99.9273 31.0209 100.67 30.0847C101.415 29.1526 101.99 28.0281 102.399 26.7152L98.4612 26.1899C97.8503 27.8236 96.9089 28.9482 95.6411 29.5616C94.3712 30.173 92.891 30.4957 91.2006 30.5238C89.1876 30.5538 87.4972 30.0286 86.1252 28.9482C84.7552 27.8677 83.9099 26.2341 83.5895 24.0451C83.5895 24.0391 83.5895 24.0331 83.5895 24.027H83.5975C83.5975 24.027 83.5935 24.0391 83.5915 24.0451H102.663C102.721 23.7524 102.751 23.556 102.751 23.4518V22.8183C102.751 20.922 102.445 19.2723 101.834 17.8711H101.832ZM83.8378 20.6755C83.8999 20.449 83.968 20.2305 84.0481 20.016C84.4708 18.8774 85.0456 17.9373 85.7767 17.1936C86.5057 16.4479 87.351 15.8947 88.3124 15.5298C89.2758 15.165 90.2392 14.9826 91.2006 14.9826C93.2135 15.0107 94.8819 15.5298 96.2099 16.5361C97.3856 17.4281 98.1667 18.8072 98.5513 20.6755H83.8378Z" fill="white"/>
<path d="M102.617 11.8736H108.085L113.509 18.7471C113.655 18.9516 113.764 19.1841 113.838 19.4467C113.91 19.7093 113.948 19.9719 113.948 20.2345H114.036C114.036 19.6512 114.196 19.1541 114.517 18.7451L119.896 11.8716H125.32L116.834 22.7301L125.32 33.7631H119.941L114.473 26.7152C114.326 26.5107 114.216 26.2701 114.144 25.9935C114.072 25.7169 114.034 25.4603 114.034 25.2278H113.946C113.946 25.4623 113.902 25.7169 113.814 25.9935C113.725 26.2722 113.609 26.5127 113.463 26.7152L108.039 33.7631H102.615L111.146 22.7301L102.615 11.8716L102.617 11.8736Z" fill="white"/>
<path d="M126.547 15.7263V11.6991H127.378C127.873 11.6991 128.392 11.4947 128.93 11.0857C129.469 10.6768 129.958 10.1517 130.397 9.51021C130.833 8.86875 131.198 8.15314 131.49 7.36536C131.781 6.57758 131.927 5.80381 131.927 5.04409L136.257 5C136.199 6.22678 135.907 7.38537 135.382 8.47985C134.857 9.57432 134.084 10.4584 133.062 11.1279C132.684 11.3624 132.223 11.5288 131.684 11.631C131.144 11.7333 130.657 11.8274 130.218 11.9156V12.0038C130.655 11.9156 131.144 11.8435 131.684 11.7854C132.223 11.7272 132.712 11.6971 133.151 11.6971H140.894V15.7243H135.338V27.3706C135.338 28.3348 135.57 28.9683 136.037 29.2749C136.503 29.5816 137.072 29.7339 137.743 29.7339H141.943V33.7611H137.962C136.531 33.7611 135.366 33.6227 134.462 33.3441C133.559 33.0675 132.858 32.6365 132.363 32.0532C131.867 31.4699 131.524 30.7182 131.336 29.7981C131.146 28.878 131.051 27.7916 131.051 26.5367V15.7223H126.545L126.547 15.7263Z" fill="white"/>
<path d="M146.67 26.7151C146.874 28.2045 147.529 29.2328 148.639 29.8021C149.746 30.3714 151.279 30.656 153.231 30.656C155.33 30.656 156.921 30.3493 158 29.7359C159.08 29.1225 159.619 28.1022 159.619 26.671C159.619 25.9714 159.202 25.4743 158.371 25.1816C157.54 24.891 156.512 24.6645 155.286 24.5021C154.061 24.3417 152.721 24.1813 151.263 24.021C149.804 23.8606 148.462 23.59 147.239 23.2112C146.013 22.8323 144.985 22.263 144.154 21.5033C143.323 20.7436 142.906 19.6932 142.906 18.3502C142.906 17.2998 143.103 16.4017 143.497 15.6581C143.892 14.9144 144.395 14.293 145.007 13.7978C145.62 13.3027 146.311 12.8998 147.084 12.5931C147.858 12.2864 148.623 12.0599 149.382 11.9136C150.139 11.7673 150.87 11.6731 151.569 11.629C152.268 11.5849 152.837 11.5628 153.275 11.5628C154.121 11.5628 155.09 11.643 156.184 11.8033C157.277 11.9637 158.327 12.2624 159.334 12.7014C160.34 13.1384 161.215 13.7377 161.958 14.4954C162.701 15.2551 163.162 16.2474 163.336 17.4722L159.442 18.0415C159.208 16.8147 158.589 15.9908 157.584 15.5679C156.578 15.1449 155.112 14.9324 153.187 14.9324C151.263 14.9324 149.71 15.181 148.703 15.6761C147.697 16.1732 147.193 17.1074 147.193 18.4785C147.193 19.178 147.609 19.6832 148.438 19.9899C149.27 20.2966 150.297 20.5371 151.523 20.7115C152.749 20.8859 154.089 21.0483 155.547 21.1926C157.005 21.3389 158.347 21.6015 159.571 21.9804C160.796 22.3592 161.824 22.9145 162.655 23.6441C163.486 24.3738 163.901 25.4101 163.901 26.7532C163.901 28.417 163.47 29.7379 162.611 30.7162C161.75 31.6944 160.73 32.424 159.549 32.9051C158.367 33.3862 157.179 33.6929 155.983 33.8252C154.788 33.9575 153.84 34.0216 153.139 34.0216C152.731 34.0216 152.192 33.9916 151.521 33.9334C150.85 33.8753 150.135 33.765 149.378 33.6047C148.619 33.4443 147.854 33.2178 147.08 32.9252C146.307 32.6345 145.592 32.2396 144.937 31.7425C144.28 31.2473 143.734 30.648 143.297 29.9464C142.86 29.2468 142.598 28.4149 142.51 27.4508L146.666 26.7071L146.67 26.7151Z" fill="white"/>
<path d="M164.344 11.8736H168.936L174.581 26.2341C174.785 26.7011 174.931 27.2263 175.017 27.8096C175.105 28.393 175.15 28.9342 175.15 29.4293H175.238C175.238 28.9342 175.288 28.393 175.39 27.8096C175.492 27.2263 175.644 26.7011 175.849 26.2341L181.535 11.8736H186.128L176.109 36.8721C175.672 38.0989 175.132 39.1052 174.491 39.893C173.85 40.6808 173.179 41.3082 172.478 41.7752C171.779 42.2423 171.07 42.563 170.357 42.7374C169.642 42.9118 168.979 43 168.366 43H164.472V39.5422H166.703C166.966 39.5422 167.33 39.4981 167.797 39.4099C168.264 39.3217 168.744 39.1613 169.241 38.9288C169.736 38.6943 170.21 38.3816 170.663 37.9867C171.116 37.5918 171.442 37.0886 171.646 36.4753L172.784 32.9733L164.342 11.8716L164.344 11.8736Z" fill="white"/>
<defs>
<linearGradient id="paint0_linear_1364_6348" x1="0.126953" y1="24" x2="67.127" y2="24" gradientUnits="userSpaceOnUse">
<stop stop-color="#FEF9CC"/>
<stop offset="0.4" stop-color="#F6DBD4"/>
<stop offset="0.75" stop-color="#F1C8D9"/>
<stop offset="1" stop-color="#F0C2DB"/>
</linearGradient>
</defs>
</svg>
