<svg width="573" height="573" viewBox="0 0 573 573" fill="none" xmlns="http://www.w3.org/2000/svg">
<path opacity="0.5" d="M177.452 44.2909C177.452 48.8727 173.735 52.5756 169.168 52.5756C164.6 52.5756 160.883 48.8583 160.883 44.2909C160.883 39.7235 164.6 36.0062 169.168 36.0062C173.735 36.0062 177.452 39.7235 177.452 44.2909Z" fill="url(#paint0_radial_1359_36238)"/>
<path d="M169.269 32.2456L170.018 44.19H168.434L169.269 32.2456Z" fill="#FFFAEF"/>
<path d="M169.197 56.1489L168.434 44.19H170.018L169.197 56.1489Z" fill="#FFFAEF"/>
<path d="M181.183 44.2332L169.225 44.9969V43.3976L181.183 44.2332Z" fill="#FFFAEF"/>
<path d="M157.281 44.1612L169.226 43.3976V44.9969L157.281 44.1612Z" fill="#FFFAEF"/>
<path opacity="0.5" d="M135.552 62.2291C135.552 66.8109 131.835 70.5282 127.267 70.5282C122.7 70.5282 118.982 66.8109 118.982 62.2291C118.982 57.6473 122.7 53.9444 127.267 53.9444C131.835 53.9444 135.552 57.6617 135.552 62.2291Z" fill="url(#paint1_radial_1359_36238)"/>
<path d="M127.368 50.1694L128.132 62.1283H126.547L127.368 50.1694Z" fill="#FFFAEF"/>
<path d="M127.296 74.0727L126.547 62.1283H128.132L127.296 74.0727Z" fill="#FFFAEF"/>
<path d="M139.284 62.1571L127.34 62.9207V61.3358L139.284 62.1571Z" fill="#FFFAEF"/>
<path d="M115.381 62.085L127.34 61.3358V62.9207L115.381 62.085Z" fill="#FFFAEF"/>
<path opacity="0.5" d="M340.663 512.246C339.494 514.216 336.94 514.879 334.957 513.702C332.975 512.525 332.325 509.978 333.502 507.996C334.678 506.013 337.225 505.364 339.208 506.54C341.19 507.717 341.84 510.264 340.663 512.246Z" fill="url(#paint2_radial_1359_36238)"/>
<path d="M340.213 504.959L337.476 510.305L336.794 509.9L340.213 504.959Z" fill="#FFFAEF"/>
<path d="M334.058 515.246L336.795 509.9L337.476 510.305L334.058 515.246Z" fill="#FFFAEF"/>
<path d="M342.288 513.177L336.93 510.433L337.334 509.752L342.288 513.177Z" fill="#FFFAEF"/>
<path d="M331.988 507.015L337.334 509.751L336.93 510.433L331.988 507.015Z" fill="#FFFAEF"/>
<path opacity="0.5" d="M366.781 262.568C366.781 264.859 364.922 266.732 362.617 266.732C360.312 266.732 358.453 264.874 358.453 262.568C358.453 260.263 360.312 258.404 362.617 258.404C364.922 258.404 366.781 260.263 366.781 262.568Z" fill="url(#paint3_radial_1359_36238)"/>
<path d="M362.674 256.517L363.048 262.511H362.256L362.674 256.517Z" fill="#FFFAEF"/>
<path d="M362.63 268.505L362.256 262.511H363.048L362.63 268.505Z" fill="#FFFAEF"/>
<path d="M368.652 262.54L362.658 262.914V262.122L368.652 262.54Z" fill="#FFFAEF"/>
<path d="M356.65 262.496L362.659 262.122V262.914L356.65 262.496Z" fill="#FFFAEF"/>
<path opacity="0.5" d="M133.383 256.575C133.383 258.866 131.524 260.739 129.219 260.739C126.913 260.739 125.055 258.88 125.055 256.575C125.055 254.27 126.913 252.411 129.219 252.411C131.524 252.411 133.383 254.27 133.383 256.575Z" fill="url(#paint4_radial_1359_36238)"/>
<path d="M129.277 250.523L129.652 256.517H128.859L129.277 250.523Z" fill="#FFFAEF"/>
<path d="M129.234 262.511L128.859 256.517H129.652L129.234 262.511Z" fill="#FFFAEF"/>
<path d="M135.256 256.546L129.262 256.921V256.128L135.256 256.546Z" fill="#FFFAEF"/>
<path d="M123.254 256.503L129.262 256.128V256.921L123.254 256.503Z" fill="#FFFAEF"/>
<path opacity="0.5" d="M512.079 285.053C510.91 287.023 508.356 287.685 506.373 286.508C504.391 285.332 503.741 282.785 504.918 280.802C506.094 278.82 508.641 278.17 510.624 279.347C512.606 280.523 513.256 283.07 512.079 285.053Z" fill="url(#paint5_radial_1359_36238)"/>
<path d="M511.629 277.766L508.892 283.111L508.21 282.707L511.629 277.766Z" fill="#FFFAEF"/>
<path d="M505.474 288.052L508.211 282.707L508.892 283.111L505.474 288.052Z" fill="#FFFAEF"/>
<path d="M513.705 285.984L508.359 283.247L508.764 282.565L513.705 285.984Z" fill="#FFFAEF"/>
<path d="M503.405 279.821L508.762 282.565L508.358 283.247L503.405 279.821Z" fill="#FFFAEF"/>
<path opacity="0.5" d="M160.607 21.353C160.607 23.6439 158.749 25.5169 156.443 25.5169C154.138 25.5169 152.279 23.6583 152.279 21.353C152.279 19.0477 154.138 17.189 156.443 17.189C158.749 17.189 160.607 19.0477 160.607 21.353Z" fill="url(#paint6_radial_1359_36238)"/>
<path d="M156.502 15.3159L156.876 21.3097H156.084L156.502 15.3159Z" fill="#FFFAEF"/>
<path d="M156.459 27.3036L156.084 21.3098H156.876L156.459 27.3036Z" fill="#FFFAEF"/>
<path d="M162.48 21.3242L156.486 21.7132V20.9063L162.48 21.3242Z" fill="#FFFAEF"/>
<path d="M150.479 21.2809L156.487 20.9063V21.7132L150.479 21.2809Z" fill="#FFFAEF"/>
<path opacity="0.5" d="M183.637 309.395C183.637 311.686 181.778 313.559 179.473 313.559C177.167 313.559 175.309 311.701 175.309 309.395C175.309 307.09 177.167 305.231 179.473 305.231C181.778 305.231 183.637 307.09 183.637 309.395Z" fill="url(#paint7_radial_1359_36238)"/>
<path d="M179.531 303.344L179.906 309.338H179.113L179.531 303.344Z" fill="#FFFAEF"/>
<path d="M179.488 315.346L179.113 309.338H179.906L179.488 315.346Z" fill="#FFFAEF"/>
<path d="M185.509 309.366L179.516 309.741V308.949L185.509 309.366Z" fill="#FFFAEF"/>
<path d="M173.508 309.323L179.516 308.949V309.741L173.508 309.323Z" fill="#FFFAEF"/>
<path opacity="0.5" d="M329.529 45.8326C329.529 48.1235 327.67 49.9966 325.365 49.9966C323.06 49.9966 321.201 48.1379 321.201 45.8326C321.201 43.5273 323.06 41.6686 325.365 41.6686C327.67 41.6686 329.529 43.5273 329.529 45.8326Z" fill="url(#paint8_radial_1359_36238)"/>
<path d="M325.424 39.7955L325.798 45.7893H325.006L325.424 39.7955Z" fill="#FFFAEF"/>
<path d="M325.38 51.7832L325.006 45.7894H325.798L325.38 51.7832Z" fill="#FFFAEF"/>
<path d="M331.403 45.8038L325.395 46.1928V45.3859L331.403 45.8038Z" fill="#FFFAEF"/>
<path d="M319.4 45.7605L325.394 45.3859V46.1928L319.4 45.7605Z" fill="#FFFAEF"/>
<path opacity="0.5" d="M477.097 372.056C475.928 374.026 473.373 374.688 471.391 373.512C469.409 372.335 468.759 369.788 469.935 367.806C471.112 365.823 473.659 365.173 475.641 366.35C477.624 367.527 478.274 370.074 477.097 372.056Z" fill="url(#paint9_radial_1359_36238)"/>
<path d="M476.646 364.769L473.909 370.115L473.228 369.71L476.646 364.769Z" fill="#FFFAEF"/>
<path d="M470.492 375.056L473.229 369.71L473.91 370.115L470.492 375.056Z" fill="#FFFAEF"/>
<path d="M478.721 372.987L473.363 370.243L473.768 369.562L478.721 372.987Z" fill="#FFFAEF"/>
<path d="M468.422 366.825L473.768 369.561L473.363 370.243L468.422 366.825Z" fill="#FFFAEF"/>
<path opacity="0.5" d="M343.079 489.067C340.741 493.007 335.654 494.294 331.726 491.963C327.799 489.632 326.499 484.538 328.83 480.61C331.161 476.682 336.255 475.383 340.183 477.714C344.111 480.045 345.41 485.139 343.079 489.067Z" fill="url(#paint10_radial_1359_36238)"/>
<path d="M342.195 474.519L336.755 485.18L335.392 484.371L342.195 474.519Z" fill="#FFFAEF"/>
<path d="M329.933 495.038L335.393 484.371L336.756 485.18L329.933 495.038Z" fill="#FFFAEF"/>
<path d="M346.326 490.909L335.664 485.47L336.48 484.095L346.326 490.909Z" fill="#FFFAEF"/>
<path d="M325.806 478.647L336.479 484.094L335.663 485.469L325.806 478.647Z" fill="#FFFAEF"/>
<path d="M53.4955 131.907C53.4955 132.34 53.1497 132.685 52.7175 132.685C52.2853 132.685 51.9395 132.34 51.9395 131.907C51.9395 131.475 52.2853 131.129 52.7175 131.129C53.1497 131.129 53.4955 131.475 53.4955 131.907Z" fill="#FFFAEF"/>
<path d="M146.099 122.599C146.099 123.032 145.753 123.377 145.321 123.377C144.889 123.377 144.543 123.032 144.543 122.599C144.543 122.167 144.889 121.821 145.321 121.821C145.753 121.821 146.099 122.167 146.099 122.599Z" fill="#FFFAEF"/>
<path d="M445.576 425.226C445.355 425.598 444.881 425.719 444.51 425.498C444.138 425.278 444.017 424.804 444.238 424.432C444.458 424.06 444.932 423.939 445.304 424.16C445.676 424.381 445.796 424.854 445.576 425.226Z" fill="#FFFAEF"/>
<path d="M489.707 309.003C489.486 309.374 489.012 309.495 488.641 309.275C488.269 309.054 488.148 308.58 488.369 308.209C488.589 307.837 489.063 307.716 489.435 307.937C489.806 308.157 489.927 308.631 489.707 309.003Z" fill="#FFFAEF"/>
<path d="M486.08 295.038C485.859 295.41 485.385 295.531 485.014 295.31C484.642 295.09 484.521 294.616 484.742 294.244C484.962 293.872 485.436 293.752 485.808 293.972C486.179 294.193 486.3 294.667 486.08 295.038Z" fill="#FFFAEF"/>
<path d="M514.269 361.648C514.049 362.019 513.575 362.14 513.203 361.92C512.831 361.699 512.71 361.225 512.931 360.854C513.152 360.482 513.626 360.361 513.997 360.582C514.369 360.802 514.49 361.276 514.269 361.648Z" fill="#FFFAEF"/>
<path d="M365.729 527.859C365.633 528.02 365.416 528.076 365.255 527.98C365.094 527.885 365.038 527.667 365.134 527.506C365.23 527.345 365.447 527.29 365.608 527.385C365.769 527.481 365.824 527.698 365.729 527.859Z" fill="#FFFAEF"/>
<path d="M369.987 493.158C369.891 493.319 369.674 493.374 369.513 493.279C369.352 493.183 369.296 492.966 369.392 492.805C369.487 492.644 369.705 492.588 369.866 492.684C370.027 492.78 370.082 492.997 369.987 493.158Z" fill="#FFFAEF"/>
<path d="M414.869 408.812C414.774 408.974 414.557 409.029 414.396 408.933C414.234 408.838 414.179 408.621 414.275 408.459C414.37 408.298 414.587 408.243 414.749 408.339C414.91 408.434 414.965 408.651 414.869 408.812Z" fill="#FFFAEF"/>
<path d="M426.301 276.04C426.301 276.228 426.142 276.386 425.955 276.386C425.768 276.386 425.609 276.228 425.609 276.04C425.609 275.853 425.768 275.694 425.955 275.694C426.142 275.694 426.301 275.853 426.301 276.04Z" fill="#FFFAEF"/>
<path d="M238.375 263.635C238.375 263.822 238.217 263.981 238.029 263.981C237.842 263.981 237.684 263.822 237.684 263.635C237.684 263.447 237.842 263.289 238.029 263.289C238.217 263.289 238.375 263.447 238.375 263.635Z" fill="#FFFAEF"/>
<path d="M232.395 288.964C232.395 289.152 232.236 289.31 232.049 289.31C231.862 289.31 231.703 289.152 231.703 288.964C231.703 288.777 231.862 288.619 232.049 288.619C232.236 288.619 232.395 288.777 232.395 288.964Z" fill="#FFFAEF"/>
<path d="M298.393 70.5139C298.393 70.7012 298.234 70.8597 298.047 70.8597C297.86 70.8597 297.701 70.7012 297.701 70.5139C297.701 70.3266 297.86 70.1681 298.047 70.1681C298.234 70.1681 298.393 70.3266 298.393 70.5139Z" fill="#FFFAEF"/>
<path d="M3.77558 268.584C3.77558 268.771 3.61709 268.929 3.42978 268.929C3.24247 268.929 3.08398 268.771 3.08398 268.584C3.08398 268.396 3.24247 268.238 3.42978 268.238C3.61709 268.238 3.77558 268.396 3.77558 268.584Z" fill="#FFFAEF"/>
<path d="M26.2795 283.309C26.2795 283.496 26.121 283.654 25.9337 283.654C25.7464 283.654 25.5879 283.496 25.5879 283.309C25.5879 283.121 25.7464 282.963 25.9337 282.963C26.121 282.963 26.2795 283.121 26.2795 283.309Z" fill="#FFFAEF"/>
<path d="M329.483 561.404C329.387 561.565 329.17 561.62 329.009 561.525C328.848 561.429 328.792 561.212 328.888 561.051C328.984 560.89 329.201 560.834 329.362 560.93C329.523 561.026 329.578 561.243 329.483 561.404Z" fill="#FFFAEF"/>
<path d="M341.858 547.219C341.762 547.38 341.545 547.435 341.384 547.34C341.223 547.244 341.167 547.027 341.263 546.866C341.359 546.705 341.576 546.649 341.737 546.745C341.898 546.84 341.953 547.058 341.858 547.219Z" fill="#FFFAEF"/>
<path d="M572.592 307.026C572.496 307.187 572.279 307.242 572.118 307.147C571.957 307.051 571.902 306.834 571.997 306.673C572.093 306.512 572.31 306.456 572.471 306.552C572.632 306.648 572.688 306.865 572.592 307.026Z" fill="#FFFAEF"/>
<path d="M509.899 401.929C509.803 402.09 509.586 402.145 509.425 402.05C509.264 401.954 509.208 401.737 509.304 401.576C509.4 401.415 509.617 401.359 509.778 401.455C509.939 401.551 509.994 401.768 509.899 401.929Z" fill="#FFFAEF"/>
<path d="M520.262 389.749C520.166 389.91 519.949 389.966 519.788 389.87C519.627 389.775 519.572 389.557 519.667 389.396C519.763 389.235 519.98 389.18 520.141 389.275C520.302 389.371 520.358 389.588 520.262 389.749Z" fill="#FFFAEF"/>
<path d="M502.321 426.836C502.225 426.997 502.008 427.052 501.847 426.957C501.686 426.861 501.63 426.644 501.726 426.483C501.821 426.322 502.039 426.266 502.2 426.362C502.361 426.458 502.416 426.675 502.321 426.836Z" fill="#FFFAEF"/>
<path d="M488.957 387.272C488.913 387.347 488.807 387.384 488.72 387.333C488.634 387.281 488.608 387.183 488.66 387.096C488.711 387.009 488.81 386.984 488.897 387.036C488.983 387.087 489.009 387.186 488.957 387.272Z" fill="#FFFAEF"/>
<path d="M527.045 371.374C527.001 371.448 526.895 371.486 526.808 371.435C526.721 371.383 526.696 371.284 526.748 371.198C526.799 371.111 526.898 371.086 526.985 371.137C527.071 371.189 527.097 371.287 527.045 371.374Z" fill="#FFFAEF"/>
<path d="M521.912 382C521.861 382.087 521.762 382.112 521.675 382.061C521.589 382.009 521.563 381.91 521.615 381.824C521.666 381.737 521.765 381.712 521.852 381.763C521.939 381.815 521.964 381.913 521.912 382Z" fill="#FFFAEF"/>
<path d="M304.1 121.821C304.1 121.908 304.028 121.994 303.927 121.994C303.826 121.994 303.754 121.922 303.754 121.821C303.754 121.72 303.826 121.648 303.927 121.648C304.028 121.648 304.1 121.72 304.1 121.821Z" fill="#FFFAEF"/>
<path d="M569.393 327.998C569.349 328.072 569.243 328.11 569.156 328.058C569.069 328.007 569.044 327.908 569.095 327.822C569.147 327.735 569.246 327.71 569.332 327.761C569.419 327.813 569.444 327.911 569.393 327.998Z" fill="#FFFAEF"/>
<path d="M454.451 445.724C454.407 445.798 454.301 445.836 454.214 445.784C454.128 445.733 454.102 445.634 454.154 445.547C454.205 445.461 454.304 445.436 454.391 445.487C454.478 445.539 454.503 445.637 454.451 445.724Z" fill="#FFFAEF"/>
<path d="M441.973 446.344C441.929 446.418 441.823 446.456 441.736 446.404C441.649 446.353 441.624 446.254 441.675 446.167C441.727 446.081 441.826 446.055 441.912 446.107C441.999 446.158 442.024 446.257 441.973 446.344Z" fill="#FFFAEF"/>
<path d="M459.436 429.532C459.392 429.607 459.285 429.644 459.199 429.593C459.112 429.541 459.087 429.443 459.138 429.356C459.19 429.269 459.289 429.244 459.375 429.295C459.462 429.347 459.487 429.446 459.436 429.532Z" fill="#FFFAEF"/>
<path d="M476.078 471.361C476.034 471.435 475.928 471.473 475.841 471.421C475.755 471.37 475.729 471.271 475.781 471.184C475.832 471.098 475.931 471.072 476.018 471.124C476.105 471.175 476.13 471.274 476.078 471.361Z" fill="#FFFAEF"/>
<path d="M182.406 107.485C182.406 107.572 182.334 107.658 182.233 107.658C182.133 107.658 182.061 107.586 182.061 107.485C182.061 107.384 182.133 107.312 182.233 107.312C182.334 107.312 182.406 107.384 182.406 107.485Z" fill="#FFFAEF"/>
<path d="M167.781 124.055C167.781 124.141 167.709 124.228 167.608 124.228C167.508 124.228 167.436 124.156 167.436 124.055C167.436 123.954 167.508 123.882 167.608 123.882C167.709 123.882 167.781 123.954 167.781 124.055Z" fill="#FFFAEF"/>
<path d="M236.035 130.596C236.035 130.697 235.963 130.769 235.862 130.769C235.762 130.769 235.689 130.697 235.689 130.596C235.689 130.495 235.762 130.423 235.862 130.423C235.963 130.423 236.035 130.495 236.035 130.596Z" fill="#FFFAEF"/>
<path d="M316.678 544.137C316.626 544.224 316.528 544.249 316.441 544.197C316.354 544.146 316.329 544.047 316.38 543.96C316.432 543.874 316.531 543.848 316.617 543.9C316.704 543.951 316.729 544.05 316.678 544.137Z" fill="#FFFAEF"/>
<path d="M351.287 531.67C351.236 531.756 351.137 531.782 351.05 531.73C350.964 531.679 350.938 531.58 350.99 531.493C351.041 531.407 351.14 531.381 351.227 531.433C351.314 531.484 351.339 531.583 351.287 531.67Z" fill="#FFFAEF"/>
<path d="M363.172 564.325C363.121 564.411 363.022 564.437 362.935 564.385C362.848 564.334 362.823 564.235 362.875 564.148C362.926 564.061 363.025 564.036 363.112 564.088C363.198 564.139 363.223 564.238 363.172 564.325Z" fill="#FFFAEF"/>
<path d="M559.662 344.054C559.567 344.215 559.35 344.27 559.189 344.175C559.027 344.079 558.972 343.862 559.068 343.701C559.163 343.54 559.38 343.484 559.542 343.58C559.703 343.676 559.758 343.893 559.662 344.054Z" fill="#FFFAEF"/>
<path d="M521.209 332.593C521.114 332.754 520.896 332.809 520.735 332.713C520.574 332.618 520.519 332.401 520.615 332.24C520.71 332.078 520.927 332.023 521.088 332.119C521.249 332.214 521.305 332.431 521.209 332.593Z" fill="#FFFAEF"/>
<path d="M533.035 300.924C532.94 301.085 532.723 301.14 532.562 301.045C532.4 300.949 532.345 300.732 532.441 300.571C532.536 300.41 532.753 300.355 532.915 300.45C533.076 300.546 533.131 300.763 533.035 300.924Z" fill="#FFFAEF"/>
<path d="M300.848 262.511C300.848 262.698 300.689 262.857 300.502 262.857C300.315 262.857 300.156 262.698 300.156 262.511C300.156 262.324 300.315 262.165 300.502 262.165C300.689 262.165 300.848 262.324 300.848 262.511Z" fill="#FFFAEF"/>
<path d="M196.606 260.738C196.606 260.926 196.447 261.084 196.26 261.084C196.073 261.084 195.914 260.926 195.914 260.738C195.914 260.551 196.073 260.393 196.26 260.393C196.447 260.393 196.606 260.551 196.606 260.738Z" fill="#FFFAEF"/>
<path d="M120.039 293.402C120.039 293.589 119.881 293.748 119.693 293.748C119.506 293.748 119.348 293.589 119.348 293.402C119.348 293.215 119.506 293.056 119.693 293.056C119.881 293.056 120.039 293.215 120.039 293.402Z" fill="#FFFAEF"/>
<path d="M33.2248 0.345794C33.2248 0.533101 33.0663 0.691594 32.879 0.691594C32.6917 0.691594 32.5332 0.533101 32.5332 0.345794C32.5332 0.158487 32.6917 0 32.879 0C33.0663 0 33.2248 0.158487 33.2248 0.345794Z" fill="#FFFAEF"/>
<path d="M18.1115 282.531C18.1115 282.718 17.953 282.877 17.7657 282.877C17.5784 282.877 17.4199 282.718 17.4199 282.531C17.4199 282.344 17.5784 282.185 17.7657 282.185C17.953 282.185 18.1115 282.344 18.1115 282.531Z" fill="#FFFAEF"/>
<path d="M391.969 572.687C391.873 572.848 391.656 572.904 391.495 572.808C391.334 572.712 391.279 572.495 391.374 572.334C391.47 572.173 391.687 572.118 391.848 572.213C392.009 572.309 392.065 572.526 391.969 572.687Z" fill="#FFFAEF"/>
<path d="M132.08 93.9272C132.08 94.1145 131.922 94.273 131.734 94.273C131.547 94.273 131.389 94.1145 131.389 93.9272C131.389 93.7399 131.547 93.5814 131.734 93.5814C131.922 93.5814 132.08 93.7399 132.08 93.9272Z" fill="#FFFAEF"/>
<path d="M105.613 98.9557C105.613 99.143 105.455 99.3015 105.268 99.3015C105.08 99.3015 104.922 99.143 104.922 98.9557C104.922 98.7684 105.08 98.6099 105.268 98.6099C105.455 98.6099 105.613 98.7684 105.613 98.9557Z" fill="#FFFAEF"/>
<path d="M105.613 84.8501C105.613 85.0374 105.455 85.1959 105.268 85.1959C105.08 85.1959 104.922 85.0374 104.922 84.8501C104.922 84.6628 105.08 84.5043 105.268 84.5043C105.455 84.5043 105.613 84.6628 105.613 84.8501Z" fill="#FFFAEF"/>
<path d="M87.6447 90.9016C87.6447 91.0889 87.4862 91.2474 87.2989 91.2474C87.1116 91.2474 86.9531 91.0889 86.9531 90.9016C86.9531 90.7143 87.1116 90.5558 87.2989 90.5558C87.4862 90.5558 87.6447 90.7143 87.6447 90.9016Z" fill="#FFFAEF"/>
<path d="M102.774 30.4444C102.774 30.6317 102.615 30.7902 102.428 30.7902C102.241 30.7902 102.082 30.6317 102.082 30.4444C102.082 30.2571 102.241 30.0986 102.428 30.0986C102.615 30.0986 102.774 30.2571 102.774 30.4444Z" fill="#FFFAEF"/>
<path d="M101.996 48.7862C101.996 48.9735 101.838 49.132 101.65 49.132C101.463 49.132 101.305 48.9735 101.305 48.7862C101.305 48.5989 101.463 48.4404 101.65 48.4404C101.838 48.4404 101.996 48.5989 101.996 48.7862Z" fill="#FFFAEF"/>
<path d="M110.887 9.22128C110.887 9.40859 110.728 9.56708 110.541 9.56708C110.354 9.56708 110.195 9.40859 110.195 9.22128C110.195 9.03398 110.354 8.87549 110.541 8.87549C110.728 8.87549 110.887 9.03398 110.887 9.22128Z" fill="#FFFAEF"/>
<path d="M122.381 31.4679C122.381 31.6552 122.223 31.8137 122.035 31.8137C121.848 31.8137 121.689 31.6552 121.689 31.4679C121.689 31.2806 121.848 31.1221 122.035 31.1221C122.223 31.1221 122.381 31.2806 122.381 31.4679Z" fill="#FFFAEF"/>
<path d="M13.3264 206.974C13.3264 207.161 13.1679 207.32 12.9806 207.32C12.7933 207.32 12.6348 207.161 12.6348 206.974C12.6348 206.787 12.7933 206.628 12.9806 206.628C13.1679 206.628 13.3264 206.787 13.3264 206.974Z" fill="#FFFAEF"/>
<path d="M6.58417 229.581C6.58417 229.768 6.42568 229.926 6.23838 229.926C6.05107 229.926 5.89258 229.768 5.89258 229.581C5.89258 229.393 6.05107 229.235 6.23838 229.235C6.42568 229.235 6.58417 229.393 6.58417 229.581Z" fill="#FFFAEF"/>
<path d="M0.691595 214.971C0.691595 215.158 0.533104 215.317 0.345797 215.317C0.15849 215.317 0 215.158 0 214.971C0 214.783 0.15849 214.625 0.345797 214.625C0.533104 214.625 0.691595 214.783 0.691595 214.971Z" fill="#FFFAEF"/>
<path d="M27.2873 208.861C27.2873 209.049 27.1288 209.207 26.9415 209.207C26.7542 209.207 26.5957 209.049 26.5957 208.861C26.5957 208.674 26.7542 208.516 26.9415 208.516C27.1288 208.516 27.2873 208.674 27.2873 208.861Z" fill="#FFFAEF"/>
<path d="M135.254 287.048C135.254 287.235 135.096 287.394 134.908 287.394C134.721 287.394 134.562 287.235 134.562 287.048C134.562 286.861 134.721 286.702 134.908 286.702C135.096 286.702 135.254 286.861 135.254 287.048Z" fill="#FFFAEF"/>
<path d="M117.692 269.845C117.692 270.032 117.533 270.191 117.346 270.191C117.158 270.191 117 270.032 117 269.845C117 269.658 117.158 269.499 117.346 269.499C117.533 269.499 117.692 269.658 117.692 269.845Z" fill="#FFFAEF"/>
<path d="M148.869 268.116C148.869 268.303 148.711 268.461 148.524 268.461C148.336 268.461 148.178 268.303 148.178 268.116C148.178 267.928 148.336 267.77 148.524 267.77C148.711 267.77 148.869 267.928 148.869 268.116Z" fill="#FFFAEF"/>
<path d="M144.301 250.524C144.301 250.711 144.142 250.869 143.955 250.869C143.768 250.869 143.609 250.711 143.609 250.524C143.609 250.336 143.768 250.178 143.955 250.178C144.142 250.178 144.301 250.336 144.301 250.524Z" fill="#FFFAEF"/>
<path d="M170.512 252.411C170.512 252.598 170.353 252.757 170.166 252.757C169.979 252.757 169.82 252.598 169.82 252.411C169.82 252.223 169.979 252.065 170.166 252.065C170.353 252.065 170.512 252.223 170.512 252.411Z" fill="#FFFAEF"/>
<path d="M171.188 275.694C171.188 275.882 171.029 276.04 170.842 276.04C170.655 276.04 170.496 275.882 170.496 275.694C170.496 275.507 170.655 275.349 170.842 275.349C171.029 275.349 171.188 275.507 171.188 275.694Z" fill="#FFFAEF"/>
<path d="M162.385 288.619C162.385 288.806 162.226 288.964 162.039 288.964C161.852 288.964 161.693 288.806 161.693 288.619C161.693 288.431 161.852 288.273 162.039 288.273C162.226 288.273 162.385 288.431 162.385 288.619Z" fill="#FFFAEF"/>
<path d="M214.557 252.756C214.557 252.944 214.398 253.102 214.211 253.102C214.024 253.102 213.865 252.944 213.865 252.756C213.865 252.569 214.024 252.411 214.211 252.411C214.398 252.411 214.557 252.569 214.557 252.756Z" fill="#FFFAEF"/>
<path d="M243.215 274.484C243.215 274.671 243.057 274.83 242.869 274.83C242.682 274.83 242.523 274.671 242.523 274.484C242.523 274.297 242.682 274.138 242.869 274.138C243.057 274.138 243.215 274.297 243.215 274.484Z" fill="#FFFAEF"/>
<path d="M255.522 256.517C255.522 256.704 255.363 256.863 255.176 256.863C254.989 256.863 254.83 256.704 254.83 256.517C254.83 256.33 254.989 256.171 255.176 256.171C255.363 256.171 255.522 256.33 255.522 256.517Z" fill="#FFFAEF"/>
<path d="M274.279 280.968C274.279 281.155 274.121 281.314 273.934 281.314C273.746 281.314 273.588 281.155 273.588 280.968C273.588 280.781 273.746 280.622 273.934 280.622C274.121 280.622 274.279 280.781 274.279 280.968Z" fill="#FFFAEF"/>
<path d="M287.621 274.152C287.621 274.34 287.463 274.498 287.275 274.498C287.088 274.498 286.93 274.34 286.93 274.152C286.93 273.965 287.088 273.807 287.275 273.807C287.463 273.807 287.621 273.965 287.621 274.152Z" fill="#FFFAEF"/>
<path d="M304.205 280.636C304.205 280.824 304.047 280.982 303.859 280.982C303.672 280.982 303.514 280.824 303.514 280.636C303.514 280.449 303.672 280.291 303.859 280.291C304.047 280.291 304.205 280.449 304.205 280.636Z" fill="#FFFAEF"/>
<path d="M176.947 131.129C176.947 131.316 176.789 131.475 176.602 131.475C176.414 131.475 176.256 131.316 176.256 131.129C176.256 130.942 176.414 130.783 176.602 130.783C176.789 130.783 176.947 130.942 176.947 131.129Z" fill="#FFFAEF"/>
<path d="M187.869 142.007C187.869 142.195 187.711 142.353 187.524 142.353C187.336 142.353 187.178 142.195 187.178 142.007C187.178 141.82 187.336 141.662 187.524 141.662C187.711 141.662 187.869 141.82 187.869 142.007Z" fill="#FFFAEF"/>
<path d="M223.11 141.676C223.11 141.863 222.951 142.022 222.764 142.022C222.576 142.022 222.418 141.863 222.418 141.676C222.418 141.489 222.576 141.33 222.764 141.33C222.951 141.33 223.11 141.489 223.11 141.676Z" fill="#FFFAEF"/>
<path d="M252.791 85.5416C252.791 85.7289 252.633 85.8874 252.445 85.8874C252.258 85.8874 252.1 85.7289 252.1 85.5416C252.1 85.3543 252.258 85.1958 252.445 85.1958C252.633 85.1958 252.791 85.3543 252.791 85.5416Z" fill="#FFFAEF"/>
<path d="M306.983 27.3037C306.983 27.491 306.824 27.6495 306.637 27.6495C306.45 27.6495 306.291 27.491 306.291 27.3037C306.291 27.1164 306.45 26.9579 306.637 26.9579C306.824 26.9579 306.983 27.1164 306.983 27.3037Z" fill="#FFFAEF"/>
<path d="M442.811 255.119C442.811 255.307 442.652 255.465 442.465 255.465C442.278 255.465 442.119 255.307 442.119 255.119C442.119 254.932 442.278 254.773 442.465 254.773C442.652 254.773 442.811 254.932 442.811 255.119Z" fill="#FFFAEF"/>
<path d="M537.744 285.959C537.649 286.12 537.432 286.175 537.271 286.08C537.11 285.984 537.054 285.767 537.15 285.606C537.245 285.445 537.462 285.39 537.624 285.485C537.785 285.581 537.84 285.798 537.744 285.959Z" fill="#FFFAEF"/>
<path d="M290.213 298.733C290.213 298.92 290.055 299.079 289.867 299.079C289.68 299.079 289.521 298.92 289.521 298.733C289.521 298.546 289.68 298.387 289.867 298.387C290.055 298.387 290.213 298.546 290.213 298.733Z" fill="#FFFAEF"/>
<path d="M182.235 91.6798C182.235 91.8671 182.076 92.0256 181.889 92.0256C181.701 92.0256 181.543 91.8671 181.543 91.6798C181.543 91.4925 181.701 91.334 181.889 91.334C182.076 91.334 182.235 91.4925 182.235 91.6798Z" fill="#FFFAEF"/>
<path d="M495.361 409.737C495.14 410.109 494.667 410.23 494.295 410.009C493.923 409.789 493.802 409.315 494.023 408.943C494.243 408.571 494.717 408.45 495.089 408.671C495.461 408.892 495.582 409.365 495.361 409.737Z" fill="#FFFAEF"/>
<path d="M438.806 536.23C438.586 536.601 438.112 536.722 437.74 536.501C437.368 536.281 437.248 535.807 437.468 535.435C437.689 535.064 438.163 534.943 438.534 535.163C438.906 535.384 439.027 535.858 438.806 536.23Z" fill="#FFFAEF"/>
<path d="M453.677 298.056C453.677 298.488 453.331 298.834 452.899 298.834C452.467 298.834 452.121 298.488 452.121 298.056C452.121 297.624 452.467 297.278 452.899 297.278C453.331 297.278 453.677 297.624 453.677 298.056Z" fill="#FFFAEF"/>
<path d="M251.581 61.3358C251.581 61.768 251.236 62.1138 250.803 62.1138C250.371 62.1138 250.025 61.768 250.025 61.3358C250.025 60.9035 250.371 60.5577 250.803 60.5577C251.236 60.5577 251.581 60.9035 251.581 61.3358Z" fill="#FFFAEF"/>
<path d="M275.056 249.169C275.056 249.601 274.71 249.947 274.278 249.947C273.846 249.947 273.5 249.601 273.5 249.169C273.5 248.736 273.846 248.391 274.278 248.391C274.71 248.391 275.056 248.736 275.056 249.169Z" fill="#FFFAEF"/>
<path d="M231.716 247.613C231.716 248.045 231.37 248.391 230.938 248.391C230.506 248.391 230.16 248.045 230.16 247.613C230.16 247.181 230.506 246.835 230.938 246.835C231.37 246.835 231.716 247.181 231.716 247.613Z" fill="#FFFAEF"/>
<path d="M501.33 262.654C501.109 263.026 500.635 263.147 500.264 262.926C499.892 262.706 499.771 262.232 499.992 261.86C500.212 261.488 500.686 261.368 501.058 261.588C501.429 261.809 501.55 262.283 501.33 262.654Z" fill="#FFFAEF"/>
<path d="M516.256 286.257C516.035 286.629 515.561 286.75 515.189 286.529C514.818 286.309 514.697 285.835 514.917 285.463C515.138 285.091 515.612 284.97 515.984 285.191C516.355 285.412 516.476 285.885 516.256 286.257Z" fill="#FFFAEF"/>
<path d="M140.06 32.2457C140.06 32.6779 139.714 33.0237 139.282 33.0237C138.85 33.0237 138.504 32.6779 138.504 32.2457C138.504 31.8135 138.85 31.4677 139.282 31.4677C139.714 31.4677 140.06 31.8135 140.06 32.2457Z" fill="#FFFAEF"/>
<path d="M152.999 74.9948C152.999 75.4271 152.654 75.7729 152.221 75.7729C151.789 75.7729 151.443 75.4271 151.443 74.9948C151.443 74.5626 151.789 74.2168 152.221 74.2168C152.654 74.2168 152.999 74.5626 152.999 74.9948Z" fill="#FFFAEF"/>
<path d="M151.595 283.014C151.595 283.576 151.134 284.037 150.572 284.037C150.01 284.037 149.549 283.576 149.549 283.014C149.549 282.452 150.01 281.991 150.572 281.991C151.134 281.991 151.595 282.452 151.595 283.014Z" fill="#FFFAEF"/>
<path d="M200.134 281.991C200.134 282.553 199.673 283.014 199.111 283.014C198.549 283.014 198.088 282.553 198.088 281.991C198.088 281.429 198.549 280.968 199.111 280.968C199.673 280.968 200.134 281.429 200.134 281.991Z" fill="#FFFAEF"/>
<path d="M393.765 518.11C393.478 518.593 392.846 518.754 392.363 518.468C391.88 518.181 391.718 517.549 392.005 517.066C392.292 516.582 392.924 516.421 393.407 516.708C393.89 516.995 394.051 517.627 393.765 518.11Z" fill="#FFFAEF"/>
<path d="M26.9561 244.594C26.9561 245.156 26.4951 245.617 25.9331 245.617C25.3712 245.617 24.9102 245.156 24.9102 244.594C24.9102 244.032 25.3712 243.571 25.9331 243.571C26.4951 243.571 26.9561 244.032 26.9561 244.594Z" fill="#FFFAEF"/>
<path d="M450.089 275.262C450.089 275.695 449.744 276.04 449.311 276.04C448.879 276.04 448.533 275.695 448.533 275.262C448.533 274.83 448.879 274.484 449.311 274.484C449.744 274.484 450.089 274.83 450.089 275.262Z" fill="#FFFAEF"/>
<path d="M456.861 399.856C456.604 400.29 456.031 400.436 455.598 400.178C455.164 399.921 455.018 399.348 455.275 398.915C455.533 398.481 456.105 398.335 456.539 398.592C456.973 398.85 457.119 399.422 456.861 399.856Z" fill="#FFFAEF"/>
<path d="M472.252 338.688C471.995 339.122 471.422 339.268 470.988 339.01C470.555 338.753 470.409 338.18 470.666 337.747C470.923 337.313 471.496 337.167 471.93 337.424C472.363 337.682 472.509 338.254 472.252 338.688Z" fill="#FFFAEF"/>
<path d="M56.4361 100.872C56.4361 101.938 55.5716 102.788 54.5198 102.788C53.468 102.788 52.6035 101.924 52.6035 100.872C52.6035 99.8202 53.468 98.9557 54.5198 98.9557C55.5716 98.9557 56.4361 99.8202 56.4361 100.872Z" fill="#FFFAEF"/>
<path d="M252.235 288.964C252.235 290.03 251.37 290.881 250.319 290.881C249.267 290.881 248.402 290.016 248.402 288.964C248.402 287.912 249.267 287.048 250.319 287.048C251.37 287.048 252.235 287.912 252.235 288.964Z" fill="#FFFAEF"/>
<path d="M319.401 92.0109C319.401 93.0771 318.536 93.9272 317.485 93.9272C316.433 93.9272 315.568 93.0627 315.568 92.0109C315.568 90.9591 316.433 90.0946 317.485 90.0946C318.536 90.0946 319.401 90.9591 319.401 92.0109Z" fill="#FFFAEF"/>
<path d="M329.43 11.1376C329.43 12.2038 328.566 13.0539 327.514 13.0539C326.462 13.0539 325.598 12.1894 325.598 11.1376C325.598 10.0858 326.462 9.22131 327.514 9.22131C328.566 9.22131 329.43 10.0858 329.43 11.1376Z" fill="#FFFAEF"/>
<path d="M270.143 264.773C271.201 264.773 272.059 263.915 272.059 262.857C272.059 261.798 271.201 260.94 270.143 260.94C269.085 260.94 268.227 261.798 268.227 262.857C268.227 263.915 269.085 264.773 270.143 264.773Z" fill="#FFFAEF"/>
<path d="M162.04 263.635C162.04 264.701 161.175 265.551 160.123 265.551C159.072 265.551 158.207 264.686 158.207 263.635C158.207 262.583 159.072 261.718 160.123 261.718C161.175 261.718 162.04 262.583 162.04 263.635Z" fill="#FFFAEF"/>
<path d="M546.121 316.029C545.576 316.946 544.399 317.236 543.495 316.699C542.59 316.162 542.288 314.978 542.825 314.073C543.362 313.169 544.546 312.867 545.451 313.403C546.355 313.94 546.657 315.125 546.121 316.029Z" fill="#FFFAEF"/>
<defs>
<radialGradient id="paint0_radial_1359_36238" cx="0" cy="0" r="1" gradientUnits="userSpaceOnUse" gradientTransform="translate(169.153 44.2909) scale(8.28473)">
<stop stop-color="white"/>
<stop offset="0.05" stop-color="white" stop-opacity="0.88"/>
<stop offset="0.15" stop-color="white" stop-opacity="0.68"/>
<stop offset="0.26" stop-color="white" stop-opacity="0.5"/>
<stop offset="0.37" stop-color="white" stop-opacity="0.34"/>
<stop offset="0.48" stop-color="white" stop-opacity="0.22"/>
<stop offset="0.6" stop-color="white" stop-opacity="0.12"/>
<stop offset="0.72" stop-color="white" stop-opacity="0.05"/>
<stop offset="0.85" stop-color="white" stop-opacity="0.01"/>
<stop offset="1" stop-color="#272525" stop-opacity="0"/>
</radialGradient>
<radialGradient id="paint1_radial_1359_36238" cx="0" cy="0" r="1" gradientUnits="userSpaceOnUse" gradientTransform="translate(127.267 62.2291) scale(8.28473 8.28473)">
<stop stop-color="white"/>
<stop offset="0.05" stop-color="white" stop-opacity="0.88"/>
<stop offset="0.15" stop-color="white" stop-opacity="0.68"/>
<stop offset="0.26" stop-color="white" stop-opacity="0.5"/>
<stop offset="0.37" stop-color="white" stop-opacity="0.34"/>
<stop offset="0.48" stop-color="white" stop-opacity="0.22"/>
<stop offset="0.6" stop-color="white" stop-opacity="0.12"/>
<stop offset="0.72" stop-color="white" stop-opacity="0.05"/>
<stop offset="0.85" stop-color="white" stop-opacity="0.01"/>
<stop offset="1" stop-color="#272525" stop-opacity="0"/>
</radialGradient>
<radialGradient id="paint2_radial_1359_36238" cx="0" cy="0" r="1" gradientUnits="userSpaceOnUse" gradientTransform="translate(337.083 510.121) rotate(30.6889) scale(4.16398)">
<stop stop-color="white"/>
<stop offset="0.05" stop-color="white" stop-opacity="0.88"/>
<stop offset="0.15" stop-color="white" stop-opacity="0.68"/>
<stop offset="0.26" stop-color="white" stop-opacity="0.5"/>
<stop offset="0.37" stop-color="white" stop-opacity="0.34"/>
<stop offset="0.48" stop-color="white" stop-opacity="0.22"/>
<stop offset="0.6" stop-color="white" stop-opacity="0.12"/>
<stop offset="0.72" stop-color="white" stop-opacity="0.05"/>
<stop offset="0.85" stop-color="white" stop-opacity="0.01"/>
<stop offset="1" stop-color="#272525" stop-opacity="0"/>
</radialGradient>
<radialGradient id="paint3_radial_1359_36238" cx="0" cy="0" r="1" gradientUnits="userSpaceOnUse" gradientTransform="translate(362.617 262.568) scale(4.16398 4.16398)">
<stop stop-color="white"/>
<stop offset="0.05" stop-color="white" stop-opacity="0.88"/>
<stop offset="0.15" stop-color="white" stop-opacity="0.68"/>
<stop offset="0.26" stop-color="white" stop-opacity="0.5"/>
<stop offset="0.37" stop-color="white" stop-opacity="0.34"/>
<stop offset="0.48" stop-color="white" stop-opacity="0.22"/>
<stop offset="0.6" stop-color="white" stop-opacity="0.12"/>
<stop offset="0.72" stop-color="white" stop-opacity="0.05"/>
<stop offset="0.85" stop-color="white" stop-opacity="0.01"/>
<stop offset="1" stop-color="#272525" stop-opacity="0"/>
</radialGradient>
<radialGradient id="paint4_radial_1359_36238" cx="0" cy="0" r="1" gradientUnits="userSpaceOnUse" gradientTransform="translate(129.219 256.575) scale(4.16398)">
<stop stop-color="white"/>
<stop offset="0.05" stop-color="white" stop-opacity="0.88"/>
<stop offset="0.15" stop-color="white" stop-opacity="0.68"/>
<stop offset="0.26" stop-color="white" stop-opacity="0.5"/>
<stop offset="0.37" stop-color="white" stop-opacity="0.34"/>
<stop offset="0.48" stop-color="white" stop-opacity="0.22"/>
<stop offset="0.6" stop-color="white" stop-opacity="0.12"/>
<stop offset="0.72" stop-color="white" stop-opacity="0.05"/>
<stop offset="0.85" stop-color="white" stop-opacity="0.01"/>
<stop offset="1" stop-color="#272525" stop-opacity="0"/>
</radialGradient>
<radialGradient id="paint5_radial_1359_36238" cx="0" cy="0" r="1" gradientUnits="userSpaceOnUse" gradientTransform="translate(508.499 282.928) rotate(30.6889) scale(4.16398)">
<stop stop-color="white"/>
<stop offset="0.05" stop-color="white" stop-opacity="0.88"/>
<stop offset="0.15" stop-color="white" stop-opacity="0.68"/>
<stop offset="0.26" stop-color="white" stop-opacity="0.5"/>
<stop offset="0.37" stop-color="white" stop-opacity="0.34"/>
<stop offset="0.48" stop-color="white" stop-opacity="0.22"/>
<stop offset="0.6" stop-color="white" stop-opacity="0.12"/>
<stop offset="0.72" stop-color="white" stop-opacity="0.05"/>
<stop offset="0.85" stop-color="white" stop-opacity="0.01"/>
<stop offset="1" stop-color="#272525" stop-opacity="0"/>
</radialGradient>
<radialGradient id="paint6_radial_1359_36238" cx="0" cy="0" r="1" gradientUnits="userSpaceOnUse" gradientTransform="translate(156.443 21.353) scale(4.16398 4.16397)">
<stop stop-color="white"/>
<stop offset="0.05" stop-color="white" stop-opacity="0.88"/>
<stop offset="0.15" stop-color="white" stop-opacity="0.68"/>
<stop offset="0.26" stop-color="white" stop-opacity="0.5"/>
<stop offset="0.37" stop-color="white" stop-opacity="0.34"/>
<stop offset="0.48" stop-color="white" stop-opacity="0.22"/>
<stop offset="0.6" stop-color="white" stop-opacity="0.12"/>
<stop offset="0.72" stop-color="white" stop-opacity="0.05"/>
<stop offset="0.85" stop-color="white" stop-opacity="0.01"/>
<stop offset="1" stop-color="#272525" stop-opacity="0"/>
</radialGradient>
<radialGradient id="paint7_radial_1359_36238" cx="0" cy="0" r="1" gradientUnits="userSpaceOnUse" gradientTransform="translate(179.473 309.395) scale(4.16398 4.16398)">
<stop stop-color="white"/>
<stop offset="0.05" stop-color="white" stop-opacity="0.88"/>
<stop offset="0.15" stop-color="white" stop-opacity="0.68"/>
<stop offset="0.26" stop-color="white" stop-opacity="0.5"/>
<stop offset="0.37" stop-color="white" stop-opacity="0.34"/>
<stop offset="0.48" stop-color="white" stop-opacity="0.22"/>
<stop offset="0.6" stop-color="white" stop-opacity="0.12"/>
<stop offset="0.72" stop-color="white" stop-opacity="0.05"/>
<stop offset="0.85" stop-color="white" stop-opacity="0.01"/>
<stop offset="1" stop-color="#272525" stop-opacity="0"/>
</radialGradient>
<radialGradient id="paint8_radial_1359_36238" cx="0" cy="0" r="1" gradientUnits="userSpaceOnUse" gradientTransform="translate(325.365 45.8326) scale(4.16398)">
<stop stop-color="white"/>
<stop offset="0.05" stop-color="white" stop-opacity="0.88"/>
<stop offset="0.15" stop-color="white" stop-opacity="0.68"/>
<stop offset="0.26" stop-color="white" stop-opacity="0.5"/>
<stop offset="0.37" stop-color="white" stop-opacity="0.34"/>
<stop offset="0.48" stop-color="white" stop-opacity="0.22"/>
<stop offset="0.6" stop-color="white" stop-opacity="0.12"/>
<stop offset="0.72" stop-color="white" stop-opacity="0.05"/>
<stop offset="0.85" stop-color="white" stop-opacity="0.01"/>
<stop offset="1" stop-color="#272525" stop-opacity="0"/>
</radialGradient>
<radialGradient id="paint9_radial_1359_36238" cx="0" cy="0" r="1" gradientUnits="userSpaceOnUse" gradientTransform="translate(473.516 369.931) rotate(30.6889) scale(4.16398)">
<stop stop-color="white"/>
<stop offset="0.05" stop-color="white" stop-opacity="0.88"/>
<stop offset="0.15" stop-color="white" stop-opacity="0.68"/>
<stop offset="0.26" stop-color="white" stop-opacity="0.5"/>
<stop offset="0.37" stop-color="white" stop-opacity="0.34"/>
<stop offset="0.48" stop-color="white" stop-opacity="0.22"/>
<stop offset="0.6" stop-color="white" stop-opacity="0.12"/>
<stop offset="0.72" stop-color="white" stop-opacity="0.05"/>
<stop offset="0.85" stop-color="white" stop-opacity="0.01"/>
<stop offset="1" stop-color="#272525" stop-opacity="0"/>
</radialGradient>
<radialGradient id="paint10_radial_1359_36238" cx="0" cy="0" r="1" gradientUnits="userSpaceOnUse" gradientTransform="translate(335.955 484.838) rotate(30.6889) scale(8.28473)">
<stop stop-color="white"/>
<stop offset="0.05" stop-color="white" stop-opacity="0.88"/>
<stop offset="0.15" stop-color="white" stop-opacity="0.68"/>
<stop offset="0.26" stop-color="white" stop-opacity="0.5"/>
<stop offset="0.37" stop-color="white" stop-opacity="0.34"/>
<stop offset="0.48" stop-color="white" stop-opacity="0.22"/>
<stop offset="0.6" stop-color="white" stop-opacity="0.12"/>
<stop offset="0.72" stop-color="white" stop-opacity="0.05"/>
<stop offset="0.85" stop-color="white" stop-opacity="0.01"/>
<stop offset="1" stop-color="#272525" stop-opacity="0"/>
</radialGradient>
</defs>
</svg>
