<svg width="32" height="32" viewBox="0 0 32 32" fill="none" xmlns="http://www.w3.org/2000/svg">
<path d="M25.3334 20.0001L12.0001 6.66676M26.2787 10.2001C26.4881 9.99076 26.8494 9.96942 27.0614 10.2001C28.3041 11.5574 28.9934 12.5628 29.2201 13.6748C29.3494 14.3148 29.3681 14.9654 29.2734 15.5988C29.0201 17.3121 27.6334 18.6988 24.8574 21.4734L21.4734 24.8574C18.7001 27.6321 17.3121 29.0201 15.5987 29.2748C14.9654 29.3681 14.3147 29.3494 13.6747 29.2201C12.5627 28.9934 11.5574 28.3054 10.2014 27.0614C9.9694 26.8481 9.99073 26.4881 10.2014 26.2774C11.3694 25.1094 11.3134 23.1601 10.0774 21.9228C8.84007 20.6868 6.89073 20.6308 5.72273 21.7988C5.5134 22.0094 5.15073 22.0308 4.93873 21.7988C3.69473 20.4428 3.00673 19.4388 2.78007 18.3254C2.65138 17.692 2.63334 17.041 2.72673 16.4014C2.98007 14.6881 4.36673 13.3014 7.14273 10.5268L10.5267 7.14276C13.3001 4.36809 14.6881 2.98009 16.4014 2.72542C17.0347 2.63209 17.6854 2.65076 18.3254 2.78009C19.4387 3.00676 20.4427 3.69609 21.7987 4.94009C22.0307 5.15209 22.0094 5.51342 21.7987 5.72142C20.6307 6.89076 20.6867 8.84009 21.9241 10.0761C23.1601 11.3134 25.1121 11.3694 26.2787 10.2001Z" stroke="#000F18" stroke-width="1.5" stroke-linecap="round" stroke-linejoin="round"/>
</svg>
