<svg width="32" height="32" viewBox="0 0 32 32" fill="none" xmlns="http://www.w3.org/2000/svg">
<path d="M2.97696 21.4663C3.42093 21.211 3.86572 20.9565 4.30886 20.7003C4.82201 20.4038 4.82407 20.405 5.12142 20.9211C5.72682 21.9725 6.33429 23.0231 6.94093 24.0737C6.9574 24.1025 6.97799 24.1285 7.02041 24.1911C7.16456 23.9423 7.29717 23.7158 7.42772 23.4881C7.68595 23.0379 7.72384 23.0264 8.17151 23.2846C9.92924 24.2986 11.6866 25.3129 13.4439 26.3277C13.4912 26.3553 13.5382 26.3837 13.5847 26.413C13.7474 26.5151 13.7783 26.6531 13.6877 26.8178C13.5864 27.0019 13.4805 27.1831 13.3533 27.4067C13.7474 27.4067 14.0999 27.4117 14.4517 27.3981C14.4834 27.3968 14.5361 27.2762 14.5365 27.2111C14.5419 26.2507 14.5402 25.2903 14.5402 24.3303C14.5402 24.2409 14.5394 24.1519 14.5402 24.0626C14.5427 23.8076 14.6312 23.7146 14.8853 23.7142C15.8523 23.7125 16.8197 23.7133 17.7867 23.7133C17.9828 23.7133 18.1788 23.7133 18.4148 23.7133C18.2525 23.43 18.1125 23.1817 17.9688 22.935C17.7262 22.519 17.7377 22.4655 18.1446 22.2303C19.9073 21.2114 21.6704 20.1933 23.4339 19.1757C23.7959 18.9665 23.8791 18.992 24.083 19.347C24.5644 20.1851 25.0487 21.0215 25.5322 21.8584C25.5623 21.9107 25.5973 21.9601 25.6471 22.0367C25.7538 21.8526 25.8498 21.6883 25.9449 21.5236C26.1644 21.1439 26.3823 20.7629 26.6038 20.384C26.7397 20.1517 26.8592 20.1196 27.0935 20.2539C27.682 20.5916 28.2689 20.9322 28.857 21.2715C28.9213 21.3086 28.9876 21.3428 29.0959 21.4013C29.0638 21.2295 29.0428 21.0936 29.0131 20.9594C28.675 19.4327 28.1058 17.9859 27.4901 16.5551C27.2896 16.0893 27.0709 15.631 26.8777 15.1623C26.8098 14.9976 26.7253 14.9432 26.5458 14.9432C23.1711 14.949 19.7961 14.9473 16.4215 14.9469C16.3597 14.9469 16.2971 14.951 16.2366 14.942C16.0854 14.9193 16.0039 14.8209 16.0027 14.6743C16.0014 14.5252 16.09 14.4321 16.2382 14.4078C16.2984 14.3979 16.3614 14.4045 16.4231 14.4045C19.8871 14.4045 23.3511 14.4062 26.8151 14.4004C27.0466 14.4004 27.1763 14.4749 27.2718 14.6899C28.0193 16.3756 28.7821 18.0547 29.2936 19.8326C29.6288 20.9973 29.8545 22.1772 29.8203 23.3983C29.7886 24.5267 29.4435 25.5695 28.9633 26.5707C27.8649 28.8601 26.1397 30.5388 23.8956 31.7006C23.4981 31.9065 23.0727 31.9963 22.6263 31.9963C18.2365 31.9963 13.8463 31.993 9.45645 32C8.75961 32.0012 8.16203 31.7393 7.58546 31.3933C5.07117 29.8864 3.31014 27.7811 2.47658 24.9443C2.13804 23.7928 2.18046 22.6265 2.38391 21.4589C2.72821 19.4833 3.48312 17.6457 4.28291 15.8237C4.45629 15.4283 4.6375 15.0363 4.80801 14.6397C4.87925 14.4741 4.9888 14.4 5.17248 14.4016C5.81043 14.4078 6.44837 14.4033 7.08631 14.4049C7.31447 14.4053 7.42484 14.4918 7.42978 14.6677C7.43514 14.8505 7.31941 14.9461 7.08219 14.9469C6.54021 14.9486 5.99822 14.951 5.45665 14.9457C5.33228 14.9444 5.26062 14.9757 5.20584 15.098C4.46988 16.7516 3.73104 18.4039 3.24219 20.153C3.1244 20.5739 3.0338 21.0022 2.93084 21.4268C2.94608 21.4396 2.96131 21.4519 2.97655 21.4647L2.97696 21.4663ZM15.083 31.4349H21.0712V24.2652C20.9752 24.2652 20.8949 24.2652 20.815 24.2652C18.991 24.2652 17.1673 24.2681 15.3433 24.2611C15.1431 24.2603 15.0764 24.301 15.0772 24.5181C15.0863 26.7395 15.0826 28.9614 15.0826 31.1829V31.4353L15.083 31.4349ZM23.6423 19.693C21.9031 20.6974 20.1894 21.6871 18.463 22.6841C18.6232 22.9621 18.7879 23.2154 18.9181 23.4848C19.0103 23.6759 19.1351 23.7228 19.3357 23.7187C19.9662 23.7059 20.5971 23.7133 21.2281 23.7142C21.5501 23.7142 21.6235 23.7895 21.6235 24.1157C21.6235 26.4677 21.6235 28.8197 21.6235 31.1718C21.6235 31.2583 21.6235 31.3447 21.6235 31.4514C22.3186 31.4238 23.0035 31.563 23.6266 31.2167C24.0933 30.9576 24.5492 30.6784 24.9993 30.3913C25.2448 30.2348 25.468 30.0437 25.7221 29.8526C25.6356 29.7991 25.58 29.7629 25.5223 29.7295C24.5434 29.1636 23.564 28.5986 22.5855 28.0315C22.3718 27.9075 22.3388 27.784 22.455 27.5727C22.5311 27.4347 22.6102 27.2984 22.6889 27.1621C23.5315 25.7017 24.3725 24.2405 25.2205 22.7834C25.3004 22.6458 25.2983 22.547 25.2163 22.4123C24.9808 22.0264 24.7621 21.6302 24.5356 21.2382C24.2415 20.7287 23.9466 20.2201 23.6411 19.6925L23.6423 19.693ZM26.9848 20.8288C25.6677 23.1088 24.3581 25.3764 23.0468 27.6464C23.0884 27.6777 23.1085 27.6962 23.1312 27.7098C24.0974 28.2691 25.0656 28.8259 26.0289 29.3901C26.1488 29.4606 26.2105 29.4153 26.2917 29.3374C27.2492 28.4133 28.0111 27.3515 28.5613 26.1383C29.1062 24.9369 29.3994 23.6911 29.238 22.3646C29.2256 22.2645 29.1988 22.1212 29.1297 22.0796C28.4262 21.6562 27.7121 21.2501 26.9848 20.8292V20.8288ZM6.38412 29.8848C6.99405 30.386 7.61799 30.7941 8.27776 31.1487C8.66077 31.3546 9.06438 31.4617 9.50052 31.4506C9.72662 31.4448 9.95354 31.4395 10.1792 31.4531C10.3316 31.4621 10.4094 31.4028 10.4832 31.2739C11.215 29.9951 11.9538 28.7201 12.6906 27.4438C12.8195 27.2206 12.9468 26.9961 13.0839 26.7573C11.3484 25.7557 9.63148 24.7644 7.90587 23.7681C7.73619 24.0609 7.58875 24.3315 7.42443 24.5918C7.34741 24.7137 7.35895 24.8047 7.42896 24.925C7.99606 25.8957 8.5574 26.8693 9.11833 27.8437C9.28018 28.1246 9.24929 28.2292 8.96883 28.391C8.41696 28.7098 7.86427 29.0277 7.31241 29.3465C7.01094 29.5207 6.71071 29.6957 6.38453 29.8852L6.38412 29.8848ZM8.56193 27.9849C7.23869 25.6935 5.93151 23.4296 4.61938 21.157C4.03663 21.4935 3.47776 21.8131 2.92425 22.1413C2.87153 22.1726 2.82788 22.2579 2.82088 22.3226C2.74469 23.0429 2.74922 23.7628 2.92384 24.4687C3.40034 26.3981 4.39081 28.0278 5.82566 29.3951C5.92121 29.4861 5.98875 29.4783 6.09171 29.4177C6.60528 29.1154 7.12337 28.8202 7.63941 28.5216C7.94046 28.3474 8.24111 28.1715 8.56193 27.9845V27.9849ZM14.5209 31.4399C14.5303 31.3946 14.5381 31.3748 14.5381 31.355C14.5394 30.2715 14.5386 29.1875 14.5419 28.104C14.5419 27.9878 14.4994 27.9487 14.3845 27.9504C14.0143 27.9553 13.6436 27.9611 13.2738 27.9483C13.1021 27.9425 13.0045 27.994 12.9167 28.148C12.3278 29.1851 11.7273 30.2159 11.131 31.2488C11.0985 31.3052 11.0705 31.3637 11.0301 31.4403H14.5204L14.5209 31.4399Z" fill="#000F18"/>
<path d="M24.8387 2.5621C24.8387 2.46902 24.8383 2.40189 24.8387 2.33517C24.8412 2.00199 24.9128 1.93198 25.2538 1.93198C26.6463 1.93198 28.0383 1.93198 29.4307 1.93198C29.4583 1.93198 29.4855 1.93116 29.5131 1.93198C29.7223 1.94063 29.81 2.02629 29.8203 2.23468C29.8232 2.29605 29.8203 2.35823 29.8203 2.42001C29.8203 5.25265 29.8203 8.08529 29.8207 10.9179C29.8207 11.275 29.7552 11.3434 29.406 11.3434C28.0136 11.3434 26.6215 11.3434 25.2291 11.3434C24.9256 11.3434 24.8391 11.2565 24.8387 10.9509C24.8379 10.4089 24.8387 9.86732 24.8387 9.32534C24.8387 9.2508 24.8387 9.17666 24.8387 9.07453C24.6175 9.07453 24.4133 9.0667 24.2106 9.07947C24.1542 9.08318 24.0953 9.14166 24.0484 9.18655C22.8528 10.3298 21.4389 10.9669 19.7755 10.9665C19.3163 10.9665 18.8571 10.8339 18.3971 10.768C18.3147 10.7561 18.2179 10.7499 18.1446 10.7804C17.2213 11.1654 16.3021 11.5608 15.3783 11.9451C15.2424 12.0015 15.2424 12.0921 15.2428 12.2058C15.244 14.1538 15.244 16.1018 15.244 18.0498C15.244 18.3969 15.1732 18.4686 14.8211 18.4686C12.7359 18.4686 10.6508 18.4686 8.56605 18.4686C8.24605 18.4686 8.16533 18.3879 8.16533 18.0671C8.16533 15.3852 8.16615 12.7033 8.16162 10.0213C8.16162 9.88997 8.12909 9.74912 8.07596 9.62845C7.76296 8.91267 7.43019 8.20554 7.12214 7.48771C6.85197 6.85883 6.84909 6.22748 7.15055 5.59818C7.62994 4.59741 8.10767 3.5954 8.56605 2.58475C9.05985 1.49584 9.89423 0.923795 11.0828 0.871079C11.3044 0.861195 11.4745 0.804773 11.6462 0.647038C12.1128 0.220371 12.6758 -0.0197318 13.3125 0.00127208C15.3684 0.0696376 17.426 0.133885 19.4621 0.458415C20.5292 0.628505 21.5435 0.969097 22.4385 1.58521C22.7943 1.83026 23.0826 2.17249 23.4051 2.46696C23.4508 2.50897 23.5146 2.55715 23.5706 2.55798C23.9812 2.5658 24.3923 2.5621 24.8387 2.5621ZM11.5762 9.47525C12.023 9.47525 12.4411 9.48637 12.8582 9.47031C13.0444 9.46289 13.2281 9.39988 13.413 9.36323C13.6 9.32616 13.6127 9.20961 13.5856 9.04488C13.4628 8.30768 13.3459 7.56966 13.24 6.83041C13.224 6.71921 13.2425 6.57425 13.3039 6.48488C13.8668 5.66531 14.443 4.85522 15.0138 4.04184C15.1061 3.91046 15.2193 3.8701 15.3841 3.88863C15.8597 3.94176 16.3375 3.985 16.8156 4.01013C16.9874 4.01919 17.1023 4.06861 17.1805 4.21893C17.4144 4.66866 17.6681 5.10892 17.8831 5.56771C18.1755 6.19082 18.3876 6.84112 18.4498 7.53342C18.4679 7.73358 18.3942 7.85548 18.2076 7.93208C17.7068 8.13759 17.2098 8.35216 16.7114 8.56343C15.5315 9.06382 14.3503 9.5605 13.1729 10.0658C12.5205 10.3459 12.3262 11.1111 12.759 11.6568C13.0633 12.0406 13.5403 12.1341 14.0625 11.9121C15.3869 11.3491 16.7102 10.7837 18.038 10.2289C18.1533 10.1807 18.3131 10.1614 18.4272 10.2009C20.5325 10.9356 22.7832 9.78495 23.7411 8.69646C23.8532 8.56879 23.9697 8.51772 24.1324 8.52307C24.3626 8.53049 24.5932 8.52513 24.8251 8.52513V3.11602C24.3379 3.11602 23.8655 3.12426 23.3939 3.10984C23.2848 3.10655 23.1279 3.0563 23.0785 2.97517C22.7247 2.39283 22.1901 2.03165 21.6078 1.72688C20.4794 1.1363 19.2529 0.916793 18.0021 0.824541C16.4981 0.713756 14.9916 0.625622 13.4855 0.546961C12.6326 0.50207 11.9851 0.88467 11.5589 1.61363C10.8666 2.79726 10.1912 3.99036 9.51122 5.18099C9.30736 5.53764 9.20481 5.92601 9.29912 6.32879C9.53676 7.34274 9.7958 8.35134 10.0503 9.36117C10.061 9.40359 10.1121 9.46619 10.1459 9.46742C10.4305 9.47607 10.7154 9.47237 11.0066 9.47237C11.0013 9.39453 11.0013 9.34676 10.9938 9.2998C10.8785 8.56179 10.7731 7.82171 10.6425 7.08616C10.5108 6.34114 10.6648 5.68014 11.1104 5.06609C11.743 4.19504 12.3521 3.30753 12.9711 2.42701C13.1437 2.18156 13.2964 2.11854 13.4529 2.22892C13.6066 2.33723 13.5975 2.50114 13.4221 2.75072C12.7825 3.65883 12.1454 4.56858 11.5016 5.47381C11.1903 5.91159 11.0828 6.38933 11.1751 6.91607C11.201 7.06475 11.2228 7.21383 11.2463 7.36292C11.3554 8.05975 11.4642 8.75659 11.5762 9.47525ZM14.6872 17.9048V12.235C13.8549 12.6748 13.0444 12.8116 12.3673 12.0398C11.8254 11.422 11.8715 10.7305 12.2924 10.037H8.72584V17.9048H14.6868H14.6872ZM29.2643 10.7841V2.48838H25.4091V10.7841H29.2643ZM14.1378 9.04652C14.2284 9.01152 14.3042 8.98516 14.3779 8.95386C15.4813 8.4856 16.5825 8.01239 17.6895 7.55278C17.8596 7.48194 17.8926 7.40246 17.858 7.23072C17.6706 6.30367 17.2649 5.46845 16.7934 4.66083C16.7641 4.61059 16.6789 4.57188 16.6159 4.5657C16.2617 4.5311 15.9055 4.51587 15.5517 4.47757C15.4314 4.46439 15.3668 4.49569 15.2996 4.59206C14.8264 5.27283 14.3454 5.94825 13.8718 6.62861C13.8285 6.6908 13.7898 6.7814 13.7997 6.85141C13.9051 7.57584 14.0209 8.29903 14.1374 9.04611L14.1378 9.04652ZM11.0116 1.44518C10.9568 1.44148 10.9296 1.43695 10.9032 1.4386C10.8555 1.4423 10.8077 1.44889 10.7603 1.45589C9.97372 1.57409 9.44327 2.02547 9.11133 2.73013C8.62082 3.77126 8.13691 4.81569 7.64064 5.85435C7.42525 6.30531 7.41413 6.7604 7.6044 7.20807C7.90958 7.92714 8.23905 8.63592 8.56358 9.34634C8.58746 9.39865 8.65171 9.46537 8.70031 9.46742C8.95894 9.47937 9.21799 9.47319 9.49969 9.47319C9.48033 9.3867 9.46757 9.32163 9.45151 9.25697C9.2357 8.39293 9.01866 7.5293 8.80286 6.66485C8.65006 6.05286 8.71472 5.46598 9.02731 4.91535C9.49434 4.09291 9.96919 3.27458 10.4395 2.45419C10.629 2.12349 10.8155 1.79113 11.012 1.44436L11.0116 1.44518Z" fill="#000F18"/>
<path d="M26.2227 9.04216C26.2231 8.42317 26.7115 7.93555 27.3313 7.93555C27.959 7.93555 28.4491 8.4314 28.4445 9.06193C28.44 9.67145 27.9442 10.1562 27.3206 10.1611C26.7119 10.1657 26.2222 9.66692 26.2227 9.04257V9.04216ZM26.7659 9.05246C26.7683 9.35145 27.0311 9.61215 27.3322 9.61421C27.6316 9.61627 27.8939 9.35475 27.8956 9.05246C27.8972 8.74028 27.6287 8.47218 27.3214 8.48C27.0204 8.48741 26.7634 8.75223 26.7659 9.05246Z" fill="#000F18"/>
</svg>
