<svg width="16" height="17" viewBox="0 0 16 17" fill="none" xmlns="http://www.w3.org/2000/svg">
<path d="M7.16789 2.13338C7.63456 1.74005 8.38789 1.74005 8.84122 2.13338L9.89456 3.03338C10.0946 3.20005 10.4746 3.34005 10.7412 3.34005H11.8746C12.5812 3.34005 13.1612 3.92005 13.1612 4.62671V5.76005C13.1612 6.02671 13.3012 6.40005 13.4679 6.60005L14.3679 7.65338C14.7612 8.12005 14.7612 8.87338 14.3679 9.32671L13.4679 10.38C13.3012 10.58 13.1612 10.9534 13.1612 11.22V12.3534C13.1612 13.06 12.5812 13.64 11.8746 13.64H10.7412C10.4746 13.64 10.1012 13.78 9.90122 13.9467L8.84789 14.8467C8.38122 15.24 7.62789 15.24 7.17456 14.8467L6.12122 13.9467C5.92122 13.78 5.54122 13.64 5.28122 13.64H4.11456C3.40789 13.64 2.82789 13.06 2.82789 12.3534V11.2134C2.82789 10.9534 2.69456 10.5734 2.52789 10.38L1.62789 9.32005C1.24122 8.86005 1.24122 8.11338 1.62789 7.65338L2.52789 6.59338C2.69456 6.39338 2.82789 6.02005 2.82789 5.76005V4.63338C2.82789 3.92671 3.40789 3.34671 4.11456 3.34671H5.26789C5.53456 3.34671 5.90789 3.20671 6.10789 3.04005L7.16789 2.13338Z" stroke="white" stroke-linecap="round" stroke-linejoin="round"/>
<path d="M8 5.91992V9.13992" stroke="white" stroke-linecap="round" stroke-linejoin="round"/>
<path d="M7.99609 11.1667H8.00208" stroke="white" stroke-linecap="round" stroke-linejoin="round"/>
</svg>
