<svg width="32" height="32" viewBox="0 0 32 32" fill="none" xmlns="http://www.w3.org/2000/svg">
<path d="M26.5937 10.5488L26.2857 10.2455L29.6205 6.82559C29.7913 6.61125 29.8786 6.33913 29.8654 6.06218C29.8522 5.78522 29.7394 5.52323 29.549 5.32715C29.3586 5.13108 29.1041 5.01495 28.8351 5.00135C28.5661 4.98774 28.3019 5.07764 28.0937 5.25356L24.6249 8.8389C22.1027 7.0118 19.093 6.03354 16.0091 6.03847C12.9252 6.04341 9.91845 7.03131 7.40177 8.86648L3.90625 5.25356C3.69807 5.07764 3.43379 4.98774 3.16481 5.00135C2.89582 5.01495 2.64137 5.13108 2.45094 5.32715C2.26051 5.52323 2.14772 5.78522 2.13451 6.06218C2.1213 6.33913 2.20861 6.61125 2.37947 6.82559L5.74106 10.273C4.24202 11.7356 3.04842 13.4976 2.23324 15.4513C1.41807 17.405 0.998435 19.5094 1 21.6358V24.7936C1 25.3788 1.22577 25.94 1.62763 26.3538C2.02949 26.7675 2.57454 27 3.14286 27H28.8571C29.4254 27 29.9704 26.7675 30.3723 26.3538C30.7742 25.94 30.9999 25.3788 30.9999 24.7936V21.4841C31.006 19.4517 30.6195 17.4383 29.8631 15.561C29.1067 13.6837 27.9953 11.9799 26.5937 10.5488ZM11.1786 21.4841C10.8607 21.4841 10.55 21.387 10.2857 21.2052C10.0214 21.0234 9.81539 20.7649 9.69375 20.4626C9.57211 20.1602 9.54028 19.8275 9.60229 19.5065C9.6643 19.1855 9.81737 18.8907 10.0421 18.6592C10.2669 18.4278 10.5533 18.2702 10.865 18.2064C11.1768 18.1425 11.4999 18.1753 11.7936 18.3005C12.0872 18.4258 12.3382 18.6379 12.5148 18.91C12.6914 19.1821 12.7857 19.502 12.7857 19.8293C12.7857 20.2682 12.6164 20.6891 12.315 20.9994C12.0136 21.3098 11.6048 21.4841 11.1786 21.4841ZM20.8214 21.4841C20.5035 21.4841 20.1928 21.387 19.9285 21.2052C19.6642 21.0234 19.4582 20.7649 19.3366 20.4626C19.2149 20.1602 19.1831 19.8275 19.2451 19.5065C19.3071 19.1855 19.4602 18.8907 19.685 18.6592C19.9097 18.4278 20.1961 18.2702 20.5078 18.2064C20.8196 18.1425 21.1427 18.1753 21.4364 18.3005C21.7301 18.4258 21.9811 18.6379 22.1577 18.91C22.3343 19.1821 22.4285 19.502 22.4285 19.8293C22.4285 20.2682 22.2592 20.6891 21.9578 20.9994C21.6564 21.3098 21.2476 21.4841 20.8214 21.4841Z" fill="white"/>
</svg>
