<svg width="30" height="22" viewBox="0 0 30 22" fill="none" xmlns="http://www.w3.org/2000/svg">
<path d="M25.5937 5.54882L25.2857 5.24545L28.6205 1.82559C28.7913 1.61125 28.8786 1.33913 28.8654 1.06218C28.8522 0.785222 28.7394 0.523227 28.549 0.327154C28.3586 0.13108 28.1041 0.014948 27.8351 0.00134571C27.5661 -0.0122566 27.3019 0.0776437 27.0937 0.25356L23.6249 3.8389C21.1027 2.0118 18.093 1.03354 15.0091 1.03847C11.9252 1.04341 8.91845 2.03131 6.40177 3.86648L2.90625 0.25356C2.69807 0.0776437 2.43379 -0.0122566 2.16481 0.00134571C1.89582 0.014948 1.64137 0.13108 1.45094 0.327154C1.26051 0.523227 1.14772 0.785222 1.13451 1.06218C1.1213 1.33913 1.20861 1.61125 1.37947 1.82559L4.74106 5.27303C3.24202 6.73562 2.04842 8.49762 1.23324 10.4513C0.418065 12.405 -0.00156505 14.5094 4.3861e-06 16.6358V19.7936C4.3861e-06 20.3788 0.225768 20.94 0.627631 21.3538C1.02949 21.7675 1.57454 22 2.14286 22H27.8571C28.4254 22 28.9704 21.7675 29.3723 21.3538C29.7742 20.94 29.9999 20.3788 29.9999 19.7936V16.4841C30.006 14.4517 29.6195 12.4383 28.8631 10.561C28.1067 8.68367 26.9953 6.97994 25.5937 5.54882ZM10.1786 16.4841C9.86069 16.4841 9.54996 16.387 9.28567 16.2052C9.02138 16.0234 8.81539 15.7649 8.69375 15.4626C8.57211 15.1602 8.54028 14.8275 8.60229 14.5065C8.6643 14.1855 8.81737 13.8907 9.04213 13.6592C9.26689 13.4278 9.55326 13.2702 9.86501 13.2064C10.1768 13.1425 10.4999 13.1753 10.7936 13.3005C11.0872 13.4258 11.3382 13.6379 11.5148 13.91C11.6914 14.1821 11.7857 14.502 11.7857 14.8293C11.7857 15.2682 11.6164 15.6891 11.315 15.9994C11.0136 16.3098 10.6048 16.4841 10.1786 16.4841ZM19.8214 16.4841C19.5035 16.4841 19.1928 16.387 18.9285 16.2052C18.6642 16.0234 18.4582 15.7649 18.3366 15.4626C18.2149 15.1602 18.1831 14.8275 18.2451 14.5065C18.3071 14.1855 18.4602 13.8907 18.685 13.6592C18.9097 13.4278 19.1961 13.2702 19.5078 13.2064C19.8196 13.1425 20.1427 13.1753 20.4364 13.3005C20.7301 13.4258 20.9811 13.6379 21.1577 13.91C21.3343 14.1821 21.4285 14.502 21.4285 14.8293C21.4285 15.2682 21.2592 15.6891 20.9578 15.9994C20.6564 16.3098 20.2476 16.4841 19.8214 16.4841Z" fill="#232323"/>
</svg>
