<svg width="346" height="305" viewBox="0 0 346 305" fill="none" xmlns="http://www.w3.org/2000/svg">
<path fill-rule="evenodd" clip-rule="evenodd" d="M233.326 303.863C243.286 300.076 258.831 291.759 270.08 284.197C283.538 275.151 302.029 257.897 311.237 245.793C327.777 224.053 336.429 201.941 341.401 168.703C344.745 146.352 344.983 140.678 345.291 75.805C345.619 6.8111 345.918 11.1418 340.451 5.67538C335.176 0.399688 338.297 0.63681 274.044 0.636804C211.986 0.636799 214.159 0.510151 209.032 4.42113C207.722 5.41942 205.833 7.62886 204.832 9.3304L203.013 12.425L202.831 71.2076L202.647 129.99L204.103 133.374C205.812 137.346 210.502 141.773 214.045 142.757C215.497 143.16 227.599 143.436 243.935 143.438L271.385 143.442L271.385 147.678C271.385 157.322 268.635 173.689 265.193 184.533C260.617 198.949 253.635 210.573 243.522 220.612C235.27 228.802 225.716 235.307 212.285 241.878C202.464 246.683 200.99 247.876 198.292 253.205C197.577 254.616 197.101 257.131 197.077 259.617C197.044 263.216 197.492 264.678 200.81 271.779C213.435 298.798 214.467 300.512 219.741 303.203C223.608 305.176 229.161 305.445 233.326 303.863ZM34.1309 304.356C37.864 303.667 55.4177 295.077 64.923 289.288C93.7603 271.725 116.27 248.196 129.443 221.846C139.075 202.579 143.846 183.115 147.206 149.377C148.099 140.411 148.355 127.006 148.596 76.484C148.93 6.73295 149.232 11.1498 143.757 5.67537C138.482 0.400342 141.599 0.636792 77.3848 0.636787C14.7949 0.636781 16.9889 0.500673 11.899 4.69592C10.5639 5.7966 8.68658 8.2728 7.72668 10.1987L5.98205 13.7001L5.99685 72.0032C6.01167 129.202 6.03795 130.364 7.38383 133.338C8.96074 136.823 11.3662 139.537 14.739 141.637C17.0421 143.072 17.7655 143.114 46.0524 143.442L75.0083 143.779L74.8028 149.168C74.2714 163.087 70.9114 179.652 66.2446 191.354C61.4465 203.386 55.6999 212.162 46.9793 220.776C39.0429 228.616 30.94 234.202 18.2209 240.601C6.02784 246.736 2.62 249.563 1.23978 254.688C-0.393734 260.754 0.466526 263.81 8.50604 280.522C12.993 289.849 16.9747 297.193 18.5105 298.974C22.412 303.498 28.1216 305.466 34.1309 304.356Z" fill="white"/>
</svg>
