<svg width="55" height="55" viewBox="0 0 55 55" fill="none" xmlns="http://www.w3.org/2000/svg">
<g clip-path="url(#clip0_2044_2123)">
<path d="M54.2889 27.0536C54.2889 41.9525 42.2113 54.0305 27.3126 54.0305C12.4137 54.0305 0.335938 41.9525 0.335938 27.0536C0.335938 12.1549 12.4137 0.0771484 27.3126 0.0771484C42.2111 0.0771484 54.2889 12.1549 54.2889 27.0536Z" fill="#315D9E"/>
<path d="M48.5648 27.0532C48.5648 38.788 39.0513 48.3023 27.3158 48.3023C15.5805 48.3023 6.06641 38.788 6.06641 27.0532C6.06641 15.3173 15.5805 5.80371 27.3158 5.80371C39.0515 5.80371 48.5648 15.3172 48.5648 27.0532Z" fill="#315D9E"/>
<path d="M25.7334 34.2598L27.4857 27.662L31.634 26.1464L32.6659 22.2688L32.6307 22.1727L28.5472 23.6645L31.4893 12.5859H23.1452L19.2975 27.0437L16.085 28.2173L15.0234 32.2148L18.2335 31.0421L15.9658 39.5628H38.1729L39.5965 34.2598H25.7334Z" fill="white"/>
</g>
<defs>
<clipPath id="clip0_2044_2123">
<rect width="53.9533" height="53.9533" fill="white" transform="translate(0.335938 0.0771484)"/>
</clipPath>
</defs>
</svg>
