<svg width="16" height="16" viewBox="0 0 16 16" fill="none" xmlns="http://www.w3.org/2000/svg">
<path d="M15.3346 6.66602C15.3346 6.31239 15.1942 5.97326 14.9441 5.72321C14.6941 5.47316 14.3549 5.33268 14.0013 5.33268H9.78797L10.428 2.28602C10.4413 2.21935 10.448 2.14602 10.448 2.07268C10.448 1.79935 10.3346 1.54602 10.1546 1.36602L9.44797 0.666016L5.0613 5.05268C4.81464 5.29935 4.66797 5.63268 4.66797 5.99935V12.666C4.66797 13.0196 4.80844 13.3588 5.05849 13.6088C5.30854 13.8589 5.64768 13.9993 6.0013 13.9993H12.0013C12.5546 13.9993 13.028 13.666 13.228 13.186L15.2413 8.48601C15.3013 8.33268 15.3346 8.17268 15.3346 7.99935V6.66602ZM0.667969 13.9993H3.33464V5.99935H0.667969V13.9993Z" fill="#626262"/>
</svg>
