<svg width="32" height="32" viewBox="0 0 32 32" fill="none" xmlns="http://www.w3.org/2000/svg">
<path d="M5.33333 16.7693V19.18C5.33333 19.3844 5.41867 19.5724 5.58933 19.744C5.76 19.9156 5.948 20.0009 6.15333 20H25.8467C26.0511 20 26.2391 19.9147 26.4107 19.744C26.5822 19.5733 26.6676 19.3849 26.6667 19.1787V16.7693H5.33333ZM6.15333 4H25.8467C26.4422 4 26.9502 4.20978 27.3707 4.62933C27.7902 5.04889 28 5.55733 28 6.15467V19.18C28 19.7756 27.7902 20.2836 27.3707 20.704C26.9511 21.1236 26.4431 21.3333 25.8467 21.3333H19.8973V27.0267L16 25.076L12.1027 27.024V21.3333H6.15467C5.55733 21.3333 5.04889 21.1236 4.62933 20.704C4.20978 20.2844 4 19.7764 4 19.18V6.15333C4 5.55778 4.20978 5.04978 4.62933 4.62933C5.04889 4.20978 5.55733 4 6.15467 4M5.33333 13.8973H26.6667V6.15467C26.6667 5.94933 26.5813 5.76089 26.4107 5.58933C26.24 5.41778 26.052 5.33244 25.8467 5.33333H6.15333C5.94889 5.33333 5.76089 5.41867 5.58933 5.58933C5.41778 5.76 5.33244 5.948 5.33333 6.15333V13.8973ZM5.33333 19.18V5.33333H6.15467C5.94933 5.33333 5.76089 5.41867 5.58933 5.58933C5.41778 5.76 5.33244 5.948 5.33333 6.15333V19.18ZM5.33333 19.18C5.33333 19.3844 5.41867 19.5724 5.58933 19.744C5.76 19.9156 5.948 20.0009 6.15333 20H5.33333V19.18Z" fill="#000F18"/>
</svg>
