<svg width="30" height="30" viewBox="0 0 30 30" fill="none" xmlns="http://www.w3.org/2000/svg">
<path d="M23.5117 7.81248H25.2117C24.9742 7.47498 24.7242 7.16248 24.4617 6.84998L23.5117 7.81248Z" fill="url(#paint0_linear_1440_5566)"/>
<path d="M23.15 5.52502C22.8375 5.26252 22.525 5.01252 22.1875 4.77502V6.47502L23.15 5.52502Z" fill="url(#paint1_linear_1440_5566)"/>
<path d="M24.4754 6.85005L28.1629 3.16255C28.5254 2.80005 28.5254 2.20005 28.1629 1.83755C27.8004 1.47505 27.2004 1.47505 26.8379 1.83755L23.1504 5.52505C23.6254 5.93755 24.0629 6.38755 24.4754 6.85005Z" fill="url(#paint2_linear_1440_5566)"/>
<path d="M22.1867 3.75C22.1867 3.2375 21.7617 2.8125 21.2492 2.8125C20.7492 2.8125 20.3492 3.2125 20.3242 3.7C20.9742 4.0125 21.5992 4.3625 22.1867 4.775V3.75Z" fill="url(#paint3_linear_1440_5566)"/>
<path d="M27.1879 8.75C27.1879 8.2375 26.7629 7.8125 26.2504 7.8125H25.2129C25.6254 8.4 25.9879 9.025 26.2879 9.675C26.7879 9.65 27.1879 9.25 27.1879 8.75Z" fill="url(#paint4_linear_1440_5566)"/>
<path d="M15.9375 18.4375H16.3125C16.8 18.4375 17.1875 18 17.1875 17.4625C17.1875 16.7875 17 16.6875 16.575 16.5375L15.9375 16.3125V18.4375Z" fill="url(#paint5_linear_1440_5566)"/>
<path d="M26.3 9.675C26.2875 9.675 26.275 9.6875 26.25 9.6875H21.25C21.125 9.6875 21.0125 9.6625 20.8875 9.6125C20.6625 9.5125 20.475 9.3375 20.375 9.1C20.3375 8.9875 20.3125 8.875 20.3125 8.75V3.75C20.3125 3.7375 20.325 3.725 20.325 3.7C18.7 2.9375 16.9 2.5 15 2.5C8.1 2.5 2.5 8.1 2.5 15C2.5 21.9 8.1 27.5 15 27.5C21.9 27.5 27.5 21.9 27.5 15C27.5 13.1 27.0625 11.3 26.3 9.675ZM17.1875 14.775C17.9875 15.05 19.0625 15.6375 19.0625 17.475C19.0625 19.0375 17.825 20.325 16.3125 20.325H15.9375V20.6375C15.9375 21.15 15.5125 21.575 15 21.575C14.4875 21.575 14.0625 21.15 14.0625 20.6375V20.325H13.9625C12.3 20.325 10.9375 18.925 10.9375 17.2C10.9375 16.675 11.3625 16.25 11.875 16.25C12.3875 16.25 12.8125 16.675 12.8125 17.1875C12.8125 17.875 13.325 18.4375 13.9625 18.4375H14.0625V15.6625L12.8125 15.225C12.0125 14.95 10.9375 14.3625 10.9375 12.525C10.9375 10.9625 12.175 9.675 13.6875 9.675H14.0625V9.375C14.0625 8.8625 14.4875 8.4375 15 8.4375C15.5125 8.4375 15.9375 8.8625 15.9375 9.375V9.6875H16.0375C17.7 9.6875 19.0625 11.0875 19.0625 12.8125C19.0625 13.325 18.6375 13.75 18.125 13.75C17.6125 13.75 17.1875 13.325 17.1875 12.8125C17.1875 12.125 16.675 11.5625 16.0375 11.5625H15.9375V14.3375L17.1875 14.775Z" fill="url(#paint6_linear_1440_5566)"/>
<path d="M12.8125 12.5375C12.8125 13.2125 13 13.3125 13.425 13.4625L14.0625 13.6875V11.5625H13.6875C13.2125 11.5625 12.8125 12 12.8125 12.5375Z" fill="url(#paint7_linear_1440_5566)"/>
<defs>
<linearGradient id="paint0_linear_1440_5566" x1="23.5259" y1="6.86741" x2="25.3098" y2="7.134" gradientUnits="userSpaceOnUse">
<stop/>
<stop offset="1" stop-color="#212121"/>
</linearGradient>
<linearGradient id="paint1_linear_1440_5566" x1="22.1955" y1="4.80581" x2="23.2257" y2="4.85516" gradientUnits="userSpaceOnUse">
<stop/>
<stop offset="1" stop-color="#212121"/>
</linearGradient>
<linearGradient id="paint2_linear_1440_5566" x1="23.1944" y1="1.66137" x2="28.8231" y2="2.13763" gradientUnits="userSpaceOnUse">
<stop/>
<stop offset="1" stop-color="#212121"/>
</linearGradient>
<linearGradient id="paint3_linear_1440_5566" x1="20.3397" y1="2.84804" x2="22.325" y2="3.00746" gradientUnits="userSpaceOnUse">
<stop/>
<stop offset="1" stop-color="#212121"/>
</linearGradient>
<linearGradient id="paint4_linear_1440_5566" x1="25.2293" y1="7.84623" x2="27.3312" y2="8.03481" gradientUnits="userSpaceOnUse">
<stop/>
<stop offset="1" stop-color="#212121"/>
</linearGradient>
<linearGradient id="paint5_linear_1440_5566" x1="15.9479" y1="16.351" x2="17.2856" y2="16.4176" gradientUnits="userSpaceOnUse">
<stop/>
<stop offset="1" stop-color="#212121"/>
</linearGradient>
<linearGradient id="paint6_linear_1440_5566" x1="2.70833" y1="2.95272" x2="29.3374" y2="5.20587" gradientUnits="userSpaceOnUse">
<stop/>
<stop offset="1" stop-color="#212121"/>
</linearGradient>
<linearGradient id="paint7_linear_1440_5566" x1="12.8229" y1="11.601" x2="14.1606" y2="11.6676" gradientUnits="userSpaceOnUse">
<stop/>
<stop offset="1" stop-color="#212121"/>
</linearGradient>
</defs>
</svg>
