<svg width="32" height="32" viewBox="0 0 32 32" fill="none" xmlns="http://www.w3.org/2000/svg">
<path d="M12.0013 2.66602H20.0013C26.668 2.66602 29.3346 5.33268 29.3346 11.9993V19.9993C29.3346 26.666 26.668 29.3327 20.0013 29.3327H12.0013C5.33464 29.3327 2.66797 26.666 2.66797 19.9993V11.9993C2.66797 5.33268 5.33464 2.66602 12.0013 2.66602Z" stroke="#000F18" stroke-width="1.5" stroke-linecap="round" stroke-linejoin="round"/>
<path d="M11.4258 20.3606L20.1458 11.6406" stroke="#000F18" stroke-width="1.5" stroke-linecap="round" stroke-linejoin="round"/>
<path d="M11.972 13.8269C12.8778 13.8269 13.612 13.0926 13.612 12.1869C13.612 11.2811 12.8778 10.5469 11.972 10.5469C11.0663 10.5469 10.332 11.2811 10.332 12.1869C10.332 13.0926 11.0663 13.8269 11.972 13.8269Z" stroke="#000F18" stroke-width="1.5" stroke-linecap="round" stroke-linejoin="round"/>
<path d="M20.6908 21.4538C21.5965 21.4538 22.3308 20.7195 22.3308 19.8138C22.3308 18.9081 21.5965 18.1738 20.6908 18.1738C19.785 18.1738 19.0508 18.9081 19.0508 19.8138C19.0508 20.7195 19.785 21.4538 20.6908 21.4538Z" stroke="#000F18" stroke-width="1.5" stroke-linecap="round" stroke-linejoin="round"/>
</svg>
