<svg width="3" height="3" viewBox="0 0 3 3" fill="none" xmlns="http://www.w3.org/2000/svg">
<path d="M0.0699937 1.38138L1.36274 1.43476L0.687469 0.790863C0.68223 0.786651 0.678054 0.781543 0.675207 0.775861C0.67236 0.77018 0.670903 0.764048 0.670928 0.757854C0.670952 0.75166 0.672459 0.745537 0.675351 0.739873C0.678243 0.734208 0.682456 0.729125 0.687729 0.724943C0.693002 0.720762 0.699217 0.717573 0.705984 0.715578C0.71275 0.713583 0.71992 0.712826 0.727041 0.713354C0.734163 0.713881 0.741084 0.715683 0.747361 0.718644C0.753639 0.721606 0.759136 0.725663 0.763513 0.730559L1.43878 1.37479L1.51141 0.0599662C1.51136 0.0518565 1.51321 0.0438228 1.51687 0.0363567C1.52052 0.0288906 1.52589 0.0221487 1.53265 0.016543C1.53942 0.0109373 1.54743 0.00658536 1.5562 0.00375368C1.56496 0.000922 1.57431 -0.000329844 1.58365 7.40228e-05C1.593 0.00047789 1.60215 0.00252928 1.61055 0.00610287C1.61895 0.00967646 1.62642 0.0146968 1.63251 0.0208577C1.63859 0.0270186 1.64316 0.0341904 1.64594 0.0419345C1.64872 0.0496786 1.64965 0.0578324 1.64866 0.0658975L1.57604 1.38039L2.48401 0.665313C2.49431 0.6588 2.50702 0.655815 2.5197 0.656931C2.53239 0.658046 2.54415 0.663182 2.55273 0.671354C2.56131 0.679527 2.5661 0.690158 2.56619 0.701207C2.56628 0.712256 2.56166 0.722944 2.55321 0.731219L1.64562 1.4463L2.93837 1.49968C2.95584 1.50127 2.97195 1.50859 2.98339 1.52014C2.99484 1.53169 3.00075 1.5466 2.99992 1.56181C2.9991 1.57701 2.99159 1.59137 2.97895 1.60194C2.9663 1.61251 2.94947 1.61848 2.9319 1.61864L1.63916 1.56526L2.31443 2.20916C2.31904 2.21349 2.32261 2.21857 2.32494 2.22411C2.32727 2.22965 2.3283 2.23553 2.32798 2.24141C2.32766 2.2473 2.326 2.25307 2.32309 2.2584C2.32017 2.26372 2.31606 2.26849 2.31101 2.27243C2.30587 2.27644 2.29986 2.27953 2.29333 2.28151C2.28681 2.28349 2.27989 2.28433 2.27298 2.28396C2.26619 2.28365 2.25954 2.28218 2.25341 2.27963C2.24728 2.27709 2.24178 2.27352 2.23724 2.26913L1.56198 1.62523L1.48936 2.93973C1.48945 2.94785 1.48764 2.9559 1.48402 2.96339C1.4804 2.97089 1.47505 2.97766 1.4683 2.98329C1.46156 2.98893 1.45355 2.99331 1.44478 2.99618C1.43601 2.99904 1.42666 3.00032 1.4173 2.99993C1.40794 2.99955 1.39877 2.99752 1.39035 2.99395C1.38192 2.99039 1.37443 2.98538 1.36833 2.97921C1.36222 2.97305 1.35763 2.96587 1.35484 2.95812C1.35205 2.95037 1.35111 2.9422 1.35209 2.93413L1.42433 1.61963L0.516751 2.33471C0.511639 2.33876 0.505634 2.34186 0.4991 2.34385C0.492566 2.34583 0.485637 2.34664 0.478729 2.34624C0.465227 2.34554 0.452561 2.34035 0.443372 2.33174C0.43876 2.32741 0.435186 2.32233 0.432859 2.3168C0.430532 2.31126 0.429496 2.30538 0.429814 2.29949C0.430133 2.2936 0.431801 2.28783 0.434716 2.28251C0.43763 2.27718 0.441734 2.27241 0.446792 2.26848L1.35438 1.55241L0.06163 1.49902C0.0441594 1.49743 0.0280533 1.49011 0.016609 1.47856C0.00516438 1.46701 -0.000749826 1.45211 7.62939e-05 1.4369C0.000902653 1.42169 0.00840449 1.40733 0.0210507 1.39677C0.0336969 1.3862 0.0505297 1.38022 0.0680954 1.38006L0.0699937 1.38138Z" fill="white"/>
</svg>
