<svg width="7" height="8" viewBox="0 0 7 8" fill="none" xmlns="http://www.w3.org/2000/svg">
<path d="M0.160113 3.8577L3.17036 3.84257L1.50983 2.20841C1.48886 2.18581 1.47745 2.15604 1.47797 2.12528C1.4785 2.09453 1.49091 2.06516 1.51264 2.04327C1.53437 2.02138 1.56374 2.00866 1.59465 2.00775C1.62556 2.00684 1.65564 2.0178 1.67864 2.03837L3.33917 3.67324L3.32105 0.159236C3.32105 0.138325 3.32519 0.117618 3.33324 0.0982989C3.34129 0.0789794 3.35308 0.0614256 3.36795 0.0466392C3.38282 0.0318527 3.40047 0.0201231 3.41989 0.0121207C3.43932 0.00411835 3.46014 0 3.48116 0C3.50219 0 3.52301 0.00411835 3.54244 0.0121207C3.56186 0.0201231 3.57951 0.0318527 3.59438 0.0466392C3.60925 0.0614256 3.62104 0.0789794 3.62909 0.0982989C3.63714 0.117618 3.64128 0.138325 3.64128 0.159236L3.65939 3.67108L5.66767 1.65361C5.67875 1.64249 5.69193 1.63365 5.70645 1.6276C5.72096 1.62155 5.73654 1.61839 5.75228 1.61833C5.76803 1.61826 5.78363 1.62128 5.7982 1.62721C5.81277 1.63314 5.82602 1.64186 5.8372 1.65289C5.84838 1.66391 5.85726 1.67701 5.86335 1.69145C5.86944 1.70589 5.8726 1.72138 5.87267 1.73704C5.87274 1.7527 5.8697 1.76821 5.86374 1.7827C5.85778 1.79719 5.84901 1.81037 5.83792 1.82149L3.83037 3.83896L6.83989 3.82383C6.88235 3.82383 6.92308 3.84061 6.95311 3.87047C6.98313 3.90033 7 3.94084 7 3.98307C7 4.0253 6.98313 4.0658 6.95311 4.09566C6.92308 4.12553 6.88235 4.1423 6.83989 4.1423L3.83037 4.15744L5.4909 5.79159C5.51333 5.81412 5.52591 5.84454 5.52591 5.87625C5.52591 5.90796 5.51333 5.93838 5.4909 5.96091C5.46824 5.98305 5.43789 5.99569 5.40613 5.99622C5.37439 5.99626 5.34392 5.98383 5.32136 5.96163L3.65939 4.32676L3.6775 7.84076C3.6775 7.883 3.66063 7.9235 3.63061 7.95336C3.60058 7.98322 3.55985 8 3.51739 8C3.47492 8 3.4342 7.98322 3.40417 7.95336C3.37415 7.9235 3.35728 7.883 3.35728 7.84076L3.33917 4.32748L1.33161 6.34495C1.30899 6.36704 1.27855 6.37942 1.24684 6.37942C1.21514 6.37942 1.1847 6.36704 1.16208 6.34495C1.15089 6.33384 1.142 6.32065 1.13594 6.30612C1.12988 6.29159 1.12677 6.27602 1.12677 6.26029C1.12677 6.24456 1.12988 6.22899 1.13594 6.21446C1.142 6.19993 1.15089 6.18674 1.16208 6.17563L3.16963 4.15816L0.160113 4.17329C0.117649 4.17329 0.076921 4.15651 0.0468941 4.12665C0.0168676 4.09678 -4.76837e-07 4.05628 -4.76837e-07 4.01405C-4.76837e-07 3.97182 0.0168676 3.93132 0.0468941 3.90145C0.076921 3.87159 0.117649 3.85481 0.160113 3.85481V3.8577Z" fill="white"/>
</svg>
