<svg width="3" height="1" viewBox="0 0 3 1" fill="none" xmlns="http://www.w3.org/2000/svg">
<path d="M1.48626 0.521846C1.48565 0.521604 1.48506 0.521317 1.48449 0.520988C1.48226 0.519734 1.48027 0.518099 1.47865 0.516178C1.47704 0.514257 1.47581 0.512088 1.47506 0.509794C1.4743 0.507501 1.47403 0.505129 1.47425 0.502814C1.47448 0.5005 1.47519 0.498289 1.47636 0.496308C1.53313 0.399671 1.58976 0.303416 1.64627 0.207542L1.73065 0.0642882C1.7318 0.0622697 1.73338 0.0605186 1.73531 0.0591367C1.73724 0.0577548 1.73947 0.0567696 1.74189 0.0562387C1.74431 0.0557077 1.74685 0.0556415 1.74938 0.0560438C1.75191 0.056446 1.75437 0.0573087 1.75662 0.0585819C1.75887 0.059855 1.76086 0.061513 1.76248 0.0634596C1.7641 0.0654062 1.76532 0.0676025 1.76606 0.0699207C1.7668 0.0722389 1.76705 0.0746328 1.7668 0.0769632C1.76654 0.0792936 1.76579 0.081514 1.76458 0.0834953L1.68025 0.226772C1.62366 0.322891 1.56699 0.419167 1.51025 0.515601C1.50804 0.519299 1.50436 0.521984 1.49993 0.523137C1.49551 0.52429 1.49064 0.52383 1.48626 0.521846Z" fill="white"/>
<path d="M1.68756 0.859423C1.68443 0.858022 1.68179 0.855723 1.67998 0.85282C1.67816 0.849916 1.67726 0.84654 1.67737 0.843122C1.67749 0.839704 1.67862 0.836399 1.68063 0.833629C1.68263 0.83086 1.68542 0.82875 1.68864 0.827571C1.78084 0.79344 1.87661 0.76082 1.96929 0.72927C2.01199 0.714707 2.05615 0.699706 2.09913 0.684762C2.10345 0.683263 2.10819 0.68354 2.11231 0.685531C2.11643 0.687522 2.1196 0.691065 2.1211 0.695379C2.12261 0.699694 2.12234 0.704427 2.12035 0.708538C2.11836 0.712649 2.11481 0.7158 2.11049 0.717299C2.06741 0.732245 2.02318 0.747268 1.98042 0.761852C1.88799 0.793315 1.79241 0.825869 1.70065 0.859848C1.69855 0.860639 1.69631 0.861008 1.69406 0.860935C1.69182 0.860863 1.68961 0.860349 1.68756 0.859423Z" fill="white"/>
<path d="M1.06523 0.495631C1.06255 0.49443 1.06023 0.49256 1.05848 0.490198C1.05672 0.487836 1.0556 0.485061 1.05522 0.482133L1.01028 0.157943C1.00971 0.153389 1.01094 0.14878 1.01372 0.145112C1.0165 0.141445 1.0206 0.139014 1.02513 0.138347C1.02966 0.137679 1.03425 0.138828 1.03792 0.141545C1.04159 0.144263 1.04404 0.14833 1.04473 0.152865L1.08971 0.477077C1.09014 0.480172 1.08973 0.483332 1.08853 0.486226C1.08733 0.48912 1.08538 0.491642 1.08288 0.493529C1.08038 0.495416 1.07743 0.496598 1.07434 0.496953C1.07124 0.497307 1.06811 0.496821 1.06528 0.495544L1.06523 0.495631Z" fill="white"/>
</svg>
