<svg width="60" height="93" viewBox="0 0 60 93" fill="none" xmlns="http://www.w3.org/2000/svg">
<path d="M59.9994 57.9868C59.9994 58.3589 59.9937 58.7263 59.9824 59.0887L59.9995 59.0845C59.8981 61.2132 59.6587 63.1884 59.3322 64.9925C57.8855 72.9874 50.7738 77.8648 42.9353 80.0026L44.5249 77.0325C41.1131 76.8904 37.3109 75.7153 33.3023 73.4008C18.5579 64.8879 6.60525 44.1845 6.60525 27.1586C6.60525 22.0986 7.66095 17.9329 9.53188 14.8003L5.7793 15.0463L7.72654 13.5047C10.4755 11.3284 13.6212 9.71453 16.9839 8.75027C21.4962 7.32579 27.1567 8.19619 33.3023 11.7445C48.0467 20.2574 59.9994 40.9608 59.9994 57.9868Z" fill="url(#paint0_linear_1673_3392)"/>
<path d="M53.3942 61.6564C53.3942 78.6823 41.4415 85.5834 26.6971 77.0705C11.9527 68.5575 -1.05421e-06 47.8541 -6.79137e-07 30.8282C-3.0406e-07 13.8023 11.9527 6.90113 26.6971 15.4141C41.4415 23.9271 53.3942 44.6304 53.3942 61.6564Z" fill="url(#paint1_linear_1673_3392)"/>
<path d="M48.0089 60.0928C48.0089 74.5615 37.8514 80.4261 25.3215 73.1918C12.7917 65.9574 2.63418 48.3635 2.63418 33.8948C2.63418 19.426 12.7917 13.5614 25.3215 20.7958C37.8514 28.0301 48.0089 45.624 48.0089 60.0928Z" stroke="white"/>
<path d="M31.9784 47.5517C31.4397 46.881 30.7394 46.4767 30.1468 46.4942L25.9449 46.8254L23.0898 46.9752L18.8879 47.3064C18.3491 47.355 17.6489 46.9507 17.0563 46.2489L13.7163 42.1626C13.1776 41.4919 12.8005 40.6148 12.8005 39.8955L12.8005 35.6397C12.8005 34.9205 13.1237 34.4477 13.7163 34.4302L17.0024 34.2295C17.5411 34.1809 18.2414 34.5853 18.834 35.2871L22.1201 39.2823C22.6588 39.953 23.0359 40.8301 23.0359 41.5494L23.0359 44.3066L25.891 44.0969L25.891 41.3396C25.891 40.6204 25.5678 39.7744 24.9753 39.0726L18.8879 31.6018C18.3491 30.9312 17.6489 30.5268 17.0563 30.5443L10.8611 30.9235C10.2685 30.941 9.94531 31.4138 9.94531 32.1331L9.94531 40.1052C9.94531 40.8245 10.2685 41.6705 10.8611 42.3723L17.0563 49.9052C17.595 50.576 18.2953 50.9803 18.8879 50.9628L23.0898 50.6915L25.9449 50.4818L30.1468 50.2105C30.6855 50.1619 31.3859 50.5663 31.9784 51.268L35.2646 55.2632C35.8032 55.934 36.1804 56.811 36.1804 57.5303L36.1804 61.7861C36.1804 62.5054 35.8571 62.9781 35.2646 62.9956L31.9784 63.2562C31.4397 63.3049 30.7394 62.9005 30.1468 62.1987L26.8607 58.2035C26.322 57.5328 25.9449 56.6557 25.9449 55.9364L25.9449 53.1791L23.0898 53.3888L23.0898 56.1461C23.0898 56.8654 23.413 57.7114 24.0056 58.4132L30.2007 65.9462C30.7394 66.6168 31.4397 67.0212 32.0323 67.0037L38.2274 66.6245C38.7662 66.5759 39.1432 66.1342 39.1432 65.4149L39.1432 57.4428C39.1432 56.7235 38.82 55.8775 38.2274 55.1757L31.9784 47.5517Z" fill="white"/>
<defs>
<linearGradient id="paint0_linear_1673_3392" x1="46.238" y1="83.8533" x2="3.85475" y2="3.48525" gradientUnits="userSpaceOnUse">
<stop stop-color="#703FC1"/>
<stop offset="0.471793" stop-color="#C8A8FF"/>
<stop offset="1" stop-color="#753DD4"/>
</linearGradient>
<linearGradient id="paint1_linear_1673_3392" x1="46.7454" y1="80.8724" x2="45.2319" y2="12.8619" gradientUnits="userSpaceOnUse">
<stop stop-color="#8247E5"/>
<stop offset="1" stop-color="#B285FF"/>
</linearGradient>
</defs>
</svg>
