<svg width="58" height="89" viewBox="0 0 58 89" fill="none" xmlns="http://www.w3.org/2000/svg">
<path fill-rule="evenodd" clip-rule="evenodd" d="M50.374 26.7865C50.374 43.0591 39.0974 62.8465 25.187 70.9828C21.7583 72.9883 18.4897 74.0987 15.5105 74.3898L17.657 77.2894L14.5785 76.2869C11.7992 75.3819 9.16801 74.073 6.76947 72.4025C6.73018 72.3751 6.6929 72.3456 6.65772 72.3141C2.52438 69.4828 0 63.9499 0 56.2507C0 39.978 11.2766 20.1907 25.187 12.0543C30.7933 8.77518 35.9717 7.88897 40.1566 9.06476C44.0365 10.0335 47.6857 11.7645 50.8913 14.1574L46.468 13.3039C48.9416 16.4163 50.374 20.9867 50.374 26.7865Z" fill="url(#paint0_linear_1673_3397)"/>
<ellipse cx="29.1791" cy="29.4642" rx="29.1791" ry="29.4642" transform="matrix(0.863186 -0.504886 2.17458e-08 1 6.75 29.9404)" fill="url(#paint1_linear_1673_3397)"/>
<path d="M53.5787 32.0339C53.5787 45.8544 44.0025 62.651 32.1985 69.5553C20.3945 76.4596 10.8183 70.8654 10.8183 57.0449C10.8183 43.2244 20.3945 26.4278 32.1985 19.5236C44.0025 12.6193 53.5787 18.2135 53.5787 32.0339Z" stroke="white"/>
<path d="M43.4696 41.6071L33.6237 63.5294L23.7209 52.9144L33.5703 54.2233L43.4696 41.6071Z" fill="url(#paint2_linear_1673_3397)"/>
<path d="M33.7642 25.4611L43.3843 38.8435L33.6149 39.443L23.6349 50.3683L33.7642 25.4611Z" fill="url(#paint3_linear_1673_3397)"/>
<path d="M33.5764 52.5045L33.7156 40.2513L23.6316 51.2579L33.5764 52.5045Z" fill="white"/>
<path d="M33.4811 52.5591L33.7156 40.2513L43.4288 39.7025L33.4811 52.5591Z" fill="#E2E2E2"/>
<path d="M33.5464 47.6192L23.584 51.2852L33.5288 52.5318L43.4288 39.7025L33.5464 47.6192Z" fill="url(#paint4_linear_1673_3397)"/>
<defs>
<linearGradient id="paint0_linear_1673_3397" x1="9.95756" y1="78.817" x2="54.1753" y2="6.03157" gradientUnits="userSpaceOnUse">
<stop stop-color="#657BE3"/>
<stop offset="0.508819" stop-color="#A8B8FF"/>
<stop offset="1" stop-color="#657BE3"/>
</linearGradient>
<linearGradient id="paint1_linear_1673_3397" x1="49.9336" y1="7.32335" x2="24.8175" y2="61.8622" gradientUnits="userSpaceOnUse">
<stop stop-color="#7D94FF"/>
<stop offset="1" stop-color="#7D94FF"/>
</linearGradient>
<linearGradient id="paint2_linear_1673_3397" x1="32.2299" y1="25.2727" x2="34.7276" y2="25.2727" gradientUnits="userSpaceOnUse">
<stop offset="0.46875" stop-color="white"/>
<stop offset="0.53125" stop-color="#E2E2E2"/>
</linearGradient>
<linearGradient id="paint3_linear_1673_3397" x1="27.1384" y1="46.0415" x2="40.0112" y2="46.0415" gradientUnits="userSpaceOnUse">
<stop offset="0.500252" stop-color="white"/>
<stop offset="0.51131" stop-color="#E2E2E2"/>
</linearGradient>
<linearGradient id="paint4_linear_1673_3397" x1="32.9193" y1="49.9061" x2="34.2522" y2="49.9109" gradientUnits="userSpaceOnUse">
<stop offset="0.457402" stop-color="#F5F5F5"/>
<stop offset="0.550793" stop-color="#C1C2C1"/>
</linearGradient>
</defs>
</svg>
