<svg width="69" height="106" viewBox="0 0 69 106" fill="none" xmlns="http://www.w3.org/2000/svg">
<path d="M68.1249 66.3152C68.1249 66.7378 68.1184 67.1548 68.1056 67.5663L68.1244 67.5616C68.0093 69.9786 67.7374 72.2212 67.3668 74.2696C65.7242 83.3472 57.6494 88.885 48.7494 91.3124L50.5542 87.94C46.6806 87.7786 42.3637 86.4443 37.8126 83.8167C21.0716 74.1509 7.5003 50.6439 7.5003 31.3124C7.5003 25.5672 8.69896 20.8374 10.8232 17.2806L6.5625 17.56L8.77343 15.8096C11.8946 13.3386 15.4663 11.5062 19.2845 10.4113C24.4077 8.79396 30.8348 9.78223 37.8126 13.811C54.5536 23.4768 68.1249 46.9837 68.1249 66.3152Z" fill="url(#paint0_linear_1673_3410)"/>
<path d="M60.6246 70.4817C60.6246 89.8133 47.0533 97.6489 30.3123 87.9832C13.5713 78.3174 -1.19697e-06 54.8104 -7.71104e-07 35.4789C-3.45235e-07 16.1474 13.5713 8.31173 30.3123 17.9775C47.0533 27.6433 60.6246 51.1502 60.6246 70.4817Z" fill="url(#paint1_linear_1673_3410)"/>
<path d="M54.5694 68.7402C54.5694 85.2057 43.0102 91.8796 28.7512 83.6469C14.4922 75.4142 2.93301 55.3923 2.93301 38.9269C2.93301 22.4614 14.4922 15.7875 28.7512 24.0202C43.0102 32.2529 54.5694 52.2747 54.5694 68.7402Z" stroke="white"/>
<path d="M39.6352 64.8843C39.4262 63.044 38.6947 61.2942 37.3884 59.6652C36.7875 58.926 36.1343 58.2774 35.455 57.5534C35.5334 57.5383 35.5856 57.5081 35.6379 57.5081C38.9037 57.4629 38.6163 51.4745 36.2388 48.1107C35.2721 46.7381 34.2009 45.6067 33.0775 44.6564C32.2676 43.9777 31.4577 43.3592 30.6216 42.7257C30.6216 41.0363 30.6477 38.7284 30.6477 36.8579L27.5909 35.0931C27.5648 36.9183 27.5648 39.1809 27.5387 40.8251L25.0828 39.4072C25.0828 37.7479 25.1089 35.5004 25.1089 33.6601L22.0782 31.9104C22.0521 33.7657 22.0521 36.0887 22.026 37.7328C19.9359 36.4959 17.9241 35.3345 15.834 34.0976C15.834 35.3948 15.8079 36.5864 15.8079 37.8535C16.252 38.1099 16.6439 38.3362 17.0097 38.5775C17.4016 38.8038 17.7935 39.0301 18.1593 39.2714C19.2305 39.9804 19.7791 40.991 19.7791 42.1977C19.7269 47.2057 19.6746 52.2438 19.6485 57.2668C19.6485 58.383 19.2305 58.564 18.2899 58.021L16.252 56.8444C16.043 58.1417 15.834 59.3786 15.625 60.6758C17.689 61.8976 19.7269 63.1043 21.817 64.3412C21.817 66.1513 21.7909 68.429 21.7909 70.3296L24.8477 72.0945C24.8738 70.209 24.8738 67.9765 24.8999 66.2117C25.7621 66.7396 26.5459 67.2223 27.3558 67.7201C27.3558 69.5302 27.3297 71.7174 27.3297 73.5577L30.3865 75.3225C30.4126 73.437 30.4126 71.2045 30.4387 69.4698C30.5432 69.5 30.6216 69.5453 30.7 69.5604C32.1631 70.1335 33.6523 70.8425 35.0631 71.2649C36.9181 71.7928 38.3812 71.4006 39.165 69.7414C39.7136 68.429 39.8443 66.7849 39.6352 64.8843ZM25.135 43.6006C27.0423 44.7017 28.8973 45.5917 30.6216 47.4923C31.7712 48.7292 32.346 50.1471 32.2676 51.3991C32.1892 52.7415 31.5099 53.3449 30.282 53.0885C28.6099 52.7566 26.8594 51.7158 25.0567 50.5845C25.0828 48.3068 25.1089 46.0291 25.135 43.6006ZM31.7973 65.0653C30.0991 64.9597 28.3225 63.934 26.5197 62.9233C26.0233 62.6367 25.5269 62.32 24.9783 62.0032L25.0567 54.2349C27.3819 55.5774 29.6811 56.6936 31.8495 59.0618C32.973 60.2836 33.6262 61.6563 33.6262 63.1345C33.6 64.5977 32.9207 65.1407 31.7973 65.0653Z" fill="white"/>
<defs>
<linearGradient id="paint0_linear_1673_3410" x1="57.1872" y1="96.6221" x2="10.6247" y2="9.43454" gradientUnits="userSpaceOnUse">
<stop stop-color="#DB831C"/>
<stop offset="0.560545" stop-color="#FECD94"/>
<stop offset="1" stop-color="#D57C13"/>
</linearGradient>
<linearGradient id="paint1_linear_1673_3410" x1="53.0755" y1="92.2999" x2="51.357" y2="15.0797" gradientUnits="userSpaceOnUse">
<stop stop-color="#F89F36"/>
<stop offset="1" stop-color="#FFAF50"/>
</linearGradient>
</defs>
</svg>
