<svg width="59" height="90" viewBox="0 0 59 90" fill="none" xmlns="http://www.w3.org/2000/svg">
<path d="M51.349 26.8873C51.349 43.2225 40.029 63.086 26.0651 71.2536C22.623 73.2669 19.3415 74.3817 16.3506 74.6738L18.5054 77.5845L15.4151 76.5781C12.625 75.6696 9.98376 74.3558 7.57599 72.6787C7.53557 72.6506 7.49727 72.6202 7.46118 72.5877C3.31395 69.7448 0.78125 64.1915 0.78125 56.4648C0.78125 40.1296 12.1012 20.2661 26.0651 12.0985C31.6848 8.81149 36.8763 7.91969 41.0741 9.09233L41.281 9.14264C44.9994 10.0467 48.4969 11.6928 51.5634 13.9819L51.8685 14.2096L47.4279 13.3528C49.9111 16.4771 51.349 21.0652 51.349 26.8873Z" fill="url(#paint0_linear_1673_3420)"/>
<ellipse cx="29.2913" cy="29.5776" rx="29.2913" ry="29.5776" transform="matrix(0.863186 -0.504886 2.17458e-08 1 7.55859 30.0537)" fill="url(#paint1_linear_1673_3420)"/>
<path d="M54.5668 32.1545C54.5668 46.0292 44.9531 62.8917 33.1027 69.8231C21.2524 76.7545 11.6386 71.1383 11.6386 57.2636C11.6386 43.389 21.2524 26.5265 33.1027 19.5951C44.9531 12.6637 54.5668 18.2799 54.5668 32.1545Z" stroke="white"/>
<path d="M25.7563 50.4834L22.2106 56.6213L18.668 54.5758L22.2106 48.4397L25.7563 50.4834ZM34.3524 35.5872L40.4234 39.0959L43.966 32.9598L34.3524 27.4092L24.7389 44.0606L28.2815 46.106L34.3524 35.5872ZM46.4973 34.4178L42.9547 40.5539L46.4973 42.5993L50.0369 36.465L46.4973 34.4178ZM34.3524 55.4536L28.2815 51.9485L24.7389 58.081L34.3524 63.6317L43.966 46.9803L40.4234 44.9384L34.3524 55.4536ZM34.3524 49.6112L37.8951 43.4751L34.3524 41.4296L30.8098 47.5658L34.3524 49.6112Z" fill="white"/>
<defs>
<linearGradient id="paint0_linear_1673_3420" x1="46.8148" y1="8.35773" x2="12.1442" y2="77.9595" gradientUnits="userSpaceOnUse">
<stop stop-color="#D19F02"/>
<stop offset="0.479476" stop-color="#FBD04A"/>
<stop offset="1" stop-color="#CA9900"/>
</linearGradient>
<linearGradient id="paint1_linear_1673_3420" x1="50.1256" y1="7.35152" x2="24.913" y2="62.1001" gradientUnits="userSpaceOnUse">
<stop stop-color="#EFB80A"/>
<stop offset="1" stop-color="#DAA500"/>
</linearGradient>
</defs>
</svg>
