<svg width="69" height="106" viewBox="0 0 69 106" fill="none" xmlns="http://www.w3.org/2000/svg">
<path d="M60.0741 31.8527C60.0741 51.2588 46.6261 74.8565 30.0371 84.5596C25.9478 86.9514 22.0494 88.2757 18.4963 88.6227L21.0562 92.0806L17.3848 90.8851C14.0703 89.8058 10.9325 88.2449 8.0721 86.2526C8.02408 86.2192 7.97857 86.183 7.9357 86.1445C3.00883 82.7672 0 76.1699 0 66.9906C0 47.5845 13.4481 23.9868 30.0371 14.2838C36.7132 10.3788 42.8807 9.31937 47.8676 10.7125L48.1134 10.7722C52.5308 11.8463 56.6858 13.8018 60.3288 16.5213L60.6912 16.7918L55.4159 15.7738C58.3658 19.4855 60.0741 24.9361 60.0741 31.8527Z" fill="url(#paint0_linear_1673_3415)"/>
<ellipse cx="34.7979" cy="35.1379" rx="34.7979" ry="35.1379" transform="matrix(0.863186 -0.504886 2.17458e-08 1 8.05078 35.614)" fill="url(#paint1_linear_1673_3415)"/>
<path d="M63.979 38.0623C63.979 54.5963 52.5223 74.6926 38.3986 82.9536C24.275 91.2147 12.8183 84.5206 12.8183 67.9866C12.8183 51.4525 24.275 31.3563 38.3986 23.0952C52.5223 14.8341 63.979 21.5282 63.979 38.0623Z" stroke="white"/>
<path d="M54.1197 29.8398L49.2098 32.7512L41.3367 46.3093C40.5333 47.6907 39.4447 48.8346 38.3098 49.4898C37.1749 50.145 36.0864 50.2582 35.283 49.8044L27.4099 45.3373L22.5 48.0955L32.2561 53.6309C33.8625 54.5396 36.0398 54.3139 38.3098 53.0033C40.5799 51.6926 42.7572 49.4043 44.3636 46.6407L54.1197 29.8398ZM22.5 78.7988L27.4099 75.8874L35.283 62.3294C36.0864 60.9479 37.1749 59.804 38.3098 59.1488C39.4447 58.4936 40.5333 58.3804 41.3367 58.8342L49.2098 63.3013L54.1197 60.5431L44.3636 55.0077C42.7572 54.099 40.5799 54.3247 38.3098 55.6353C36.0398 56.946 33.8625 59.2343 32.2561 61.9979L22.5 78.7988Z" fill="white"/>
<defs>
<linearGradient id="paint0_linear_1673_3415" x1="50" y1="9.83975" x2="8.17243" y2="89.404" gradientUnits="userSpaceOnUse">
<stop/>
<stop offset="0.40625" stop-color="#5C5C5C"/>
<stop offset="1" stop-color="#0E0E0E"/>
</linearGradient>
<linearGradient id="paint1_linear_1673_3415" x1="59.5489" y1="8.73355" x2="29.5964" y2="73.7744" gradientUnits="userSpaceOnUse">
<stop stop-color="#444444"/>
<stop offset="1"/>
</linearGradient>
</defs>
</svg>
