<svg width="32" height="32" viewBox="0 0 32 32" fill="none" xmlns="http://www.w3.org/2000/svg">
<path d="M2.66406 12.0003V8.66699C2.66406 5.34699 5.34406 2.66699 8.66406 2.66699H11.9974" stroke="url(#paint0_linear_578_3882)" stroke-width="1.5" stroke-linecap="round" stroke-linejoin="round"/>
<path d="M20 2.66699H23.3333C26.6533 2.66699 29.3333 5.34699 29.3333 8.66699V12.0003" stroke="url(#paint1_linear_578_3882)" stroke-width="1.5" stroke-linecap="round" stroke-linejoin="round"/>
<path d="M29.3359 21.334V23.334C29.3359 26.654 26.6559 29.334 23.3359 29.334H21.3359" stroke="url(#paint2_linear_578_3882)" stroke-width="1.5" stroke-linecap="round" stroke-linejoin="round"/>
<path d="M11.9974 29.3333H8.66406C5.34406 29.3333 2.66406 26.6533 2.66406 23.3333V20" stroke="url(#paint3_linear_578_3882)" stroke-width="1.5" stroke-linecap="round" stroke-linejoin="round"/>
<path d="M22.6693 12.666V19.3327C22.6693 21.9993 21.3359 23.3327 18.6693 23.3327H13.3359C10.6693 23.3327 9.33594 21.9993 9.33594 19.3327V12.666C9.33594 9.99935 10.6693 8.66602 13.3359 8.66602H18.6693C21.3359 8.66602 22.6693 9.99935 22.6693 12.666Z" stroke="url(#paint4_linear_578_3882)" stroke-width="1.5" stroke-linecap="round" stroke-linejoin="round"/>
<path d="M25.3307 16H6.66406" stroke="url(#paint5_linear_578_3882)" stroke-width="1.5" stroke-linecap="round" stroke-linejoin="round"/>
<defs>
<linearGradient id="paint0_linear_578_3882" x1="2.66406" y1="7.33366" x2="11.9974" y2="7.33366" gradientUnits="userSpaceOnUse">
<stop stop-color="#FEF9CC"/>
<stop offset="0.4" stop-color="#F6DBD4"/>
<stop offset="0.75" stop-color="#F1C8D9"/>
<stop offset="1" stop-color="#F0C2DB"/>
</linearGradient>
<linearGradient id="paint1_linear_578_3882" x1="20" y1="7.33366" x2="29.3333" y2="7.33366" gradientUnits="userSpaceOnUse">
<stop stop-color="#FEF9CC"/>
<stop offset="0.4" stop-color="#F6DBD4"/>
<stop offset="0.75" stop-color="#F1C8D9"/>
<stop offset="1" stop-color="#F0C2DB"/>
</linearGradient>
<linearGradient id="paint2_linear_578_3882" x1="21.3359" y1="25.334" x2="29.3359" y2="25.334" gradientUnits="userSpaceOnUse">
<stop stop-color="#FEF9CC"/>
<stop offset="0.4" stop-color="#F6DBD4"/>
<stop offset="0.75" stop-color="#F1C8D9"/>
<stop offset="1" stop-color="#F0C2DB"/>
</linearGradient>
<linearGradient id="paint3_linear_578_3882" x1="2.66406" y1="24.6667" x2="11.9974" y2="24.6667" gradientUnits="userSpaceOnUse">
<stop stop-color="#FEF9CC"/>
<stop offset="0.4" stop-color="#F6DBD4"/>
<stop offset="0.75" stop-color="#F1C8D9"/>
<stop offset="1" stop-color="#F0C2DB"/>
</linearGradient>
<linearGradient id="paint4_linear_578_3882" x1="9.33594" y1="15.9993" x2="22.6693" y2="15.9993" gradientUnits="userSpaceOnUse">
<stop stop-color="#FEF9CC"/>
<stop offset="0.4" stop-color="#F6DBD4"/>
<stop offset="0.75" stop-color="#F1C8D9"/>
<stop offset="1" stop-color="#F0C2DB"/>
</linearGradient>
<linearGradient id="paint5_linear_578_3882" x1="6.66406" y1="16.5" x2="25.3307" y2="16.5" gradientUnits="userSpaceOnUse">
<stop stop-color="#FEF9CC"/>
<stop offset="0.4" stop-color="#F6DBD4"/>
<stop offset="0.75" stop-color="#F1C8D9"/>
<stop offset="1" stop-color="#F0C2DB"/>
</linearGradient>
</defs>
</svg>
