<svg width="28" height="24" viewBox="0 0 28 24" fill="none" xmlns="http://www.w3.org/2000/svg">
<g id="Group">
<g id="Group_2">
<path id="Vector" d="M22.1595 0.728577L27.2053 7.76795L13.9977 23.2713L0.790222 7.76795L5.83456 0.728577H22.1595Z" fill="#FAFAFA"/>
<g id="Group_3">
<path id="Vector_2" d="M22.0811 10.9348L13.8384 0.728371H11.9924L21.1275 11.8884L22.0811 10.9348Z" fill="#15B097"/>
<path id="Vector_3" d="M19.8862 12.5298L10.0005 0.728474H5.83445L5.03558 1.84376L18.9313 13.4848L19.8862 12.5298Z" fill="#15B097"/>
<path id="Vector_4" d="M18.1949 14.4639L4.28363 2.89243L3.43085 4.08434L17.2414 15.4189L18.1949 14.4639Z" fill="#15B097"/>
<path id="Vector_5" d="M23.4671 9.54852L16.344 0.728371H15.426L23.0145 10.0012L23.4671 9.54852Z" fill="#15B097"/>
</g>
<path id="Vector_6" d="M20.5315 9.44918L13.9973 23.2711L7.46307 9.44918H20.5315Z" fill="#C4FFF5"/>
<path id="Vector_7" d="M7.46351 9.44898L0.790222 7.76754L13.9977 23.2709L7.46351 9.44898Z" fill="#15B097"/>
<path id="Vector_8" d="M13.9982 23.2709L20.5325 9.44898L27.2057 7.76754L13.9982 23.2709Z" fill="#15B097"/>
<path id="Vector_9" d="M5.83456 0.728577H11.3557L7.46351 9.4494L0.790222 7.76795L5.83456 0.728577Z" fill="#15B097"/>
<path id="Vector_10" d="M22.1595 0.728577H16.6398L20.5306 9.4494L27.2053 7.76795L22.1595 0.728577Z" fill="#C4FFF5"/>
<path id="Vector_11" opacity="0.1" d="M20.532 8.52667H7.46351L0.790222 7.76754L7.46351 9.44898H20.532L27.2053 7.76754L20.532 8.52667Z" fill="white"/>
</g>
<path id="Vector_12" d="M8.53053 8.17179L11.0676 8.75498L8.53053 9.33958L7.94734 11.8767L7.36416 9.33958L4.82709 8.75498L7.36416 8.17179L7.94734 5.63472L8.53053 8.17179Z" fill="white"/>
<path id="Vector_13" d="M20.5 9.75072L21.9558 10.0856L20.5 10.4205L20.1651 11.8777L19.8302 10.4205L18.373 10.0856L19.8302 9.75072L20.1651 8.29488L20.5 9.75072Z" fill="white"/>
<g id="Vector_14" style="mix-blend-mode:multiply" opacity="0.1">
<path d="M13.9975 20.0357L0.789978 7.76754L13.9975 23.2709L27.205 7.76754L13.9975 20.0357Z" fill="black"/>
</g>
</g>
</svg>
