<svg width="14" height="13" viewBox="0 0 14 13" fill="none" xmlns="http://www.w3.org/2000/svg">
<path d="M13 12.5L9 8.5M1 5.16667C1 5.7795 1.12071 6.38634 1.35523 6.95252C1.58975 7.51871 1.93349 8.03316 2.36683 8.4665C2.80017 8.89984 3.31462 9.24358 3.88081 9.4781C4.447 9.71263 5.05383 9.83333 5.66667 9.83333C6.2795 9.83333 6.88634 9.71263 7.45252 9.4781C8.01871 9.24358 8.53316 8.89984 8.9665 8.4665C9.39984 8.03316 9.74358 7.51871 9.9781 6.95252C10.2126 6.38634 10.3333 5.7795 10.3333 5.16667C10.3333 4.55383 10.2126 3.947 9.9781 3.38081C9.74358 2.81462 9.39984 2.30017 8.9665 1.86683C8.53316 1.43349 8.01871 1.08975 7.45252 0.855229C6.88634 0.620707 6.2795 0.5 5.66667 0.5C5.05383 0.5 4.447 0.620707 3.88081 0.855229C3.31462 1.08975 2.80017 1.43349 2.36683 1.86683C1.93349 2.30017 1.58975 2.81462 1.35523 3.38081C1.12071 3.947 1 4.55383 1 5.16667Z" stroke="white" stroke-linecap="round" stroke-linejoin="round"/>
</svg>
