<svg width="33" height="32" viewBox="0 0 33 32" fill="none" xmlns="http://www.w3.org/2000/svg">
<path d="M16.3187 23.6671H24.212C24.092 23.7738 23.972 23.8672 23.852 23.9738L18.1587 28.2405C16.2787 29.6405 13.212 29.6405 11.3187 28.2405L5.61204 23.9738C4.35871 23.0405 3.33203 20.9738 3.33203 19.4138V9.5338C3.33203 7.90713 4.57204 6.10713 6.09204 5.5338L12.732 3.04047C13.8254 2.62714 15.6387 2.62714 16.732 3.04047L23.3587 5.5338C24.6254 6.0138 25.7054 7.34714 26.0387 8.70714H16.3054C16.012 8.70714 15.7454 8.72048 15.492 8.72048C13.0254 8.86715 12.3854 9.76046 12.3854 12.5738V19.8138C12.3987 22.8804 13.1854 23.6671 16.3187 23.6671Z" stroke="#292D32" stroke-width="1.5" stroke-linecap="round" stroke-linejoin="round"/>
<path d="M12.3984 14.959H29.9984" stroke="#292D32" stroke-width="1.5" stroke-miterlimit="10" stroke-linecap="round" stroke-linejoin="round"/>
<path d="M29.9984 12.5607V19.9607C29.9718 22.9207 29.1584 23.654 26.0784 23.654H16.3184C13.1851 23.654 12.3984 22.8673 12.3984 19.7873V12.5473C12.3984 9.74732 13.0384 8.85397 15.5051 8.69397C15.7584 8.69397 16.0251 8.68066 16.3184 8.68066H26.0784C29.2118 8.694 29.9984 9.46734 29.9984 12.5607Z" stroke="#292D32" stroke-width="1.5" stroke-linecap="round" stroke-linejoin="round"/>
<path d="M15.7578 20.3467H17.5311" stroke="#292D32" stroke-width="1.5" stroke-miterlimit="10" stroke-linecap="round" stroke-linejoin="round"/>
<path d="M20.332 20.3467H24.692" stroke="#292D32" stroke-width="1.5" stroke-miterlimit="10" stroke-linecap="round" stroke-linejoin="round"/>
</svg>
