<svg width="32" height="32" viewBox="0 0 32 32" fill="none" xmlns="http://www.w3.org/2000/svg">
<path d="M9.9987 6.66602H21.9987C22.8254 6.66602 23.5587 6.69268 24.212 6.78602C27.7187 7.17268 28.6654 8.82602 28.6654 13.3327V18.666C28.6654 23.1727 27.7187 24.826 24.212 25.2127C23.5587 25.306 22.8254 25.3327 21.9987 25.3327H9.9987C9.17203 25.3327 8.4387 25.306 7.78536 25.2127C4.2787 24.826 3.33203 23.1727 3.33203 18.666V13.3327C3.33203 8.82602 4.2787 7.17268 7.78536 6.78602C8.4387 6.69268 9.17203 6.66602 9.9987 6.66602Z" stroke="#000F18" stroke-width="1.5" stroke-linecap="round" stroke-linejoin="round"/>
<path d="M6 2.66602H26" stroke="#000F18" stroke-width="1.5" stroke-linecap="round" stroke-linejoin="round"/>
<path d="M6.66797 29.334H26.668" stroke="#000F18" stroke-width="1.5" stroke-linecap="round" stroke-linejoin="round"/>
</svg>
