<svg width="32" height="32" viewBox="0 0 32 32" fill="none" xmlns="http://www.w3.org/2000/svg">
<path d="M6.30122 21.5157C4.24122 19.4543 3.21055 18.425 2.82788 17.0877C2.44388 15.7503 2.77188 14.3303 3.42788 11.4917L3.80522 9.85434C4.35588 7.46501 4.63188 6.27034 5.44922 5.45168C6.26655 4.63301 7.46255 4.35834 9.85188 3.80768L11.4892 3.42901C14.3292 2.77434 15.7479 2.44634 17.0852 2.82901C18.4226 3.21301 19.4519 4.24368 21.5119 6.30368L23.9519 8.74368C27.5399 12.3303 29.3306 14.1223 29.3306 16.349C29.3306 18.577 27.5386 20.369 23.9532 23.9543C20.3666 27.541 18.5746 29.333 16.3466 29.333C14.1199 29.333 12.3266 27.541 8.74122 23.9557L6.30122 21.5157Z" stroke="#000F18" stroke-width="1.5"/>
<path d="M20.5179 20.52C21.2979 19.7373 21.4032 18.5773 20.7526 17.9253C20.1019 17.2733 18.9406 17.38 18.1592 18.1613C17.3792 18.9426 16.2179 19.048 15.5672 18.3973C14.9166 17.7466 15.0219 16.5853 15.8032 15.8053M15.8032 15.8053L15.3312 15.3333M15.8032 15.8053C16.2446 15.3626 16.8072 15.1386 17.3312 15.1426M20.9886 20.9906L20.5166 20.5186C19.9832 21.0533 19.2699 21.272 18.6646 21.1466" stroke="#000F18" stroke-width="1.5" stroke-linecap="round"/>
<path d="M13.36 13.7235C14.4014 12.6821 14.4014 10.9937 13.36 9.95227C12.3186 8.91087 10.6301 8.91087 9.58874 9.95227C8.54735 10.9937 8.54734 12.6821 9.58874 13.7235C10.6301 14.7649 12.3186 14.7649 13.36 13.7235Z" stroke="#000F18" stroke-width="1.5"/>
</svg>
