<svg width="14" height="19" viewBox="0 0 14 19" fill="none" xmlns="http://www.w3.org/2000/svg">
<path d="M2.5 1V4M2.5 12V16" stroke="white" stroke-linecap="round"/>
<path d="M1.8 4C1.45522 4 1.12456 4.13696 0.880761 4.38076C0.636964 4.62456 0.5 4.95522 0.5 5.3V10.7C0.5 10.8707 0.533625 11.0398 0.598957 11.1975C0.664288 11.3552 0.760045 11.4985 0.880761 11.6192C1.00148 11.74 1.14479 11.8357 1.30251 11.901C1.46023 11.9664 1.62928 12 1.8 12H3.2C3.37072 12 3.53977 11.9664 3.69749 11.901C3.85521 11.8357 3.99852 11.74 4.11924 11.6192C4.23996 11.4985 4.33571 11.3552 4.40104 11.1975C4.46637 11.0398 4.5 10.8707 4.5 10.7V5.3C4.5 4.95522 4.36304 4.62456 4.11924 4.38076C3.87544 4.13696 3.54478 4 3.2 4H1.8Z" stroke="white"/>
<path d="M11.5 4V9M11.5 14V18" stroke="white" stroke-linecap="round"/>
<path d="M10.8 9C10.4552 9 10.1246 9.13696 9.88076 9.38076C9.63696 9.62456 9.5 9.95522 9.5 10.3V12.7C9.5 13.0448 9.63696 13.3754 9.88076 13.6192C10.1246 13.863 10.4552 14 10.8 14H12.2C12.3707 14 12.5398 13.9664 12.6975 13.901C12.8552 13.8357 12.9985 13.74 13.1192 13.6192C13.24 13.4985 13.3357 13.3552 13.401 13.1975C13.4664 13.0398 13.5 12.8707 13.5 12.7V10.3C13.5 10.1293 13.4664 9.96023 13.401 9.80251C13.3357 9.64479 13.24 9.50148 13.1192 9.38076C12.9985 9.26004 12.8552 9.16429 12.6975 9.09896C12.5398 9.03363 12.3707 9 12.2 9H10.8Z" stroke="white"/>
</svg>
