<svg version="1.2" xmlns="http://www.w3.org/2000/svg" viewBox="0 0 1042 956" width="1042" height="956"><defs><clipPath clipPathUnits="userSpaceOnUse" id="cp1"><path d="m-197.66 455.18l702.42-702.42 717.9 717.9-702.42 702.42z"/></clipPath><linearGradient id="P" gradientUnits="userSpaceOnUse"/><linearGradient id="g1" x2="1" href="#P" gradientTransform="matrix(454.949,-386.081,450.119,530.41,133.543,499.742)"><stop stop-color="#fff" stop-opacity="1"/><stop offset="1" stop-color="#fff" stop-opacity=".44"/></linearGradient><linearGradient id="g2" x2="1" href="#P" gradientTransform="matrix(487.701,-409.69,453.978,540.422,121.512,511.258)"><stop stop-color="#fff" stop-opacity="1"/><stop offset="1" stop-color="#fff" stop-opacity=".44"/></linearGradient><linearGradient id="g3" x2="1" href="#P" gradientTransform="matrix(521.076,-432.928,455.714,548.501,110.735,524.126)"><stop stop-color="#fff" stop-opacity="1"/><stop offset="1" stop-color="#fff" stop-opacity=".44"/></linearGradient><linearGradient id="g4" x2="1" href="#P" gradientTransform="matrix(554.856,-455.434,454.925,554.235,101.349,538.208)"><stop stop-color="#fff" stop-opacity="1"/><stop offset="1" stop-color="#fff" stop-opacity=".44"/></linearGradient><linearGradient id="g5" x2="1" href="#P" gradientTransform="matrix(588.831,-476.932,451.71,557.691,93.607,553.596)"><stop stop-color="#fff" stop-opacity="1"/><stop offset="1" stop-color="#fff" stop-opacity=".44"/></linearGradient><linearGradient id="g6" x2="1" href="#P" gradientTransform="matrix(622.463,-496.904,446.169,558.909,87.855,569.988)"><stop stop-color="#fff" stop-opacity="1"/><stop offset="1" stop-color="#fff" stop-opacity=".44"/></linearGradient><linearGradient id="g7" x2="1" href="#P" gradientTransform="matrix(656.035,-515.388,438.298,557.908,83.87,587.721)"><stop stop-color="#fff" stop-opacity="1"/><stop offset="1" stop-color="#fff" stop-opacity=".44"/></linearGradient><linearGradient id="g8" x2="1" href="#P" gradientTransform="matrix(689.022,-531.849,428.153,554.681,82.081,606.65)"><stop stop-color="#fff" stop-opacity="1"/><stop offset="1" stop-color="#fff" stop-opacity=".44"/></linearGradient><linearGradient id="g9" x2="1" href="#P" gradientTransform="matrix(720.943,-545.944,415.879,549.187,82.517,626.545)"><stop stop-color="#fff" stop-opacity="1"/><stop offset="1" stop-color="#fff" stop-opacity=".44"/></linearGradient><linearGradient id="g10" x2="1" href="#P" gradientTransform="matrix(751.042,-557.108,401.354,541.068,85.478,647.578)"><stop stop-color="#fff" stop-opacity="1"/><stop offset="1" stop-color="#fff" stop-opacity=".44"/></linearGradient><linearGradient id="g11" x2="1" href="#P" gradientTransform="matrix(778.826,-565.189,385.018,530.552,91.014,669.551)"><stop stop-color="#fff" stop-opacity="1"/><stop offset="1" stop-color="#fff" stop-opacity=".44"/></linearGradient><linearGradient id="g12" x2="1" href="#P" gradientTransform="matrix(803.778,-570.245,367.52,518.031,99.012,692.201)"><stop stop-color="#fff" stop-opacity="1"/><stop offset="1" stop-color="#fff" stop-opacity=".44"/></linearGradient><linearGradient id="g13" x2="1" href="#P" gradientTransform="matrix(825.361,-572.372,349.196,503.542,109.719,715.638)"><stop stop-color="#fff" stop-opacity="1"/><stop offset="1" stop-color="#fff" stop-opacity=".44"/></linearGradient><linearGradient id="g14" x2="1" href="#P" gradientTransform="matrix(835.335,-588.681,331.457,470.335,94.795,711.472)"><stop stop-color="#fff" stop-opacity="1"/><stop offset="1" stop-color="#fff" stop-opacity=".44"/></linearGradient><linearGradient id="g15" x2="1" href="#P" gradientTransform="matrix(837.042,-611.295,317.807,435.17,64.258,689.982)"><stop stop-color="#fff" stop-opacity="1"/><stop offset="1" stop-color="#fff" stop-opacity=".44"/></linearGradient><linearGradient id="g16" x2="1" href="#P" gradientTransform="matrix(834.156,-629.782,363.513,481.479,34.044,666.268)"><stop stop-color="#fff" stop-opacity="1"/><stop offset="1" stop-color="#fff" stop-opacity=".44"/></linearGradient><linearGradient id="g17" x2="1" href="#P" gradientTransform="matrix(827.084,-643.755,414.946,533.115,4.086,640.699)"><stop stop-color="#fff" stop-opacity="1"/><stop offset="1" stop-color="#fff" stop-opacity=".44"/></linearGradient><linearGradient id="g18" x2="1" href="#P" gradientTransform="matrix(815.768,-652.873,472.806,590.773,-25.579,613.561)"><stop stop-color="#fff" stop-opacity="1"/><stop offset="1" stop-color="#fff" stop-opacity=".44"/></linearGradient><linearGradient id="g19" x2="1" href="#P" gradientTransform="matrix(800.734,-657.099,536.395,653.645,-54.914,585.072)"><stop stop-color="#fff" stop-opacity="1"/><stop offset="1" stop-color="#fff" stop-opacity=".44"/></linearGradient><linearGradient id="g20" x2="1" href="#P" gradientTransform="matrix(782.056,-656.347,605.33,721.268,-83.96,555.6)"><stop stop-color="#fff" stop-opacity="1"/><stop offset="1" stop-color="#fff" stop-opacity=".44"/></linearGradient><linearGradient id="g21" x2="1" href="#P" gradientTransform="matrix(760.092,-650.822,679.214,793.252,-112.834,525.631)"><stop stop-color="#fff" stop-opacity="1"/><stop offset="1" stop-color="#fff" stop-opacity=".44"/></linearGradient></defs><style>.a{fill:url(#g1)}.b{fill:url(#g2)}.c{fill:url(#g3)}.d{fill:url(#g4)}.e{fill:url(#g5)}.f{fill:url(#g6)}.g{fill:url(#g7)}.h{fill:url(#g8)}.i{fill:url(#g9)}.j{fill:url(#g10)}.k{fill:url(#g11)}.l{fill:url(#g12)}.m{fill:url(#g13)}.n{fill:url(#g14)}.o{fill:url(#g15)}.p{fill:url(#g16)}.q{fill:url(#g17)}.r{fill:url(#g18)}.s{fill:url(#g19)}.t{fill:url(#g20)}.u{fill:url(#g21)}</style><g style="opacity:.4"><g clip-path="url(#cp1)"><path fill-rule="evenodd" class="a" d="m536.5 819.2c-12.4 12.4-25.6 19.6-39.3 21.2-25.6 2.9-51.3-14.1-74.1-49l-0.5-0.8 51.9-297.5c3.7-21.2 4-46.6 0.8-69.8l-31.2-226.4c-6.2-44.8 0.9-93.7 16-111.2 4-4.6 8.3-6.9 12.9-6.9 39-0.4 77.3 45.6 105 126.1 53.4 155.4 54.8 396.1 3.3 536.6-12.7 34.6-28 60.9-44.8 77.7zm-109.2-29.6c21.8 33 45.8 49 69.4 46.3 30.4-3.5 58.9-37.5 80.4-95.9 51.2-139.7 49.7-379.1-3.4-533.6-27-78.6-63.7-123.5-100.7-123.2-3.2 0.1-6.4 1.9-9.5 5.4-14.4 16.7-21 64-15 107.7l31.2 226.4c3.3 23.6 3 49.5-0.8 71.2l-51.6 295.8z"/><path fill-rule="evenodd" class="b" d="m529.8 829.7c-14.7 14.7-30.4 22.9-46.3 23.7-28 1.4-55.1-19.5-78.2-60.5l-0.5-0.7 68.4-301.2c4.8-21.4 6.3-47.8 4.1-72.2l-21.7-238.6c-4.3-47.3 5.1-96.8 22-113.1 4.4-4.3 9-6.1 13.8-5.5 40.6 4.9 78.2 57.6 103.2 144.5 48.3 168.1 38.4 417.6-22.1 556.2-12.7 29.2-27.2 51.9-42.7 67.3zm-120.2-38.2c22.2 39 47.6 58.8 73.7 57.5 30.7-1.6 60.9-33 85.1-88.4 60.2-137.8 70-386 21.9-553.2-24.4-85.1-60.7-136.6-99.4-141.3-3.4-0.4-6.9 1-10.2 4.3-15.6 15.3-24.9 63.4-20.7 109.5l21.8 238.6c2.3 24.9 0.7 51.7-4.3 73.6z"/><path fill-rule="evenodd" class="c" d="m523.3 839.1c-17.5 17.5-35.9 26.4-54.5 26.2-30.6-0.3-59-25.6-82.2-73.1l-0.4-0.8 85.7-302.7c6.1-21.5 8.9-48.6 7.7-74.2l-11.3-250.1c-2.2-49.2 10.2-99.3 28.2-114.1 4.8-3.9 9.9-5.3 14.9-4 42 10.5 78.7 70 100.6 163.3 42.4 180.5 20.1 437.6-49.6 573.1-12.3 23.8-25.4 42.7-39.1 56.4zm-132.3-48.1c22.3 45.4 49.2 69.5 77.8 69.8 31 0.4 62.8-28.1 89.6-80.2 69.3-134.7 91.4-390.3 49.2-570-21.5-91.6-57-149.9-97.3-160-3.6-0.9-7.3 0.2-11 3.2-17 13.9-28.7 62.5-26.5 110.5l11.3 250c1.2 26.1-1.7 53.6-7.9 75.6l-85.2 301.1z"/><path fill-rule="evenodd" class="d" d="m517.3 846.5c-20.9 20.9-42.7 31-64.3 29.4-33.4-2.5-63-32.6-85.8-87l-0.3-0.7 103.7-302.1c7.4-21.5 11.6-49.1 11.6-75.8l0.1-260.5c0.1-51.6 14.9-100.7 34.5-114.2 5.3-3.6 10.9-4.5 16.2-2.5 43.2 16.5 78.5 82.9 96.9 182.4 35.6 192.6 0.1 455.9-79.1 586.8-10.8 18-22 32.7-33.5 44.2zm-145.6-58.5c22 52.3 50.2 81.1 81.6 83.4 31.7 2.4 64.1-22.3 93.7-71.4 78.7-130.1 113.9-392 78.5-583.7-18.1-97.8-52.4-163.1-94.1-179-3.9-1.5-7.9-0.8-12 2-18.3 12.6-32.5 61.1-32.6 110.5l-0.1 260.5c0 27.2-4.3 55.3-11.8 77.3l-103.2 300.4z"/><path fill-rule="evenodd" class="e" d="m512.3 851.9c-25.2 25.2-51.1 36.6-76.2 33.1-36.2-5-67-40.3-89-102l-0.3-0.8 122.6-298.9c8.8-21.3 14.5-49.3 15.8-76.9l12.5-269.8c2.4-52.6 20-101.3 40.8-113.4 6-3.4 12-3.7 17.6-0.8 44.2 22.8 77.8 96.3 92.2 201.6 28 204.3-21.5 472.3-110.4 597.3-8.4 11.7-16.9 22-25.5 30.6zm-160.8-69.6c21.1 58.7 51.3 93.6 85.2 98.3 31.8 4.4 65.5-17 97.4-61.9 88.4-124.2 137.5-390.7 109.7-594-14.2-103.9-47-176.2-89.8-198.3-4.2-2.2-8.7-2-13.3 0.7-19.3 11.1-36.2 59.3-38.6 109.7l-12.5 269.8c-1.3 28.1-7.1 56.7-16.1 78.4l-121.9 297.3z"/><path fill-rule="evenodd" class="f" d="m508.9 855c-30.6 30.5-61.7 43.5-90.8 37.4-38.7-8-71.3-50-91.7-118.3l-0.2-0.8 142.1-293.1c10.2-20.8 17.5-49.1 20.1-77.5l25.9-277.8c5-53.1 25.3-101.1 47.2-111.6 6.6-3.2 13.2-2.8 19.1 1 44.9 29.5 76.4 110.1 86.5 221 19.4 215.4-45 486.2-143.7 603.8q-7.2 8.6-14.5 15.9zm-177.9-81.3c19.9 66.1 51.2 106.7 88 114.4 32 6.6 66.9-11.4 101-51.9 98-116.8 162-386.1 142.6-600.5-9.9-109.6-40.7-188.9-84.4-217.6-4.6-3-9.6-3.3-14.8-0.8-20.6 10-39.8 56.4-44.6 108l-25.9 277.8c-2.7 28.9-10.2 57.8-20.5 79.1z"/><path fill-rule="evenodd" class="g" d="m507.5 855.6c-37.2 37.2-74.7 51.8-108.5 42.4-41.8-11.7-75.1-59.9-93.7-135.8l-0.2-0.8 162.3-284.5c11.5-20.3 20.5-48.6 24.6-77.6l40.3-284.3c7.6-53.8 30.1-99.6 53.4-108.9 7.5-2.9 14.7-1.8 20.9 3.1 45.4 36.6 74.4 124.1 79.6 240.3 10 225.7-70.1 497.5-178.7 606.1zm-197.6-93.6c18.2 73.8 50.3 120.5 90.3 131.7 32.1 9 68.1-5.3 104.1-41.2l0.1-0.1c107.8-107.8 187.3-378.1 177.3-602.7-5.1-114.9-33.5-201.3-77.9-237-4.9-3.9-10.5-4.8-16.4-2.4-21.6 8.5-43.4 53.8-50.7 105.4l-40.2 284.2c-4.2 29.6-13.4 58.5-25.2 79.2l-161.4 282.9z"/><path fill-rule="evenodd" class="h" d="m509 853.3q-9.4 9.4-19 17.3c-39 32.3-77.6 42.9-111.5 30.8-44.8-16-78.4-70.9-94.7-154.4l-0.2-0.9 182.9-272.8c13-19.4 23.7-47.5 29.4-77.1l55.5-288.9c10.3-53.4 35.3-97.7 59.7-105.4 8.4-2.6 16.3-0.7 22.9 5.6 45.5 43.8 71.5 138.3 71.4 259.3-0.3 222.4-86.8 476.9-196.4 586.5zm-220.6-106.2c16 81.4 48.5 134.7 91.6 150.1 32.3 11.6 69.4 1.2 107.2-30 117.5-97.1 213.4-366.4 213.7-600.4 0.1-119.8-25.4-213.1-70-256.1-5.4-5.2-11.6-6.7-18.5-4.5-22.5 7.1-46.8 50.9-56.6 101.9l-55.5 289c-5.8 30.1-16.8 58.8-30.1 78.6l-181.8 271.4z"/><path fill-rule="evenodd" class="i" d="m513.8 848.3c-13.9 14-28.2 25.9-42.7 35.5-40.9 27.3-80.4 33.7-114.4 18.5-47.6-21.2-81.2-82.9-94.6-173.9l-0.2-0.9 203.9-258.2c14.5-18.3 27-45.9 34.3-75.7l71.7-291.9c13-53 40-94.5 65.7-100.8 9.5-2.3 18.2 0.6 25 8.4 45.4 51.4 68 152.7 62.1 278-10.2 216-100.8 451-210.8 561zm-247.1-119.6c13.2 88.9 45.8 149.1 91.9 169.5 32.4 14.5 70.5 8.2 110-18.1 127.3-84.8 240.1-350.8 251.5-593 5.9-124.1-16.3-224.3-60.9-274.9-5.8-6.6-12.7-8.9-20.6-7-23.7 5.9-50 46.9-62.4 97.6l-71.8 291.8c-7.4 30.5-20.2 58.7-35.1 77.5z"/><path fill-rule="evenodd" class="j" d="m522.8 840.3q0 0 0 0 0 0 0 0zm-72.1 54.7c-42.6 22-83.2 23.9-117.2 5.5-50.3-27.3-83.3-96.3-93.2-194.3l-0.1-1 225-240c16-17 30.3-43.9 39.4-73.8l88.7-292.6c15.6-51.5 45-90.7 71.5-95.5 10.8-1.9 20.3 2.1 27.4 11.6 44.9 59.3 63.6 167.3 51.5 296.1-19.4 206.3-111.8 420.3-220.9 529.3-23.4 23.5-47.6 42-72.1 54.7zm-205.8-188.2c9.8 95.9 42 163.3 90.7 189.7 32.7 17.7 71.8 15.8 113.1-5.5 136.8-70.7 267.1-331.1 290.5-580.4 12.1-127.8-6.4-234.6-50.5-293-6.2-8.2-14-11.5-23.1-9.9-24.5 4.4-53.1 43.2-68 92.4l-88.7 292.6c-9.3 30.5-24 58.1-40.4 75.6l-223.6 238.5z"/><path fill-rule="evenodd" class="k" d="m536.9 829.3c-35 35-71.5 60.8-108 74.5-44.5 16.7-86.1 13.8-120.2-8.5-52.4-34.2-84.3-110.6-90-214.9l-0.1-1.1 246.3-218.4c17.4-15.5 33.6-41.4 44.5-71.1l106.5-291.2c18-49.4 49.7-86 77-89.1 12.2-1.4 22.6 3.9 30.1 15.3 43.9 67.4 58.3 181.6 39.5 313.5-27.5 193.1-119.1 384.6-225.6 491.1zm-313.7-148.2c5.8 102.4 37 177.1 87.9 210.3 32.9 21.5 73.1 24.3 116.2 8.1 146.1-54.8 294.4-306.9 330.7-562 18.7-130.7 4.5-243.9-38.8-310.4-6.5-10-15.2-14.5-25.8-13.3-25.6 2.9-55.8 38.4-73.3 86.2l-106.5 291.2c-11.1 30.4-27.8 57-45.8 73l-244.6 216.9z"/><path fill-rule="evenodd" class="l" d="m556.6 815.7c-48.6 48.7-100.3 82.2-150.9 94.3-46.5 11.2-89.2 2.9-123.5-23.8-53.8-42.1-83.9-125.7-84.9-235.5v-1.2l267.4-193.2c18.9-13.7 37-38.3 49.8-67.6l125-287.3c20.7-47.6 53.7-80.6 82.2-82 13.8-0.7 25.2 6.1 32.8 19.7 42.6 75.6 52.2 195.9 26.3 329.8-34.1 176.6-122.2 344.9-224.2 446.8zm-354.8-163.9h0.1q0 0 0 0zm83.1 230.8c33.1 25.9 74.5 33.9 119.7 23 154.9-37.2 321.6-278.3 371.7-537.5 25.6-133 16.2-252.1-25.8-326.8-6.7-12-16.7-18.1-28.7-17.4-26.8 1.3-58.3 33.2-78.3 79.3l-125 287.3c-13.1 30-31.8 55.3-51.3 69.4l-265.4 191.9c1.1 107.8 30.6 189.8 83.1 230.8z"/><path fill-rule="evenodd" class="m" d="m582.4 800.2c-64.4 64.3-134.5 105.9-201.1 113.1-48.9 5.3-92.8-8.8-127.1-40.8-54.4-50.6-82-141.3-77.7-255.5l0.1-1.2 288.1-164.3c20.4-11.6 40.5-34.6 55.1-63.2l144.1-280.8c23.3-45.4 57.5-74.5 87.1-74.1 15.6 0.2 28 8.7 35.8 24.7 40.7 84 45 209.8 11.6 345.1-38.7 157.1-120.9 301.9-216 397zm-401.4-181.8c-4 112.3 23.1 201.3 76.2 250.8 33.4 31.1 76.1 44.8 123.6 39.6 163.3-17.6 348.7-245 413.3-506.7 33.1-134.3 28.9-259-11.4-342.1-6.9-14.3-17.9-22-31.8-22.1-27.5-0.4-60.8 28.5-83 71.6l-144 280.8c-15.1 29.4-35.9 53.1-56.9 65.1z"/><path fill-rule="evenodd" class="n" d="m613.7 784.2c-81.6 81.6-173.8 131-258.1 129.3-51.5-1.1-96.8-21.8-131.1-59.9-53.8-59.7-78-157.1-68.1-274.2l0.1-1.3 308.5-131.5c21.8-9.3 43.8-30.4 60.5-58.1l163.6-271.4c25.4-42 61.3-67.7 91.5-65.5 17.4 1.3 31.2 12.1 38.9 30.5 38.5 92.5 36.9 223.3-4.3 358.9-41.2 135.5-115.5 257.2-201.5 343.2zm-453-203.1c-9.4 115.2 14.4 210.9 67.1 269.5 33.5 37.1 77.7 57.3 127.9 58.4 171.2 3.6 375.4-206.9 455.2-469.3 40.9-134.7 42.5-264.4 4.4-355.9-7.1-17-19.2-26.6-35.1-27.7-28.5-2.1-62.7 22.7-87.2 63.3l-163.7 271.4c-17.1 28.4-39.9 50.3-62.5 59.9z"/><path fill-rule="evenodd" class="o" d="m649.7 769.5c-100 100-217.7 156.1-320.9 140.7-141.3-21.2-218.3-170.9-191.7-372.5l0.2-1.4 328.3-94.8c23.1-6.7 47.1-25.6 65.7-51.9l183.7-259.2c27.6-39 64.2-60.5 95.3-56.2 19.7 2.8 34.6 15.9 42.1 37.2 35.8 100.9 28 236.1-21.5 371.1-41.3 112.5-106.3 212.1-181.2 287zm-508.3-229.7c-25.7 198.2 49.7 345.2 188 365.9 85.7 12.9 184.9-24.4 279.2-104.9 94.5-80.6 172-194.2 218.1-319.9 49.1-134 56.9-268.1 21.5-368-7-19.9-20.4-31.7-38.5-34.2-29.1-4.1-64.8 17.3-91 54.3l-183.7 259.1c-19.3 27.2-44.1 46.8-68.2 53.7l-325.4 94z"/><path fill-rule="evenodd" class="p" d="m689 758.3c-118.6 118.6-265.6 179-388 144.9-146.2-40.9-219.3-206.1-181.9-411.2l0.2-1.6 347.1-54.1c24.4-3.8 50.3-20.1 71-44.9l204-243.8c29.3-35 67.1-52.7 98.7-46.2 22 4.5 38.1 20.4 45.3 44.7 32.6 109.3 17.9 248.3-40.1 381.4-39.1 89.5-93.8 168.2-156.3 230.8zm-565.8-264c-36.3 202 35.5 364.5 179 404.5 88.8 24.8 194-0.4 296.3-71.1 102.4-70.8 188.6-178.1 242.7-302 57.6-132.2 72.2-270.1 40-378.3-6.8-22.7-21.6-37.4-42-41.6-29.9-6.2-66.1 10.9-94.3 44.7l-204 243.8c-21.4 25.5-48.3 42.5-73.8 46.5z"/><path fill-rule="evenodd" class="q" d="m730.8 751.3c-42.9 42.9-90.8 79.1-142 106.8-111.2 60.1-223.6 72.2-316.4 34.1-150.4-61.9-218.7-242.7-170-450l0.4-1.7 364.7-9.5c25.7-0.6 53.2-14.2 76.2-36.9l224.4-225.1 0.2-0.2c30.8-30.8 69.7-44.4 101.6-35.5 24.5 6.8 41.6 25.7 48.4 53.1 28.7 117.6 6.8 259.6-60.2 389.7-33.7 65.6-77.1 125-127.3 175.2zm-624.4-306.4c-47.5 204.4 19.8 382.3 167.7 443.1 91.6 37.6 202.5 25.6 312.6-33.8 110.2-59.6 205.2-159.1 267.5-280.2 66.4-129.1 88.2-270 59.7-386.5-6.3-25.8-22.4-43.5-45.2-49.9-30.3-8.5-67.5 4.7-97.2 34.4l-0.2 0.2-224.4 225.1-0.2 0.1c-23.5 23.6-52.3 37.4-79 38.1z"/><path fill-rule="evenodd" class="r" d="m771.9 752.6c-57.6 57.6-124.8 102.7-197.2 131.5-118.9 47.4-236.6 44.8-331.6-7.1-153.8-84.2-216.4-280.6-155.7-488.7l0.5-1.8 381 39.3c26.8 2.7 56.4-7.5 81.2-28.1l244.9-203c32.7-27.1 71.7-36.4 104.3-24.7 26.7 9.5 45.3 32.4 51.2 62.6 24.4 125.6-5.2 269.8-81.3 395.5-27.7 45.9-60.6 87.8-97.3 124.5zm-680.8-361.2c-59.2 205.4 2.7 398.8 154.2 481.7 93.7 51.2 210.1 53.7 327.7 6.9 117.8-46.9 221.7-137.2 292.4-254.2 75.4-124.8 104.9-267.8 80.7-392.3-5.6-29.1-22.8-50.2-48.3-59.3-31.1-11.1-68.5-2.1-100 24l-244.8 203c-25.8 21.3-56.6 31.9-84.5 29z"/><path fill-rule="evenodd" class="s" d="m812.4 761.6c-71.6 71.6-159 122.9-253.6 147.6-126.3 33.1-249 14.6-345.5-51.9-156.4-107.7-212.3-319.4-139.1-526.7l0.7-1.9 395.7 91.8c27.8 6.4 59.2-0.2 86-18.2l265.2-177.3c34.1-22.8 74-27.7 106.8-13.2 29 12.9 48.5 39.6 53.4 73 19.4 133.4-18.4 278.7-103.7 398.7-20 28.2-42 54.3-65.9 78.1zm-734.6-427.7c-71.5 204.8-16.2 413.5 138.1 519.7 95.4 65.8 216.8 84 341.7 51.3 125.1-32.8 237.7-112.3 317.1-224 84.6-119.1 122.1-263.2 102.9-395.4-4.7-32-23.2-57.3-50.8-69.6-31.4-13.9-69.7-9.2-102.5 12.8l-265.1 177.4c-27.9 18.6-60.6 25.5-89.6 18.7z"/><path fill-rule="evenodd" class="t" d="m851.8 778.6c-85 84.9-193.7 139.2-310.9 154.4-133.2 17.3-260.2-18.2-357.7-100-157.9-132.5-206.1-359.2-119.9-564l0.8-2 2 0.7 406.5 147.5c28.7 10.4 61.8 7.8 90.6-7.2l285.1-148.1c35.4-18.4 76.2-18.8 109.1-0.9 31.3 16.9 51.3 47.6 54.9 84.1 14 140.7-32.4 286.2-127.1 399.1-10.7 12.7-21.8 24.8-33.4 36.4zm-785.2-505.9c-84.3 202.5-36.4 426.1 119.5 556.9 96.5 81 222.3 116.1 354.3 99 132-17.1 253.3-84.4 341.4-189.3 93.9-112 139.9-256.2 126.1-395.7-3.5-35.1-22.6-64.5-52.6-80.7-31.6-17.1-70.8-16.8-104.9 1l-285.1 148.1c-30 15.6-64.3 18.3-94.2 7.4z"/><path fill-rule="evenodd" class="u" d="m889.5 803.8c-97.7 97.7-228.5 151.5-368.3 151.5-139.7 0-270.5-53.8-368.3-151.5-158.3-158.4-197.8-399.5-98.1-600.1l1-2 419.1 208.3c29.5 14.7 64.1 16.4 95 4.7l304.5-115.1c37.3-14.1 78-9.7 111.5 12.1 33.1 21.7 53.3 56.5 55.3 95.8 7.9 147.6-47.4 292.1-151.7 396.3zm-831.6-596.1c-97.6 198.4-58.3 436.5 98.2 592.9 96.9 96.9 226.6 150.3 365.1 150.3 138.6 0 268.3-53.4 365.1-150.2 103.4-103.4 158.2-246.6 150.5-392.9-2-37.8-21.5-71.5-53.4-92.3-32.3-21-71.4-25.3-107.5-11.7l-304.4 115.1c-32 12.1-68 10.3-98.6-4.9z"/></g></g></svg>