<svg width="28" height="24" viewBox="0 0 28 24" fill="none" xmlns="http://www.w3.org/2000/svg">
<g id="Group">
<g id="Group_2">
<path id="Vector" d="M22.1596 0.728577L27.2053 7.76795L13.9978 23.2713L0.790283 7.76795L5.83462 0.728577H22.1596Z" fill="#FFE8CD"/>
<g id="Group_3">
<path id="Vector_2" d="M22.0811 10.9348L13.8385 0.728378H11.9924L21.1276 11.8884L22.0811 10.9348Z" fill="#EDA145"/>
<path id="Vector_3" d="M19.8863 12.5298L10.0005 0.728477H5.83451L5.03564 1.84377L18.9313 13.4848L19.8863 12.5298Z" fill="#EDA145"/>
<path id="Vector_4" d="M18.195 14.4639L4.28369 2.89244L3.43091 4.08435L17.2415 15.4189L18.195 14.4639Z" fill="#EDA145"/>
<path id="Vector_5" d="M23.4672 9.54853L16.3441 0.728378H15.426L23.0145 10.0012L23.4672 9.54853Z" fill="#EDA145"/>
</g>
<path id="Vector_6" d="M20.5316 9.44918L13.9974 23.2711L7.46313 9.44918H20.5316Z" fill="#FFE8CD"/>
<path id="Vector_7" d="M7.46357 9.44899L0.790283 7.76754L13.9978 23.2709L7.46357 9.44899Z" fill="#FFE8CD"/>
<path id="Vector_8" d="M13.9983 23.2709L20.5325 9.44899L27.2058 7.76754L13.9983 23.2709Z" fill="#EDA145"/>
<path id="Vector_9" d="M5.83462 0.728577H11.3557L7.46357 9.4494L0.790283 7.76795L5.83462 0.728577Z" fill="#EDA145"/>
<path id="Vector_10" d="M22.1596 0.728577H16.6399L20.5306 9.4494L27.2053 7.76795L22.1596 0.728577Z" fill="#FAFAFA"/>
<path id="Vector_11" opacity="0.1" d="M20.532 8.52667H7.46357L0.790283 7.76754L7.46357 9.44899H20.532L27.2053 7.76754L20.532 8.52667Z" fill="white"/>
</g>
<path id="Vector_12" d="M8.53059 8.1718L11.0677 8.75498L8.53059 9.33959L7.9474 11.8767L7.36422 9.33959L4.82715 8.75498L7.36422 8.1718L7.9474 5.63473L8.53059 8.1718Z" fill="white"/>
<path id="Vector_13" d="M20.5 9.75072L21.9559 10.0856L20.5 10.4205L20.1652 11.8777L19.8303 10.4205L18.373 10.0856L19.8303 9.75072L20.1652 8.29488L20.5 9.75072Z" fill="white"/>
<g id="Vector_14" style="mix-blend-mode:multiply" opacity="0.11">
<path d="M13.9976 20.0357L0.790039 7.76754L13.9976 23.2709L27.2051 7.76754L13.9976 20.0357Z" fill="black"/>
</g>
</g>
</svg>
