<svg width="30" height="30" viewBox="0 0 30 30" fill="none" xmlns="http://www.w3.org/2000/svg">
<path d="M15.2618 6.94516L18.228 3.31966C18.228 3.31966 23.3089 3.42745 28.3718 5.78097C27.0755 7.74104 24.5028 8.70041 24.5028 8.70041C24.3294 6.97839 23.1229 6.55799 19.2862 6.55799L15.2627 29.2677L11.2112 6.5535C7.40238 6.5535 6.19593 6.9748 6.02256 8.69592C6.02256 8.69592 3.44888 7.74643 2.1535 5.78546C7.21553 3.43194 12.2973 3.32415 12.2973 3.32415L15.2636 6.94516H15.2591H15.2618ZM15.2618 2.27584C19.3509 2.23812 24.0347 2.90734 28.83 5.00305C29.4714 3.84246 29.6348 3.33313 29.6348 3.33313C24.395 1.25539 19.4865 0.540348 15.2618 0.521484C11.037 0.540348 6.12856 1.25179 0.888672 3.33313C0.888672 3.33313 1.12223 3.96463 1.69356 5.00844C6.48968 2.90285 11.1726 2.23901 15.2618 2.27135V2.27584Z" fill="black"/>
</svg>
