<svg width="99" height="100" viewBox="0 0 99 100" fill="none" xmlns="http://www.w3.org/2000/svg">
<path d="M49.4532 0.329102C22.2389 0.329102 0.0625 22.5055 0.0625 49.7198C0.0625 76.9341 22.2389 99.1106 49.4532 99.1106C76.6675 99.1106 98.844 76.9341 98.844 49.7198C98.844 22.5055 76.6675 0.329102 49.4532 0.329102ZM73.062 38.36L45.0575 66.3645C44.366 67.056 43.4276 67.4511 42.4398 67.4511C41.4519 67.4511 40.5135 67.056 39.8221 66.3645L25.8445 52.3869C24.4121 50.9546 24.4121 48.5839 25.8445 47.1515C27.2768 45.7192 29.6476 45.7192 31.0799 47.1515L42.4398 58.5114L67.8266 33.1246C69.2589 31.6922 71.6297 31.6922 73.062 33.1246C74.4944 34.5569 74.4944 36.8783 73.062 38.36Z" fill="#23A26D"/>
</svg>
