<svg width="49" height="49" viewBox="0 0 49 49" fill="none" xmlns="http://www.w3.org/2000/svg">
<g id="Twitter">
<circle id="Ellipse 10" cx="24.5" cy="24.4102" r="24" fill="#221F1F"/>
<path id="Vector" fill-rule="evenodd" clip-rule="evenodd" d="M19.3762 26.4388C19.4145 26.4506 19.4535 26.4597 19.493 26.4662C19.7434 27.0561 19.9923 27.6466 20.2398 28.2376C20.6849 29.3012 21.1335 30.3966 21.2317 30.7116C21.3547 31.0992 21.4839 31.3628 21.6255 31.5433C21.6989 31.6354 21.783 31.7168 21.8821 31.7787C21.9341 31.8102 21.9892 31.8363 22.0466 31.8566C22.3298 31.9627 22.5881 31.9185 22.7501 31.8645C22.8451 31.8322 22.9356 31.7876 23.019 31.7318L23.0235 31.73L25.524 30.171L28.4129 32.3848C28.4554 32.4172 28.5014 32.4447 28.5509 32.4671C28.8978 32.6175 29.234 32.6706 29.5508 32.6281C29.8658 32.5839 30.1162 32.452 30.3029 32.3025C30.5171 32.1295 30.688 31.909 30.8019 31.6584L30.8099 31.6389L30.8126 31.6318L30.8143 31.6283V31.6265L30.8152 31.6256C30.8297 31.5873 30.8415 31.5479 30.8506 31.5079L33.4874 18.2135C33.4947 18.1708 33.4988 18.1276 33.4998 18.0843C33.4998 17.695 33.3529 17.3243 33.0087 17.1004C32.7132 16.9084 32.3849 16.8995 32.1769 16.9155C31.954 16.9332 31.7469 16.988 31.608 17.0323C31.5304 17.0573 31.4537 17.0851 31.378 17.1154L31.3682 17.1199L16.5793 22.9208L16.5775 22.9216C16.5274 22.9398 16.4781 22.9601 16.4298 22.9827C16.3125 23.0353 16.2 23.0981 16.0935 23.1703C15.8927 23.3074 15.4299 23.6844 15.5087 24.3073C15.5706 24.8028 15.9104 25.108 16.1183 25.2549C16.2316 25.3354 16.3395 25.3929 16.4192 25.431C16.4546 25.4487 16.5307 25.4788 16.5634 25.4929L16.5722 25.4956L19.3762 26.4388ZM31.8858 18.3409H31.8841L31.8611 18.3507L17.0545 24.1595L17.0315 24.1684L17.0226 24.171C16.9955 24.1815 16.9689 24.1933 16.943 24.2064C16.9677 24.2203 16.9931 24.233 17.0191 24.2444L19.7992 25.1806C19.8483 25.1988 19.8956 25.2213 19.9408 25.2478L29.1225 19.8725L29.1314 19.8681C29.1672 19.8468 29.2038 19.8267 29.2411 19.808C29.3048 19.7752 29.4066 19.7274 29.5216 19.692C29.6012 19.6673 29.8375 19.5974 30.0923 19.6797C30.2277 19.7219 30.3484 19.8015 30.4404 19.9094C30.5325 20.0173 30.5922 20.149 30.6126 20.2893C30.6455 20.4121 30.6464 20.5412 30.6152 20.6645C30.5533 20.9078 30.3834 21.0971 30.2286 21.2422C30.0958 21.3661 28.374 23.026 26.676 24.6647L24.364 26.8945L23.9525 27.2927L29.1482 31.2761C29.2184 31.3054 29.2945 31.3176 29.3703 31.3115C29.4085 31.3063 29.4444 31.2903 29.4738 31.2655C29.5096 31.2352 29.5404 31.1993 29.565 31.1593L29.5667 31.1584L32.1239 18.2639C32.0434 18.2837 31.9645 18.3092 31.8876 18.34L31.8858 18.3409ZM24.3994 29.3074L23.3624 28.5128L23.1111 30.1099L24.3994 29.3074ZM22.4112 26.9361L23.442 25.9406L25.754 23.7091L26.615 22.8792L20.8459 26.2565L20.8769 26.3291C21.2407 27.1886 21.6006 28.0499 21.9564 28.9128L22.2068 27.3201C22.2296 27.1724 22.3017 27.0377 22.4112 26.9361Z" fill="url(#paint0_linear_2846_29963)"/>
</g>
<defs>
<linearGradient id="paint0_linear_2846_29963" x1="15.4998" y1="24.7762" x2="33.4998" y2="24.7762" gradientUnits="userSpaceOnUse">
<stop stop-color="#FEF9CC"/>
<stop offset="0.4" stop-color="#F6DBD4"/>
<stop offset="0.75" stop-color="#F1C8D9"/>
<stop offset="1" stop-color="#F0C2DB"/>
</linearGradient>
</defs>
</svg>
