<svg width="32" height="32" viewBox="0 0 32 32" fill="none" xmlns="http://www.w3.org/2000/svg">
<path d="M30.9247 8.61703C30.8491 8.43429 30.7209 8.27808 30.5565 8.16817C30.3921 8.05826 30.1988 7.99957 30.001 7.99953H26.1972C25.6654 7.09475 24.9085 6.34297 24.0002 5.81728C23.0918 5.29159 22.0629 5.00988 21.0135 4.99953C20.2316 4.98927 19.4556 5.1355 18.7311 5.42959C18.0066 5.72369 17.3482 6.15972 16.7947 6.71203C16.2251 7.27106 15.7729 7.93834 15.4649 8.67464C15.1568 9.41093 14.9991 10.2014 15.001 10.9995V11.7608C9.96848 10.4333 5.85223 6.33953 5.80848 6.29578C5.67431 6.16043 5.50427 6.06623 5.31837 6.02429C5.13247 5.98234 4.93846 5.99438 4.75917 6.05901C4.57989 6.12363 4.4228 6.23813 4.30642 6.38904C4.19003 6.53994 4.11918 6.72096 4.10223 6.91078C3.56348 12.8845 5.29848 16.882 6.85223 19.1833C7.60982 20.3209 8.53146 21.3402 9.58723 22.2083C7.68348 24.3995 4.68598 25.5508 4.65348 25.5633C4.51237 25.6161 4.38503 25.7002 4.28097 25.8092C4.17691 25.9181 4.09883 26.0492 4.05255 26.1926C4.00628 26.336 3.993 26.488 4.01373 26.6373C4.03445 26.7865 4.08863 26.9292 4.17223 27.0545C4.26598 27.1945 4.64098 27.6858 5.55723 28.1445C6.68973 28.712 8.18598 28.9995 10.001 28.9995C18.8347 28.9995 26.216 22.197 26.9697 13.4445L30.7085 9.70703C30.8483 9.5671 30.9435 9.38885 30.9819 9.19483C31.0204 9.00081 31.0005 8.79973 30.9247 8.61703ZM25.2997 12.2933C25.1283 12.4651 25.0252 12.6935 25.0097 12.9358C24.501 20.822 17.911 26.9995 10.001 26.9995C8.68098 26.9995 7.75098 26.8245 7.09848 26.6145C8.53723 25.8333 10.5435 24.4895 11.8335 22.5545C11.9092 22.4407 11.9608 22.3127 11.9851 22.1782C12.0093 22.0437 12.0058 21.9056 11.9746 21.7726C11.9435 21.6395 11.8854 21.5142 11.8039 21.4045C11.7224 21.2947 11.6193 21.2029 11.501 21.1345C11.4422 21.1008 6.01223 17.842 6.00098 9.13453C8.00098 10.7595 11.6572 13.2808 15.8347 13.9833C15.9779 14.0074 16.1246 14.0001 16.2647 13.9618C16.4047 13.9235 16.5348 13.8552 16.6457 13.7616C16.7567 13.668 16.846 13.5513 16.9073 13.4197C16.9687 13.2881 17.0006 13.1447 17.001 12.9995V10.9995C16.9999 10.4661 17.1054 9.93782 17.3115 9.44579C17.5176 8.95377 17.82 8.50793 18.201 8.13453C18.5662 7.76865 19.001 7.4797 19.4798 7.28475C19.9586 7.0898 20.4716 6.99282 20.9885 6.99953C22.571 7.01953 24.0497 7.98453 24.6685 9.40078C24.7465 9.57884 24.8747 9.7303 25.0374 9.83664C25.2001 9.94298 25.3903 9.99958 25.5847 9.99953H27.5847L25.2997 12.2933Z" fill="white"/>
</svg>
