<svg width="32" height="32" viewBox="0 0 32 32" fill="none" xmlns="http://www.w3.org/2000/svg">
<path d="M22.666 29.3334H9.33268C3.99935 29.3334 2.66602 28 2.66602 22.6667V20C2.66602 14.6667 3.99935 13.3334 9.33268 13.3334H22.666C27.9993 13.3334 29.3327 14.6667 29.3327 20V22.6667C29.3327 28 27.9993 29.3334 22.666 29.3334Z" stroke="#626262" stroke-width="2" stroke-linecap="round" stroke-linejoin="round"/>
<path d="M8 13.3333V10.6666C8 6.25329 9.33333 2.66663 16 2.66663C22 2.66663 24 5.33329 24 9.33329" stroke="#626262" stroke-width="2" stroke-linecap="round" stroke-linejoin="round"/>
<path d="M15.9993 24.6667C17.8403 24.6667 19.3327 23.1743 19.3327 21.3333C19.3327 19.4924 17.8403 18 15.9993 18C14.1584 18 12.666 19.4924 12.666 21.3333C12.666 23.1743 14.1584 24.6667 15.9993 24.6667Z" stroke="#626262" stroke-width="2" stroke-linecap="round" stroke-linejoin="round"/>
</svg>
