<svg width="24" height="22" viewBox="0 0 24 22" fill="none" xmlns="http://www.w3.org/2000/svg">
<path fill-rule="evenodd" clip-rule="evenodd" d="M6.03338 11.4597C6.25065 11.6771 6.3727 11.9718 6.3727 12.2791C6.3727 12.5864 6.25065 12.8811 6.03338 13.0985L3.9554 15.1765H15.065C15.3724 15.1765 15.6672 15.2986 15.8845 15.5159C16.1018 15.7332 16.2239 16.028 16.2239 16.3354C16.2239 16.6428 16.1018 16.9375 15.8845 17.1549C15.6672 17.3722 15.3724 17.4943 15.065 17.4943H3.9554L6.03338 19.5723C6.14407 19.6792 6.23236 19.8071 6.2931 19.9485C6.35384 20.0899 6.38581 20.242 6.38715 20.3959C6.38848 20.5497 6.35916 20.7023 6.30089 20.8448C6.24261 20.9872 6.15656 21.1166 6.04774 21.2254C5.93893 21.3342 5.80953 21.4203 5.6671 21.4786C5.52467 21.5368 5.37206 21.5662 5.21818 21.5648C5.0643 21.5635 4.91222 21.5315 4.77082 21.4708C4.62943 21.41 4.50155 21.3217 4.39464 21.2111L0.338345 17.1548C0.121078 16.9374 -0.000976562 16.6427 -0.000976562 16.3354C-0.000976563 16.0281 0.121078 15.7334 0.338345 15.516L4.39464 11.4597C4.61197 11.2425 4.9067 11.1204 5.21401 11.1204C5.52132 11.1204 5.81604 11.2425 6.03338 11.4597ZM17.143 1.02926C17.3603 0.811996 17.655 0.689941 17.9624 0.689941C18.2697 0.689941 18.5644 0.811996 18.7817 1.02926L22.838 5.08556C23.0553 5.30289 23.1773 5.59762 23.1773 5.90493C23.1773 6.21224 23.0553 6.50696 22.838 6.7243L18.7817 10.7806C18.5631 10.9917 18.2704 11.1085 17.9665 11.1059C17.6627 11.1032 17.372 10.9813 17.1571 10.7665C16.9422 10.5516 16.8203 10.2609 16.8177 9.95705C16.8151 9.65318 16.9319 9.36043 17.143 9.14185L19.221 7.06387H8.11136C7.80399 7.06387 7.50921 6.94176 7.29186 6.72442C7.07452 6.50708 6.95242 6.2123 6.95242 5.90493C6.95242 5.59756 7.07452 5.30277 7.29186 5.08543C7.50921 4.86809 7.80399 4.74599 8.11136 4.74599H19.221L17.143 2.66801C16.9257 2.45067 16.8037 2.15594 16.8037 1.84863C16.8037 1.54133 16.9257 1.2466 17.143 1.02926Z" fill="#626262"/>
</svg>
