<svg width="434" height="251" viewBox="0 0 434 251" fill="none" xmlns="http://www.w3.org/2000/svg">
<g clip-path="url(#clip0_1654_971)">
<path d="M177.316 244.557L423.621 102.365C429.077 99.2151 429.087 94.114 423.643 90.9713L275.967 5.71755C270.523 2.57477 261.687 2.58074 256.23 5.73062L9.92543 147.922C4.46915 151.072 4.45888 156.173 9.90281 159.316L157.579 244.57C163.023 247.713 171.859 247.707 177.316 244.557Z" fill="url(#paint0_linear_1654_971)"/>
<mask id="mask0_1654_971" style="mask-type:alpha" maskUnits="userSpaceOnUse" x="5" y="3" width="423" height="244">
<path d="M177.318 244.557L423.623 102.365C429.079 99.2151 429.089 94.114 423.645 90.9713L275.969 5.71755C270.525 2.57477 261.689 2.58074 256.232 5.73062L9.92739 147.922C4.47111 151.072 4.46083 156.173 9.90476 159.316L157.581 244.57C163.025 247.713 171.861 247.707 177.318 244.557Z" fill="#232323"/>
</mask>
<g mask="url(#mask0_1654_971)">
<path opacity="0.5" d="M375.74 104.208C382.508 108.116 393.522 108.093 400.339 104.158C407.156 100.222 407.196 93.8639 400.427 89.9563C393.659 86.0489 382.645 86.0718 375.828 90.0074C369.011 93.9431 368.971 100.301 375.74 104.208Z" fill="#717171"/>
<path d="M360.834 95.6017C367.602 99.5091 378.616 99.4864 385.433 95.5507C392.25 91.6151 392.29 85.257 385.521 81.3495C378.753 77.4421 367.739 77.4648 360.922 81.4005C354.104 85.3361 354.065 91.6943 360.834 95.6017Z" fill="#717171"/>
<path d="M241.09 158.726C283.252 183.066 283.442 222.564 241.504 246.775L207.925 227.389C231.445 213.811 231.336 191.661 207.693 178.011C184.049 164.361 145.675 164.301 122.159 177.877L88.5798 158.492C130.513 134.278 198.928 134.386 241.09 158.726ZM29.3131 212.087C71.475 236.427 139.894 236.537 181.832 212.326L148.252 192.94C124.732 206.519 86.363 206.456 62.7191 192.806C39.071 179.154 38.971 157.004 62.4868 143.428L28.8989 124.038C-13.0346 148.246 -12.853 187.744 29.3131 212.087Z" fill="url(#paint1_linear_1654_971)"/>
<path d="M274.612 22.6331C278.955 25.1401 279.05 29.1647 274.824 31.6046L271.365 29.6079C273.735 28.2395 273.682 25.9826 271.246 24.5767C268.811 23.1708 264.901 23.14 262.531 24.5082L259.073 22.5115C263.299 20.0713 270.269 20.1261 274.612 22.6331ZM253.137 27.9342C257.48 30.4412 264.451 30.4963 268.677 28.0564L265.219 26.0597C262.849 27.4281 258.939 27.3971 256.504 25.9912C254.068 24.585 254.015 22.3281 256.385 20.9599L252.925 18.9627C248.699 21.4024 248.794 25.4269 253.137 27.9342Z" fill="url(#paint2_linear_1654_971)"/>
<path d="M286.065 35.8045C286.32 35.4281 286.426 35.0558 286.383 34.6877C286.341 34.3195 286.167 33.9596 285.86 33.608C285.553 33.2564 285.14 32.9307 284.621 32.6308C284.101 32.331 283.533 32.0873 282.914 31.899C282.296 31.7112 281.658 31.6024 281.002 31.5725C280.345 31.5427 279.686 31.5987 279.025 31.7404C278.364 31.8825 277.726 32.131 277.112 32.4854C276.498 32.8398 276.067 33.2081 275.821 33.5898C275.576 33.9718 275.479 34.352 275.53 34.731C275.582 35.11 275.771 35.4781 276.096 35.8353C276.421 36.1925 276.844 36.5209 277.363 36.8208C277.779 37.0607 278.223 37.2647 278.695 37.4339C279.168 37.6027 279.656 37.7266 280.162 37.8055C280.666 37.8847 281.19 37.9063 281.734 37.8703C282.277 37.8353 282.827 37.7326 283.385 37.5635L282.28 36.7294C281.553 36.9205 280.884 36.9548 280.275 36.8324C279.666 36.7094 279.082 36.493 278.526 36.1823C277.864 35.8117 277.487 35.3976 277.393 34.9392C277.299 34.4812 277.554 34.0178 278.159 33.5488C278.161 33.5477 278.163 33.5465 278.165 33.5454L278.168 33.5469C278.168 33.5469 278.163 33.5484 278.16 33.5492L284.335 37.1139C284.448 37.07 284.522 37.0389 284.555 37.0195L284.76 36.9011C285.374 36.5466 285.809 36.181 286.065 35.8049L286.065 35.8045ZM279.331 32.9654C279.424 32.9347 279.517 32.9065 279.612 32.8814C280.118 32.7476 280.608 32.6793 281.086 32.677C281.563 32.6739 282.016 32.7284 282.445 32.84C282.875 32.9518 283.246 33.0978 283.558 33.2775C284.2 33.659 284.572 34.0679 284.677 34.5042C284.768 34.8906 284.575 35.2944 284.094 35.7155L279.331 32.9654Z" fill="white"/>
<path d="M288.26 34.8299L290.03 35.8519L289.561 38.1504C289.542 38.2159 289.502 38.2796 289.441 38.3426C289.379 38.4051 289.306 38.4613 289.221 38.5104L289.25 38.5269C289.439 38.4178 289.651 38.3549 289.888 38.3383L293.855 38.0591L295.611 39.0729L289.348 39.5163L288.523 43.1647L286.781 42.1591L287.293 39.8198C287.312 39.7542 287.354 39.6887 287.42 39.6235C287.486 39.5583 287.557 39.5032 287.632 39.4598L287.604 39.4433C287.528 39.4871 287.431 39.5265 287.313 39.5617C287.194 39.5973 287.079 39.6206 286.966 39.6311L282.928 39.9346L281.172 38.9209L287.506 38.4531L288.26 34.8291L288.26 34.8299Z" fill="white"/>
<path d="M294.76 40.0223L296.064 39.2696L296.333 39.425C296.493 39.5174 296.728 39.5762 297.034 39.6005C297.341 39.6247 297.67 39.6179 298.019 39.58C298.368 39.5417 298.718 39.4761 299.068 39.3835C299.417 39.2906 299.715 39.1733 299.961 39.0313L301.377 39.8324C300.961 40.0508 300.491 40.2127 299.967 40.3192C299.443 40.4257 298.906 40.4464 298.359 40.3806C298.16 40.3537 297.957 40.2987 297.75 40.2171C297.541 40.1352 297.353 40.0618 297.183 39.9963L297.154 40.0128C297.324 40.0779 297.506 40.1558 297.7 40.246C297.893 40.3358 298.061 40.4215 298.203 40.5035L300.71 41.9508L299.406 42.7035L297.607 41.665L293.836 43.8419C293.524 44.0221 293.394 44.1839 293.446 44.3285C293.498 44.473 293.633 44.6078 293.85 44.7332L295.21 45.5183L293.906 46.271L292.617 45.5267C292.154 45.2594 291.821 45.0157 291.619 44.7948C291.416 44.5742 291.329 44.3627 291.357 44.1612C291.385 43.9593 291.518 43.7548 291.755 43.5476C291.991 43.3401 292.312 43.1194 292.719 42.8849L296.22 40.8635L294.761 40.0212L294.76 40.0223Z" fill="white"/>
<path d="M297.718 45.8382C297.302 46.1548 297.181 46.4694 297.356 46.7832C297.531 47.0966 297.935 47.4362 298.567 47.8012C299.247 48.1936 299.861 48.4335 300.409 48.5206C300.957 48.6077 301.462 48.5177 301.925 48.2502C302.152 48.1195 302.178 47.9487 302.003 47.7386C301.828 47.5289 301.569 47.2946 301.225 47.0351C300.88 46.776 300.498 46.4956 300.078 46.1931C299.657 45.8905 299.311 45.5892 299.037 45.2896C298.763 44.9897 298.614 44.6912 298.591 44.3939C298.568 44.0965 298.773 43.8223 299.208 43.5713C299.548 43.3749 299.903 43.2438 300.271 43.1785C300.64 43.1133 301.004 43.0911 301.362 43.1131C301.721 43.1351 302.075 43.189 302.425 43.2761C302.774 43.3633 303.096 43.464 303.389 43.5785C303.681 43.6927 303.948 43.8117 304.189 43.9341C304.43 44.0566 304.621 44.1588 304.763 44.2407C305.037 44.3987 305.324 44.5949 305.627 44.8293C305.929 45.0637 306.172 45.3156 306.356 45.586C306.54 45.8556 306.629 46.1312 306.625 46.4118C306.619 46.6926 306.447 46.9642 306.107 47.2257L304.662 46.6043C304.983 46.3313 305.05 46.0616 304.861 45.7946C304.672 45.5276 304.267 45.2139 303.643 44.8541C303.02 44.4943 302.437 44.2506 301.951 44.1549C301.464 44.0599 300.998 44.1401 300.554 44.3964C300.328 44.5272 300.299 44.6994 300.468 44.9118C300.638 45.1244 300.893 45.3614 301.233 45.6232C301.574 45.8849 301.955 46.1657 302.38 46.4652C302.805 46.7651 303.155 47.065 303.428 47.3645C303.702 47.6644 303.855 47.9603 303.888 48.252C303.921 48.5438 303.72 48.815 303.285 49.066C302.746 49.377 302.179 49.5434 301.584 49.5656C300.989 49.5875 300.422 49.5333 299.884 49.4024C299.346 49.2714 298.862 49.1067 298.432 48.908C298.002 48.7092 297.674 48.5441 297.447 48.4131C297.315 48.3367 297.15 48.2304 296.952 48.0941C296.754 47.9578 296.558 47.8036 296.365 47.6321C296.171 47.4602 295.996 47.2749 295.841 47.0757C295.685 46.8768 295.581 46.6694 295.53 46.454C295.477 46.2387 295.494 46.0245 295.58 45.8117C295.665 45.5994 295.85 45.3948 296.133 45.1981L297.72 45.836L297.718 45.8382Z" fill="white"/>
<path d="M308.246 46.367L309.733 47.2254L306.911 50.9645C306.826 51.09 306.703 51.2154 306.542 51.3406C306.382 51.4661 306.221 51.5755 306.061 51.668L306.089 51.6845C306.25 51.5919 306.441 51.5001 306.663 51.4102C306.885 51.3203 307.104 51.2506 307.322 51.2014L313.812 49.5802L315.299 50.4386L303.962 53.2385C303.423 53.3862 302.922 53.4732 302.46 53.5006C301.997 53.5281 301.577 53.5199 301.198 53.4762C300.821 53.4328 300.487 53.3603 300.2 53.2596C299.912 53.1585 299.669 53.0511 299.471 52.9365L298.21 52.2088L299.329 51.5625L300.052 51.9795C300.137 52.0286 300.269 52.0884 300.449 52.1592C300.628 52.2299 300.836 52.2898 301.072 52.3392C301.308 52.3878 301.563 52.4181 301.837 52.4289C302.112 52.4397 302.381 52.4067 302.645 52.3302L304.147 51.8883L308.246 46.3662L308.246 46.367Z" fill="white"/>
</g>
</g>
<defs>
<linearGradient id="paint0_linear_1654_971" x1="428.252" y1="96.1917" x2="245.033" y2="338.316" gradientUnits="userSpaceOnUse">
<stop/>
<stop offset="1" stop-color="#212121"/>
</linearGradient>
<linearGradient id="paint1_linear_1654_971" x1="28.8989" y1="124.038" x2="135.188" y2="308.151" gradientUnits="userSpaceOnUse">
<stop stop-color="#FEF9CC"/>
<stop offset="0.4" stop-color="#F6DBD4"/>
<stop offset="0.75" stop-color="#F1C8D9"/>
<stop offset="1" stop-color="#F0C2DB"/>
</linearGradient>
<linearGradient id="paint2_linear_1654_971" x1="252.925" y1="18.9627" x2="263.873" y2="37.9264" gradientUnits="userSpaceOnUse">
<stop stop-color="#FEF9CC"/>
<stop offset="0.4" stop-color="#F6DBD4"/>
<stop offset="0.75" stop-color="#F1C8D9"/>
<stop offset="1" stop-color="#F0C2DB"/>
</linearGradient>
<clipPath id="clip0_1654_971">
<rect width="307.217" height="193.433" fill="white" transform="matrix(-0.866044 0.499967 -0.866044 -0.499967 433.584 96.7104)"/>
</clipPath>
</defs>
</svg>
