<svg width="434" height="251" viewBox="0 0 434 251" fill="none" xmlns="http://www.w3.org/2000/svg">
<g clip-path="url(#clip0_1654_917)">
<path d="M177.316 245.018L423.621 102.826C429.077 99.676 429.087 94.5749 423.643 91.4322L275.967 6.17848C270.523 3.0357 261.687 3.04168 256.23 6.19156L9.92543 148.383C4.46915 151.533 4.45888 156.634 9.90281 159.777L157.579 245.031C163.023 248.174 171.859 248.168 177.316 245.018Z" fill="url(#paint0_linear_1654_917)"/>
<mask id="mask0_1654_917" style="mask-type:alpha" maskUnits="userSpaceOnUse" x="5" y="3" width="423" height="245">
<path d="M177.318 245.018L423.623 102.826C429.079 99.676 429.089 94.5749 423.645 91.4322L275.969 6.17848C270.525 3.0357 261.689 3.04168 256.232 6.19156L9.92739 148.383C4.47111 151.533 4.46083 156.634 9.90476 159.777L157.581 245.031C163.025 248.174 171.861 248.168 177.318 245.018Z" fill="#232323"/>
</mask>
<g mask="url(#mask0_1654_917)">
<path opacity="0.5" d="M268.015 42.479C274.784 46.3866 285.797 46.3637 292.614 42.428C299.432 38.4924 299.471 32.1344 292.703 28.2268C285.934 24.3194 274.921 24.3423 268.103 28.2779C261.286 32.2136 261.246 38.5716 268.015 42.479Z" fill="#717171"/>
<path d="M253.107 33.8722C259.875 37.7796 270.889 37.7569 277.706 33.8212C284.524 29.8856 284.563 23.5275 277.795 19.62C271.026 15.7126 260.013 15.7354 253.195 19.671C246.378 23.6067 246.339 29.9648 253.107 33.8722Z" fill="#717171"/>
<path d="M170.029 118.163C127.867 93.8228 59.4481 93.7131 17.5104 117.924L51.0898 137.309C74.6099 123.731 112.979 123.794 136.623 137.443C160.267 151.093 160.371 173.246 136.855 186.822L170.435 206.207C212.377 181.999 212.191 142.503 170.029 118.163ZM77.597 240.422C35.4351 216.082 35.2451 176.583 77.1829 152.373L110.762 171.758C87.2423 185.336 87.3507 207.487 110.995 221.136C134.643 234.789 173.012 234.846 196.528 221.271L230.116 240.661C188.182 264.869 119.763 264.764 77.597 240.422Z" fill="url(#paint1_linear_1654_917)"/>
<path d="M363.3 74.2938C367.642 76.8008 367.738 80.8253 363.511 83.2652L360.053 81.2686C362.423 79.9002 362.369 77.6432 359.934 76.2373C357.499 74.8314 353.589 74.8007 351.219 76.1688L347.76 74.1721C351.986 71.732 358.957 71.7868 363.3 74.2938ZM341.825 79.5948C346.167 82.1019 353.139 82.1569 357.365 79.717L353.906 77.7203C351.536 79.0887 347.626 79.0577 345.191 77.6518C342.755 76.2457 342.703 73.9887 345.072 72.6206L341.613 70.6234C337.387 73.063 337.481 77.0876 341.825 79.5948Z" fill="url(#paint2_linear_1654_917)"/>
<path d="M374.754 87.4646C375.009 87.0881 375.116 86.7159 375.073 86.3477C375.031 85.9796 374.856 85.6197 374.55 85.2681C374.242 84.9165 373.83 84.5908 373.31 84.2909C372.791 83.9911 372.222 83.7474 371.604 83.5592C370.985 83.3713 370.347 83.2625 369.691 83.2327C369.034 83.2029 368.376 83.2588 367.714 83.4005C367.053 83.5426 366.415 83.7911 365.801 84.1455C365.187 84.4999 364.757 84.8682 364.511 85.2499C364.265 85.6319 364.168 86.0121 364.22 86.3911C364.272 86.7701 364.46 87.1381 364.786 87.4954C365.111 87.8526 365.533 88.1809 366.052 88.4808C366.468 88.7207 366.912 88.9247 367.385 89.0939C367.857 89.2627 368.346 89.3865 368.851 89.4654C369.356 89.5447 369.88 89.5663 370.424 89.5302C370.967 89.4953 371.517 89.3926 372.074 89.2235L370.969 88.3894C370.243 88.5805 369.574 88.6148 368.965 88.4925C368.356 88.3694 367.772 88.1531 367.215 87.8423C366.554 87.4717 366.177 87.0576 366.082 86.5992C365.989 86.1412 366.244 85.6779 366.849 85.2089C366.851 85.2077 366.853 85.2066 366.855 85.2055L366.857 85.207C366.857 85.207 366.852 85.2085 366.849 85.2092L373.024 88.7739C373.138 88.73 373.211 88.6989 373.245 88.6795L373.45 88.5611C374.064 88.2066 374.499 87.841 374.755 87.4649L374.754 87.4646ZM368.02 84.6255C368.114 84.5948 368.206 84.5666 368.302 84.5415C368.807 84.4077 369.298 84.3394 369.775 84.3371C370.253 84.334 370.705 84.3886 371.135 84.5001C371.565 84.6119 371.936 84.7579 372.247 84.9376C372.89 85.3191 373.262 85.7279 373.366 86.1642C373.458 86.5507 373.264 86.9545 372.784 87.3755L368.02 84.6255Z" fill="white"/>
<path d="M376.949 86.4905L378.72 87.5125L378.25 89.811C378.231 89.8765 378.191 89.9402 378.13 90.0031C378.068 90.0657 377.996 90.1219 377.911 90.171L377.939 90.1874C378.128 90.0784 378.341 90.0154 378.577 89.9989L382.544 89.7197L384.3 90.7335L378.037 91.1768L377.213 94.8251L375.471 93.8196L375.982 91.4803C376.001 91.4148 376.043 91.3492 376.11 91.284C376.176 91.2189 376.247 91.1638 376.322 91.1203L376.293 91.1039C376.217 91.1477 376.121 91.187 376.003 91.2223C375.884 91.2579 375.768 91.2811 375.656 91.2916L371.618 91.5952L369.862 90.5814L376.195 90.1137L376.949 86.4897L376.949 86.4905Z" fill="white"/>
<path d="M383.45 91.6834L384.754 90.9307L385.023 91.0861C385.183 91.1785 385.417 91.2373 385.724 91.2615C386.031 91.2858 386.359 91.279 386.709 91.2411C387.058 91.2028 387.407 91.1372 387.757 91.0446C388.106 90.9517 388.404 90.8344 388.65 90.6924L390.066 91.4935C389.65 91.7119 389.181 91.8738 388.656 91.9803C388.132 92.0868 387.596 92.1075 387.048 92.0417C386.85 92.0148 386.647 91.9598 386.439 91.8782C386.231 91.7962 386.043 91.7229 385.872 91.6574L385.844 91.6739C386.014 91.739 386.195 91.8168 386.389 91.9071C386.582 91.9969 386.75 92.0826 386.892 92.1646L389.399 93.6119L388.095 94.3646L386.297 93.3261L382.526 95.5029C382.214 95.6831 382.084 95.8449 382.136 95.9894C382.188 96.134 382.322 96.2688 382.54 96.3942L383.899 97.1792L382.596 97.9319L381.306 97.1877C380.843 96.9204 380.511 96.6767 380.309 96.4558C380.106 96.2352 380.018 96.0236 380.047 95.8221C380.075 95.6203 380.207 95.4158 380.444 95.2086C380.681 95.0011 381.002 94.7804 381.408 94.5459L384.909 92.5246L383.45 91.6823L383.45 91.6834Z" fill="white"/>
<path d="M386.408 97.4988C385.992 97.8153 385.871 98.1299 386.046 98.4437C386.22 98.7572 386.624 99.0967 387.256 99.4617C387.936 99.8541 388.55 100.094 389.098 100.181C389.646 100.268 390.151 100.178 390.615 99.9107C390.841 99.78 390.867 99.6092 390.693 99.3991C390.518 99.1895 390.258 98.9551 389.914 98.6956C389.569 98.4365 389.187 98.1561 388.767 97.8536C388.347 97.5511 388 97.2497 387.727 96.9502C387.452 96.6503 387.304 96.3518 387.281 96.0545C387.258 95.7571 387.463 95.4829 387.898 95.2319C388.238 95.0356 388.592 94.9044 388.961 94.8391C389.329 94.7739 389.693 94.7517 390.052 94.7737C390.411 94.7957 390.765 94.8496 391.114 94.9368C391.464 95.0239 391.785 95.1246 392.078 95.2391C392.371 95.3533 392.638 95.4723 392.878 95.5948C393.119 95.7172 393.31 95.8194 393.452 95.9013C393.726 96.0593 394.014 96.2555 394.316 96.4899C394.618 96.7242 394.861 96.9762 395.045 97.2466C395.229 97.5162 395.319 97.7918 395.314 98.0723C395.309 98.3532 395.136 98.6248 394.796 98.8862L393.351 98.2649C393.673 97.9918 393.739 97.7221 393.55 97.4552C393.362 97.1882 392.956 96.8744 392.333 96.5147C391.71 96.1549 391.127 95.9112 390.64 95.8155C390.154 95.7205 389.688 95.8007 389.244 96.057C389.017 96.1877 388.989 96.36 389.158 96.5723C389.328 96.785 389.583 97.022 389.923 97.2837C390.263 97.5454 390.645 97.8262 391.07 98.1257C391.495 98.4256 391.844 98.7255 392.118 99.0251C392.392 99.325 392.545 99.6208 392.578 99.9125C392.61 100.204 392.409 100.475 391.974 100.726C391.436 101.037 390.869 101.204 390.274 101.226C389.678 101.248 389.112 101.194 388.574 101.063C388.035 100.932 387.551 100.767 387.121 100.568C386.691 100.37 386.364 100.205 386.137 100.074C386.005 99.9972 385.84 99.8909 385.642 99.7546C385.443 99.6183 385.247 99.4641 385.054 99.2926C384.86 99.1207 384.686 98.9354 384.53 98.7362C384.374 98.5374 384.27 98.3299 384.219 98.1146C384.167 97.8993 384.184 97.685 384.27 97.4723C384.355 97.2599 384.539 97.0554 384.823 96.8587L386.409 97.4965L386.408 97.4988Z" fill="white"/>
<path d="M396.936 98.0286L398.422 98.887L395.601 102.626C395.515 102.751 395.393 102.877 395.232 103.002C395.071 103.128 394.91 103.237 394.75 103.33L394.779 103.346C394.939 103.253 395.13 103.162 395.352 103.072C395.574 102.982 395.794 102.912 396.011 102.863L402.501 101.242L403.988 102.1L392.651 104.9C392.113 105.048 391.612 105.135 391.149 105.162C390.687 105.19 390.266 105.181 389.888 105.138C389.511 105.094 389.177 105.022 388.89 104.921C388.602 104.82 388.359 104.713 388.16 104.598L386.9 103.87L388.019 103.224L388.741 103.641C388.826 103.69 388.959 103.75 389.138 103.821C389.318 103.891 389.526 103.951 389.762 104.001C389.998 104.049 390.253 104.08 390.527 104.09C390.801 104.101 391.07 104.068 391.335 103.992L392.837 103.55L396.936 98.0278L396.936 98.0286Z" fill="white"/>
<path d="M218.321 48.4306L220.844 49.887L210.519 55.8475C209.11 56.6609 207.554 57.0545 205.851 57.0284C204.154 57.0064 202.591 56.583 201.163 55.7585C199.641 54.8801 198.854 53.9782 198.802 53.053C198.75 52.1276 199.415 51.266 200.797 50.4681L203.32 51.9245C202.537 52.376 202.138 52.8263 202.12 53.2756C202.116 53.7248 202.478 54.1594 203.206 54.5794C203.886 54.9723 204.653 55.154 205.505 55.1244C206.37 55.0948 207.204 54.8483 208.007 54.3852L218.321 48.4306ZM213.905 56.4475C214.977 55.8286 216.151 55.3935 217.427 55.1418C218.711 54.8864 219.962 54.846 221.181 55.0206C222.407 55.1912 223.514 55.5616 224.502 56.132C225.964 56.9757 226.673 57.9339 226.63 59.0066C226.594 60.0832 225.827 61.0962 224.33 62.0454L223.763 62.3839C222.684 63.0066 221.514 63.4438 220.25 63.6953C218.994 63.9506 217.749 63.9912 216.517 63.8164C215.291 63.6458 214.177 63.2715 213.176 62.6937C211.648 61.8114 210.935 60.8085 211.039 59.6852C211.156 58.5621 212.071 57.5061 213.783 56.5175L213.905 56.4475ZM216.125 57.9745C214.999 58.6244 214.346 59.2669 214.166 59.9026C213.993 60.5344 214.317 61.0872 215.138 61.5612C215.959 62.035 216.92 62.2161 218.02 62.1044C219.128 61.9966 220.306 61.5828 221.553 60.8628C222.659 60.2244 223.298 59.5818 223.471 58.9345C223.651 58.2912 223.338 57.7364 222.53 57.2704C221.736 56.8117 220.785 56.6326 219.677 56.7327C218.577 56.8288 217.392 57.2428 216.125 57.9745ZM232.607 62.4219C234.331 62.3433 235.801 62.6547 237.015 63.3559C239.325 64.6889 239.164 66.1339 236.535 67.6905L229.385 71.8179L226.953 70.4135L234.011 66.3386C234.766 65.9027 235.135 65.5008 235.119 65.1331C235.115 64.7652 234.8 64.4002 234.172 64.038C233.198 63.4755 232.032 63.3085 230.675 63.537L222.858 68.0497L220.426 66.6455L235.959 57.6784L238.391 59.0826L232.607 62.4219ZM245.052 68.229L243.858 68.9991C245.637 68.8972 247.176 69.2218 248.478 69.9731C250.734 71.2754 250.577 72.6911 248.008 74.2204L240.777 78.3946L238.345 76.9902L245.434 72.8977C246.128 72.4969 246.49 72.1145 246.52 71.7504C246.564 71.3863 246.249 71.0096 245.574 70.6205C244.594 70.0542 243.414 69.8911 242.037 70.1313L234.251 74.6266L231.818 73.2222L242.76 66.9055L245.052 68.229ZM260.016 85.1227C260.663 84.7491 260.935 84.3299 260.832 83.8656C260.736 83.4051 260.279 82.7327 259.461 81.8483C258.644 80.9641 258.107 80.1949 257.852 79.5414C257.366 78.2881 257.801 77.2704 259.156 76.4881C260.343 75.8031 261.797 75.5142 263.521 75.6216C265.25 75.7326 266.879 76.2294 268.407 77.1115C269.422 77.6973 270.137 78.3283 270.554 79.0048C270.971 79.6812 271.055 80.3527 270.808 81.0194C270.567 81.6824 270.022 82.2591 269.173 82.7494L266.65 81.293C267.419 80.8493 267.779 80.3643 267.729 79.8377C267.694 79.3111 267.232 78.7917 266.344 78.2792C265.517 77.8016 264.694 77.5328 263.877 77.4734C263.065 77.4176 262.339 77.5745 261.699 77.9443C261.16 78.2556 260.955 78.659 261.085 79.1544C261.221 79.6456 261.685 80.3181 262.476 81.1716C263.273 82.0212 263.797 82.7709 264.046 83.4206C264.302 84.0666 264.307 84.6456 264.061 85.1573C263.821 85.6654 263.324 86.1372 262.569 86.5732C261.342 87.2816 259.898 87.576 258.235 87.4572C256.586 87.3381 254.964 86.818 253.369 85.8971C252.315 85.2885 251.539 84.6148 251.043 83.8769C250.559 83.1386 250.418 82.4266 250.619 81.7405C250.826 81.0585 251.391 80.4506 252.315 79.9175L254.847 81.3796C254.011 81.8623 253.638 82.3938 253.727 82.9745C253.816 83.5551 254.37 84.1401 255.391 84.7296C256.273 85.2383 257.112 85.5164 257.91 85.5645C258.721 85.6126 259.423 85.4651 260.016 85.1227ZM273.973 84.9251L272.9 85.6252C274.558 85.5469 276.048 85.8892 277.369 86.652C278.817 87.4881 279.249 88.3832 278.663 89.3374C280.57 89.146 282.237 89.4625 283.666 90.287C284.86 90.9767 285.414 91.6818 285.327 92.4023C285.247 93.1266 284.563 93.8683 283.275 94.627L276.085 98.7778L273.653 97.3736L280.772 93.2637C281.467 92.8628 281.825 92.4822 281.849 92.1219C281.872 91.7619 281.536 91.3814 280.842 90.9806C280.289 90.661 279.683 90.4864 279.026 90.4574C278.382 90.4283 277.747 90.5133 277.122 90.7127L269.629 95.0504L267.196 93.6459L274.396 89.4893C275.65 88.7266 275.644 87.9794 274.375 87.2473C273.401 86.6848 272.309 86.5176 271.1 86.7457L263.172 91.3227L260.739 89.9183L271.681 83.6016L273.973 84.9251ZM281.171 101.714L278.738 100.309L289.68 93.9926L292.113 95.3971L281.171 101.714ZM292.372 92.2656C292.749 92.0477 293.179 91.9341 293.662 91.925C294.152 91.9196 294.617 92.0442 295.057 92.2983C295.498 92.5526 295.714 92.8212 295.704 93.1038C295.696 93.3866 295.502 93.6369 295.125 93.8549C294.754 94.069 294.324 94.1787 293.834 94.1839C293.351 94.1853 292.889 94.0588 292.448 93.8045C292.008 93.5503 291.789 93.2837 291.792 93.005C291.808 92.7261 292.001 92.4797 292.372 92.2656ZM300.478 97.1559L297.819 98.6912L299.731 99.7951L297.911 100.846L295.999 99.7421L289.891 103.268C289.473 103.509 289.249 103.731 289.221 103.932C289.206 104.134 289.408 104.356 289.829 104.598C290.109 104.76 290.427 104.904 290.781 105.031L288.88 106.129C288.171 105.899 287.559 105.635 287.045 105.338C285.177 104.26 285.284 103.119 287.367 101.916L293.566 98.3377L291.784 97.309L293.604 96.2581L295.386 97.2868L298.046 95.7515L300.478 97.1559ZM302.802 102.946C304.527 102.867 305.996 103.179 307.211 103.88C309.52 105.213 309.36 106.658 306.73 108.214L299.581 112.342L297.148 110.937L304.207 106.862C304.962 106.426 305.331 106.025 305.314 105.657C305.311 105.289 304.995 104.924 304.368 104.562C303.393 103.999 302.228 103.832 300.871 104.061L293.054 108.574L290.621 107.169L306.154 98.2022L308.587 99.6066L302.802 102.946Z" fill="white"/>
<path d="M156.673 81.881L157.831 82.5492L156.575 83.2743L155.417 82.6061L153.331 83.8108L151.777 82.9138L153.864 81.7091L149.841 79.387L150.75 78.8108L161.104 77.4703L162.709 78.3969L156.673 81.881ZM152.683 79.5775L155.12 80.9839L159.036 78.7232L158.714 78.7758L152.683 79.5775ZM170.222 83.7386L157.992 86.502L156.362 85.5607L168.199 83.0167L163.384 80.237L164.64 79.5119L171.092 83.2366L170.222 83.7386ZM168.027 86.9258L173.26 84.488L178.26 87.3749L176.908 88.1558L173.199 86.0147L170.701 87.1609C171.381 87.2657 171.992 87.4745 172.533 87.787C173.42 88.2989 173.823 88.8613 173.742 89.4738C173.665 90.089 173.144 90.6754 172.178 91.2332C171.224 91.7836 170.192 92.0648 169.079 92.077C167.971 92.0867 166.942 91.8172 165.991 91.2683C165.138 90.7762 164.673 90.2275 164.596 89.6226C164.527 89.0177 164.868 88.471 165.62 87.9829L167.123 88.8504C166.727 89.1476 166.539 89.4433 166.559 89.7372C166.583 90.0285 166.808 90.2972 167.234 90.5434C167.712 90.8191 168.254 90.934 168.862 90.8883C169.474 90.845 170.076 90.6524 170.669 90.3102C171.24 89.9806 171.544 89.6353 171.58 89.2747C171.621 88.9114 171.384 88.5809 170.868 88.2832C170.586 88.1207 170.309 88.0053 170.036 87.9367C169.767 87.8656 169.407 87.8269 168.958 87.8204L168.027 86.9258ZM184.662 91.0183L183.367 91.7658L183.175 91.6551C182.293 91.1604 181.357 90.8982 180.369 90.868C179.381 90.8379 178.408 91.0425 177.452 91.4817C178.478 91.4647 179.38 91.6802 180.156 92.1282C180.979 92.6031 181.335 93.1458 181.224 93.756C181.117 94.3688 180.603 94.9417 179.679 95.4746C178.726 96.025 177.674 96.3099 176.523 96.3296C175.381 96.3493 174.357 96.0983 173.454 95.5765C172.524 95.04 172.115 94.4048 172.227 93.671C172.343 92.9396 172.961 92.2506 174.082 91.6036L174.616 91.2949C176.261 90.3456 177.945 89.8307 179.67 89.7506C181.399 89.6728 183.01 90.0646 184.502 90.9261L184.662 91.0183ZM178.516 92.6391C178.175 92.4422 177.765 92.3171 177.286 92.2637C176.812 92.2128 176.347 92.2423 175.893 92.3518L175.416 92.627C174.721 93.0286 174.312 93.4321 174.189 93.8374C174.071 94.2402 174.243 94.5745 174.703 94.8403C175.164 95.1061 175.702 95.2162 176.318 95.1703C176.935 95.1246 177.526 94.9382 178.093 94.6109C178.66 94.2838 178.985 93.9385 179.069 93.5753C179.152 93.212 178.968 92.8999 178.516 92.6391Z" fill="white"/>
<path d="M261.692 141.839C260.618 141.858 259.733 141.668 259.038 141.267C258.22 140.794 257.855 140.252 257.944 139.639C258.038 139.023 258.555 138.445 259.496 137.902C260.114 137.545 260.798 137.293 261.548 137.145C262.297 136.998 263.04 136.975 263.775 137.078C264.51 137.18 265.178 137.404 265.779 137.751C266.717 138.293 267.109 138.926 266.955 139.65C266.801 140.374 266.133 141.077 264.952 141.758L264.514 142.011C262.823 142.988 261.153 143.513 259.505 143.589C257.858 143.664 256.275 143.27 254.757 142.409L254.572 142.302L255.866 141.555L256.09 141.684C257.019 142.206 257.944 142.484 258.864 142.519C259.787 142.552 260.73 142.325 261.692 141.839ZM260.588 140.748C260.899 140.928 261.281 141.045 261.735 141.098C262.188 141.151 262.648 141.129 263.115 141.032L263.727 140.679C264.418 140.28 264.833 139.878 264.973 139.472C265.112 139.067 264.958 138.735 264.511 138.476C264.063 138.218 263.518 138.119 262.876 138.18C262.242 138.24 261.642 138.434 261.075 138.761C260.487 139.101 260.147 139.453 260.055 139.816C259.963 140.179 260.14 140.49 260.588 140.748ZM270.823 147.081C269.475 147.859 268.206 148.302 267.016 148.408C265.834 148.514 264.732 148.272 263.709 147.681C262.703 147.1 262.277 146.47 262.431 145.791C262.593 145.111 263.323 144.389 264.62 143.626L266.243 142.689C267.591 141.911 268.852 141.471 270.025 141.37C271.202 141.271 272.304 141.518 273.332 142.111C274.35 142.699 274.781 143.327 274.623 143.994C274.468 144.664 273.743 145.381 272.446 146.144L270.823 147.081ZM271.021 145.173C271.901 144.664 272.426 144.224 272.595 143.85C272.769 143.475 272.595 143.137 272.076 142.836C271.568 142.544 271 142.441 270.37 142.529C269.745 142.614 269.014 142.891 268.177 143.359L266.051 144.587C265.175 145.092 264.644 145.539 264.458 145.927C264.271 146.315 264.438 146.66 264.958 146.96C265.457 147.248 266.023 147.347 266.657 147.256C267.295 147.164 268.044 146.877 268.902 146.396L271.021 145.173ZM272.457 152.583L270.91 151.69L278.439 147.343L275.371 146.479L276.691 145.717L281.669 147.036L281.868 147.151L272.457 152.583ZM288.462 153.85C288.002 154.116 287.475 154.284 286.88 154.357C286.289 154.428 285.688 154.405 285.077 154.291C285.335 154.703 285.397 155.098 285.262 155.476C285.131 155.857 284.817 156.191 284.319 156.478C283.494 156.954 282.562 157.172 281.523 157.132C280.488 157.09 279.51 156.803 278.589 156.272C277.664 155.737 277.165 155.169 277.092 154.567C277.022 153.967 277.398 153.43 278.218 152.956C278.721 152.666 279.304 152.482 279.967 152.405C280.631 152.326 281.309 152.363 282.001 152.515C281.806 152.165 281.77 151.819 281.892 151.478C282.022 151.137 282.317 150.834 282.777 150.568C283.575 150.107 284.465 149.889 285.444 149.915C286.424 149.94 287.348 150.203 288.218 150.705C289.092 151.21 289.551 151.745 289.594 152.31C289.638 152.876 289.26 153.389 288.462 153.85ZM282.842 155.537C283.306 155.269 283.541 154.973 283.547 154.65C283.562 154.326 283.344 154.034 282.891 153.773C282.44 153.512 281.936 153.385 281.379 153.391C280.828 153.399 280.318 153.539 279.849 153.809C279.39 154.074 279.155 154.362 279.145 154.674C279.138 154.987 279.37 155.28 279.838 155.55C280.308 155.821 280.805 155.954 281.331 155.951C281.862 155.95 282.366 155.812 282.842 155.537ZM286.856 152.99C287.264 152.755 287.482 152.494 287.509 152.207C287.541 151.918 287.358 151.659 286.962 151.43C286.566 151.202 286.126 151.094 285.642 151.107C285.163 151.118 284.707 151.249 284.273 151.499C283.843 151.747 283.617 152.01 283.594 152.29C283.575 152.571 283.764 152.826 284.16 153.055C284.557 153.284 284.997 153.392 285.48 153.379C285.968 153.368 286.427 153.238 286.856 152.99Z" fill="white"/>
<path d="M194.826 103.669C195.234 103.433 195.694 103.315 196.208 103.314C196.73 103.313 197.204 103.435 197.63 103.682C198.069 103.935 198.286 104.211 198.28 104.51C198.278 104.807 198.066 105.076 197.645 105.319L197.407 105.457C197.004 105.69 196.545 105.807 196.032 105.808C195.527 105.809 195.055 105.683 194.616 105.429C194.194 105.186 193.975 104.918 193.96 104.627C193.953 104.335 194.145 104.072 194.536 103.836L194.826 103.669ZM199.404 106.312C199.812 106.077 200.273 105.958 200.786 105.957C201.308 105.956 201.782 106.079 202.209 106.325C202.648 106.578 202.864 106.854 202.858 107.153C202.856 107.45 202.645 107.719 202.224 107.962L201.986 108.1C201.582 108.333 201.124 108.45 200.61 108.451C200.105 108.452 199.633 108.326 199.194 108.072C198.772 107.829 198.554 107.561 198.538 107.27C198.531 106.978 198.723 106.715 199.114 106.479L199.404 106.312ZM203.983 108.955C204.391 108.72 204.851 108.602 205.365 108.6C205.887 108.599 206.361 108.722 206.787 108.968C207.226 109.222 207.443 109.498 207.437 109.797C207.435 110.093 207.223 110.363 206.802 110.606L206.564 110.743C206.161 110.976 205.702 111.093 205.189 111.094C204.684 111.095 204.212 110.969 203.773 110.716C203.351 110.472 203.132 110.204 203.117 109.913C203.11 109.622 203.302 109.358 203.693 109.123L203.983 108.955ZM208.561 111.598C208.969 111.363 209.43 111.245 209.943 111.244C210.465 111.243 210.939 111.365 211.366 111.611C211.805 111.865 212.021 112.141 212.015 112.44C212.013 112.736 211.802 113.006 211.381 113.249L211.143 113.386C210.739 113.619 210.281 113.736 209.767 113.737C209.262 113.739 208.79 113.612 208.351 113.359C207.929 113.115 207.711 112.847 207.695 112.556C207.688 112.265 207.88 112.001 208.271 111.766L208.561 111.598Z" fill="white"/>
<path d="M226.869 121.862C227.277 121.627 227.737 121.508 228.25 121.507C228.772 121.506 229.246 121.629 229.673 121.875C230.112 122.128 230.329 122.404 230.322 122.703C230.32 123 230.109 123.269 229.688 123.512L229.45 123.65C229.046 123.883 228.588 124 228.074 124.001C227.57 124.002 227.098 123.876 226.658 123.622C226.236 123.379 226.018 123.111 226.003 122.82C225.996 122.528 226.188 122.265 226.579 122.03L226.869 121.862ZM231.447 124.505C231.855 124.27 232.315 124.152 232.829 124.151C233.351 124.149 233.825 124.272 234.251 124.518C234.691 124.772 234.907 125.048 234.901 125.347C234.899 125.643 234.687 125.913 234.267 126.156L234.028 126.293C233.625 126.526 233.166 126.643 232.653 126.644C232.148 126.645 231.676 126.519 231.237 126.266C230.815 126.022 230.596 125.754 230.581 125.463C230.574 125.172 230.766 124.908 231.157 124.673L231.447 124.505ZM236.026 127.148C236.433 126.913 236.894 126.795 237.408 126.794C237.93 126.793 238.404 126.915 238.83 127.161C239.269 127.415 239.486 127.691 239.479 127.99C239.477 128.286 239.266 128.556 238.845 128.799L238.607 128.936C238.203 129.169 237.745 129.286 237.231 129.288C236.727 129.289 236.255 129.162 235.816 128.909C235.394 128.665 235.175 128.398 235.16 128.106C235.153 127.815 235.345 127.551 235.736 127.316L236.026 127.148ZM240.604 129.792C241.012 129.556 241.473 129.438 241.986 129.437C242.508 129.436 242.982 129.558 243.409 129.804C243.848 130.058 244.064 130.334 244.058 130.633C244.056 130.929 243.845 131.199 243.424 131.442L243.186 131.58C242.782 131.813 242.324 131.93 241.81 131.931C241.305 131.932 240.833 131.806 240.394 131.552C239.972 131.308 239.754 131.041 239.738 130.749C239.731 130.458 239.923 130.195 240.314 129.959L240.604 129.792Z" fill="white"/>
<path d="M259.939 113.362L252.084 117.897L250.598 117.039L250.834 116.903C250.065 116.744 249.491 116.555 249.111 116.336C248.299 115.867 247.969 115.404 248.12 114.947C248.271 114.49 248.855 113.968 249.872 113.381C250.897 112.789 251.832 112.469 252.675 112.421C253.534 112.372 254.351 112.572 255.125 113.019C255.364 113.157 255.658 113.369 256.007 113.658L256.175 113.806L258.441 112.498L259.939 113.362ZM251.777 116.165L251.967 116.235L254.918 114.532C254.583 114.252 254.256 114.02 253.935 113.835C253.332 113.487 252.492 113.623 251.414 114.245C250.831 114.582 250.483 114.86 250.37 115.08C250.257 115.3 250.354 115.498 250.659 115.675C250.972 115.855 251.344 116.019 251.777 116.165Z" fill="white"/>
<path d="M243.177 112.756L248.787 109.517L250.273 110.375L249.679 110.718C250.678 110.863 251.517 111.067 252.196 111.329L250.681 112.203C249.95 111.929 249.302 111.705 248.735 111.534L248.433 111.45L244.674 113.62L243.177 112.756Z" fill="white"/>
<path d="M245.611 109.703L243.277 111.051C243.112 111.163 243.015 111.254 242.984 111.323C242.962 111.387 243.006 111.469 243.118 111.568L241.94 112.196C241.56 111.977 241.281 111.786 241.102 111.622C240.931 111.463 240.809 111.271 240.735 111.047C239.937 110.889 239.258 110.648 238.7 110.326C237.545 109.659 237.581 108.972 238.808 108.264C239.407 107.918 239.989 107.767 240.557 107.809C241.131 107.847 241.772 108.045 242.48 108.401L243.766 109.04L244.113 108.839C244.345 108.705 244.45 108.584 244.428 108.477C244.414 108.365 244.291 108.242 244.06 108.109L241.87 106.948L242.869 106.319C243.883 106.654 244.747 107.028 245.462 107.441C246.185 107.858 246.553 108.243 246.566 108.597C246.588 108.954 246.269 109.323 245.611 109.703ZM241.615 109.107C241.161 108.888 240.728 108.897 240.316 109.134C239.905 109.372 239.882 109.596 240.247 109.807C240.53 109.97 240.884 110.123 241.309 110.264L241.521 110.335L242.722 109.642L241.615 109.107Z" fill="white"/>
<path d="M236.476 108.745C235.514 108.389 234.717 108.028 234.084 107.662C233.45 107.297 233.022 106.959 232.8 106.649C232.577 106.339 232.53 106.022 232.658 105.699C232.786 105.375 233.041 105.056 233.423 104.741C233.804 104.426 234.347 104.066 235.05 103.66C236.524 102.809 237.754 102.335 238.739 102.239C239.74 102.143 240.795 102.416 241.905 103.056C242.546 103.426 243.186 103.912 243.826 104.515L242.547 105.202C241.921 104.711 241.363 104.324 240.871 104.04C240.387 103.761 239.973 103.6 239.63 103.557C239.294 103.51 238.891 103.562 238.42 103.714C237.957 103.869 237.284 104.202 236.401 104.712C235.518 105.221 235.006 105.633 234.863 105.948C234.735 106.263 234.976 106.597 235.587 106.949C236.205 107.306 236.913 107.654 237.71 107.994L236.476 108.745Z" fill="white"/>
<path d="M226.005 102.842L233.859 98.3071L235.357 99.1715L227.502 103.706L226.005 102.842Z" fill="white"/>
<path d="M228.37 99.7502L226.036 101.098C225.872 101.21 225.774 101.3 225.744 101.369C225.722 101.434 225.766 101.516 225.878 101.615L224.7 102.243C224.32 102.024 224.041 101.833 223.862 101.669C223.691 101.51 223.568 101.318 223.495 101.094C222.697 100.936 222.018 100.695 221.459 100.373C220.305 99.7062 220.341 99.0188 221.568 98.3106C222.166 97.9651 222.749 97.8135 223.316 97.8559C223.891 97.894 224.532 98.0915 225.24 98.4483L226.525 99.0866L226.873 98.8858C227.105 98.7519 227.21 98.6311 227.188 98.5234C227.173 98.4114 227.051 98.2887 226.82 98.1554L224.63 96.9946L225.628 96.3663C226.642 96.7012 227.507 97.0751 228.222 97.4879C228.945 97.905 229.313 98.2903 229.326 98.6436C229.347 99.0013 229.029 99.3701 228.37 99.7502ZM224.375 99.1539C223.921 98.9347 223.488 98.9438 223.076 99.1814C222.665 99.4189 222.642 99.643 223.007 99.8537C223.29 100.017 223.644 100.17 224.069 100.311L224.281 100.382L225.482 99.6891L224.375 99.1539Z" fill="white"/>
<path d="M222.961 94.6065L224.459 95.4708L218.848 98.7098L217.362 97.8519L217.676 97.6705C216.841 97.5337 216.225 97.3513 215.831 97.1234C215.056 96.6761 214.748 96.252 214.906 95.8511C215.072 95.4458 215.66 94.9516 216.669 94.3686L219.609 92.6714L221.107 93.5357L218.144 95.2459C217.591 95.5655 217.258 95.8094 217.145 95.9776C217.032 96.1458 217.147 96.3288 217.49 96.5266C217.818 96.7158 218.179 96.864 218.575 96.9713L218.765 97.0292L222.961 94.6065Z" fill="white"/>
<path d="M217.413 92.8799L216.038 92.0865L213.738 93.4144C213.513 93.544 213.356 93.639 213.267 93.6994C213.192 93.7599 213.154 93.8289 213.154 93.9064C213.161 93.9883 213.239 94.0722 213.388 94.1583L214.26 94.6355L213.126 95.3674C212.515 95.144 212.079 94.9571 211.818 94.8066C211.148 94.4196 210.839 94.0687 210.893 93.7541C210.953 93.4351 211.392 93.0403 212.207 92.5695L214.541 91.2221L213.882 90.8416L215.161 90.1031L215.82 90.4836L217.38 89.5832L218.877 90.4476L217.317 91.348L218.692 92.1414L217.413 92.8799Z" fill="white"/>
<path d="M205.827 91.1937L211.438 87.9547L212.924 88.8126L212.329 89.1559C213.329 89.3012 214.168 89.5049 214.846 89.7669L213.331 90.6414C212.601 90.3665 211.952 90.1432 211.385 89.9716L211.083 89.8879L207.324 92.058L205.827 91.1937Z" fill="white"/>
<path d="M202.946 89.5302L208.557 86.2912L210.054 87.1555L204.443 90.3945L202.946 89.5302ZM209.275 85.8766L210.801 84.9956L212.298 85.86L210.772 86.741L209.275 85.8766Z" fill="white"/>
<path d="M208.092 83.6897L209.712 84.625L200.316 88.0109L197.467 86.366L203.332 80.9419L204.952 81.8772L199.987 86.266L200.49 86.5562L208.092 83.6897Z" fill="white"/>
<path d="M193.27 77.4658L194.744 78.3173L191.43 81.4047L191.687 81.5531L197.035 79.6396L198.51 80.491L188.576 83.9551L187.113 83.1101L190.084 82.1045L189.033 81.4982L193.27 77.4658Z" fill="white"/>
<path d="M191.198 77.8893C190.394 77.287 189.805 76.8783 189.433 76.6633C189.068 76.4526 188.796 76.3344 188.617 76.3088C188.445 76.2874 188.285 76.3199 188.135 76.4063C187.993 76.4884 187.963 76.5875 188.044 76.7038C188.141 76.82 188.431 77.0825 188.915 77.4913C189.413 77.9001 189.666 78.2489 189.672 78.5376C189.679 78.8263 189.405 79.1305 188.852 79.45C187.64 80.1496 186.285 80.0673 184.788 79.2029C184.296 78.9191 183.768 78.5362 183.202 78.0543L182.912 77.809L184.213 77.1093C185.017 77.7116 185.598 78.116 185.956 78.3224C186.321 78.5331 186.6 78.6556 186.794 78.6898C187.003 78.724 187.178 78.7001 187.321 78.618C187.463 78.536 187.497 78.4347 187.423 78.3141C187.356 78.1978 187.081 77.9439 186.597 77.5524C186.12 77.1651 185.857 76.8228 185.806 76.5255C185.754 76.2282 186.024 75.909 186.615 75.5678C187.214 75.2224 187.864 75.0793 188.565 75.1388C189.274 75.194 189.945 75.4043 190.578 75.7698C191.018 76.0235 191.546 76.4107 192.164 76.9314L192.465 77.1831L191.198 77.8893Z" fill="white"/>
<path d="M186.336 74.9394L184.962 74.146L182.662 75.474C182.437 75.6036 182.28 75.6986 182.19 75.759C182.116 75.8194 182.078 75.8884 182.078 75.966C182.085 76.0479 182.163 76.1318 182.312 76.2178L183.183 76.6951L182.05 77.4269C181.439 77.2036 181.003 77.0167 180.742 76.8662C180.071 76.4791 179.763 76.1283 179.816 75.8137C179.877 75.4947 180.315 75.0998 181.131 74.6291L183.465 73.2817L182.806 72.9011L184.085 72.1626L184.744 72.5432L186.304 71.6428L187.801 72.5071L186.241 73.4076L187.616 74.201L186.336 74.9394Z" fill="white"/>
<path d="M178.691 69.0498L180.289 69.9722L179.444 71.4923L182.088 71.0107L183.686 71.9331L179.35 72.6043L178.075 75.1721L176.478 74.2497L177.289 72.7361L174.679 73.2112L173.081 72.2888L177.428 71.5465L178.691 69.0498Z" fill="white"/>
<path d="M167.565 69.1037L175.195 64.6987L180.112 67.5369L178.765 68.3142L175.391 66.3662L173.607 67.3962L176.31 68.9572L174.986 69.7216L172.282 68.1606L170.453 69.2165L173.828 71.1645L172.481 71.9419L167.565 69.1037Z" fill="white"/>
</g>
</g>
<defs>
<linearGradient id="paint0_linear_1654_917" x1="428.252" y1="96.6526" x2="245.033" y2="338.777" gradientUnits="userSpaceOnUse">
<stop/>
<stop offset="1" stop-color="#212121"/>
</linearGradient>
<linearGradient id="paint1_linear_1654_917" x1="230.116" y1="240.661" x2="123.827" y2="56.5472" gradientUnits="userSpaceOnUse">
<stop stop-color="#FEF9CC"/>
<stop offset="0.4" stop-color="#F6DBD4"/>
<stop offset="0.75" stop-color="#F1C8D9"/>
<stop offset="1" stop-color="#F0C2DB"/>
</linearGradient>
<linearGradient id="paint2_linear_1654_917" x1="341.613" y1="70.6234" x2="352.561" y2="89.587" gradientUnits="userSpaceOnUse">
<stop stop-color="#FEF9CC"/>
<stop offset="0.4" stop-color="#F6DBD4"/>
<stop offset="0.75" stop-color="#F1C8D9"/>
<stop offset="1" stop-color="#F0C2DB"/>
</linearGradient>
<clipPath id="clip0_1654_917">
<rect width="307.217" height="193.433" fill="white" transform="matrix(-0.866044 0.499967 -0.866044 -0.499967 433.584 97.1714)"/>
</clipPath>
</defs>
</svg>
