<svg width="30" height="30" viewBox="0 0 30 30" fill="none" xmlns="http://www.w3.org/2000/svg">
<path d="M27.4993 13.7125V16.2875C27.4993 16.975 26.9493 17.5375 26.2493 17.5625H23.7993C22.4493 17.5625 21.2118 16.575 21.0993 15.225C21.0243 14.4375 21.3243 13.7 21.8493 13.1875C22.3118 12.7125 22.9493 12.4375 23.6493 12.4375H26.2493C26.9493 12.4625 27.4993 13.025 27.4993 13.7125Z" fill="url(#paint0_linear_1440_5612)"/>
<path d="M25.5875 19.4375H23.8C21.425 19.4375 19.425 17.65 19.225 15.375C19.1125 14.075 19.5875 12.775 20.5375 11.85C21.3375 11.025 22.45 10.5625 23.65 10.5625H25.5875C25.95 10.5625 26.25 10.2625 26.2125 9.9C25.9375 6.8625 23.925 4.7875 20.9375 4.4375C20.6375 4.3875 20.325 4.375 20 4.375H8.75C8.4 4.375 8.0625 4.4 7.7375 4.45C4.55 4.85 2.5 7.225 2.5 10.625V19.375C2.5 22.825 5.3 25.625 8.75 25.625H20C23.5 25.625 25.9125 23.4375 26.2125 20.1C26.25 19.7375 25.95 19.4375 25.5875 19.4375ZM16.25 12.1875H8.75C8.2375 12.1875 7.8125 11.7625 7.8125 11.25C7.8125 10.7375 8.2375 10.3125 8.75 10.3125H16.25C16.7625 10.3125 17.1875 10.7375 17.1875 11.25C17.1875 11.7625 16.7625 12.1875 16.25 12.1875Z" fill="url(#paint1_linear_1440_5612)"/>
<defs>
<linearGradient id="paint0_linear_1440_5612" x1="21.1413" y1="12.5303" x2="27.9432" y2="13.2503" gradientUnits="userSpaceOnUse">
<stop/>
<stop offset="1" stop-color="#212121"/>
</linearGradient>
<linearGradient id="paint1_linear_1440_5612" x1="2.69763" y1="4.75981" x2="27.9147" y2="7.14106" gradientUnits="userSpaceOnUse">
<stop/>
<stop offset="1" stop-color="#212121"/>
</linearGradient>
</defs>
</svg>
